ply
format ascii 1.0
element vertex 800
property float x
property float y
property float z
element face 1520
property list uchar int vertex_indices
end_header
0.00000 1.25000 0.00000
0.07895 1.11842 0.00000
0.15789 0.98684 0.00000
0.23684 0.85526 0.00000
0.31579 0.72368 0.00000
0.39474 0.59211 0.00000
0.47368 0.46053 0.00000
0.55263 0.32895 0.00000
0.63158 0.19737 0.00000
0.71053 0.06579 0.00000
0.78947 -0.06579 0.00000
0.86842 -0.19737 0.00000
0.94737 -0.32895 0.00000
1.02632 -0.46053 0.00000
1.10526 -0.59211 0.00000
1.18421 -0.72368 0.00000
1.26316 -0.85526 0.00000
1.34211 -0.98684 0.00000
1.42105 -1.11842 0.00000
1.50000 -1.25000 0.00000
0.00000 1.25000 0.00000
0.07798 1.11842 0.01235
0.15595 0.98684 0.02470
0.23393 0.85526 0.03705
0.31190 0.72368 0.04940
0.38988 0.59211 0.06175
0.46785 0.46053 0.07410
0.54583 0.32895 0.08645
0.62380 0.19737 0.09880
0.70178 0.06579 0.11115
0.77975 -0.06579 0.12350
0.85773 -0.19737 0.13585
0.93570 -0.32895 0.14820
1.01368 -0.46053 0.16055
1.09166 -0.59211 0.17290
1.16963 -0.72368 0.18525
1.24761 -0.85526 0.19760
1.32558 -0.98684 0.20995
1.40356 -1.11842 0.22230
1.48153 -1.25000 0.23465
0.00000 1.25000 0.00000
0.07508 1.11842 0.02440
0.15017 0.98684 0.04879
0.22525 0.85526 0.07319
0.30033 0.72368 0.09758
0.37542 0.59211 0.12198
0.45050 0.46053 0.14638
0.52558 0.32895 0.17077
0.60067 0.19737 0.19517
0.67575 0.06579 0.21956
0.75083 -0.06579 0.24396
0.82592 -0.19737 0.26836
0.90100 -0.32895 0.29275
0.97608 -0.46053 0.31715
1.05117 -0.59211 0.34155
1.12625 -0.72368 0.36594
1.20133 -0.85526 0.39034
1.27642 -0.98684 0.41473
1.35150 -1.11842 0.43913
1.42658 -1.25000 0.46353
0.00000 1.25000 0.00000
0.07034 1.11842 0.03584
0.14069 0.98684 0.07168
0.21103 0.85526 0.10752
0.28137 0.72368 0.14337
0.35171 0.59211 0.17921
0.42206 0.46053 0.21505
0.49240 0.32895 0.25089
0.56274 0.19737 0.28673
0.63308 0.06579 0.32257
0.70343 -0.06579 0.35841
0.77377 -0.19737 0.39425
0.84411 -0.32895 0.43010
0.91445 -0.46053 0.46594
0.98480 -0.59211 0.50178
1.05514 -0.72368 0.53762
1.12548 -0.85526 0.57346
1.19582 -0.98684 0.60930
1.26617 -1.11842 0.64514
1.33651 -1.25000 0.68099
0.00000 1.25000 0.00000
0.06387 1.11842 0.04640
0.12774 0.98684 0.09281
0.19161 0.85526 0.13921
0.25548 0.72368 0.18562
0.31935 0.59211 0.23202
0.38322 0.46053 0.27842
0.44709 0.32895 0.32483
0.51096 0.19737 0.37123
0.57483 0.06579 0.41764
0.63870 -0.06579 0.46404
0.70257 -0.19737 0.51045
0.76644 -0.32895 0.55685
0.83031 -0.46053 0.60325
0.89418 -0.59211 0.64966
0.95805 -0.72368 0.69606
1.02192 -0.85526 0.74247
1.08579 -0.98684 0.78887
1.14966 -1.11842 0.83527
1.21353 -1.25000 0.88168
0.00000 1.25000 0.00000
0.05582 1.11842 0.05582
0.11165 0.98684 0.11165
0.16747 0.85526 0.16747
0.22330 0.72368 0.22330
0.27912 0.59211 0.27912
0.33495 0.46053 0.33495
0.39077 0.32895 0.39077
0.44659 0.19737 0.44659
0.50242 0.06579 0.50242
0.55824 -0.06579 0.55824
0.61407 -0.19737 0.61407
0.66989 -0.32895 0.66989
0.72571 -0.46053 0.72571
0.78154 -0.59211 0.78154
0.83736 -0.72368 0.83736
0.89319 -0.85526 0.89319
0.94901 -0.98684 0.94901
1.00484 -1.11842 1.00484
1.06066 -1.25000 1.06066
0.00000 1.25000 0.00000
0.04640 1.11842 0.06387
0.09281 0.98684 0.12774
0.13921 0.85526 0.19161
0.18562 0.72368 0.25548
0.23202 0.59211 0.31935
0.27842 0.46053 0.38322
0.32483 0.32895 0.44709
0.37123 0.19737 0.51096
0.41764 0.06579 0.57483
0.46404 -0.06579 0.63870
0.51045 -0.19737 0.70257
0.55685 -0.32895 0.76644
0.60325 -0.46053 0.83031
0.64966 -0.59211 0.89418
0.69606 -0.72368 0.95805
0.74247 -0.85526 1.02192
0.78887 -0.98684 1.08579
0.83527 -1.11842 1.14966
0.88168 -1.25000 1.21353
0.00000 1.25000 0.00000
0.03584 1.11842 0.07034
0.07168 0.98684 0.14069
0.10752 0.85526 0.21103
0.14337 0.72368 0.28137
0.17921 0.59211 0.35171
0.21505 0.46053 0.42206
0.25089 0.32895 0.49240
0.28673 0.19737 0.56274
0.32257 0.06579 0.63308
0.35841 -0.06579 0.70343
0.39425 -0.19737 0.77377
0.43010 -0.32895 0.84411
0.46594 -0.46053 0.91445
0.50178 -0.59211 0.98480
0.53762 -0.72368 1.05514
0.57346 -0.85526 1.12548
0.60930 -0.98684 1.19582
0.64514 -1.11842 1.26617
0.68099 -1.25000 1.33651
0.00000 1.25000 0.00000
0.02440 1.11842 0.07508
0.04879 0.98684 0.15017
0.07319 0.85526 0.22525
0.09758 0.72368 0.30033
0.12198 0.59211 0.37542
0.14638 0.46053 0.45050
0.17077 0.32895 0.52558
0.19517 0.19737 0.60067
0.21956 0.06579 0.67575
0.24396 -0.06579 0.75083
0.26836 -0.19737 0.82592
0.29275 -0.32895 0.90100
0.31715 -0.46053 0.97608
0.34155 -0.59211 1.05117
0.36594 -0.72368 1.12625
0.39034 -0.85526 1.20133
0.41473 -0.98684 1.27642
0.43913 -1.11842 1.35150
0.46353 -1.25000 1.42658
0.00000 1.25000 0.00000
0.01235 1.11842 0.07798
0.02470 0.98684 0.15595
0.03705 0.85526 0.23393
0.04940 0.72368 0.31190
0.06175 0.59211 0.38988
0.07410 0.46053 0.46785
0.08645 0.32895 0.54583
0.09880 0.19737 0.62380
0.11115 0.06579 0.70178
0.12350 -0.06579 0.77975
0.13585 -0.19737 0.85773
0.14820 -0.32895 0.93570
0.16055 -0.46053 1.01368
0.17290 -0.59211 1.09166
0.18525 -0.72368 1.16963
0.19760 -0.85526 1.24761
0.20995 -0.98684 1.32558
0.22230 -1.11842 1.40356
0.23465 -1.25000 1.48153
0.00000 1.25000 0.00000
0.00000 1.11842 0.07895
0.00000 0.98684 0.15789
0.00000 0.85526 0.23684
0.00000 0.72368 0.31579
0.00000 0.59211 0.39474
0.00000 0.46053 0.47368
0.00000 0.32895 0.55263
0.00000 0.19737 0.63158
0.00000 0.06579 0.71053
0.00000 -0.06579 0.78947
0.00000 -0.19737 0.86842
0.00000 -0.32895 0.94737
0.00000 -0.46053 1.02632
0.00000 -0.59211 1.10526
0.00000 -0.72368 1.18421
0.00000 -0.85526 1.26316
0.00000 -0.98684 1.34211
0.00000 -1.11842 1.42105
0.00000 -1.25000 1.50000
-0.00000 1.25000 0.00000
-0.01235 1.11842 0.07798
-0.02470 0.98684 0.15595
-0.03705 0.85526 0.23393
-0.04940 0.72368 0.31190
-0.06175 0.59211 0.38988
-0.07410 0.46053 0.46785
-0.08645 0.32895 0.54583
-0.09880 0.19737 0.62380
-0.11115 0.06579 0.70178
-0.12350 -0.06579 0.77975
-0.13585 -0.19737 0.85773
-0.14820 -0.32895 0.93570
-0.16055 -0.46053 1.01368
-0.17290 -0.59211 1.09166
-0.18525 -0.72368 1.16963
-0.19760 -0.85526 1.24761
-0.20995 -0.98684 1.32558
-0.22230 -1.11842 1.40356
-0.23465 -1.25000 1.48153
-0.00000 1.25000 0.00000
-0.02440 1.11842 0.07508
-0.04879 0.98684 0.15017
-0.07319 0.85526 0.22525
-0.09758 0.72368 0.30033
-0.12198 0.59211 0.37542
-0.14638 0.46053 0.45050
-0.17077 0.32895 0.52558
-0.19517 0.19737 0.60067
-0.21956 0.06579 0.67575
-0.24396 -0.06579 0.75083
-0.26836 -0.19737 0.82592
-0.29275 -0.32895 0.90100
-0.31715 -0.46053 0.97608
-0.34155 -0.59211 1.05117
-0.36594 -0.72368 1.12625
-0.39034 -0.85526 1.20133
-0.41473 -0.98684 1.27642
-0.43913 -1.11842 1.35150
-0.46353 -1.25000 1.42658
-0.00000 1.25000 0.00000
-0.03584 1.11842 0.07034
-0.07168 0.98684 0.14069
-0.10752 0.85526 0.21103
-0.14337 0.72368 0.28137
-0.17921 0.59211 0.35171
-0.21505 0.46053 0.42206
-0.25089 0.32895 0.49240
-0.28673 0.19737 0.56274
-0.32257 0.06579 0.63308
-0.35841 -0.06579 0.70343
-0.39425 -0.19737 0.77377
-0.43010 -0.32895 0.84411
-0.46594 -0.46053 0.91445
-0.50178 -0.59211 0.98480
-0.53762 -0.72368 1.05514
-0.57346 -0.85526 1.12548
-0.60930 -0.98684 1.19582
-0.64514 -1.11842 1.26617
-0.68099 -1.25000 1.33651
-0.00000 1.25000 0.00000
-0.04640 1.11842 0.06387
-0.09281 0.98684 0.12774
-0.13921 0.85526 0.19161
-0.18562 0.72368 0.25548
-0.23202 0.59211 0.31935
-0.27842 0.46053 0.38322
-0.32483 0.32895 0.44709
-0.37123 0.19737 0.51096
-0.41764 0.06579 0.57483
-0.46404 -0.06579 0.63870
-0.51045 -0.19737 0.70257
-0.55685 -0.32895 0.76644
-0.60325 -0.46053 0.83031
-0.64966 -0.59211 0.89418
-0.69606 -0.72368 0.95805
-0.74247 -0.85526 1.02192
-0.78887 -0.98684 1.08579
-0.83527 -1.11842 1.14966
-0.88168 -1.25000 1.21353
-0.00000 1.25000 0.00000
-0.05582 1.11842 0.05582
-0.11165 0.98684 0.11165
-0.16747 0.85526 0.16747
-0.22330 0.72368 0.22330
-0.27912 0.59211 0.27912
-0.33495 0.46053 0.33495
-0.39077 0.32895 0.39077
-0.44659 0.19737 0.44659
-0.50242 0.06579 0.50242
-0.55824 -0.06579 0.55824
-0.61407 -0.19737 0.61407
-0.66989 -0.32895 0.66989
-0.72571 -0.46053 0.72571
-0.78154 -0.59211 0.78154
-0.83736 -0.72368 0.83736
-0.89319 -0.85526 0.89319
-0.94901 -0.98684 0.94901
-1.00484 -1.11842 1.00484
-1.06066 -1.25000 1.06066
-0.00000 1.25000 0.00000
-0.06387 1.11842 0.04640
-0.12774 0.98684 0.09281
-0.19161 0.85526 0.13921
-0.25548 0.72368 0.18562
-0.31935 0.59211 0.23202
-0.38322 0.46053 0.27842
-0.44709 0.32895 0.32483
-0.51096 0.19737 0.37123
-0.57483 0.06579 0.41764
-0.63870 -0.06579 0.46404
-0.70257 -0.19737 0.51045
-0.76644 -0.32895 0.55685
-0.83031 -0.46053 0.60325
-0.89418 -0.59211 0.64966
-0.95805 -0.72368 0.69606
-1.02192 -0.85526 0.74247
-1.08579 -0.98684 0.78887
-1.14966 -1.11842 0.83527
-1.21353 -1.25000 0.88168
-0.00000 1.25000 0.00000
-0.07034 1.11842 0.03584
-0.14069 0.98684 0.07168
-0.21103 0.85526 0.10752
-0.28137 0.72368 0.14337
-0.35171 0.59211 0.17921
-0.42206 0.46053 0.21505
-0.49240 0.32895 0.25089
-0.56274 0.19737 0.28673
-0.63308 0.06579 0.32257
-0.70343 -0.06579 0.35841
-0.77377 -0.19737 0.39425
-0.84411 -0.32895 0.43010
-0.91445 -0.46053 0.46594
-0.98480 -0.59211 0.50178
-1.05514 -0.72368 0.53762
-1.12548 -0.85526 0.57346
-1.19582 -0.98684 0.60930
-1.26617 -1.11842 0.64514
-1.33651 -1.25000 0.68099
-0.00000 1.25000 0.00000
-0.07508 1.11842 0.02440
-0.15017 0.98684 0.04879
-0.22525 0.85526 0.07319
-0.30033 0.72368 0.09758
-0.37542 0.59211 0.12198
-0.45050 0.46053 0.14638
-0.52558 0.32895 0.17077
-0.60067 0.19737 0.19517
-0.67575 0.06579 0.21956
-0.75083 -0.06579 0.24396
-0.82592 -0.19737 0.26836
-0.90100 -0.32895 0.29275
-0.97608 -0.46053 0.31715
-1.05117 -0.59211 0.34155
-1.12625 -0.72368 0.36594
-1.20133 -0.85526 0.39034
-1.27642 -0.98684 0.41473
-1.35150 -1.11842 0.43913
-1.42658 -1.25000 0.46353
-0.00000 1.25000 0.00000
-0.07798 1.11842 0.01235
-0.15595 0.98684 0.02470
-0.23393 0.85526 0.03705
-0.31190 0.72368 0.04940
-0.38988 0.59211 0.06175
-0.46785 0.46053 0.07410
-0.54583 0.32895 0.08645
-0.62380 0.19737 0.09880
-0.70178 0.06579 0.11115
-0.77975 -0.06579 0.12350
-0.85773 -0.19737 0.13585
-0.93570 -0.32895 0.14820
-1.01368 -0.46053 0.16055
-1.09166 -0.59211 0.17290
-1.16963 -0.72368 0.18525
-1.24761 -0.85526 0.19760
-1.32558 -0.98684 0.20995
-1.40356 -1.11842 0.22230
-1.48153 -1.25000 0.23465
-0.00000 1.25000 0.00000
-0.07895 1.11842 0.00000
-0.15789 0.98684 0.00000
-0.23684 0.85526 0.00000
-0.31579 0.72368 0.00000
-0.39474 0.59211 0.00000
-0.47368 0.46053 0.00000
-0.55263 0.32895 0.00000
-0.63158 0.19737 0.00000
-0.71053 0.06579 0.00000
-0.78947 -0.06579 0.00000
-0.86842 -0.19737 0.00000
-0.94737 -0.32895 0.00000
-1.02632 -0.46053 0.00000
-1.10526 -0.59211 0.00000
-1.18421 -0.72368 0.00000
-1.26316 -0.85526 0.00000
-1.34211 -0.98684 0.00000
-1.42105 -1.11842 0.00000
-1.50000 -1.25000 0.00000
-0.00000 1.25000 -0.00000
-0.07798 1.11842 -0.01235
-0.15595 0.98684 -0.02470
-0.23393 0.85526 -0.03705
-0.31190 0.72368 -0.04940
-0.38988 0.59211 -0.06175
-0.46785 0.46053 -0.07410
-0.54583 0.32895 -0.08645
-0.62380 0.19737 -0.09880
-0.70178 0.06579 -0.11115
-0.77975 -0.06579 -0.12350
-0.85773 -0.19737 -0.13585
-0.93570 -0.32895 -0.14820
-1.01368 -0.46053 -0.16055
-1.09166 -0.59211 -0.17290
-1.16963 -0.72368 -0.18525
-1.24761 -0.85526 -0.19760
-1.32558 -0.98684 -0.20995
-1.40356 -1.11842 -0.22230
-1.48153 -1.25000 -0.23465
-0.00000 1.25000 -0.00000
-0.07508 1.11842 -0.02440
-0.15017 0.98684 -0.04879
-0.22525 0.85526 -0.07319
-0.30033 0.72368 -0.09758
-0.37542 0.59211 -0.12198
-0.45050 0.46053 -0.14638
-0.52558 0.32895 -0.17077
-0.60067 0.19737 -0.19517
-0.67575 0.06579 -0.21956
-0.75083 -0.06579 -0.24396
-0.82592 -0.19737 -0.26836
-0.90100 -0.32895 -0.29275
-0.97608 -0.46053 -0.31715
-1.05117 -0.59211 -0.34155
-1.12625 -0.72368 -0.36594
-1.20133 -0.85526 -0.39034
-1.27642 -0.98684 -0.41473
-1.35150 -1.11842 -0.43913
-1.42658 -1.25000 -0.46353
-0.00000 1.25000 -0.00000
-0.07034 1.11842 -0.03584
-0.14069 0.98684 -0.07168
-0.21103 0.85526 -0.10752
-0.28137 0.72368 -0.14337
-0.35171 0.59211 -0.17921
-0.42206 0.46053 -0.21505
-0.49240 0.32895 -0.25089
-0.56274 0.19737 -0.28673
-0.63308 0.06579 -0.32257
-0.70343 -0.06579 -0.35841
-0.77377 -0.19737 -0.39425
-0.84411 -0.32895 -0.43010
-0.91445 -0.46053 -0.46594
-0.98480 -0.59211 -0.50178
-1.05514 -0.72368 -0.53762
-1.12548 -0.85526 -0.57346
-1.19582 -0.98684 -0.60930
-1.26617 -1.11842 -0.64514
-1.33651 -1.25000 -0.68099
-0.00000 1.25000 -0.00000
-0.06387 1.11842 -0.04640
-0.12774 0.98684 -0.09281
-0.19161 0.85526 -0.13921
-0.25548 0.72368 -0.18562
-0.31935 0.59211 -0.23202
-0.38322 0.46053 -0.27842
-0.44709 0.32895 -0.32483
-0.51096 0.19737 -0.37123
-0.57483 0.06579 -0.41764
-0.63870 -0.06579 -0.46404
-0.70257 -0.19737 -0.51045
-0.76644 -0.32895 -0.55685
-0.83031 -0.46053 -0.60325
-0.89418 -0.59211 -0.64966
-0.95805 -0.72368 -0.69606
-1.02192 -0.85526 -0.74247
-1.08579 -0.98684 -0.78887
-1.14966 -1.11842 -0.83527
-1.21353 -1.25000 -0.88168
-0.00000 1.25000 -0.00000
-0.05582 1.11842 -0.05582
-0.11165 0.98684 -0.11165
-0.16747 0.85526 -0.16747
-0.22330 0.72368 -0.22330
-0.27912 0.59211 -0.27912
-0.33495 0.46053 -0.33495
-0.39077 0.32895 -0.39077
-0.44659 0.19737 -0.44659
-0.50242 0.06579 -0.50242
-0.55824 -0.06579 -0.55824
-0.61407 -0.19737 -0.61407
-0.66989 -0.32895 -0.66989
-0.72571 -0.46053 -0.72571
-0.78154 -0.59211 -0.78154
-0.83736 -0.72368 -0.83736
-0.89319 -0.85526 -0.89319
-0.94901 -0.98684 -0.94901
-1.00484 -1.11842 -1.00484
-1.06066 -1.25000 -1.06066
-0.00000 1.25000 -0.00000
-0.04640 1.11842 -0.06387
-0.09281 0.98684 -0.12774
-0.13921 0.85526 -0.19161
-0.18562 0.72368 -0.25548
-0.23202 0.59211 -0.31935
-0.27842 0.46053 -0.38322
-0.32483 0.32895 -0.44709
-0.37123 0.19737 -0.51096
-0.41764 0.06579 -0.57483
-0.46404 -0.06579 -0.63870
-0.51045 -0.19737 -0.70257
-0.55685 -0.32895 -0.76644
-0.60325 -0.46053 -0.83031
-0.64966 -0.59211 -0.89418
-0.69606 -0.72368 -0.95805
-0.74247 -0.85526 -1.02192
-0.78887 -0.98684 -1.08579
-0.83527 -1.11842 -1.14966
-0.88168 -1.25000 -1.21353
-0.00000 1.25000 -0.00000
-0.03584 1.11842 -0.07034
-0.07168 0.98684 -0.14069
-0.10752 0.85526 -0.21103
-0.14337 0.72368 -0.28137
-0.17921 0.59211 -0.35171
-0.21505 0.46053 -0.42206
-0.25089 0.32895 -0.49240
-0.28673 0.19737 -0.56274
-0.32257 0.06579 -0.63308
-0.35841 -0.06579 -0.70343
-0.39425 -0.19737 -0.77377
-0.43010 -0.32895 -0.84411
-0.46594 -0.46053 -0.91445
-0.50178 -0.59211 -0.98480
-0.53762 -0.72368 -1.05514
-0.57346 -0.85526 -1.12548
-0.60930 -0.98684 -1.19582
-0.64514 -1.11842 -1.26617
-0.68099 -1.25000 -1.33651
-0.00000 1.25000 -0.00000
-0.02440 1.11842 -0.07508
-0.04879 0.98684 -0.15017
-0.07319 0.85526 -0.22525
-0.09758 0.72368 -0.30033
-0.12198 0.59211 -0.37542
-0.14638 0.46053 -0.45050
-0.17077 0.32895 -0.52558
-0.19517 0.19737 -0.60067
-0.21956 0.06579 -0.67575
-0.24396 -0.06579 -0.75083
-0.26836 -0.19737 -0.82592
-0.29275 -0.32895 -0.90100
-0.31715 -0.46053 -0.97608
-0.34155 -0.59211 -1.05117
-0.36594 -0.72368 -1.12625
-0.39034 -0.85526 -1.20133
-0.41473 -0.98684 -1.27642
-0.43913 -1.11842 -1.35150
-0.46353 -1.25000 -1.42658
-0.00000 1.25000 -0.00000
-0.01235 1.11842 -0.07798
-0.02470 0.98684 -0.15595
-0.03705 0.85526 -0.23393
-0.04940 0.72368 -0.31190
-0.06175 0.59211 -0.38988
-0.07410 0.46053 -0.46785
-0.08645 0.32895 -0.54583
-0.09880 0.19737 -0.62380
-0.11115 0.06579 -0.70178
-0.12350 -0.06579 -0.77975
-0.13585 -0.19737 -0.85773
-0.14820 -0.32895 -0.93570
-0.16055 -0.46053 -1.01368
-0.17290 -0.59211 -1.09166
-0.18525 -0.72368 -1.16963
-0.19760 -0.85526 -1.24761
-0.20995 -0.98684 -1.32558
-0.22230 -1.11842 -1.40356
-0.23465 -1.25000 -1.48153
-0.00000 1.25000 -0.00000
-0.00000 1.11842 -0.07895
-0.00000 0.98684 -0.15789
-0.00000 0.85526 -0.23684
-0.00000 0.72368 -0.31579
-0.00000 0.59211 -0.39474
-0.00000 0.46053 -0.47368
-0.00000 0.32895 -0.55263
-0.00000 0.19737 -0.63158
-0.00000 0.06579 -0.71053
-0.00000 -0.06579 -0.78947
-0.00000 -0.19737 -0.86842
-0.00000 -0.32895 -0.94737
-0.00000 -0.46053 -1.02632
-0.00000 -0.59211 -1.10526
-0.00000 -0.72368 -1.18421
-0.00000 -0.85526 -1.26316
-0.00000 -0.98684 -1.34211
-0.00000 -1.11842 -1.42105
-0.00000 -1.25000 -1.50000
0.00000 1.25000 -0.00000
0.01235 1.11842 -0.07798
0.02470 0.98684 -0.15595
0.03705 0.85526 -0.23393
0.04940 0.72368 -0.31190
0.06175 0.59211 -0.38988
0.07410 0.46053 -0.46785
0.08645 0.32895 -0.54583
0.09880 0.19737 -0.62380
0.11115 0.06579 -0.70178
0.12350 -0.06579 -0.77975
0.13585 -0.19737 -0.85773
0.14820 -0.32895 -0.93570
0.16055 -0.46053 -1.01368
0.17290 -0.59211 -1.09166
0.18525 -0.72368 -1.16963
0.19760 -0.85526 -1.24761
0.20995 -0.98684 -1.32558
0.22230 -1.11842 -1.40356
0.23465 -1.25000 -1.48153
0.00000 1.25000 -0.00000
0.02440 1.11842 -0.07508
0.04879 0.98684 -0.15017
0.07319 0.85526 -0.22525
0.09758 0.72368 -0.30033
0.12198 0.59211 -0.37542
0.14638 0.46053 -0.45050
0.17077 0.32895 -0.52558
0.19517 0.19737 -0.60067
0.21956 0.06579 -0.67575
0.24396 -0.06579 -0.75083
0.26836 -0.19737 -0.82592
0.29275 -0.32895 -0.90100
0.31715 -0.46053 -0.97608
0.34155 -0.59211 -1.05117
0.36594 -0.72368 -1.12625
0.39034 -0.85526 -1.20133
0.41473 -0.98684 -1.27642
0.43913 -1.11842 -1.35150
0.46353 -1.25000 -1.42658
0.00000 1.25000 -0.00000
0.03584 1.11842 -0.07034
0.07168 0.98684 -0.14069
0.10752 0.85526 -0.21103
0.14337 0.72368 -0.28137
0.17921 0.59211 -0.35171
0.21505 0.46053 -0.42206
0.25089 0.32895 -0.49240
0.28673 0.19737 -0.56274
0.32257 0.06579 -0.63308
0.35841 -0.06579 -0.70343
0.39425 -0.19737 -0.77377
0.43010 -0.32895 -0.84411
0.46594 -0.46053 -0.91445
0.50178 -0.59211 -0.98480
0.53762 -0.72368 -1.05514
0.57346 -0.85526 -1.12548
0.60930 -0.98684 -1.19582
0.64514 -1.11842 -1.26617
0.68099 -1.25000 -1.33651
0.00000 1.25000 -0.00000
0.04640 1.11842 -0.06387
0.09281 0.98684 -0.12774
0.13921 0.85526 -0.19161
0.18562 0.72368 -0.25548
0.23202 0.59211 -0.31935
0.27842 0.46053 -0.38322
0.32483 0.32895 -0.44709
0.37123 0.19737 -0.51096
0.41764 0.06579 -0.57483
0.46404 -0.06579 -0.63870
0.51045 -0.19737 -0.70257
0.55685 -0.32895 -0.76644
0.60325 -0.46053 -0.83031
0.64966 -0.59211 -0.89418
0.69606 -0.72368 -0.95805
0.74247 -0.85526 -1.02192
0.78887 -0.98684 -1.08579
0.83527 -1.11842 -1.14966
0.88168 -1.25000 -1.21353
0.00000 1.25000 -0.00000
0.05582 1.11842 -0.05582
0.11165 0.98684 -0.11165
0.16747 0.85526 -0.16747
0.22330 0.72368 -0.22330
0.27912 0.59211 -0.27912
0.33495 0.46053 -0.33495
0.39077 0.32895 -0.39077
0.44659 0.19737 -0.44659
0.50242 0.06579 -0.50242
0.55824 -0.06579 -0.55824
0.61407 -0.19737 -0.61407
0.66989 -0.32895 -0.66989
0.72571 -0.46053 -0.72571
0.78154 -0.59211 -0.78154
0.83736 -0.72368 -0.83736
0.89319 -0.85526 -0.89319
0.94901 -0.98684 -0.94901
1.00484 -1.11842 -1.00484
1.06066 -1.25000 -1.06066
0.00000 1.25000 -0.00000
0.06387 1.11842 -0.04640
0.12774 0.98684 -0.09281
0.19161 0.85526 -0.13921
0.25548 0.72368 -0.18562
0.31935 0.59211 -0.23202
0.38322 0.46053 -0.27842
0.44709 0.32895 -0.32483
0.51096 0.19737 -0.37123
0.57483 0.06579 -0.41764
0.63870 -0.06579 -0.46404
0.70257 -0.19737 -0.51045
0.76644 -0.32895 -0.55685
0.83031 -0.46053 -0.60325
0.89418 -0.59211 -0.64966
0.95805 -0.72368 -0.69606
1.02192 -0.85526 -0.74247
1.08579 -0.98684 -0.78887
1.14966 -1.11842 -0.83527
1.21353 -1.25000 -0.88168
0.00000 1.25000 -0.00000
0.07034 1.11842 -0.03584
0.14069 0.98684 -0.07168
0.21103 0.85526 -0.10752
0.28137 0.72368 -0.14337
0.35171 0.59211 -0.17921
0.42206 0.46053 -0.21505
0.49240 0.32895 -0.25089
0.56274 0.19737 -0.28673
0.63308 0.06579 -0.32257
0.70343 -0.06579 -0.35841
0.77377 -0.19737 -0.39425
0.84411 -0.32895 -0.43010
0.91445 -0.46053 -0.46594
0.98480 -0.59211 -0.50178
1.05514 -0.72368 -0.53762
1.12548 -0.85526 -0.57346
1.19582 -0.98684 -0.60930
1.26617 -1.11842 -0.64514
1.33651 -1.25000 -0.68099
0.00000 1.25000 -0.00000
0.07508 1.11842 -0.02440
0.15017 0.98684 -0.04879
0.22525 0.85526 -0.07319
0.30033 0.72368 -0.09758
0.37542 0.59211 -0.12198
0.45050 0.46053 -0.14638
0.52558 0.32895 -0.17077
0.60067 0.19737 -0.19517
0.67575 0.06579 -0.21956
0.75083 -0.06579 -0.24396
0.82592 -0.19737 -0.26836
0.90100 -0.32895 -0.29275
0.97608 -0.46053 -0.31715
1.05117 -0.59211 -0.34155
1.12625 -0.72368 -0.36594
1.20133 -0.85526 -0.39034
1.27642 -0.98684 -0.41473
1.35150 -1.11842 -0.43913
1.42658 -1.25000 -0.46353
0.00000 1.25000 -0.00000
0.07798 1.11842 -0.01235
0.15595 0.98684 -0.02470
0.23393 0.85526 -0.03705
0.31190 0.72368 -0.04940
0.38988 0.59211 -0.06175
0.46785 0.46053 -0.07410
0.54583 0.32895 -0.08645
0.62380 0.19737 -0.09880
0.70178 0.06579 -0.11115
0.77975 -0.06579 -0.12350
0.85773 -0.19737 -0.13585
0.93570 -0.32895 -0.14820
1.01368 -0.46053 -0.16055
1.09166 -0.59211 -0.17290
1.16963 -0.72368 -0.18525
1.24761 -0.85526 -0.19760
1.32558 -0.98684 -0.20995
1.40356 -1.11842 -0.22230
1.48153 -1.25000 -0.23465
3 0 20 21
3 0 21 1
3 1 21 22
3 1 22 2
3 2 22 23
3 2 23 3
3 3 23 24
3 3 24 4
3 4 24 25
3 4 25 5
3 5 25 26
3 5 26 6
3 6 26 27
3 6 27 7
3 7 27 28
3 7 28 8
3 8 28 29
3 8 29 9
3 9 29 30
3 9 30 10
3 10 30 31
3 10 31 11
3 11 31 32
3 11 32 12
3 12 32 33
3 12 33 13
3 13 33 34
3 13 34 14
3 14 34 35
3 14 35 15
3 15 35 36
3 15 36 16
3 16 36 37
3 16 37 17
3 17 37 38
3 17 38 18
3 18 38 39
3 18 39 19
3 20 40 41
3 20 41 21
3 21 41 42
3 21 42 22
3 22 42 43
3 22 43 23
3 23 43 44
3 23 44 24
3 24 44 45
3 24 45 25
3 25 45 46
3 25 46 26
3 26 46 47
3 26 47 27
3 27 47 48
3 27 48 28
3 28 48 49
3 28 49 29
3 29 49 50
3 29 50 30
3 30 50 51
3 30 51 31
3 31 51 52
3 31 52 32
3 32 52 53
3 32 53 33
3 33 53 54
3 33 54 34
3 34 54 55
3 34 55 35
3 35 55 56
3 35 56 36
3 36 56 57
3 36 57 37
3 37 57 58
3 37 58 38
3 38 58 59
3 38 59 39
3 40 60 61
3 40 61 41
3 41 61 62
3 41 62 42
3 42 62 63
3 42 63 43
3 43 63 64
3 43 64 44
3 44 64 65
3 44 65 45
3 45 65 66
3 45 66 46
3 46 66 67
3 46 67 47
3 47 67 68
3 47 68 48
3 48 68 69
3 48 69 49
3 49 69 70
3 49 70 50
3 50 70 71
3 50 71 51
3 51 71 72
3 51 72 52
3 52 72 73
3 52 73 53
3 53 73 74
3 53 74 54
3 54 74 75
3 54 75 55
3 55 75 76
3 55 76 56
3 56 76 77
3 56 77 57
3 57 77 78
3 57 78 58
3 58 78 79
3 58 79 59
3 60 80 81
3 60 81 61
3 61 81 82
3 61 82 62
3 62 82 83
3 62 83 63
3 63 83 84
3 63 84 64
3 64 84 85
3 64 85 65
3 65 85 86
3 65 86 66
3 66 86 87
3 66 87 67
3 67 87 88
3 67 88 68
3 68 88 89
3 68 89 69
3 69 89 90
3 69 90 70
3 70 90 91
3 70 91 71
3 71 91 92
3 71 92 72
3 72 92 93
3 72 93 73
3 73 93 94
3 73 94 74
3 74 94 95
3 74 95 75
3 75 95 96
3 75 96 76
3 76 96 97
3 76 97 77
3 77 97 98
3 77 98 78
3 78 98 99
3 78 99 79
3 80 100 101
3 80 101 81
3 81 101 102
3 81 102 82
3 82 102 103
3 82 103 83
3 83 103 104
3 83 104 84
3 84 104 105
3 84 105 85
3 85 105 106
3 85 106 86
3 86 106 107
3 86 107 87
3 87 107 108
3 87 108 88
3 88 108 109
3 88 109 89
3 89 109 110
3 89 110 90
3 90 110 111
3 90 111 91
3 91 111 112
3 91 112 92
3 92 112 113
3 92 113 93
3 93 113 114
3 93 114 94
3 94 114 115
3 94 115 95
3 95 115 116
3 95 116 96
3 96 116 117
3 96 117 97
3 97 117 118
3 97 118 98
3 98 118 119
3 98 119 99
3 100 120 121
3 100 121 101
3 101 121 122
3 101 122 102
3 102 122 123
3 102 123 103
3 103 123 124
3 103 124 104
3 104 124 125
3 104 125 105
3 105 125 126
3 105 126 106
3 106 126 127
3 106 127 107
3 107 127 128
3 107 128 108
3 108 128 129
3 108 129 109
3 109 129 130
3 109 130 110
3 110 130 131
3 110 131 111
3 111 131 132
3 111 132 112
3 112 132 133
3 112 133 113
3 113 133 134
3 113 134 114
3 114 134 135
3 114 135 115
3 115 135 136
3 115 136 116
3 116 136 137
3 116 137 117
3 117 137 138
3 117 138 118
3 118 138 139
3 118 139 119
3 120 140 141
3 120 141 121
3 121 141 142
3 121 142 122
3 122 142 143
3 122 143 123
3 123 143 144
3 123 144 124
3 124 144 145
3 124 145 125
3 125 145 146
3 125 146 126
3 126 146 147
3 126 147 127
3 127 147 148
3 127 148 128
3 128 148 149
3 128 149 129
3 129 149 150
3 129 150 130
3 130 150 151
3 130 151 131
3 131 151 152
3 131 152 132
3 132 152 153
3 132 153 133
3 133 153 154
3 133 154 134
3 134 154 155
3 134 155 135
3 135 155 156
3 135 156 136
3 136 156 157
3 136 157 137
3 137 157 158
3 137 158 138
3 138 158 159
3 138 159 139
3 140 160 161
3 140 161 141
3 141 161 162
3 141 162 142
3 142 162 163
3 142 163 143
3 143 163 164
3 143 164 144
3 144 164 165
3 144 165 145
3 145 165 166
3 145 166 146
3 146 166 167
3 146 167 147
3 147 167 168
3 147 168 148
3 148 168 169
3 148 169 149
3 149 169 170
3 149 170 150
3 150 170 171
3 150 171 151
3 151 171 172
3 151 172 152
3 152 172 173
3 152 173 153
3 153 173 174
3 153 174 154
3 154 174 175
3 154 175 155
3 155 175 176
3 155 176 156
3 156 176 177
3 156 177 157
3 157 177 178
3 157 178 158
3 158 178 179
3 158 179 159
3 160 180 181
3 160 181 161
3 161 181 182
3 161 182 162
3 162 182 183
3 162 183 163
3 163 183 184
3 163 184 164
3 164 184 185
3 164 185 165
3 165 185 186
3 165 186 166
3 166 186 187
3 166 187 167
3 167 187 188
3 167 188 168
3 168 188 189
3 168 189 169
3 169 189 190
3 169 190 170
3 170 190 191
3 170 191 171
3 171 191 192
3 171 192 172
3 172 192 193
3 172 193 173
3 173 193 194
3 173 194 174
3 174 194 195
3 174 195 175
3 175 195 196
3 175 196 176
3 176 196 197
3 176 197 177
3 177 197 198
3 177 198 178
3 178 198 199
3 178 199 179
3 180 200 201
3 180 201 181
3 181 201 202
3 181 202 182
3 182 202 203
3 182 203 183
3 183 203 204
3 183 204 184
3 184 204 205
3 184 205 185
3 185 205 206
3 185 206 186
3 186 206 207
3 186 207 187
3 187 207 208
3 187 208 188
3 188 208 209
3 188 209 189
3 189 209 210
3 189 210 190
3 190 210 211
3 190 211 191
3 191 211 212
3 191 212 192
3 192 212 213
3 192 213 193
3 193 213 214
3 193 214 194
3 194 214 215
3 194 215 195
3 195 215 216
3 195 216 196
3 196 216 217
3 196 217 197
3 197 217 218
3 197 218 198
3 198 218 219
3 198 219 199
3 200 220 221
3 200 221 201
3 201 221 222
3 201 222 202
3 202 222 223
3 202 223 203
3 203 223 224
3 203 224 204
3 204 224 225
3 204 225 205
3 205 225 226
3 205 226 206
3 206 226 227
3 206 227 207
3 207 227 228
3 207 228 208
3 208 228 229
3 208 229 209
3 209 229 230
3 209 230 210
3 210 230 231
3 210 231 211
3 211 231 232
3 211 232 212
3 212 232 233
3 212 233 213
3 213 233 234
3 213 234 214
3 214 234 235
3 214 235 215
3 215 235 236
3 215 236 216
3 216 236 237
3 216 237 217
3 217 237 238
3 217 238 218
3 218 238 239
3 218 239 219
3 220 240 241
3 220 241 221
3 221 241 242
3 221 242 222
3 222 242 243
3 222 243 223
3 223 243 244
3 223 244 224
3 224 244 245
3 224 245 225
3 225 245 246
3 225 246 226
3 226 246 247
3 226 247 227
3 227 247 248
3 227 248 228
3 228 248 249
3 228 249 229
3 229 249 250
3 229 250 230
3 230 250 251
3 230 251 231
3 231 251 252
3 231 252 232
3 232 252 253
3 232 253 233
3 233 253 254
3 233 254 234
3 234 254 255
3 234 255 235
3 235 255 256
3 235 256 236
3 236 256 257
3 236 257 237
3 237 257 258
3 237 258 238
3 238 258 259
3 238 259 239
3 240 260 261
3 240 261 241
3 241 261 262
3 241 262 242
3 242 262 263
3 242 263 243
3 243 263 264
3 243 264 244
3 244 264 265
3 244 265 245
3 245 265 266
3 245 266 246
3 246 266 267
3 246 267 247
3 247 267 268
3 247 268 248
3 248 268 269
3 248 269 249
3 249 269 270
3 249 270 250
3 250 270 271
3 250 271 251
3 251 271 272
3 251 272 252
3 252 272 273
3 252 273 253
3 253 273 274
3 253 274 254
3 254 274 275
3 254 275 255
3 255 275 276
3 255 276 256
3 256 276 277
3 256 277 257
3 257 277 278
3 257 278 258
3 258 278 279
3 258 279 259
3 260 280 281
3 260 281 261
3 261 281 282
3 261 282 262
3 262 282 283
3 262 283 263
3 263 283 284
3 263 284 264
3 264 284 285
3 264 285 265
3 265 285 286
3 265 286 266
3 266 286 287
3 266 287 267
3 267 287 288
3 267 288 268
3 268 288 289
3 268 289 269
3 269 289 290
3 269 290 270
3 270 290 291
3 270 291 271
3 271 291 292
3 271 292 272
3 272 292 293
3 272 293 273
3 273 293 294
3 273 294 274
3 274 294 295
3 274 295 275
3 275 295 296
3 275 296 276
3 276 296 297
3 276 297 277
3 277 297 298
3 277 298 278
3 278 298 299
3 278 299 279
3 280 300 301
3 280 301 281
3 281 301 302
3 281 302 282
3 282 302 303
3 282 303 283
3 283 303 304
3 283 304 284
3 284 304 305
3 284 305 285
3 285 305 306
3 285 306 286
3 286 306 307
3 286 307 287
3 287 307 308
3 287 308 288
3 288 308 309
3 288 309 289
3 289 309 310
3 289 310 290
3 290 310 311
3 290 311 291
3 291 311 312
3 291 312 292
3 292 312 313
3 292 313 293
3 293 313 314
3 293 314 294
3 294 314 315
3 294 315 295
3 295 315 316
3 295 316 296
3 296 316 317
3 296 317 297
3 297 317 318
3 297 318 298
3 298 318 319
3 298 319 299
3 300 320 321
3 300 321 301
3 301 321 322
3 301 322 302
3 302 322 323
3 302 323 303
3 303 323 324
3 303 324 304
3 304 324 325
3 304 325 305
3 305 325 326
3 305 326 306
3 306 326 327
3 306 327 307
3 307 327 328
3 307 328 308
3 308 328 329
3 308 329 309
3 309 329 330
3 309 330 310
3 310 330 331
3 310 331 311
3 311 331 332
3 311 332 312
3 312 332 333
3 312 333 313
3 313 333 334
3 313 334 314
3 314 334 335
3 314 335 315
3 315 335 336
3 315 336 316
3 316 336 337
3 316 337 317
3 317 337 338
3 317 338 318
3 318 338 339
3 318 339 319
3 320 340 341
3 320 341 321
3 321 341 342
3 321 342 322
3 322 342 343
3 322 343 323
3 323 343 344
3 323 344 324
3 324 344 345
3 324 345 325
3 325 345 346
3 325 346 326
3 326 346 347
3 326 347 327
3 327 347 348
3 327 348 328
3 328 348 349
3 328 349 329
3 329 349 350
3 329 350 330
3 330 350 351
3 330 351 331
3 331 351 352
3 331 352 332
3 332 352 353
3 332 353 333
3 333 353 354
3 333 354 334
3 334 354 355
3 334 355 335
3 335 355 356
3 335 356 336
3 336 356 357
3 336 357 337
3 337 357 358
3 337 358 338
3 338 358 359
3 338 359 339
3 340 360 361
3 340 361 341
3 341 361 362
3 341 362 342
3 342 362 363
3 342 363 343
3 343 363 364
3 343 364 344
3 344 364 365
3 344 365 345
3 345 365 366
3 345 366 346
3 346 366 367
3 346 367 347
3 347 367 368
3 347 368 348
3 348 368 369
3 348 369 349
3 349 369 370
3 349 370 350
3 350 370 371
3 350 371 351
3 351 371 372
3 351 372 352
3 352 372 373
3 352 373 353
3 353 373 374
3 353 374 354
3 354 374 375
3 354 375 355
3 355 375 376
3 355 376 356
3 356 376 377
3 356 377 357
3 357 377 378
3 357 378 358
3 358 378 379
3 358 379 359
3 360 380 381
3 360 381 361
3 361 381 382
3 361 382 362
3 362 382 383
3 362 383 363
3 363 383 384
3 363 384 364
3 364 384 385
3 364 385 365
3 365 385 386
3 365 386 366
3 366 386 387
3 366 387 367
3 367 387 388
3 367 388 368
3 368 388 389
3 368 389 369
3 369 389 390
3 369 390 370
3 370 390 391
3 370 391 371
3 371 391 392
3 371 392 372
3 372 392 393
3 372 393 373
3 373 393 394
3 373 394 374
3 374 394 395
3 374 395 375
3 375 395 396
3 375 396 376
3 376 396 397
3 376 397 377
3 377 397 398
3 377 398 378
3 378 398 399
3 378 399 379
3 380 400 401
3 380 401 381
3 381 401 402
3 381 402 382
3 382 402 403
3 382 403 383
3 383 403 404
3 383 404 384
3 384 404 405
3 384 405 385
3 385 405 406
3 385 406 386
3 386 406 407
3 386 407 387
3 387 407 408
3 387 408 388
3 388 408 409
3 388 409 389
3 389 409 410
3 389 410 390
3 390 410 411
3 390 411 391
3 391 411 412
3 391 412 392
3 392 412 413
3 392 413 393
3 393 413 414
3 393 414 394
3 394 414 415
3 394 415 395
3 395 415 416
3 395 416 396
3 396 416 417
3 396 417 397
3 397 417 418
3 397 418 398
3 398 418 419
3 398 419 399
3 400 420 421
3 400 421 401
3 401 421 422
3 401 422 402
3 402 422 423
3 402 423 403
3 403 423 424
3 403 424 404
3 404 424 425
3 404 425 405
3 405 425 426
3 405 426 406
3 406 426 427
3 406 427 407
3 407 427 428
3 407 428 408
3 408 428 429
3 408 429 409
3 409 429 430
3 409 430 410
3 410 430 431
3 410 431 411
3 411 431 432
3 411 432 412
3 412 432 433
3 412 433 413
3 413 433 434
3 413 434 414
3 414 434 435
3 414 435 415
3 415 435 436
3 415 436 416
3 416 436 437
3 416 437 417
3 417 437 438
3 417 438 418
3 418 438 439
3 418 439 419
3 420 440 441
3 420 441 421
3 421 441 442
3 421 442 422
3 422 442 443
3 422 443 423
3 423 443 444
3 423 444 424
3 424 444 445
3 424 445 425
3 425 445 446
3 425 446 426
3 426 446 447
3 426 447 427
3 427 447 448
3 427 448 428
3 428 448 449
3 428 449 429
3 429 449 450
3 429 450 430
3 430 450 451
3 430 451 431
3 431 451 452
3 431 452 432
3 432 452 453
3 432 453 433
3 433 453 454
3 433 454 434
3 434 454 455
3 434 455 435
3 435 455 456
3 435 456 436
3 436 456 457
3 436 457 437
3 437 457 458
3 437 458 438
3 438 458 459
3 438 459 439
3 440 460 461
3 440 461 441
3 441 461 462
3 441 462 442
3 442 462 463
3 442 463 443
3 443 463 464
3 443 464 444
3 444 464 465
3 444 465 445
3 445 465 466
3 445 466 446
3 446 466 467
3 446 467 447
3 447 467 468
3 447 468 448
3 448 468 469
3 448 469 449
3 449 469 470
3 449 470 450
3 450 470 471
3 450 471 451
3 451 471 472
3 451 472 452
3 452 472 473
3 452 473 453
3 453 473 474
3 453 474 454
3 454 474 475
3 454 475 455
3 455 475 476
3 455 476 456
3 456 476 477
3 456 477 457
3 457 477 478
3 457 478 458
3 458 478 479
3 458 479 459
3 460 480 481
3 460 481 461
3 461 481 482
3 461 482 462
3 462 482 483
3 462 483 463
3 463 483 484
3 463 484 464
3 464 484 485
3 464 485 465
3 465 485 486
3 465 486 466
3 466 486 487
3 466 487 467
3 467 487 488
3 467 488 468
3 468 488 489
3 468 489 469
3 469 489 490
3 469 490 470
3 470 490 491
3 470 491 471
3 471 491 492
3 471 492 472
3 472 492 493
3 472 493 473
3 473 493 494
3 473 494 474
3 474 494 495
3 474 495 475
3 475 495 496
3 475 496 476
3 476 496 497
3 476 497 477
3 477 497 498
3 477 498 478
3 478 498 499
3 478 499 479
3 480 500 501
3 480 501 481
3 481 501 502
3 481 502 482
3 482 502 503
3 482 503 483
3 483 503 504
3 483 504 484
3 484 504 505
3 484 505 485
3 485 505 506
3 485 506 486
3 486 506 507
3 486 507 487
3 487 507 508
3 487 508 488
3 488 508 509
3 488 509 489
3 489 509 510
3 489 510 490
3 490 510 511
3 490 511 491
3 491 511 512
3 491 512 492
3 492 512 513
3 492 513 493
3 493 513 514
3 493 514 494
3 494 514 515
3 494 515 495
3 495 515 516
3 495 516 496
3 496 516 517
3 496 517 497
3 497 517 518
3 497 518 498
3 498 518 519
3 498 519 499
3 500 520 521
3 500 521 501
3 501 521 522
3 501 522 502
3 502 522 523
3 502 523 503
3 503 523 524
3 503 524 504
3 504 524 525
3 504 525 505
3 505 525 526
3 505 526 506
3 506 526 527
3 506 527 507
3 507 527 528
3 507 528 508
3 508 528 529
3 508 529 509
3 509 529 530
3 509 530 510
3 510 530 531
3 510 531 511
3 511 531 532
3 511 532 512
3 512 532 533
3 512 533 513
3 513 533 534
3 513 534 514
3 514 534 535
3 514 535 515
3 515 535 536
3 515 536 516
3 516 536 537
3 516 537 517
3 517 537 538
3 517 538 518
3 518 538 539
3 518 539 519
3 520 540 541
3 520 541 521
3 521 541 542
3 521 542 522
3 522 542 543
3 522 543 523
3 523 543 544
3 523 544 524
3 524 544 545
3 524 545 525
3 525 545 546
3 525 546 526
3 526 546 547
3 526 547 527
3 527 547 548
3 527 548 528
3 528 548 549
3 528 549 529
3 529 549 550
3 529 550 530
3 530 550 551
3 530 551 531
3 531 551 552
3 531 552 532
3 532 552 553
3 532 553 533
3 533 553 554
3 533 554 534
3 534 554 555
3 534 555 535
3 535 555 556
3 535 556 536
3 536 556 557
3 536 557 537
3 537 557 558
3 537 558 538
3 538 558 559
3 538 559 539
3 540 560 561
3 540 561 541
3 541 561 562
3 541 562 542
3 542 562 563
3 542 563 543
3 543 563 564
3 543 564 544
3 544 564 565
3 544 565 545
3 545 565 566
3 545 566 546
3 546 566 567
3 546 567 547
3 547 567 568
3 547 568 548
3 548 568 569
3 548 569 549
3 549 569 570
3 549 570 550
3 550 570 571
3 550 571 551
3 551 571 572
3 551 572 552
3 552 572 573
3 552 573 553
3 553 573 574
3 553 574 554
3 554 574 575
3 554 575 555
3 555 575 576
3 555 576 556
3 556 576 577
3 556 577 557
3 557 577 578
3 557 578 558
3 558 578 579
3 558 579 559
3 560 580 581
3 560 581 561
3 561 581 582
3 561 582 562
3 562 582 583
3 562 583 563
3 563 583 584
3 563 584 564
3 564 584 585
3 564 585 565
3 565 585 586
3 565 586 566
3 566 586 587
3 566 587 567
3 567 587 588
3 567 588 568
3 568 588 589
3 568 589 569
3 569 589 590
3 569 590 570
3 570 590 591
3 570 591 571
3 571 591 592
3 571 592 572
3 572 592 593
3 572 593 573
3 573 593 594
3 573 594 574
3 574 594 595
3 574 595 575
3 575 595 596
3 575 596 576
3 576 596 597
3 576 597 577
3 577 597 598
3 577 598 578
3 578 598 599
3 578 599 579
3 580 600 601
3 580 601 581
3 581 601 602
3 581 602 582
3 582 602 603
3 582 603 583
3 583 603 604
3 583 604 584
3 584 604 605
3 584 605 585
3 585 605 606
3 585 606 586
3 586 606 607
3 586 607 587
3 587 607 608
3 587 608 588
3 588 608 609
3 588 609 589
3 589 609 610
3 589 610 590
3 590 610 611
3 590 611 591
3 591 611 612
3 591 612 592
3 592 612 613
3 592 613 593
3 593 613 614
3 593 614 594
3 594 614 615
3 594 615 595
3 595 615 616
3 595 616 596
3 596 616 617
3 596 617 597
3 597 617 618
3 597 618 598
3 598 618 619
3 598 619 599
3 600 620 621
3 600 621 601
3 601 621 622
3 601 622 602
3 602 622 623
3 602 623 603
3 603 623 624
3 603 624 604
3 604 624 625
3 604 625 605
3 605 625 626
3 605 626 606
3 606 626 627
3 606 627 607
3 607 627 628
3 607 628 608
3 608 628 629
3 608 629 609
3 609 629 630
3 609 630 610
3 610 630 631
3 610 631 611
3 611 631 632
3 611 632 612
3 612 632 633
3 612 633 613
3 613 633 634
3 613 634 614
3 614 634 635
3 614 635 615
3 615 635 636
3 615 636 616
3 616 636 637
3 616 637 617
3 617 637 638
3 617 638 618
3 618 638 639
3 618 639 619
3 620 640 641
3 620 641 621
3 621 641 642
3 621 642 622
3 622 642 643
3 622 643 623
3 623 643 644
3 623 644 624
3 624 644 645
3 624 645 625
3 625 645 646
3 625 646 626
3 626 646 647
3 626 647 627
3 627 647 648
3 627 648 628
3 628 648 649
3 628 649 629
3 629 649 650
3 629 650 630
3 630 650 651
3 630 651 631
3 631 651 652
3 631 652 632
3 632 652 653
3 632 653 633
3 633 653 654
3 633 654 634
3 634 654 655
3 634 655 635
3 635 655 656
3 635 656 636
3 636 656 657
3 636 657 637
3 637 657 658
3 637 658 638
3 638 658 659
3 638 659 639
3 640 660 661
3 640 661 641
3 641 661 662
3 641 662 642
3 642 662 663
3 642 663 643
3 643 663 664
3 643 664 644
3 644 664 665
3 644 665 645
3 645 665 666
3 645 666 646
3 646 666 667
3 646 667 647
3 647 667 668
3 647 668 648
3 648 668 669
3 648 669 649
3 649 669 670
3 649 670 650
3 650 670 671
3 650 671 651
3 651 671 672
3 651 672 652
3 652 672 673
3 652 673 653
3 653 673 674
3 653 674 654
3 654 674 675
3 654 675 655
3 655 675 676
3 655 676 656
3 656 676 677
3 656 677 657
3 657 677 678
3 657 678 658
3 658 678 679
3 658 679 659
3 660 680 681
3 660 681 661
3 661 681 682
3 661 682 662
3 662 682 683
3 662 683 663
3 663 683 684
3 663 684 664
3 664 684 685
3 664 685 665
3 665 685 686
3 665 686 666
3 666 686 687
3 666 687 667
3 667 687 688
3 667 688 668
3 668 688 689
3 668 689 669
3 669 689 690
3 669 690 670
3 670 690 691
3 670 691 671
3 671 691 692
3 671 692 672
3 672 692 693
3 672 693 673
3 673 693 694
3 673 694 674
3 674 694 695
3 674 695 675
3 675 695 696
3 675 696 676
3 676 696 697
3 676 697 677
3 677 697 698
3 677 698 678
3 678 698 699
3 678 699 679
3 680 700 701
3 680 701 681
3 681 701 702
3 681 702 682
3 682 702 703
3 682 703 683
3 683 703 704
3 683 704 684
3 684 704 705
3 684 705 685
3 685 705 706
3 685 706 686
3 686 706 707
3 686 707 687
3 687 707 708
3 687 708 688
3 688 708 709
3 688 709 689
3 689 709 710
3 689 710 690
3 690 710 711
3 690 711 691
3 691 711 712
3 691 712 692
3 692 712 713
3 692 713 693
3 693 713 714
3 693 714 694
3 694 714 715
3 694 715 695
3 695 715 716
3 695 716 696
3 696 716 717
3 696 717 697
3 697 717 718
3 697 718 698
3 698 718 719
3 698 719 699
3 700 720 721
3 700 721 701
3 701 721 722
3 701 722 702
3 702 722 723
3 702 723 703
3 703 723 724
3 703 724 704
3 704 724 725
3 704 725 705
3 705 725 726
3 705 726 706
3 706 726 727
3 706 727 707
3 707 727 728
3 707 728 708
3 708 728 729
3 708 729 709
3 709 729 730
3 709 730 710
3 710 730 731
3 710 731 711
3 711 731 732
3 711 732 712
3 712 732 733
3 712 733 713
3 713 733 734
3 713 734 714
3 714 734 735
3 714 735 715
3 715 735 736
3 715 736 716
3 716 736 737
3 716 737 717
3 717 737 738
3 717 738 718
3 718 738 739
3 718 739 719
3 720 740 741
3 720 741 721
3 721 741 742
3 721 742 722
3 722 742 743
3 722 743 723
3 723 743 744
3 723 744 724
3 724 744 745
3 724 745 725
3 725 745 746
3 725 746 726
3 726 746 747
3 726 747 727
3 727 747 748
3 727 748 728
3 728 748 749
3 728 749 729
3 729 749 750
3 729 750 730
3 730 750 751
3 730 751 731
3 731 751 752
3 731 752 732
3 732 752 753
3 732 753 733
3 733 753 754
3 733 754 734
3 734 754 755
3 734 755 735
3 735 755 756
3 735 756 736
3 736 756 757
3 736 757 737
3 737 757 758
3 737 758 738
3 738 758 759
3 738 759 739
3 740 760 761
3 740 761 741
3 741 761 762
3 741 762 742
3 742 762 763
3 742 763 743
3 743 763 764
3 743 764 744
3 744 764 765
3 744 765 745
3 745 765 766
3 745 766 746
3 746 766 767
3 746 767 747
3 747 767 768
3 747 768 748
3 748 768 769
3 748 769 749
3 749 769 770
3 749 770 750
3 750 770 771
3 750 771 751
3 751 771 772
3 751 772 752
3 752 772 773
3 752 773 753
3 753 773 774
3 753 774 754
3 754 774 775
3 754 775 755
3 755 775 776
3 755 776 756
3 756 776 777
3 756 777 757
3 757 777 778
3 757 778 758
3 758 778 779
3 758 779 759
3 760 780 781
3 760 781 761
3 761 781 782
3 761 782 762
3 762 782 783
3 762 783 763
3 763 783 784
3 763 784 764
3 764 784 785
3 764 785 765
3 765 785 786
3 765 786 766
3 766 786 787
3 766 787 767
3 767 787 788
3 767 788 768
3 768 788 789
3 768 789 769
3 769 789 790
3 769 790 770
3 770 790 791
3 770 791 771
3 771 791 792
3 771 792 772
3 772 792 793
3 772 793 773
3 773 793 794
3 773 794 774
3 774 794 795
3 774 795 775
3 775 795 796
3 775 796 776
3 776 796 797
3 776 797 777
3 777 797 798
3 777 798 778
3 778 798 799
3 778 799 779
3 780 0 1
3 780 1 781
3 781 1 2
3 781 2 782
3 782 2 3
3 782 3 783
3 783 3 4
3 783 4 784
3 784 4 5
3 784 5 785
3 785 5 6
3 785 6 786
3 786 6 7
3 786 7 787
3 787 7 8
3 787 8 788
3 788 8 9
3 788 9 789
3 789 9 10
3 789 10 790
3 790 10 11
3 790 11 791
3 791 11 12
3 791 12 792
3 792 12 13
3 792 13 793
3 793 13 14
3 793 14 794
3 794 14 15
3 794 15 795
3 795 15 16
3 795 16 796
3 796 16 17
3 796 17 797
3 797 17 18
3 797 18 798
3 798 18 19
3 798 19 799
