ply
format ascii 1.0
element vertex 20
property float x
property float y
property float z
element face 12
property list uchar int vertex_indices
end_header
1 1 1
1 1 -1
1 -1 1
1 -1 -1
-1 1 1
-1 1 -1
-1 -1 1
-1 -1 -1
0 1.618033988749895 0.6180339887498948
0 1.618033988749895 -0.6180339887498948
0 -1.618033988749895 0.6180339887498948
0 -1.618033988749895 -0.6180339887498948
0.6180339887498948 0 1.618033988749895
0.6180339887498948 0 -1.618033988749895
-0.6180339887498948 0 1.618033988749895
-0.6180339887498948 0 -1.618033988749895
1.618033988749895 0.6180339887498948 0
1.618033988749895 -0.6180339887498948 0
-1.618033988749895 0.6180339887498948 0
-1.618033988749895 -0.6180339887498948 0
5 0 8 4 14 12
5 0 16 17 2 12
5 0 8 9 1 16
5 1 9 5 15 13
5 1 13 3 17 16
5 2 10 6 14 12
5 2 17 3 11 10
5 3 11 7 15 13
5 4 14 6 19 18
5 4 8 9 5 18
5 5 15 7 19 18
5 6 10 11 7 19
