ply
format ascii 1.0
element vertex 600
property float x
property float y
property float z
element face 1080
property list uchar int vertex_indices
end_header
1.60000 0.00000 -0.40000
1.61206 0.00000 -0.31111
1.64679 0.00000 -0.22222
1.70000 0.00000 -0.13333
1.76527 0.00000 -0.04444
1.83473 0.00000 0.04444
1.90000 0.00000 0.13333
1.95321 0.00000 0.22222
1.98794 0.00000 0.31111
2.00000 0.00000 0.40000
1.98904 0.20906 -0.40000
2.00104 0.21032 -0.31111
2.03558 0.21395 -0.22222
2.08850 0.21951 -0.13333
2.15341 0.22633 -0.04444
2.22249 0.23359 0.04444
2.28740 0.24042 0.13333
2.34032 0.24598 0.22222
2.37486 0.24961 0.31111
2.38685 0.25087 0.40000
1.95630 0.41582 -0.40000
1.96809 0.41833 -0.31111
2.00206 0.42555 -0.22222
2.05411 0.43661 -0.13333
2.11795 0.45019 -0.04444
2.18590 0.46463 0.04444
2.24974 0.47820 0.13333
2.30179 0.48926 0.22222
2.33576 0.49648 0.31111
2.34755 0.49899 0.40000
1.52169 0.49443 -0.40000
1.53316 0.49815 -0.31111
1.56619 0.50889 -0.22222
1.61680 0.52533 -0.13333
1.67887 0.54550 -0.04444
1.74493 0.56696 0.04444
1.80701 0.58713 0.13333
1.85761 0.60357 0.22222
1.89064 0.61431 0.31111
1.90211 0.61803 0.40000
1.46167 0.65078 -0.40000
1.47269 0.65568 -0.31111
1.50442 0.66981 -0.22222
1.55303 0.69145 -0.13333
1.61265 0.71800 -0.04444
1.67611 0.74625 0.04444
1.73574 0.77280 0.13333
1.78435 0.79444 0.22222
1.81607 0.80857 0.31111
1.82709 0.81347 0.40000
1.38564 0.80000 -0.40000
1.39609 0.80603 -0.31111
1.42616 0.82340 -0.22222
1.47224 0.85000 -0.13333
1.52877 0.88264 -0.04444
1.58892 0.91736 0.04444
1.64545 0.95000 0.13333
1.69153 0.97660 0.22222
1.72161 0.99397 0.31111
1.73205 1.00000 0.40000
1.61803 1.17557 -0.40000
1.62779 1.18266 -0.31111
1.65589 1.20307 -0.22222
1.69894 1.23435 -0.13333
1.75174 1.27271 -0.04444
1.80793 1.31354 0.04444
1.86074 1.35191 0.13333
1.90379 1.38318 0.22222
1.93188 1.40360 0.31111
1.94164 1.41068 0.40000
1.48629 1.33826 -0.40000
1.49525 1.34633 -0.31111
1.52106 1.36957 -0.22222
1.56060 1.40517 -0.13333
1.60911 1.44885 -0.04444
1.66073 1.49533 0.04444
1.70923 1.53900 0.13333
1.74878 1.57460 0.22222
1.77458 1.59784 0.31111
1.78355 1.60591 0.40000
1.07061 1.18903 -0.40000
1.07868 1.19800 -0.31111
1.10192 1.22380 -0.22222
1.13752 1.26335 -0.13333
1.18120 1.31185 -0.04444
1.22767 1.36347 0.04444
1.27135 1.41198 0.13333
1.30695 1.45152 0.22222
1.33019 1.47733 0.31111
1.33826 1.48629 0.40000
0.94046 1.29443 -0.40000
0.94755 1.30419 -0.31111
0.96796 1.33228 -0.22222
0.99923 1.37533 -0.13333
1.03760 1.42813 -0.04444
1.07843 1.48433 0.04444
1.11679 1.53713 0.13333
1.14807 1.58018 0.22222
1.16848 1.60828 0.31111
1.17557 1.61803 0.40000
0.80000 1.38564 -0.40000
0.80603 1.39609 -0.31111
0.82340 1.42616 -0.22222
0.85000 1.47224 -0.13333
0.88264 1.52877 -0.04444
0.91736 1.58892 0.04444
0.95000 1.64545 0.13333
0.97660 1.69153 0.22222
0.99397 1.72161 0.31111
1.00000 1.73205 0.40000
0.81347 1.82709 -0.40000
0.81838 1.83811 -0.31111
0.83250 1.86984 -0.22222
0.85415 1.91845 -0.13333
0.88069 1.97807 -0.04444
0.90895 2.04153 0.04444
0.93549 2.10115 0.13333
0.95714 2.14976 0.22222
0.97126 2.18149 0.31111
0.97617 2.19251 0.40000
0.61803 1.90211 -0.40000
0.62176 1.91358 -0.31111
0.63249 1.94661 -0.22222
0.64894 1.99722 -0.13333
0.66911 2.05929 -0.04444
0.69057 2.12535 0.04444
0.71074 2.18743 0.13333
0.72718 2.23803 0.22222
0.73791 2.27106 0.31111
0.74164 2.28254 0.40000
0.33266 1.56504 -0.40000
0.33517 1.57683 -0.31111
0.34239 1.61080 -0.22222
0.35345 1.66285 -0.13333
0.36702 1.72669 -0.04444
0.38146 1.79464 0.04444
0.39503 1.85848 0.13333
0.40609 1.91053 0.22222
0.41332 1.94450 0.31111
0.41582 1.95630 0.40000
0.16725 1.59124 -0.40000
0.16851 1.60323 -0.31111
0.17214 1.63777 -0.22222
0.17770 1.69069 -0.13333
0.18452 1.75560 -0.04444
0.19178 1.82468 0.04444
0.19860 1.88959 0.13333
0.20417 1.94251 0.22222
0.20780 1.97705 0.31111
0.20906 1.98904 0.40000
0.00000 1.60000 -0.40000
0.00000 1.61206 -0.31111
0.00000 1.64679 -0.22222
0.00000 1.70000 -0.13333
0.00000 1.76527 -0.04444
0.00000 1.83473 0.04444
0.00000 1.90000 0.13333
0.00000 1.95321 0.22222
0.00000 1.98794 0.31111
0.00000 2.00000 0.40000
-0.20906 1.98904 -0.40000
-0.21032 2.00104 -0.31111
-0.21395 2.03558 -0.22222
-0.21951 2.08850 -0.13333
-0.22633 2.15341 -0.04444
-0.23359 2.22249 0.04444
-0.24042 2.28740 0.13333
-0.24598 2.34032 0.22222
-0.24961 2.37486 0.31111
-0.25087 2.38685 0.40000
-0.41582 1.95630 -0.40000
-0.41833 1.96809 -0.31111
-0.42555 2.00206 -0.22222
-0.43661 2.05411 -0.13333
-0.45019 2.11795 -0.04444
-0.46463 2.18590 0.04444
-0.47820 2.24974 0.13333
-0.48926 2.30179 0.22222
-0.49648 2.33576 0.31111
-0.49899 2.34755 0.40000
-0.49443 1.52169 -0.40000
-0.49815 1.53316 -0.31111
-0.50889 1.56619 -0.22222
-0.52533 1.61680 -0.13333
-0.54550 1.67887 -0.04444
-0.56696 1.74493 0.04444
-0.58713 1.80701 0.13333
-0.60357 1.85761 0.22222
-0.61431 1.89064 0.31111
-0.61803 1.90211 0.40000
-0.65078 1.46167 -0.40000
-0.65568 1.47269 -0.31111
-0.66981 1.50442 -0.22222
-0.69145 1.55303 -0.13333
-0.71800 1.61265 -0.04444
-0.74625 1.67611 0.04444
-0.77280 1.73574 0.13333
-0.79444 1.78435 0.22222
-0.80857 1.81607 0.31111
-0.81347 1.82709 0.40000
-0.80000 1.38564 -0.40000
-0.80603 1.39609 -0.31111
-0.82340 1.42616 -0.22222
-0.85000 1.47224 -0.13333
-0.88264 1.52877 -0.04444
-0.91736 1.58892 0.04444
-0.95000 1.64545 0.13333
-0.97660 1.69153 0.22222
-0.99397 1.72161 0.31111
-1.00000 1.73205 0.40000
-1.17557 1.61803 -0.40000
-1.18266 1.62779 -0.31111
-1.20307 1.65589 -0.22222
-1.23435 1.69894 -0.13333
-1.27271 1.75174 -0.04444
-1.31354 1.80793 0.04444
-1.35191 1.86074 0.13333
-1.38318 1.90379 0.22222
-1.40360 1.93188 0.31111
-1.41068 1.94164 0.40000
-1.33826 1.48629 -0.40000
-1.34633 1.49525 -0.31111
-1.36957 1.52106 -0.22222
-1.40517 1.56060 -0.13333
-1.44885 1.60911 -0.04444
-1.49533 1.66073 0.04444
-1.53900 1.70923 0.13333
-1.57460 1.74878 0.22222
-1.59784 1.77458 0.31111
-1.60591 1.78355 0.40000
-1.18903 1.07061 -0.40000
-1.19800 1.07868 -0.31111
-1.22380 1.10192 -0.22222
-1.26335 1.13752 -0.13333
-1.31185 1.18120 -0.04444
-1.36347 1.22767 0.04444
-1.41198 1.27135 0.13333
-1.45152 1.30695 0.22222
-1.47733 1.33019 0.31111
-1.48629 1.33826 0.40000
-1.29443 0.94046 -0.40000
-1.30419 0.94755 -0.31111
-1.33228 0.96796 -0.22222
-1.37533 0.99923 -0.13333
-1.42813 1.03760 -0.04444
-1.48433 1.07843 0.04444
-1.53713 1.11679 0.13333
-1.58018 1.14807 0.22222
-1.60828 1.16848 0.31111
-1.61803 1.17557 0.40000
-1.38564 0.80000 -0.40000
-1.39609 0.80603 -0.31111
-1.42616 0.82340 -0.22222
-1.47224 0.85000 -0.13333
-1.52877 0.88264 -0.04444
-1.58892 0.91736 0.04444
-1.64545 0.95000 0.13333
-1.69153 0.97660 0.22222
-1.72161 0.99397 0.31111
-1.73205 1.00000 0.40000
-1.82709 0.81347 -0.40000
-1.83811 0.81838 -0.31111
-1.86984 0.83250 -0.22222
-1.91845 0.85415 -0.13333
-1.97807 0.88069 -0.04444
-2.04153 0.90895 0.04444
-2.10115 0.93549 0.13333
-2.14976 0.95714 0.22222
-2.18149 0.97126 0.31111
-2.19251 0.97617 0.40000
-1.90211 0.61803 -0.40000
-1.91358 0.62176 -0.31111
-1.94661 0.63249 -0.22222
-1.99722 0.64894 -0.13333
-2.05929 0.66911 -0.04444
-2.12535 0.69057 0.04444
-2.18743 0.71074 0.13333
-2.23803 0.72718 0.22222
-2.27106 0.73791 0.31111
-2.28254 0.74164 0.40000
-1.56504 0.33266 -0.40000
-1.57683 0.33517 -0.31111
-1.61080 0.34239 -0.22222
-1.66285 0.35345 -0.13333
-1.72669 0.36702 -0.04444
-1.79464 0.38146 0.04444
-1.85848 0.39503 0.13333
-1.91053 0.40609 0.22222
-1.94450 0.41332 0.31111
-1.95630 0.41582 0.40000
-1.59124 0.16725 -0.40000
-1.60323 0.16851 -0.31111
-1.63777 0.17214 -0.22222
-1.69069 0.17770 -0.13333
-1.75560 0.18452 -0.04444
-1.82468 0.19178 0.04444
-1.88959 0.19860 0.13333
-1.94251 0.20417 0.22222
-1.97705 0.20780 0.31111
-1.98904 0.20906 0.40000
-1.60000 0.00000 -0.40000
-1.61206 0.00000 -0.31111
-1.64679 0.00000 -0.22222
-1.70000 0.00000 -0.13333
-1.76527 0.00000 -0.04444
-1.83473 0.00000 0.04444
-1.90000 0.00000 0.13333
-1.95321 0.00000 0.22222
-1.98794 0.00000 0.31111
-2.00000 0.00000 0.40000
-1.98904 -0.20906 -0.40000
-2.00104 -0.21032 -0.31111
-2.03558 -0.21395 -0.22222
-2.08850 -0.21951 -0.13333
-2.15341 -0.22633 -0.04444
-2.22249 -0.23359 0.04444
-2.28740 -0.24042 0.13333
-2.34032 -0.24598 0.22222
-2.37486 -0.24961 0.31111
-2.38685 -0.25087 0.40000
-1.95630 -0.41582 -0.40000
-1.96809 -0.41833 -0.31111
-2.00206 -0.42555 -0.22222
-2.05411 -0.43661 -0.13333
-2.11795 -0.45019 -0.04444
-2.18590 -0.46463 0.04444
-2.24974 -0.47820 0.13333
-2.30179 -0.48926 0.22222
-2.33576 -0.49648 0.31111
-2.34755 -0.49899 0.40000
-1.52169 -0.49443 -0.40000
-1.53316 -0.49815 -0.31111
-1.56619 -0.50889 -0.22222
-1.61680 -0.52533 -0.13333
-1.67887 -0.54550 -0.04444
-1.74493 -0.56696 0.04444
-1.80701 -0.58713 0.13333
-1.85761 -0.60357 0.22222
-1.89064 -0.61431 0.31111
-1.90211 -0.61803 0.40000
-1.46167 -0.65078 -0.40000
-1.47269 -0.65568 -0.31111
-1.50442 -0.66981 -0.22222
-1.55303 -0.69145 -0.13333
-1.61265 -0.71800 -0.04444
-1.67611 -0.74625 0.04444
-1.73574 -0.77280 0.13333
-1.78435 -0.79444 0.22222
-1.81607 -0.80857 0.31111
-1.82709 -0.81347 0.40000
-1.73205 -1.00000 -0.40000
-1.74250 -1.00603 -0.31111
-1.77257 -1.02340 -0.22222
-1.81865 -1.05000 -0.13333
-1.87518 -1.08264 -0.04444
-1.93533 -1.11736 0.04444
-1.99186 -1.15000 0.13333
-2.03794 -1.17660 0.22222
-2.06802 -1.19397 0.31111
-2.07846 -1.20000 0.40000
-1.61803 -1.17557 -0.40000
-1.62779 -1.18266 -0.31111
-1.65589 -1.20307 -0.22222
-1.69894 -1.23435 -0.13333
-1.75174 -1.27271 -0.04444
-1.80793 -1.31354 0.04444
-1.86074 -1.35191 0.13333
-1.90379 -1.38318 0.22222
-1.93188 -1.40360 0.31111
-1.94164 -1.41068 0.40000
-1.48629 -1.33826 -0.40000
-1.49525 -1.34633 -0.31111
-1.52106 -1.36957 -0.22222
-1.56060 -1.40517 -0.13333
-1.60911 -1.44885 -0.04444
-1.66073 -1.49533 0.04444
-1.70923 -1.53900 0.13333
-1.74878 -1.57460 0.22222
-1.77458 -1.59784 0.31111
-1.78355 -1.60591 0.40000
-1.07061 -1.18903 -0.40000
-1.07868 -1.19800 -0.31111
-1.10192 -1.22380 -0.22222
-1.13752 -1.26335 -0.13333
-1.18120 -1.31185 -0.04444
-1.22767 -1.36347 0.04444
-1.27135 -1.41198 0.13333
-1.30695 -1.45152 0.22222
-1.33019 -1.47733 0.31111
-1.33826 -1.48629 0.40000
-0.94046 -1.29443 -0.40000
-0.94755 -1.30419 -0.31111
-0.96796 -1.33228 -0.22222
-0.99923 -1.37533 -0.13333
-1.03760 -1.42813 -0.04444
-1.07843 -1.48433 0.04444
-1.11679 -1.53713 0.13333
-1.14807 -1.58018 0.22222
-1.16848 -1.60828 0.31111
-1.17557 -1.61803 0.40000
-0.80000 -1.38564 -0.40000
-0.80603 -1.39609 -0.31111
-0.82340 -1.42616 -0.22222
-0.85000 -1.47224 -0.13333
-0.88264 -1.52877 -0.04444
-0.91736 -1.58892 0.04444
-0.95000 -1.64545 0.13333
-0.97660 -1.69153 0.22222
-0.99397 -1.72161 0.31111
-1.00000 -1.73205 0.40000
-0.81347 -1.82709 -0.40000
-0.81838 -1.83811 -0.31111
-0.83250 -1.86984 -0.22222
-0.85415 -1.91845 -0.13333
-0.88069 -1.97807 -0.04444
-0.90895 -2.04153 0.04444
-0.93549 -2.10115 0.13333
-0.95714 -2.14976 0.22222
-0.97126 -2.18149 0.31111
-0.97617 -2.19251 0.40000
-0.61803 -1.90211 -0.40000
-0.62176 -1.91358 -0.31111
-0.63249 -1.94661 -0.22222
-0.64894 -1.99722 -0.13333
-0.66911 -2.05929 -0.04444
-0.69057 -2.12535 0.04444
-0.71074 -2.18743 0.13333
-0.72718 -2.23803 0.22222
-0.73791 -2.27106 0.31111
-0.74164 -2.28254 0.40000
-0.33266 -1.56504 -0.40000
-0.33517 -1.57683 -0.31111
-0.34239 -1.61080 -0.22222
-0.35345 -1.66285 -0.13333
-0.36702 -1.72669 -0.04444
-0.38146 -1.79464 0.04444
-0.39503 -1.85848 0.13333
-0.40609 -1.91053 0.22222
-0.41332 -1.94450 0.31111
-0.41582 -1.95630 0.40000
-0.16725 -1.59124 -0.40000
-0.16851 -1.60323 -0.31111
-0.17214 -1.63777 -0.22222
-0.17770 -1.69069 -0.13333
-0.18452 -1.75560 -0.04444
-0.19178 -1.82468 0.04444
-0.19860 -1.88959 0.13333
-0.20417 -1.94251 0.22222
-0.20780 -1.97705 0.31111
-0.20906 -1.98904 0.40000
-0.00000 -1.60000 -0.40000
-0.00000 -1.61206 -0.31111
-0.00000 -1.64679 -0.22222
-0.00000 -1.70000 -0.13333
-0.00000 -1.76527 -0.04444
-0.00000 -1.83473 0.04444
-0.00000 -1.90000 0.13333
-0.00000 -1.95321 0.22222
-0.00000 -1.98794 0.31111
-0.00000 -2.00000 0.40000
0.20906 -1.98904 -0.40000
0.21032 -2.00104 -0.31111
0.21395 -2.03558 -0.22222
0.21951 -2.08850 -0.13333
0.22633 -2.15341 -0.04444
0.23359 -2.22249 0.04444
0.24042 -2.28740 0.13333
0.24598 -2.34032 0.22222
0.24961 -2.37486 0.31111
0.25087 -2.38685 0.40000
0.41582 -1.95630 -0.40000
0.41833 -1.96809 -0.31111
0.42555 -2.00206 -0.22222
0.43661 -2.05411 -0.13333
0.45019 -2.11795 -0.04444
0.46463 -2.18590 0.04444
0.47820 -2.24974 0.13333
0.48926 -2.30179 0.22222
0.49648 -2.33576 0.31111
0.49899 -2.34755 0.40000
0.49443 -1.52169 -0.40000
0.49815 -1.53316 -0.31111
0.50889 -1.56619 -0.22222
0.52533 -1.61680 -0.13333
0.54550 -1.67887 -0.04444
0.56696 -1.74493 0.04444
0.58713 -1.80701 0.13333
0.60357 -1.85761 0.22222
0.61431 -1.89064 0.31111
0.61803 -1.90211 0.40000
0.65078 -1.46167 -0.40000
0.65568 -1.47269 -0.31111
0.66981 -1.50442 -0.22222
0.69145 -1.55303 -0.13333
0.71800 -1.61265 -0.04444
0.74625 -1.67611 0.04444
0.77280 -1.73574 0.13333
0.79444 -1.78435 0.22222
0.80857 -1.81607 0.31111
0.81347 -1.82709 0.40000
0.80000 -1.38564 -0.40000
0.80603 -1.39609 -0.31111
0.82340 -1.42616 -0.22222
0.85000 -1.47224 -0.13333
0.88264 -1.52877 -0.04444
0.91736 -1.58892 0.04444
0.95000 -1.64545 0.13333
0.97660 -1.69153 0.22222
0.99397 -1.72161 0.31111
1.00000 -1.73205 0.40000
1.17557 -1.61803 -0.40000
1.18266 -1.62779 -0.31111
1.20307 -1.65589 -0.22222
1.23435 -1.69894 -0.13333
1.27271 -1.75174 -0.04444
1.31354 -1.80793 0.04444
1.35191 -1.86074 0.13333
1.38318 -1.90379 0.22222
1.40360 -1.93188 0.31111
1.41068 -1.94164 0.40000
1.33826 -1.48629 -0.40000
1.34633 -1.49525 -0.31111
1.36957 -1.52106 -0.22222
1.40517 -1.56060 -0.13333
1.44885 -1.60911 -0.04444
1.49533 -1.66073 0.04444
1.53900 -1.70923 0.13333
1.57460 -1.74878 0.22222
1.59784 -1.77458 0.31111
1.60591 -1.78355 0.40000
1.18903 -1.07061 -0.40000
1.19800 -1.07868 -0.31111
1.22380 -1.10192 -0.22222
1.26335 -1.13752 -0.13333
1.31185 -1.18120 -0.04444
1.36347 -1.22767 0.04444
1.41198 -1.27135 0.13333
1.45152 -1.30695 0.22222
1.47733 -1.33019 0.31111
1.48629 -1.33826 0.40000
1.29443 -0.94046 -0.40000
1.30419 -0.94755 -0.31111
1.33228 -0.96796 -0.22222
1.37533 -0.99923 -0.13333
1.42813 -1.03760 -0.04444
1.48433 -1.07843 0.04444
1.53713 -1.11679 0.13333
1.58018 -1.14807 0.22222
1.60828 -1.16848 0.31111
1.61803 -1.17557 0.40000
1.38564 -0.80000 -0.40000
1.39609 -0.80603 -0.31111
1.42616 -0.82340 -0.22222
1.47224 -0.85000 -0.13333
1.52877 -0.88264 -0.04444
1.58892 -0.91736 0.04444
1.64545 -0.95000 0.13333
1.69153 -0.97660 0.22222
1.72161 -0.99397 0.31111
1.73205 -1.00000 0.40000
1.82709 -0.81347 -0.40000
1.83811 -0.81838 -0.31111
1.86984 -0.83250 -0.22222
1.91845 -0.85415 -0.13333
1.97807 -0.88069 -0.04444
2.04153 -0.90895 0.04444
2.10115 -0.93549 0.13333
2.14976 -0.95714 0.22222
2.18149 -0.97126 0.31111
2.19251 -0.97617 0.40000
1.90211 -0.61803 -0.40000
1.91358 -0.62176 -0.31111
1.94661 -0.63249 -0.22222
1.99722 -0.64894 -0.13333
2.05929 -0.66911 -0.04444
2.12535 -0.69057 0.04444
2.18743 -0.71074 0.13333
2.23803 -0.72718 0.22222
2.27106 -0.73791 0.31111
2.28254 -0.74164 0.40000
1.56504 -0.33266 -0.40000
1.57683 -0.33517 -0.31111
1.61080 -0.34239 -0.22222
1.66285 -0.35345 -0.13333
1.72669 -0.36702 -0.04444
1.79464 -0.38146 0.04444
1.85848 -0.39503 0.13333
1.91053 -0.40609 0.22222
1.94450 -0.41332 0.31111
1.95630 -0.41582 0.40000
1.59124 -0.16725 -0.40000
1.60323 -0.16851 -0.31111
1.63777 -0.17214 -0.22222
1.69069 -0.17770 -0.13333
1.75560 -0.18452 -0.04444
1.82468 -0.19178 0.04444
1.88959 -0.19860 0.13333
1.94251 -0.20417 0.22222
1.97705 -0.20780 0.31111
1.98904 -0.20906 0.40000
3 0 10 11
3 0 11 1
3 1 11 12
3 1 12 2
3 2 12 13
3 2 13 3
3 3 13 14
3 3 14 4
3 4 14 15
3 4 15 5
3 5 15 16
3 5 16 6
3 6 16 17
3 6 17 7
3 7 17 18
3 7 18 8
3 8 18 19
3 8 19 9
3 10 20 21
3 10 21 11
3 11 21 22
3 11 22 12
3 12 22 23
3 12 23 13
3 13 23 24
3 13 24 14
3 14 24 25
3 14 25 15
3 15 25 26
3 15 26 16
3 16 26 27
3 16 27 17
3 17 27 28
3 17 28 18
3 18 28 29
3 18 29 19
3 20 30 31
3 20 31 21
3 21 31 32
3 21 32 22
3 22 32 33
3 22 33 23
3 23 33 34
3 23 34 24
3 24 34 35
3 24 35 25
3 25 35 36
3 25 36 26
3 26 36 37
3 26 37 27
3 27 37 38
3 27 38 28
3 28 38 39
3 28 39 29
3 30 40 41
3 30 41 31
3 31 41 42
3 31 42 32
3 32 42 43
3 32 43 33
3 33 43 44
3 33 44 34
3 34 44 45
3 34 45 35
3 35 45 46
3 35 46 36
3 36 46 47
3 36 47 37
3 37 47 48
3 37 48 38
3 38 48 49
3 38 49 39
3 40 50 51
3 40 51 41
3 41 51 52
3 41 52 42
3 42 52 53
3 42 53 43
3 43 53 54
3 43 54 44
3 44 54 55
3 44 55 45
3 45 55 56
3 45 56 46
3 46 56 57
3 46 57 47
3 47 57 58
3 47 58 48
3 48 58 59
3 48 59 49
3 50 60 61
3 50 61 51
3 51 61 62
3 51 62 52
3 52 62 63
3 52 63 53
3 53 63 64
3 53 64 54
3 54 64 65
3 54 65 55
3 55 65 66
3 55 66 56
3 56 66 67
3 56 67 57
3 57 67 68
3 57 68 58
3 58 68 69
3 58 69 59
3 60 70 71
3 60 71 61
3 61 71 72
3 61 72 62
3 62 72 73
3 62 73 63
3 63 73 74
3 63 74 64
3 64 74 75
3 64 75 65
3 65 75 76
3 65 76 66
3 66 76 77
3 66 77 67
3 67 77 78
3 67 78 68
3 68 78 79
3 68 79 69
3 70 80 81
3 70 81 71
3 71 81 82
3 71 82 72
3 72 82 83
3 72 83 73
3 73 83 84
3 73 84 74
3 74 84 85
3 74 85 75
3 75 85 86
3 75 86 76
3 76 86 87
3 76 87 77
3 77 87 88
3 77 88 78
3 78 88 89
3 78 89 79
3 80 90 91
3 80 91 81
3 81 91 92
3 81 92 82
3 82 92 93
3 82 93 83
3 83 93 94
3 83 94 84
3 84 94 95
3 84 95 85
3 85 95 96
3 85 96 86
3 86 96 97
3 86 97 87
3 87 97 98
3 87 98 88
3 88 98 99
3 88 99 89
3 90 100 101
3 90 101 91
3 91 101 102
3 91 102 92
3 92 102 103
3 92 103 93
3 93 103 104
3 93 104 94
3 94 104 105
3 94 105 95
3 95 105 106
3 95 106 96
3 96 106 107
3 96 107 97
3 97 107 108
3 97 108 98
3 98 108 109
3 98 109 99
3 100 110 111
3 100 111 101
3 101 111 112
3 101 112 102
3 102 112 113
3 102 113 103
3 103 113 114
3 103 114 104
3 104 114 115
3 104 115 105
3 105 115 116
3 105 116 106
3 106 116 117
3 106 117 107
3 107 117 118
3 107 118 108
3 108 118 119
3 108 119 109
3 110 120 121
3 110 121 111
3 111 121 122
3 111 122 112
3 112 122 123
3 112 123 113
3 113 123 124
3 113 124 114
3 114 124 125
3 114 125 115
3 115 125 126
3 115 126 116
3 116 126 127
3 116 127 117
3 117 127 128
3 117 128 118
3 118 128 129
3 118 129 119
3 120 130 131
3 120 131 121
3 121 131 132
3 121 132 122
3 122 132 133
3 122 133 123
3 123 133 134
3 123 134 124
3 124 134 135
3 124 135 125
3 125 135 136
3 125 136 126
3 126 136 137
3 126 137 127
3 127 137 138
3 127 138 128
3 128 138 139
3 128 139 129
3 130 140 141
3 130 141 131
3 131 141 142
3 131 142 132
3 132 142 143
3 132 143 133
3 133 143 144
3 133 144 134
3 134 144 145
3 134 145 135
3 135 145 146
3 135 146 136
3 136 146 147
3 136 147 137
3 137 147 148
3 137 148 138
3 138 148 149
3 138 149 139
3 140 150 151
3 140 151 141
3 141 151 152
3 141 152 142
3 142 152 153
3 142 153 143
3 143 153 154
3 143 154 144
3 144 154 155
3 144 155 145
3 145 155 156
3 145 156 146
3 146 156 157
3 146 157 147
3 147 157 158
3 147 158 148
3 148 158 159
3 148 159 149
3 150 160 161
3 150 161 151
3 151 161 162
3 151 162 152
3 152 162 163
3 152 163 153
3 153 163 164
3 153 164 154
3 154 164 165
3 154 165 155
3 155 165 166
3 155 166 156
3 156 166 167
3 156 167 157
3 157 167 168
3 157 168 158
3 158 168 169
3 158 169 159
3 160 170 171
3 160 171 161
3 161 171 172
3 161 172 162
3 162 172 173
3 162 173 163
3 163 173 174
3 163 174 164
3 164 174 175
3 164 175 165
3 165 175 176
3 165 176 166
3 166 176 177
3 166 177 167
3 167 177 178
3 167 178 168
3 168 178 179
3 168 179 169
3 170 180 181
3 170 181 171
3 171 181 182
3 171 182 172
3 172 182 183
3 172 183 173
3 173 183 184
3 173 184 174
3 174 184 185
3 174 185 175
3 175 185 186
3 175 186 176
3 176 186 187
3 176 187 177
3 177 187 188
3 177 188 178
3 178 188 189
3 178 189 179
3 180 190 191
3 180 191 181
3 181 191 192
3 181 192 182
3 182 192 193
3 182 193 183
3 183 193 194
3 183 194 184
3 184 194 195
3 184 195 185
3 185 195 196
3 185 196 186
3 186 196 197
3 186 197 187
3 187 197 198
3 187 198 188
3 188 198 199
3 188 199 189
3 190 200 201
3 190 201 191
3 191 201 202
3 191 202 192
3 192 202 203
3 192 203 193
3 193 203 204
3 193 204 194
3 194 204 205
3 194 205 195
3 195 205 206
3 195 206 196
3 196 206 207
3 196 207 197
3 197 207 208
3 197 208 198
3 198 208 209
3 198 209 199
3 200 210 211
3 200 211 201
3 201 211 212
3 201 212 202
3 202 212 213
3 202 213 203
3 203 213 214
3 203 214 204
3 204 214 215
3 204 215 205
3 205 215 216
3 205 216 206
3 206 216 217
3 206 217 207
3 207 217 218
3 207 218 208
3 208 218 219
3 208 219 209
3 210 220 221
3 210 221 211
3 211 221 222
3 211 222 212
3 212 222 223
3 212 223 213
3 213 223 224
3 213 224 214
3 214 224 225
3 214 225 215
3 215 225 226
3 215 226 216
3 216 226 227
3 216 227 217
3 217 227 228
3 217 228 218
3 218 228 229
3 218 229 219
3 220 230 231
3 220 231 221
3 221 231 232
3 221 232 222
3 222 232 233
3 222 233 223
3 223 233 234
3 223 234 224
3 224 234 235
3 224 235 225
3 225 235 236
3 225 236 226
3 226 236 237
3 226 237 227
3 227 237 238
3 227 238 228
3 228 238 239
3 228 239 229
3 230 240 241
3 230 241 231
3 231 241 242
3 231 242 232
3 232 242 243
3 232 243 233
3 233 243 244
3 233 244 234
3 234 244 245
3 234 245 235
3 235 245 246
3 235 246 236
3 236 246 247
3 236 247 237
3 237 247 248
3 237 248 238
3 238 248 249
3 238 249 239
3 240 250 251
3 240 251 241
3 241 251 252
3 241 252 242
3 242 252 253
3 242 253 243
3 243 253 254
3 243 254 244
3 244 254 255
3 244 255 245
3 245 255 256
3 245 256 246
3 246 256 257
3 246 257 247
3 247 257 258
3 247 258 248
3 248 258 259
3 248 259 249
3 250 260 261
3 250 261 251
3 251 261 262
3 251 262 252
3 252 262 263
3 252 263 253
3 253 263 264
3 253 264 254
3 254 264 265
3 254 265 255
3 255 265 266
3 255 266 256
3 256 266 267
3 256 267 257
3 257 267 268
3 257 268 258
3 258 268 269
3 258 269 259
3 260 270 271
3 260 271 261
3 261 271 272
3 261 272 262
3 262 272 273
3 262 273 263
3 263 273 274
3 263 274 264
3 264 274 275
3 264 275 265
3 265 275 276
3 265 276 266
3 266 276 277
3 266 277 267
3 267 277 278
3 267 278 268
3 268 278 279
3 268 279 269
3 270 280 281
3 270 281 271
3 271 281 282
3 271 282 272
3 272 282 283
3 272 283 273
3 273 283 284
3 273 284 274
3 274 284 285
3 274 285 275
3 275 285 286
3 275 286 276
3 276 286 287
3 276 287 277
3 277 287 288
3 277 288 278
3 278 288 289
3 278 289 279
3 280 290 291
3 280 291 281
3 281 291 292
3 281 292 282
3 282 292 293
3 282 293 283
3 283 293 294
3 283 294 284
3 284 294 295
3 284 295 285
3 285 295 296
3 285 296 286
3 286 296 297
3 286 297 287
3 287 297 298
3 287 298 288
3 288 298 299
3 288 299 289
3 290 300 301
3 290 301 291
3 291 301 302
3 291 302 292
3 292 302 303
3 292 303 293
3 293 303 304
3 293 304 294
3 294 304 305
3 294 305 295
3 295 305 306
3 295 306 296
3 296 306 307
3 296 307 297
3 297 307 308
3 297 308 298
3 298 308 309
3 298 309 299
3 300 310 311
3 300 311 301
3 301 311 312
3 301 312 302
3 302 312 313
3 302 313 303
3 303 313 314
3 303 314 304
3 304 314 315
3 304 315 305
3 305 315 316
3 305 316 306
3 306 316 317
3 306 317 307
3 307 317 318
3 307 318 308
3 308 318 319
3 308 319 309
3 310 320 321
3 310 321 311
3 311 321 322
3 311 322 312
3 312 322 323
3 312 323 313
3 313 323 324
3 313 324 314
3 314 324 325
3 314 325 315
3 315 325 326
3 315 326 316
3 316 326 327
3 316 327 317
3 317 327 328
3 317 328 318
3 318 328 329
3 318 329 319
3 320 330 331
3 320 331 321
3 321 331 332
3 321 332 322
3 322 332 333
3 322 333 323
3 323 333 334
3 323 334 324
3 324 334 335
3 324 335 325
3 325 335 336
3 325 336 326
3 326 336 337
3 326 337 327
3 327 337 338
3 327 338 328
3 328 338 339
3 328 339 329
3 330 340 341
3 330 341 331
3 331 341 342
3 331 342 332
3 332 342 343
3 332 343 333
3 333 343 344
3 333 344 334
3 334 344 345
3 334 345 335
3 335 345 346
3 335 346 336
3 336 346 347
3 336 347 337
3 337 347 348
3 337 348 338
3 338 348 349
3 338 349 339
3 340 350 351
3 340 351 341
3 341 351 352
3 341 352 342
3 342 352 353
3 342 353 343
3 343 353 354
3 343 354 344
3 344 354 355
3 344 355 345
3 345 355 356
3 345 356 346
3 346 356 357
3 346 357 347
3 347 357 358
3 347 358 348
3 348 358 359
3 348 359 349
3 350 360 361
3 350 361 351
3 351 361 362
3 351 362 352
3 352 362 363
3 352 363 353
3 353 363 364
3 353 364 354
3 354 364 365
3 354 365 355
3 355 365 366
3 355 366 356
3 356 366 367
3 356 367 357
3 357 367 368
3 357 368 358
3 358 368 369
3 358 369 359
3 360 370 371
3 360 371 361
3 361 371 372
3 361 372 362
3 362 372 373
3 362 373 363
3 363 373 374
3 363 374 364
3 364 374 375
3 364 375 365
3 365 375 376
3 365 376 366
3 366 376 377
3 366 377 367
3 367 377 378
3 367 378 368
3 368 378 379
3 368 379 369
3 370 380 381
3 370 381 371
3 371 381 382
3 371 382 372
3 372 382 383
3 372 383 373
3 373 383 384
3 373 384 374
3 374 384 385
3 374 385 375
3 375 385 386
3 375 386 376
3 376 386 387
3 376 387 377
3 377 387 388
3 377 388 378
3 378 388 389
3 378 389 379
3 380 390 391
3 380 391 381
3 381 391 392
3 381 392 382
3 382 392 393
3 382 393 383
3 383 393 394
3 383 394 384
3 384 394 395
3 384 395 385
3 385 395 396
3 385 396 386
3 386 396 397
3 386 397 387
3 387 397 398
3 387 398 388
3 388 398 399
3 388 399 389
3 390 400 401
3 390 401 391
3 391 401 402
3 391 402 392
3 392 402 403
3 392 403 393
3 393 403 404
3 393 404 394
3 394 404 405
3 394 405 395
3 395 405 406
3 395 406 396
3 396 406 407
3 396 407 397
3 397 407 408
3 397 408 398
3 398 408 409
3 398 409 399
3 400 410 411
3 400 411 401
3 401 411 412
3 401 412 402
3 402 412 413
3 402 413 403
3 403 413 414
3 403 414 404
3 404 414 415
3 404 415 405
3 405 415 416
3 405 416 406
3 406 416 417
3 406 417 407
3 407 417 418
3 407 418 408
3 408 418 419
3 408 419 409
3 410 420 421
3 410 421 411
3 411 421 422
3 411 422 412
3 412 422 423
3 412 423 413
3 413 423 424
3 413 424 414
3 414 424 425
3 414 425 415
3 415 425 426
3 415 426 416
3 416 426 427
3 416 427 417
3 417 427 428
3 417 428 418
3 418 428 429
3 418 429 419
3 420 430 431
3 420 431 421
3 421 431 432
3 421 432 422
3 422 432 433
3 422 433 423
3 423 433 434
3 423 434 424
3 424 434 435
3 424 435 425
3 425 435 436
3 425 436 426
3 426 436 437
3 426 437 427
3 427 437 438
3 427 438 428
3 428 438 439
3 428 439 429
3 430 440 441
3 430 441 431
3 431 441 442
3 431 442 432
3 432 442 443
3 432 443 433
3 433 443 444
3 433 444 434
3 434 444 445
3 434 445 435
3 435 445 446
3 435 446 436
3 436 446 447
3 436 447 437
3 437 447 448
3 437 448 438
3 438 448 449
3 438 449 439
3 440 450 451
3 440 451 441
3 441 451 452
3 441 452 442
3 442 452 453
3 442 453 443
3 443 453 454
3 443 454 444
3 444 454 455
3 444 455 445
3 445 455 456
3 445 456 446
3 446 456 457
3 446 457 447
3 447 457 458
3 447 458 448
3 448 458 459
3 448 459 449
3 450 460 461
3 450 461 451
3 451 461 462
3 451 462 452
3 452 462 463
3 452 463 453
3 453 463 464
3 453 464 454
3 454 464 465
3 454 465 455
3 455 465 466
3 455 466 456
3 456 466 467
3 456 467 457
3 457 467 468
3 457 468 458
3 458 468 469
3 458 469 459
3 460 470 471
3 460 471 461
3 461 471 472
3 461 472 462
3 462 472 473
3 462 473 463
3 463 473 474
3 463 474 464
3 464 474 475
3 464 475 465
3 465 475 476
3 465 476 466
3 466 476 477
3 466 477 467
3 467 477 478
3 467 478 468
3 468 478 479
3 468 479 469
3 470 480 481
3 470 481 471
3 471 481 482
3 471 482 472
3 472 482 483
3 472 483 473
3 473 483 484
3 473 484 474
3 474 484 485
3 474 485 475
3 475 485 486
3 475 486 476
3 476 486 487
3 476 487 477
3 477 487 488
3 477 488 478
3 478 488 489
3 478 489 479
3 480 490 491
3 480 491 481
3 481 491 492
3 481 492 482
3 482 492 493
3 482 493 483
3 483 493 494
3 483 494 484
3 484 494 495
3 484 495 485
3 485 495 496
3 485 496 486
3 486 496 497
3 486 497 487
3 487 497 498
3 487 498 488
3 488 498 499
3 488 499 489
3 490 500 501
3 490 501 491
3 491 501 502
3 491 502 492
3 492 502 503
3 492 503 493
3 493 503 504
3 493 504 494
3 494 504 505
3 494 505 495
3 495 505 506
3 495 506 496
3 496 506 507
3 496 507 497
3 497 507 508
3 497 508 498
3 498 508 509
3 498 509 499
3 500 510 511
3 500 511 501
3 501 511 512
3 501 512 502
3 502 512 513
3 502 513 503
3 503 513 514
3 503 514 504
3 504 514 515
3 504 515 505
3 505 515 516
3 505 516 506
3 506 516 517
3 506 517 507
3 507 517 518
3 507 518 508
3 508 518 519
3 508 519 509
3 510 520 521
3 510 521 511
3 511 521 522
3 511 522 512
3 512 522 523
3 512 523 513
3 513 523 524
3 513 524 514
3 514 524 525
3 514 525 515
3 515 525 526
3 515 526 516
3 516 526 527
3 516 527 517
3 517 527 528
3 517 528 518
3 518 528 529
3 518 529 519
3 520 530 531
3 520 531 521
3 521 531 532
3 521 532 522
3 522 532 533
3 522 533 523
3 523 533 534
3 523 534 524
3 524 534 535
3 524 535 525
3 525 535 536
3 525 536 526
3 526 536 537
3 526 537 527
3 527 537 538
3 527 538 528
3 528 538 539
3 528 539 529
3 530 540 541
3 530 541 531
3 531 541 542
3 531 542 532
3 532 542 543
3 532 543 533
3 533 543 544
3 533 544 534
3 534 544 545
3 534 545 535
3 535 545 546
3 535 546 536
3 536 546 547
3 536 547 537
3 537 547 548
3 537 548 538
3 538 548 549
3 538 549 539
3 540 550 551
3 540 551 541
3 541 551 552
3 541 552 542
3 542 552 553
3 542 553 543
3 543 553 554
3 543 554 544
3 544 554 555
3 544 555 545
3 545 555 556
3 545 556 546
3 546 556 557
3 546 557 547
3 547 557 558
3 547 558 548
3 548 558 559
3 548 559 549
3 550 560 561
3 550 561 551
3 551 561 562
3 551 562 552
3 552 562 563
3 552 563 553
3 553 563 564
3 553 564 554
3 554 564 565
3 554 565 555
3 555 565 566
3 555 566 556
3 556 566 567
3 556 567 557
3 557 567 568
3 557 568 558
3 558 568 569
3 558 569 559
3 560 570 571
3 560 571 561
3 561 571 572
3 561 572 562
3 562 572 573
3 562 573 563
3 563 573 574
3 563 574 564
3 564 574 575
3 564 575 565
3 565 575 576
3 565 576 566
3 566 576 577
3 566 577 567
3 567 577 578
3 567 578 568
3 568 578 579
3 568 579 569
3 570 580 581
3 570 581 571
3 571 581 582
3 571 582 572
3 572 582 583
3 572 583 573
3 573 583 584
3 573 584 574
3 574 584 585
3 574 585 575
3 575 585 586
3 575 586 576
3 576 586 587
3 576 587 577
3 577 587 588
3 577 588 578
3 578 588 589
3 578 589 579
3 580 590 591
3 580 591 581
3 581 591 592
3 581 592 582
3 582 592 593
3 582 593 583
3 583 593 594
3 583 594 584
3 584 594 595
3 584 595 585
3 585 595 596
3 585 596 586
3 586 596 597
3 586 597 587
3 587 597 598
3 587 598 588
3 588 598 599
3 588 599 589
3 590 0 1
3 590 1 591
3 591 1 2
3 591 2 592
3 592 2 3
3 592 3 593
3 593 3 4
3 593 4 594
3 594 4 5
3 594 5 595
3 595 5 6
3 595 6 596
3 596 6 7
3 596 7 597
3 597 7 8
3 597 8 598
3 598 8 9
3 598 9 599
