ply
format ascii 1.0
element vertex 12
property float x
property float y
property float z
element face 20
property list uchar int vertex_indices
end_header
0 -1 -1.618033988749895
-1 -1.618033988749895 0
-1.618033988749895 0 -1
0 -1 1.618033988749895
-1 1.618033988749895 0
-1.618033988749895 0 1
0 1 -1.618033988749895
1 -1.618033988749895 0
1.618033988749895 0 -1
0 1 1.618033988749895
1 1.618033988749895 0
1.618033988749895 0 1
3 0 8 4
3 0 5 10
3 2 4 9
3 2 11 5
3 1 6 8
3 1 10 7
3 3 9 6
3 3 7 11
3 0 10 8
3 1 8 10
3 2 9 11
3 3 11 9
3 4 2 0
3 5 0 2
3 6 1 3
3 7 3 1
3 8 6 4
3 9 4 6
3 10 5 7
3 11 7 5
