ply
format ascii 1.0
element vertex 1200
property float x
property float y
property float z
element face 2400
property list uchar int vertex_indices
end_header
2.19938 0.01568 0.00000
2.15788 0.05620 -0.10915
2.05608 0.07525 -0.17662
1.93285 0.06556 -0.17662
1.83527 0.03083 -0.10915
1.80062 -0.01568 -0.00000
1.84212 -0.05620 0.10915
1.94392 -0.07525 0.17662
2.06715 -0.06556 0.17662
2.16473 -0.03083 0.10915
2.18632 0.15077 0.04181
2.13909 0.18403 -0.06747
2.03560 0.18681 -0.13500
1.91539 0.15806 -0.13500
1.82436 0.10875 -0.06747
1.79729 0.05772 0.04181
1.84452 0.02446 0.15109
1.94801 0.02167 0.21863
2.06822 0.05043 0.21863
2.15925 0.09973 0.15109
2.15259 0.28155 0.08316
2.10105 0.30657 -0.02636
1.99851 0.29304 -0.09405
1.88415 0.24614 -0.09405
1.80164 0.18378 -0.02636
1.78250 0.12978 0.08316
1.83404 0.10476 0.19269
1.93658 0.11829 0.26038
2.05094 0.16518 0.26038
2.13345 0.22754 0.19269
2.09968 0.40455 0.12361
2.04545 0.42068 0.01371
1.94643 0.39135 -0.05421
1.84045 0.32774 -0.05421
1.76797 0.25417 0.01371
1.75670 0.19872 0.12361
1.81093 0.18259 0.23350
1.90995 0.21193 0.30143
2.01593 0.27553 0.30143
2.08841 0.34910 0.23350
2.02978 0.51683 0.16269
1.97461 0.52382 0.05231
1.88148 0.47965 -0.01592
1.78596 0.40119 -0.01592
1.72455 0.31842 0.05231
1.72069 0.26294 0.16269
1.77586 0.25595 0.27308
1.86899 0.30012 0.34131
1.96450 0.37857 0.34131
2.02592 0.46135 0.27308
1.94557 0.61617 0.20000
1.89122 0.61413 0.08900
1.80606 0.55650 0.02040
1.72262 0.46531 0.02040
1.67277 0.37537 0.08900
1.67556 0.32105 0.20000
1.72991 0.32309 0.31100
1.81508 0.38072 0.37960
1.89851 0.47191 0.37960
1.94836 0.56185 0.31100
1.85001 0.70108 0.23511
1.79817 0.69048 0.12341
1.72270 0.62108 0.05437
1.65243 0.51939 0.05437
1.61420 0.42426 0.12341
1.62261 0.37201 0.23511
1.67445 0.38262 0.34682
1.74992 0.45202 0.41586
1.82019 0.55371 0.41586
1.85842 0.64884 0.34682
1.74609 0.77085 0.26765
1.69831 0.75246 0.15514
1.63387 0.67315 0.08561
1.57736 0.56322 0.08561
1.55038 0.46465 0.15514
1.56323 0.41510 0.26765
1.61100 0.43349 0.38016
1.67545 0.51280 0.44969
1.73196 0.62273 0.44969
1.75894 0.72130 0.38016
1.63663 0.82541 0.29726
1.59429 0.80026 0.18388
1.54182 0.71300 0.11381
1.49924 0.59696 0.11381
1.48282 0.49646 0.18388
1.49884 0.44990 0.29726
1.54117 0.47505 0.41063
1.59365 0.56231 0.48070
1.63623 0.67835 0.48070
1.65265 0.77885 0.41063
1.52418 0.86524 0.32361
1.48844 0.83454 0.20933
1.44852 0.74128 0.13871
1.41966 0.62109 0.13871
1.41289 0.51988 0.20933
1.43080 0.47629 0.32361
1.46654 0.50699 0.43788
1.50646 0.60025 0.50851
1.53532 0.72044 0.50851
1.54209 0.82166 0.43788
1.41093 0.89121 0.34641
1.38270 0.85631 0.23125
1.35558 0.75896 0.16007
1.33995 0.63634 0.16007
1.34177 0.53530 0.23125
1.36035 0.49443 0.34641
1.38858 0.52933 0.46157
1.41570 0.62668 0.53275
1.43133 0.74930 0.53275
1.42951 0.85034 0.46157
1.29865 0.90449 0.36542
1.27859 0.86679 0.24942
1.26426 0.76712 0.17774
1.26115 0.64355 0.17774
1.27044 0.54328 0.24942
1.28858 0.50462 0.36542
1.30864 0.54232 0.48141
1.32297 0.64199 0.55310
1.32608 0.76556 0.55310
1.31679 0.86582 0.48141
1.18871 0.90637 0.38042
1.17725 0.86728 0.26372
1.17545 0.76692 0.19159
1.18401 0.64361 0.19159
1.19965 0.54445 0.26372
1.21641 0.50733 0.38042
1.22787 0.54641 0.49713
1.22967 0.64678 0.56925
1.22111 0.77009 0.56925
1.20547 0.86924 0.49713
1.08213 0.89820 0.39126
1.07946 0.85911 0.27403
1.08973 0.75949 0.20157
1.10903 0.63740 0.20157
1.12998 0.53947 0.27403
1.14458 0.50311 0.39126
1.14725 0.54220 0.50849
1.13698 0.64182 0.58094
1.11768 0.76391 0.58094
1.09673 0.86184 0.50849
0.97959 0.88134 0.39781
0.98567 0.84351 0.28029
1.00740 0.74588 0.20766
1.03647 0.62574 0.20766
1.06178 0.52898 0.28029
1.07367 0.49256 0.39781
1.06759 0.53039 0.51533
1.04586 0.62802 0.58796
1.01679 0.74816 0.58796
0.99148 0.84492 0.51533
0.88151 0.85704 0.40000
0.89611 0.82161 0.28248
0.92855 0.72700 0.20985
0.96643 0.60934 0.20985
0.99529 0.51358 0.28248
1.00411 0.47629 0.40000
0.98951 0.51172 0.51752
0.95707 0.60633 0.59015
0.91919 0.72399 0.59015
0.89033 0.81975 0.51752
0.78809 0.82648 0.39781
0.81079 0.79441 0.28061
0.85310 0.70362 0.20818
0.89886 0.58880 0.20818
0.93059 0.49379 0.28061
0.93618 0.45490 0.39781
0.91348 0.48698 0.51500
0.87117 0.57776 0.58744
0.82541 0.69259 0.58744
0.79368 0.78759 0.51500
0.69936 0.79071 0.39126
0.72958 0.76273 0.27471
0.78086 0.67636 0.20269
0.83361 0.56457 0.20269
0.86769 0.47008 0.27471
0.87006 0.42896 0.39126
0.83984 0.45693 0.50780
0.78856 0.54331 0.57983
0.73581 0.65510 0.57983
0.70174 0.74959 0.50780
0.61521 0.75065 0.38042
0.65228 0.72730 0.26484
0.71160 0.64571 0.19341
0.77051 0.53704 0.19341
0.80650 0.44281 0.26484
0.80584 0.39900 0.38042
0.76877 0.42235 0.49600
0.70945 0.50394 0.56744
0.65054 0.61261 0.56744
0.61455 0.70685 0.49600
0.53546 0.70713 0.36542
0.57862 0.68870 0.25107
0.64503 0.61206 0.18040
0.70933 0.50649 0.18040
0.74694 0.41231 0.25107
0.74351 0.36550 0.36542
0.70035 0.38393 0.47977
0.63393 0.46058 0.55044
0.56964 0.56615 0.55044
0.53203 0.66032 0.47977
0.45984 0.66085 0.34641
0.50831 0.64741 0.23350
0.58090 0.57571 0.16372
0.64986 0.47313 0.16372
0.68887 0.37886 0.23350
0.68302 0.32890 0.34641
0.63454 0.34233 0.45932
0.56196 0.41403 0.52910
0.49299 0.51661 0.52910
0.45399 0.61089 0.45932
0.38805 0.61239 0.32361
0.44106 0.60385 0.21227
0.51893 0.53692 0.14346
0.59192 0.43716 0.14346
0.63215 0.34269 0.21227
0.62425 0.28958 0.32361
0.57124 0.29812 0.43494
0.49337 0.36505 0.50375
0.42038 0.46481 0.50375
0.38015 0.55928 0.43494
0.31976 0.56227 0.29726
0.37657 0.55836 0.18755
0.45891 0.49590 0.11974
0.53533 0.39875 0.11974
0.57664 0.30402 0.18755
0.56707 0.24789 0.29726
0.51026 0.25180 0.40697
0.42792 0.31426 0.47477
0.35150 0.41141 0.47477
0.31019 0.50614 0.40697
0.25463 0.51092 0.26765
0.31455 0.51125 0.15954
0.40059 0.45285 0.09272
0.47991 0.35805 0.09272
0.52219 0.26304 0.15954
0.51129 0.20412 0.26765
0.45137 0.20380 0.37577
0.36532 0.26219 0.44258
0.28601 0.35700 0.44258
0.24373 0.45201 0.37577
0.19231 0.45871 0.23511
0.25472 0.46278 0.12850
0.34379 0.40797 0.06261
0.42550 0.31522 0.06261
0.46863 0.21995 0.12850
0.45671 0.15855 0.23511
0.39430 0.15448 0.34173
0.30523 0.20928 0.40762
0.22353 0.30204 0.40762
0.18040 0.39731 0.34173
0.13246 0.40593 0.20000
0.19682 0.41320 0.09472
0.28829 0.36144 0.02966
0.37193 0.27043 0.02966
0.41579 0.17492 0.09472
0.40312 0.11140 0.20000
0.33875 0.10413 0.30528
0.24729 0.15589 0.37034
0.16365 0.24690 0.37034
0.11979 0.34241 0.30528
0.07474 0.35284 0.16269
0.14057 0.36271 0.05854
0.23388 0.31343 -0.00583
0.31902 0.22382 -0.00583
0.36348 0.12812 0.05854
0.35027 0.06288 0.16269
0.28444 0.05301 0.26685
0.19113 0.10230 0.33122
0.10599 0.19190 0.33122
0.06153 0.28760 0.26685
0.01881 0.29968 0.12361
0.08569 0.31151 0.02033
0.18033 0.26410 -0.04349
0.26659 0.17556 -0.04349
0.31151 0.07971 0.02033
0.29793 0.01317 0.12361
0.23105 0.00134 0.22688
0.13641 0.04874 0.29071
0.05016 0.13728 0.29071
0.00524 0.23313 0.22688
-0.03564 0.24663 0.08316
0.03192 0.25977 -0.01951
0.12743 0.21362 -0.08297
0.21441 0.12580 -0.08297
0.25964 0.02985 -0.01951
0.24584 -0.03757 0.08316
0.17829 -0.05072 0.18584
0.08278 -0.00457 0.24930
-0.00420 0.08325 0.24930
-0.04943 0.17920 0.18584
-0.08892 0.19385 0.04181
-0.02103 0.20766 -0.06056
0.07490 0.16214 -0.12383
0.16224 0.07468 -0.12383
0.20763 -0.02132 -0.06056
0.19373 -0.08918 0.04181
0.12585 -0.10299 0.14418
0.02991 -0.05747 0.20745
-0.05743 0.02999 0.20745
-0.10282 0.12599 0.14418
-0.14132 0.14152 0.00000
-0.07344 0.15533 -0.10237
0.02249 0.10981 -0.16564
0.10984 0.02234 -0.16564
0.15523 -0.07365 -0.10237
0.14132 -0.14152 0.00000
0.07344 -0.15533 0.10237
-0.02249 -0.10981 0.16564
-0.10984 -0.02234 0.16564
-0.15523 0.07365 0.10237
-0.19315 0.08976 -0.04181
-0.12559 0.10291 -0.14449
-0.03008 0.05676 -0.20794
0.05690 -0.03106 -0.20794
0.10213 -0.12701 -0.14449
0.08833 -0.19444 -0.04181
0.02078 -0.20758 0.06086
-0.07473 -0.16143 0.12432
-0.16171 -0.07361 0.12432
-0.20694 0.02234 0.06086
-0.24466 0.03873 -0.08316
-0.17778 0.05056 -0.18644
-0.08314 0.00315 -0.25027
0.00311 -0.08539 -0.25027
0.04803 -0.18123 -0.18644
0.03446 -0.24778 -0.08316
-0.03242 -0.25961 0.02011
-0.12706 -0.21221 0.08394
-0.21332 -0.12367 0.08394
-0.25824 -0.02782 0.02011
-0.29614 -0.01144 -0.12361
-0.23031 -0.00158 -0.22776
-0.13700 -0.05086 -0.29213
-0.05185 -0.14046 -0.29213
-0.00740 -0.23616 -0.22776
-0.02060 -0.30141 -0.12361
-0.08644 -0.31127 -0.01946
-0.17975 -0.26199 0.04491
-0.26489 -0.17238 0.04491
-0.30935 -0.07668 -0.01946
-0.34783 -0.06060 -0.16269
-0.28347 -0.05333 -0.26797
-0.19200 -0.10508 -0.33304
-0.10837 -0.19610 -0.33304
-0.06451 -0.29161 -0.26797
-0.07718 -0.35512 -0.16269
-0.14154 -0.36239 -0.05742
-0.23301 -0.31064 0.00765
-0.31664 -0.21962 0.00765
-0.36050 -0.12412 -0.05742
-0.39999 -0.10858 -0.20000
-0.33757 -0.10451 -0.30662
-0.24851 -0.15932 -0.37251
-0.16680 -0.25207 -0.37251
-0.12367 -0.34734 -0.30662
-0.13559 -0.40874 -0.20000
-0.19800 -0.41282 -0.09338
-0.28707 -0.35801 -0.02749
-0.36877 -0.26526 -0.02749
-0.41190 -0.16998 -0.09338
-0.45284 -0.15523 -0.23511
-0.39292 -0.15490 -0.34323
-0.30688 -0.21330 -0.41005
-0.22756 -0.30810 -0.41005
-0.18528 -0.40311 -0.34323
-0.19618 -0.46203 -0.23511
-0.25610 -0.46235 -0.12700
-0.34215 -0.40396 -0.06018
-0.42146 -0.30915 -0.06018
-0.46374 -0.21414 -0.12700
-0.50661 -0.20033 -0.26765
-0.44981 -0.20424 -0.37736
-0.36747 -0.26670 -0.44517
-0.29105 -0.36386 -0.44517
-0.24973 -0.45859 -0.37736
-0.25931 -0.51472 -0.26765
-0.31611 -0.51080 -0.15794
-0.39845 -0.44834 -0.09014
-0.47487 -0.35119 -0.09014
-0.51619 -0.25646 -0.15794
-0.56152 -0.24367 -0.29726
-0.50851 -0.25222 -0.40859
-0.43063 -0.31915 -0.47740
-0.35764 -0.41890 -0.47740
-0.31741 -0.51338 -0.40859
-0.32531 -0.56649 -0.29726
-0.37832 -0.55794 -0.18592
-0.45620 -0.49101 -0.11711
-0.52919 -0.39126 -0.11711
-0.56942 -0.29678 -0.18592
-0.61774 -0.28501 -0.32361
-0.56927 -0.29844 -0.43651
-0.49668 -0.37014 -0.50630
-0.42772 -0.47272 -0.50630
-0.38871 -0.56700 -0.43651
-0.39456 -0.61696 -0.32361
-0.44304 -0.60352 -0.21070
-0.51562 -0.53182 -0.14092
-0.58459 -0.42924 -0.14092
-0.62359 -0.33497 -0.21070
-0.67545 -0.32405 -0.34641
-0.63229 -0.34249 -0.46076
-0.56588 -0.41913 -0.53143
-0.50159 -0.52470 -0.53143
-0.46397 -0.61888 -0.46076
-0.46740 -0.66569 -0.34641
-0.51057 -0.64725 -0.23206
-0.57698 -0.57061 -0.16139
-0.64127 -0.46504 -0.16139
-0.67888 -0.37087 -0.23206
-0.73480 -0.36049 -0.36542
-0.69773 -0.38384 -0.48100
-0.63841 -0.46543 -0.55243
-0.57950 -0.57410 -0.55243
-0.54351 -0.66834 -0.48100
-0.54417 -0.71214 -0.36542
-0.58124 -0.68879 -0.24984
-0.64056 -0.60720 -0.17840
-0.69947 -0.49853 -0.17840
-0.73546 -0.40430 -0.24984
-0.79588 -0.39395 -0.38042
-0.76565 -0.42193 -0.49697
-0.71437 -0.50830 -0.56900
-0.66162 -0.62009 -0.56900
-0.62755 -0.71459 -0.49697
-0.62517 -0.75570 -0.38042
-0.65540 -0.72773 -0.26388
-0.70668 -0.64135 -0.19185
-0.75943 -0.52957 -0.19185
-0.79350 -0.43507 -0.26388
-0.85875 -0.42405 -0.39126
-0.83606 -0.45612 -0.50845
-0.79375 -0.54691 -0.58089
-0.74799 -0.66173 -0.58089
-0.71625 -0.75673 -0.50845
-0.71067 -0.79562 -0.39126
-0.73336 -0.76355 -0.27406
-0.77567 -0.67276 -0.20163
-0.82143 -0.55794 -0.20163
-0.85317 -0.46294 -0.27406
-0.92343 -0.45032 -0.39781
-0.90883 -0.48574 -0.51533
-0.87640 -0.58036 -0.58796
-0.83851 -0.69801 -0.58796
-0.80965 -0.79378 -0.51533
-0.80084 -0.83107 -0.39781
-0.81544 -0.79564 -0.28029
-0.84787 -0.70103 -0.20766
-0.88576 -0.58337 -0.20766
-0.91462 -0.48761 -0.28029
-0.98985 -0.47228 -0.40000
-0.98377 -0.51010 -0.51752
-0.96204 -0.60773 -0.59015
-0.93297 -0.72787 -0.59015
-0.90766 -0.82463 -0.51752
-0.89577 -0.86106 -0.40000
-0.90185 -0.82323 -0.28248
-0.92358 -0.72560 -0.20985
-0.95265 -0.60546 -0.20985
-0.97796 -0.50870 -0.28248
-1.05785 -0.48940 -0.39781
-1.06053 -0.52850 -0.51504
-1.05026 -0.62811 -0.58749
-1.03096 -0.75020 -0.58749
-1.01001 -0.84813 -0.51504
-0.99541 -0.88450 -0.39781
-0.99273 -0.84540 -0.28058
-1.00301 -0.74579 -0.20812
-1.02230 -0.62370 -0.20812
-1.04325 -0.52577 -0.28058
-1.12720 -0.50114 -0.39126
-1.13866 -0.54022 -0.50796
-1.14046 -0.64059 -0.58009
-1.13190 -0.76390 -0.58009
-1.11626 -0.86305 -0.50796
-1.09951 -0.90018 -0.39126
-1.08804 -0.86109 -0.27456
-1.08625 -0.76073 -0.20243
-1.09480 -0.63742 -0.20243
-1.11045 -0.53826 -0.27456
-1.19752 -0.50691 -0.38042
-1.21759 -0.54461 -0.49642
-1.23191 -0.64428 -0.56810
-1.23502 -0.76785 -0.56810
-1.22574 -0.86812 -0.49642
-1.20760 -0.90678 -0.38042
-1.18753 -0.86908 -0.26443
-1.17321 -0.76941 -0.19274
-1.17010 -0.64584 -0.19274
-1.17938 -0.54558 -0.26443
-1.26832 -0.50616 -0.36542
-1.29656 -0.54106 -0.48058
-1.32367 -0.63842 -0.55176
-1.33930 -0.76103 -0.55176
-1.33748 -0.86207 -0.48058
-1.31891 -0.90295 -0.36542
-1.29067 -0.86804 -0.25025
-1.26356 -0.77069 -0.17908
-1.24793 -0.64807 -0.17908
-1.24974 -0.54703 -0.25025
-1.33895 -0.49835 -0.34641
-1.37469 -0.52905 -0.46068
-1.41461 -0.62230 -0.53131
-1.44347 -0.74249 -0.53131
-1.45024 -0.84371 -0.46068
-1.43233 -0.88729 -0.34641
-1.39659 -0.85659 -0.23214
-1.35667 -0.76334 -0.16151
-1.32781 -0.64315 -0.16151
-1.32104 -0.54193 -0.23214
-1.40860 -0.48301 -0.32361
-1.45093 -0.50816 -0.43698
-1.50341 -0.59542 -0.50705
-1.54599 -0.71147 -0.50705
-1.56240 -0.81196 -0.43698
-1.54639 -0.85853 -0.32361
-1.50405 -0.83337 -0.21023
-1.45157 -0.74611 -0.14016
-1.40900 -0.63007 -0.14016
-1.39258 -0.52957 -0.21023
-1.47630 -0.45978 -0.29726
-1.52408 -0.47817 -0.40977
-1.58853 -0.55748 -0.47930
-1.64503 -0.66741 -0.47930
-1.67201 -0.76598 -0.40977
-1.65916 -0.81553 -0.29726
-1.61139 -0.79714 -0.18475
-1.54694 -0.71783 -0.11522
-1.49044 -0.60790 -0.11522
-1.46345 -0.50933 -0.18475
-1.54095 -0.42844 -0.26765
-1.59280 -0.43905 -0.37936
-1.66827 -0.50845 -0.44840
-1.73854 -0.61013 -0.44840
-1.77677 -0.70527 -0.37936
-1.76836 -0.75751 -0.26765
-1.71652 -0.74691 -0.15594
-1.64105 -0.67751 -0.08691
-1.57077 -0.57582 -0.08691
-1.53254 -0.48068 -0.15594
-1.60130 -0.38899 -0.23511
-1.65566 -0.39103 -0.34611
-1.74082 -0.44866 -0.41471
-1.82426 -0.53985 -0.41471
-1.87410 -0.62979 -0.34611
-1.87132 -0.68411 -0.23511
-1.81696 -0.68207 -0.12412
-1.73180 -0.62444 -0.05552
-1.64836 -0.53325 -0.05552
-1.59852 -0.44331 -0.12412
-1.65602 -0.34166 -0.20000
-1.71119 -0.33467 -0.31039
-1.80432 -0.37884 -0.37861
-1.89984 -0.45730 -0.37861
-1.96125 -0.54008 -0.31039
-1.96511 -0.59556 -0.20000
-1.90994 -0.60255 -0.08961
-1.81681 -0.55838 -0.02139
-1.72130 -0.47992 -0.02139
-1.65988 -0.39714 -0.08961
-1.70374 -0.28697 -0.16269
-1.75797 -0.27084 -0.27259
-1.85699 -0.30017 -0.34051
-1.96298 -0.36378 -0.34051
-2.03545 -0.43735 -0.27259
-2.04673 -0.49279 -0.16269
-1.99250 -0.50893 -0.05280
-1.89348 -0.47959 0.01512
-1.78749 -0.41599 0.01512
-1.71502 -0.34242 -0.05280
-1.74315 -0.22575 -0.12361
-1.79469 -0.20073 -0.23313
-1.89722 -0.21426 -0.30082
-2.01159 -0.26116 -0.30082
-2.09410 -0.32352 -0.23313
-2.11324 -0.37752 -0.12361
-2.06169 -0.40254 -0.01408
-1.95916 -0.38901 0.05361
-1.84479 -0.34212 0.05361
-1.76228 -0.27976 -0.01408
-1.77303 -0.15914 -0.08316
-1.82026 -0.12588 -0.19244
-1.92375 -0.12309 -0.25998
-2.04396 -0.15185 -0.25998
-2.13499 -0.20116 -0.19244
-2.16206 -0.25219 -0.08316
-2.11483 -0.28545 0.02611
-2.01134 -0.28823 0.09365
-1.89113 -0.25948 0.09365
-1.80010 -0.21017 0.02611
-1.79242 -0.08857 -0.04181
-1.83392 -0.04805 -0.15097
-1.93573 -0.02899 -0.21843
-2.05895 -0.03868 -0.21843
-2.15653 -0.07341 -0.15097
-2.19119 -0.11992 -0.04181
-2.14969 -0.16044 0.06734
-2.04788 -0.17949 0.13480
-1.92465 -0.16980 0.13480
-1.82708 -0.13507 0.06734
-1.80062 -0.01568 -0.00000
-1.83527 0.03083 -0.10915
-1.93285 0.06556 -0.17662
-2.05608 0.07525 -0.17662
-2.15788 0.05620 -0.10915
-2.19938 0.01568 -0.00000
-2.16473 -0.03083 0.10915
-2.06715 -0.06556 0.17662
-1.94392 -0.07525 0.17662
-1.84212 -0.05620 0.10915
-1.79729 0.05772 0.04181
-1.82436 0.10875 -0.06747
-1.91539 0.15806 -0.13500
-2.03560 0.18681 -0.13500
-2.13909 0.18403 -0.06747
-2.18632 0.15077 0.04181
-2.15925 0.09973 0.15109
-2.06822 0.05043 0.21863
-1.94801 0.02167 0.21863
-1.84452 0.02446 0.15109
-1.78250 0.12978 0.08316
-1.80164 0.18378 -0.02636
-1.88415 0.24614 -0.09405
-1.99851 0.29304 -0.09405
-2.10105 0.30657 -0.02636
-2.15259 0.28155 0.08316
-2.13345 0.22754 0.19269
-2.05094 0.16518 0.26038
-1.93658 0.11829 0.26038
-1.83404 0.10476 0.19269
-1.75670 0.19872 0.12361
-1.76797 0.25417 0.01371
-1.84045 0.32774 -0.05421
-1.94643 0.39135 -0.05421
-2.04545 0.42068 0.01371
-2.09968 0.40455 0.12361
-2.08841 0.34910 0.23350
-2.01593 0.27553 0.30143
-1.90995 0.21193 0.30143
-1.81093 0.18259 0.23350
-1.72069 0.26294 0.16269
-1.72455 0.31842 0.05231
-1.78596 0.40119 -0.01592
-1.88148 0.47965 -0.01592
-1.97461 0.52382 0.05231
-2.02978 0.51683 0.16269
-2.02592 0.46135 0.27308
-1.96450 0.37857 0.34131
-1.86899 0.30012 0.34131
-1.77586 0.25595 0.27308
-1.67556 0.32105 0.20000
-1.67277 0.37537 0.08900
-1.72262 0.46531 0.02040
-1.80606 0.55650 0.02040
-1.89122 0.61413 0.08900
-1.94557 0.61617 0.20000
-1.94836 0.56185 0.31100
-1.89851 0.47191 0.37960
-1.81508 0.38072 0.37960
-1.72991 0.32309 0.31100
-1.62261 0.37201 0.23511
-1.61420 0.42426 0.12341
-1.65243 0.51939 0.05437
-1.72270 0.62108 0.05437
-1.79817 0.69048 0.12341
-1.85001 0.70108 0.23511
-1.85842 0.64884 0.34682
-1.82019 0.55371 0.41586
-1.74992 0.45202 0.41586
-1.67445 0.38262 0.34682
-1.56323 0.41510 0.26765
-1.55038 0.46465 0.15514
-1.57736 0.56322 0.08561
-1.63387 0.67315 0.08561
-1.69831 0.75246 0.15514
-1.74609 0.77085 0.26765
-1.75894 0.72130 0.38016
-1.73196 0.62273 0.44969
-1.67545 0.51280 0.44969
-1.61100 0.43349 0.38016
-1.49884 0.44990 0.29726
-1.48282 0.49646 0.18388
-1.49924 0.59696 0.11381
-1.54182 0.71300 0.11381
-1.59429 0.80026 0.18388
-1.63663 0.82541 0.29726
-1.65265 0.77885 0.41063
-1.63623 0.67835 0.48070
-1.59365 0.56231 0.48070
-1.54117 0.47505 0.41063
-1.43080 0.47629 0.32361
-1.41289 0.51988 0.20933
-1.41966 0.62109 0.13871
-1.44852 0.74128 0.13871
-1.48844 0.83454 0.20933
-1.52418 0.86524 0.32361
-1.54209 0.82166 0.43788
-1.53532 0.72044 0.50851
-1.50646 0.60025 0.50851
-1.46654 0.50699 0.43788
-1.36035 0.49443 0.34641
-1.34177 0.53530 0.23125
-1.33995 0.63634 0.16007
-1.35558 0.75896 0.16007
-1.38270 0.85631 0.23125
-1.41093 0.89121 0.34641
-1.42951 0.85034 0.46157
-1.43133 0.74930 0.53275
-1.41570 0.62668 0.53275
-1.38858 0.52933 0.46157
-1.28858 0.50462 0.36542
-1.27044 0.54328 0.24942
-1.26115 0.64355 0.17774
-1.26426 0.76712 0.17774
-1.27859 0.86679 0.24942
-1.29865 0.90449 0.36542
-1.31679 0.86582 0.48141
-1.32608 0.76556 0.55310
-1.32297 0.64199 0.55310
-1.30864 0.54232 0.48141
-1.21641 0.50733 0.38042
-1.19965 0.54445 0.26372
-1.18401 0.64361 0.19159
-1.17545 0.76692 0.19159
-1.17725 0.86728 0.26372
-1.18871 0.90637 0.38042
-1.20547 0.86924 0.49713
-1.22111 0.77009 0.56925
-1.22967 0.64678 0.56925
-1.22787 0.54641 0.49713
-1.14458 0.50311 0.39126
-1.12998 0.53947 0.27403
-1.10903 0.63740 0.20157
-1.08973 0.75949 0.20157
-1.07946 0.85911 0.27403
-1.08213 0.89820 0.39126
-1.09673 0.86184 0.50849
-1.11768 0.76391 0.58094
-1.13698 0.64182 0.58094
-1.14725 0.54220 0.50849
-1.07367 0.49256 0.39781
-1.06178 0.52898 0.28029
-1.03647 0.62574 0.20766
-1.00740 0.74588 0.20766
-0.98567 0.84351 0.28029
-0.97959 0.88134 0.39781
-0.99148 0.84492 0.51533
-1.01679 0.74816 0.58796
-1.04586 0.62802 0.58796
-1.06759 0.53039 0.51533
-1.00411 0.47629 0.40000
-0.99529 0.51358 0.28248
-0.96643 0.60934 0.20985
-0.92855 0.72700 0.20985
-0.89611 0.82161 0.28248
-0.88151 0.85704 0.40000
-0.89033 0.81975 0.51752
-0.91919 0.72399 0.59015
-0.95707 0.60633 0.59015
-0.98951 0.51172 0.51752
-0.93618 0.45490 0.39781
-0.93059 0.49379 0.28061
-0.89886 0.58880 0.20818
-0.85310 0.70362 0.20818
-0.81079 0.79441 0.28061
-0.78809 0.82648 0.39781
-0.79368 0.78759 0.51500
-0.82541 0.69259 0.58744
-0.87117 0.57776 0.58744
-0.91348 0.48698 0.51500
-0.87006 0.42896 0.39126
-0.86769 0.47008 0.27471
-0.83361 0.56457 0.20269
-0.78086 0.67636 0.20269
-0.72958 0.76273 0.27471
-0.69936 0.79071 0.39126
-0.70174 0.74959 0.50780
-0.73581 0.65510 0.57983
-0.78856 0.54331 0.57983
-0.83984 0.45693 0.50780
-0.80584 0.39900 0.38042
-0.80650 0.44281 0.26484
-0.77051 0.53704 0.19341
-0.71160 0.64571 0.19341
-0.65228 0.72730 0.26484
-0.61521 0.75065 0.38042
-0.61455 0.70685 0.49600
-0.65054 0.61261 0.56744
-0.70945 0.50394 0.56744
-0.76877 0.42235 0.49600
-0.74351 0.36550 0.36542
-0.74694 0.41231 0.25107
-0.70933 0.50649 0.18040
-0.64503 0.61206 0.18040
-0.57862 0.68870 0.25107
-0.53546 0.70713 0.36542
-0.53203 0.66032 0.47977
-0.56964 0.56615 0.55044
-0.63393 0.46058 0.55044
-0.70035 0.38393 0.47977
-0.68302 0.32890 0.34641
-0.68887 0.37886 0.23350
-0.64986 0.47313 0.16372
-0.58090 0.57571 0.16372
-0.50831 0.64741 0.23350
-0.45984 0.66085 0.34641
-0.45399 0.61089 0.45932
-0.49299 0.51661 0.52910
-0.56196 0.41403 0.52910
-0.63454 0.34233 0.45932
-0.62425 0.28958 0.32361
-0.63215 0.34269 0.21227
-0.59192 0.43716 0.14346
-0.51893 0.53692 0.14346
-0.44106 0.60385 0.21227
-0.38805 0.61239 0.32361
-0.38015 0.55928 0.43494
-0.42038 0.46481 0.50375
-0.49337 0.36505 0.50375
-0.57124 0.29812 0.43494
-0.56707 0.24789 0.29726
-0.57664 0.30402 0.18755
-0.53533 0.39875 0.11974
-0.45891 0.49590 0.11974
-0.37657 0.55836 0.18755
-0.31976 0.56227 0.29726
-0.31019 0.50614 0.40697
-0.35150 0.41141 0.47477
-0.42792 0.31426 0.47477
-0.51026 0.25180 0.40697
-0.51129 0.20412 0.26765
-0.52219 0.26304 0.15954
-0.47991 0.35805 0.09272
-0.40059 0.45285 0.09272
-0.31455 0.51125 0.15954
-0.25463 0.51092 0.26765
-0.24373 0.45201 0.37577
-0.28601 0.35700 0.44258
-0.36532 0.26219 0.44258
-0.45137 0.20380 0.37577
-0.45671 0.15855 0.23511
-0.46863 0.21995 0.12850
-0.42550 0.31522 0.06261
-0.34379 0.40797 0.06261
-0.25472 0.46278 0.12850
-0.19231 0.45871 0.23511
-0.18040 0.39731 0.34173
-0.22353 0.30204 0.40762
-0.30523 0.20928 0.40762
-0.39430 0.15448 0.34173
-0.40312 0.11140 0.20000
-0.41579 0.17492 0.09472
-0.37193 0.27043 0.02966
-0.28829 0.36144 0.02966
-0.19682 0.41320 0.09472
-0.13246 0.40593 0.20000
-0.11979 0.34241 0.30528
-0.16365 0.24690 0.37034
-0.24729 0.15589 0.37034
-0.33875 0.10413 0.30528
-0.35027 0.06288 0.16269
-0.36348 0.12812 0.05854
-0.31902 0.22382 -0.00583
-0.23388 0.31343 -0.00583
-0.14057 0.36271 0.05854
-0.07474 0.35284 0.16269
-0.06153 0.28760 0.26685
-0.10599 0.19190 0.33122
-0.19113 0.10230 0.33122
-0.28444 0.05301 0.26685
-0.29793 0.01317 0.12361
-0.31151 0.07971 0.02033
-0.26659 0.17556 -0.04349
-0.18033 0.26410 -0.04349
-0.08569 0.31151 0.02033
-0.01881 0.29968 0.12361
-0.00524 0.23313 0.22688
-0.05016 0.13728 0.29071
-0.13641 0.04874 0.29071
-0.23105 0.00134 0.22688
-0.24584 -0.03757 0.08316
-0.25964 0.02985 -0.01951
-0.21441 0.12580 -0.08297
-0.12743 0.21362 -0.08297
-0.03192 0.25977 -0.01951
0.03564 0.24663 0.08316
0.04943 0.17920 0.18584
0.00420 0.08325 0.24930
-0.08278 -0.00457 0.24930
-0.17829 -0.05072 0.18584
-0.19373 -0.08918 0.04181
-0.20763 -0.02132 -0.06056
-0.16224 0.07468 -0.12383
-0.07490 0.16214 -0.12383
0.02103 0.20766 -0.06056
0.08892 0.19385 0.04181
0.10282 0.12599 0.14418
0.05743 0.02999 0.20745
-0.02991 -0.05747 0.20745
-0.12585 -0.10299 0.14418
-0.14132 -0.14152 0.00000
-0.15523 -0.07365 -0.10237
-0.10984 0.02234 -0.16564
-0.02249 0.10981 -0.16564
0.07344 0.15533 -0.10237
0.14132 0.14152 0.00000
0.15523 0.07365 0.10237
0.10984 -0.02234 0.16564
0.02249 -0.10981 0.16564
-0.07344 -0.15533 0.10237
-0.08833 -0.19444 -0.04181
-0.10213 -0.12701 -0.14449
-0.05690 -0.03106 -0.20794
0.03008 0.05676 -0.20794
0.12559 0.10291 -0.14449
0.19315 0.08976 -0.04181
0.20694 0.02234 0.06086
0.16171 -0.07361 0.12432
0.07473 -0.16143 0.12432
-0.02078 -0.20758 0.06086
-0.03446 -0.24778 -0.08316
-0.04803 -0.18123 -0.18644
-0.00311 -0.08539 -0.25027
0.08314 0.00315 -0.25027
0.17778 0.05056 -0.18644
0.24466 0.03873 -0.08316
0.25824 -0.02782 0.02011
0.21332 -0.12367 0.08394
0.12706 -0.21221 0.08394
0.03242 -0.25961 0.02011
0.02060 -0.30141 -0.12361
0.00740 -0.23616 -0.22776
0.05185 -0.14046 -0.29213
0.13700 -0.05086 -0.29213
0.23031 -0.00158 -0.22776
0.29614 -0.01144 -0.12361
0.30935 -0.07668 -0.01946
0.26489 -0.17238 0.04491
0.17975 -0.26199 0.04491
0.08644 -0.31127 -0.01946
0.07718 -0.35512 -0.16269
0.06451 -0.29161 -0.26797
0.10837 -0.19610 -0.33304
0.19200 -0.10508 -0.33304
0.28347 -0.05333 -0.26797
0.34783 -0.06060 -0.16269
0.36050 -0.12412 -0.05742
0.31664 -0.21962 0.00765
0.23301 -0.31064 0.00765
0.14154 -0.36239 -0.05742
0.13559 -0.40874 -0.20000
0.12367 -0.34734 -0.30662
0.16680 -0.25207 -0.37251
0.24851 -0.15932 -0.37251
0.33757 -0.10451 -0.30662
0.39999 -0.10858 -0.20000
0.41190 -0.16998 -0.09338
0.36877 -0.26526 -0.02749
0.28707 -0.35801 -0.02749
0.19800 -0.41282 -0.09338
0.19618 -0.46203 -0.23511
0.18528 -0.40311 -0.34323
0.22756 -0.30810 -0.41005
0.30688 -0.21330 -0.41005
0.39292 -0.15490 -0.34323
0.45284 -0.15523 -0.23511
0.46374 -0.21414 -0.12700
0.42146 -0.30915 -0.06018
0.34215 -0.40396 -0.06018
0.25610 -0.46235 -0.12700
0.25931 -0.51472 -0.26765
0.24973 -0.45859 -0.37736
0.29105 -0.36386 -0.44517
0.36747 -0.26670 -0.44517
0.44981 -0.20424 -0.37736
0.50661 -0.20033 -0.26765
0.51619 -0.25646 -0.15794
0.47487 -0.35119 -0.09014
0.39845 -0.44834 -0.09014
0.31611 -0.51080 -0.15794
0.32531 -0.56649 -0.29726
0.31741 -0.51338 -0.40859
0.35764 -0.41890 -0.47740
0.43063 -0.31915 -0.47740
0.50851 -0.25222 -0.40859
0.56152 -0.24367 -0.29726
0.56942 -0.29678 -0.18592
0.52919 -0.39126 -0.11711
0.45620 -0.49101 -0.11711
0.37832 -0.55794 -0.18592
0.39456 -0.61696 -0.32361
0.38871 -0.56700 -0.43651
0.42772 -0.47272 -0.50630
0.49668 -0.37014 -0.50630
0.56927 -0.29844 -0.43651
0.61774 -0.28501 -0.32361
0.62359 -0.33497 -0.21070
0.58459 -0.42924 -0.14092
0.51562 -0.53182 -0.14092
0.44304 -0.60352 -0.21070
0.46740 -0.66569 -0.34641
0.46397 -0.61888 -0.46076
0.50159 -0.52470 -0.53143
0.56588 -0.41913 -0.53143
0.63229 -0.34249 -0.46076
0.67545 -0.32405 -0.34641
0.67888 -0.37087 -0.23206
0.64127 -0.46504 -0.16139
0.57698 -0.57061 -0.16139
0.51057 -0.64725 -0.23206
0.54417 -0.71214 -0.36542
0.54351 -0.66834 -0.48100
0.57950 -0.57410 -0.55243
0.63841 -0.46543 -0.55243
0.69773 -0.38384 -0.48100
0.73480 -0.36049 -0.36542
0.73546 -0.40430 -0.24984
0.69947 -0.49853 -0.17840
0.64056 -0.60720 -0.17840
0.58124 -0.68879 -0.24984
0.62517 -0.75570 -0.38042
0.62755 -0.71459 -0.49697
0.66162 -0.62009 -0.56900
0.71437 -0.50830 -0.56900
0.76565 -0.42193 -0.49697
0.79588 -0.39395 -0.38042
0.79350 -0.43507 -0.26388
0.75943 -0.52957 -0.19185
0.70668 -0.64135 -0.19185
0.65540 -0.72773 -0.26388
0.71067 -0.79562 -0.39126
0.71625 -0.75673 -0.50845
0.74799 -0.66173 -0.58089
0.79375 -0.54691 -0.58089
0.83606 -0.45612 -0.50845
0.85875 -0.42405 -0.39126
0.85317 -0.46294 -0.27406
0.82143 -0.55794 -0.20163
0.77567 -0.67276 -0.20163
0.73336 -0.76355 -0.27406
0.80084 -0.83107 -0.39781
0.80965 -0.79378 -0.51533
0.83851 -0.69801 -0.58796
0.87640 -0.58036 -0.58796
0.90883 -0.48574 -0.51533
0.92343 -0.45032 -0.39781
0.91462 -0.48761 -0.28029
0.88576 -0.58337 -0.20766
0.84787 -0.70103 -0.20766
0.81544 -0.79564 -0.28029
0.89577 -0.86106 -0.40000
0.90766 -0.82463 -0.51752
0.93297 -0.72787 -0.59015
0.96204 -0.60773 -0.59015
0.98377 -0.51010 -0.51752
0.98985 -0.47228 -0.40000
0.97796 -0.50870 -0.28248
0.95265 -0.60546 -0.20985
0.92358 -0.72560 -0.20985
0.90185 -0.82323 -0.28248
0.99541 -0.88450 -0.39781
1.01001 -0.84813 -0.51504
1.03096 -0.75020 -0.58749
1.05026 -0.62811 -0.58749
1.06053 -0.52850 -0.51504
1.05785 -0.48940 -0.39781
1.04325 -0.52577 -0.28058
1.02230 -0.62370 -0.20812
1.00301 -0.74579 -0.20812
0.99273 -0.84540 -0.28058
1.09951 -0.90018 -0.39126
1.11626 -0.86305 -0.50796
1.13190 -0.76390 -0.58009
1.14046 -0.64059 -0.58009
1.13866 -0.54022 -0.50796
1.12720 -0.50114 -0.39126
1.11045 -0.53826 -0.27456
1.09480 -0.63742 -0.20243
1.08625 -0.76073 -0.20243
1.08804 -0.86109 -0.27456
1.20760 -0.90678 -0.38042
1.22574 -0.86812 -0.49642
1.23502 -0.76785 -0.56810
1.23191 -0.64428 -0.56810
1.21759 -0.54461 -0.49642
1.19752 -0.50691 -0.38042
1.17938 -0.54558 -0.26443
1.17010 -0.64584 -0.19274
1.17321 -0.76941 -0.19274
1.18753 -0.86908 -0.26443
1.31891 -0.90295 -0.36542
1.33748 -0.86207 -0.48058
1.33930 -0.76103 -0.55176
1.32367 -0.63842 -0.55176
1.29656 -0.54106 -0.48058
1.26832 -0.50616 -0.36542
1.24974 -0.54703 -0.25025
1.24793 -0.64807 -0.17908
1.26356 -0.77069 -0.17908
1.29067 -0.86804 -0.25025
1.43233 -0.88729 -0.34641
1.45024 -0.84371 -0.46068
1.44347 -0.74249 -0.53131
1.41461 -0.62230 -0.53131
1.37469 -0.52905 -0.46068
1.33895 -0.49835 -0.34641
1.32104 -0.54193 -0.23214
1.32781 -0.64315 -0.16151
1.35667 -0.76334 -0.16151
1.39659 -0.85659 -0.23214
1.54639 -0.85853 -0.32361
1.56240 -0.81196 -0.43698
1.54599 -0.71147 -0.50705
1.50341 -0.59542 -0.50705
1.45093 -0.50816 -0.43698
1.40860 -0.48301 -0.32361
1.39258 -0.52957 -0.21023
1.40900 -0.63007 -0.14016
1.45157 -0.74611 -0.14016
1.50405 -0.83337 -0.21023
1.65916 -0.81553 -0.29726
1.67201 -0.76598 -0.40977
1.64503 -0.66741 -0.47930
1.58853 -0.55748 -0.47930
1.52408 -0.47817 -0.40977
1.47630 -0.45978 -0.29726
1.46345 -0.50933 -0.18475
1.49044 -0.60790 -0.11522
1.54694 -0.71783 -0.11522
1.61139 -0.79714 -0.18475
1.76836 -0.75751 -0.26765
1.77677 -0.70527 -0.37936
1.73854 -0.61013 -0.44840
1.66827 -0.50845 -0.44840
1.59280 -0.43905 -0.37936
1.54095 -0.42844 -0.26765
1.53254 -0.48068 -0.15594
1.57077 -0.57582 -0.08691
1.64105 -0.67751 -0.08691
1.71652 -0.74691 -0.15594
1.87132 -0.68411 -0.23511
1.87410 -0.62979 -0.34611
1.82426 -0.53985 -0.41471
1.74082 -0.44866 -0.41471
1.65566 -0.39103 -0.34611
1.60130 -0.38899 -0.23511
1.59852 -0.44331 -0.12412
1.64836 -0.53325 -0.05552
1.73180 -0.62444 -0.05552
1.81696 -0.68207 -0.12412
1.96511 -0.59556 -0.20000
1.96125 -0.54008 -0.31039
1.89984 -0.45730 -0.37861
1.80432 -0.37884 -0.37861
1.71119 -0.33467 -0.31039
1.65602 -0.34166 -0.20000
1.65988 -0.39714 -0.08961
1.72130 -0.47992 -0.02139
1.81681 -0.55838 -0.02139
1.90994 -0.60255 -0.08961
2.04673 -0.49279 -0.16269
2.03545 -0.43735 -0.27259
1.96298 -0.36378 -0.34051
1.85699 -0.30017 -0.34051
1.75797 -0.27084 -0.27259
1.70374 -0.28697 -0.16269
1.71502 -0.34242 -0.05280
1.78749 -0.41599 0.01512
1.89348 -0.47959 0.01512
1.99250 -0.50893 -0.05280
2.11324 -0.37752 -0.12361
2.09410 -0.32352 -0.23313
2.01159 -0.26116 -0.30082
1.89722 -0.21426 -0.30082
1.79469 -0.20073 -0.23313
1.74315 -0.22575 -0.12361
1.76228 -0.27976 -0.01408
1.84479 -0.34212 0.05361
1.95916 -0.38901 0.05361
2.06169 -0.40254 -0.01408
2.16206 -0.25219 -0.08316
2.13499 -0.20116 -0.19244
2.04396 -0.15185 -0.25998
1.92375 -0.12309 -0.25998
1.82026 -0.12588 -0.19244
1.77303 -0.15914 -0.08316
1.80010 -0.21017 0.02611
1.89113 -0.25948 0.09365
2.01134 -0.28823 0.09365
2.11483 -0.28545 0.02611
2.19119 -0.11992 -0.04181
2.15653 -0.07341 -0.15097
2.05895 -0.03868 -0.21843
1.93573 -0.02899 -0.21843
1.83392 -0.04805 -0.15097
1.79242 -0.08857 -0.04181
1.82708 -0.13507 0.06734
1.92465 -0.16980 0.13480
2.04788 -0.17949 0.13480
2.14969 -0.16044 0.06734
3 0 10 11
3 0 11 1
3 1 11 12
3 1 12 2
3 2 12 13
3 2 13 3
3 3 13 14
3 3 14 4
3 4 14 15
3 4 15 5
3 5 15 16
3 5 16 6
3 6 16 17
3 6 17 7
3 7 17 18
3 7 18 8
3 8 18 19
3 8 19 9
3 9 19 10
3 9 10 0
3 10 20 21
3 10 21 11
3 11 21 22
3 11 22 12
3 12 22 23
3 12 23 13
3 13 23 24
3 13 24 14
3 14 24 25
3 14 25 15
3 15 25 26
3 15 26 16
3 16 26 27
3 16 27 17
3 17 27 28
3 17 28 18
3 18 28 29
3 18 29 19
3 19 29 20
3 19 20 10
3 20 30 31
3 20 31 21
3 21 31 32
3 21 32 22
3 22 32 33
3 22 33 23
3 23 33 34
3 23 34 24
3 24 34 35
3 24 35 25
3 25 35 36
3 25 36 26
3 26 36 37
3 26 37 27
3 27 37 38
3 27 38 28
3 28 38 39
3 28 39 29
3 29 39 30
3 29 30 20
3 30 40 41
3 30 41 31
3 31 41 42
3 31 42 32
3 32 42 43
3 32 43 33
3 33 43 44
3 33 44 34
3 34 44 45
3 34 45 35
3 35 45 46
3 35 46 36
3 36 46 47
3 36 47 37
3 37 47 48
3 37 48 38
3 38 48 49
3 38 49 39
3 39 49 40
3 39 40 30
3 40 50 51
3 40 51 41
3 41 51 52
3 41 52 42
3 42 52 53
3 42 53 43
3 43 53 54
3 43 54 44
3 44 54 55
3 44 55 45
3 45 55 56
3 45 56 46
3 46 56 57
3 46 57 47
3 47 57 58
3 47 58 48
3 48 58 59
3 48 59 49
3 49 59 50
3 49 50 40
3 50 60 61
3 50 61 51
3 51 61 62
3 51 62 52
3 52 62 63
3 52 63 53
3 53 63 64
3 53 64 54
3 54 64 65
3 54 65 55
3 55 65 66
3 55 66 56
3 56 66 67
3 56 67 57
3 57 67 68
3 57 68 58
3 58 68 69
3 58 69 59
3 59 69 60
3 59 60 50
3 60 70 71
3 60 71 61
3 61 71 72
3 61 72 62
3 62 72 73
3 62 73 63
3 63 73 74
3 63 74 64
3 64 74 75
3 64 75 65
3 65 75 76
3 65 76 66
3 66 76 77
3 66 77 67
3 67 77 78
3 67 78 68
3 68 78 79
3 68 79 69
3 69 79 70
3 69 70 60
3 70 80 81
3 70 81 71
3 71 81 82
3 71 82 72
3 72 82 83
3 72 83 73
3 73 83 84
3 73 84 74
3 74 84 85
3 74 85 75
3 75 85 86
3 75 86 76
3 76 86 87
3 76 87 77
3 77 87 88
3 77 88 78
3 78 88 89
3 78 89 79
3 79 89 80
3 79 80 70
3 80 90 91
3 80 91 81
3 81 91 92
3 81 92 82
3 82 92 93
3 82 93 83
3 83 93 94
3 83 94 84
3 84 94 95
3 84 95 85
3 85 95 96
3 85 96 86
3 86 96 97
3 86 97 87
3 87 97 98
3 87 98 88
3 88 98 99
3 88 99 89
3 89 99 90
3 89 90 80
3 90 100 101
3 90 101 91
3 91 101 102
3 91 102 92
3 92 102 103
3 92 103 93
3 93 103 104
3 93 104 94
3 94 104 105
3 94 105 95
3 95 105 106
3 95 106 96
3 96 106 107
3 96 107 97
3 97 107 108
3 97 108 98
3 98 108 109
3 98 109 99
3 99 109 100
3 99 100 90
3 100 110 111
3 100 111 101
3 101 111 112
3 101 112 102
3 102 112 113
3 102 113 103
3 103 113 114
3 103 114 104
3 104 114 115
3 104 115 105
3 105 115 116
3 105 116 106
3 106 116 117
3 106 117 107
3 107 117 118
3 107 118 108
3 108 118 119
3 108 119 109
3 109 119 110
3 109 110 100
3 110 120 121
3 110 121 111
3 111 121 122
3 111 122 112
3 112 122 123
3 112 123 113
3 113 123 124
3 113 124 114
3 114 124 125
3 114 125 115
3 115 125 126
3 115 126 116
3 116 126 127
3 116 127 117
3 117 127 128
3 117 128 118
3 118 128 129
3 118 129 119
3 119 129 120
3 119 120 110
3 120 130 131
3 120 131 121
3 121 131 132
3 121 132 122
3 122 132 133
3 122 133 123
3 123 133 134
3 123 134 124
3 124 134 135
3 124 135 125
3 125 135 136
3 125 136 126
3 126 136 137
3 126 137 127
3 127 137 138
3 127 138 128
3 128 138 139
3 128 139 129
3 129 139 130
3 129 130 120
3 130 140 141
3 130 141 131
3 131 141 142
3 131 142 132
3 132 142 143
3 132 143 133
3 133 143 144
3 133 144 134
3 134 144 145
3 134 145 135
3 135 145 146
3 135 146 136
3 136 146 147
3 136 147 137
3 137 147 148
3 137 148 138
3 138 148 149
3 138 149 139
3 139 149 140
3 139 140 130
3 140 150 151
3 140 151 141
3 141 151 152
3 141 152 142
3 142 152 153
3 142 153 143
3 143 153 154
3 143 154 144
3 144 154 155
3 144 155 145
3 145 155 156
3 145 156 146
3 146 156 157
3 146 157 147
3 147 157 158
3 147 158 148
3 148 158 159
3 148 159 149
3 149 159 150
3 149 150 140
3 150 160 161
3 150 161 151
3 151 161 162
3 151 162 152
3 152 162 163
3 152 163 153
3 153 163 164
3 153 164 154
3 154 164 165
3 154 165 155
3 155 165 166
3 155 166 156
3 156 166 167
3 156 167 157
3 157 167 168
3 157 168 158
3 158 168 169
3 158 169 159
3 159 169 160
3 159 160 150
3 160 170 171
3 160 171 161
3 161 171 172
3 161 172 162
3 162 172 173
3 162 173 163
3 163 173 174
3 163 174 164
3 164 174 175
3 164 175 165
3 165 175 176
3 165 176 166
3 166 176 177
3 166 177 167
3 167 177 178
3 167 178 168
3 168 178 179
3 168 179 169
3 169 179 170
3 169 170 160
3 170 180 181
3 170 181 171
3 171 181 182
3 171 182 172
3 172 182 183
3 172 183 173
3 173 183 184
3 173 184 174
3 174 184 185
3 174 185 175
3 175 185 186
3 175 186 176
3 176 186 187
3 176 187 177
3 177 187 188
3 177 188 178
3 178 188 189
3 178 189 179
3 179 189 180
3 179 180 170
3 180 190 191
3 180 191 181
3 181 191 192
3 181 192 182
3 182 192 193
3 182 193 183
3 183 193 194
3 183 194 184
3 184 194 195
3 184 195 185
3 185 195 196
3 185 196 186
3 186 196 197
3 186 197 187
3 187 197 198
3 187 198 188
3 188 198 199
3 188 199 189
3 189 199 190
3 189 190 180
3 190 200 201
3 190 201 191
3 191 201 202
3 191 202 192
3 192 202 203
3 192 203 193
3 193 203 204
3 193 204 194
3 194 204 205
3 194 205 195
3 195 205 206
3 195 206 196
3 196 206 207
3 196 207 197
3 197 207 208
3 197 208 198
3 198 208 209
3 198 209 199
3 199 209 200
3 199 200 190
3 200 210 211
3 200 211 201
3 201 211 212
3 201 212 202
3 202 212 213
3 202 213 203
3 203 213 214
3 203 214 204
3 204 214 215
3 204 215 205
3 205 215 216
3 205 216 206
3 206 216 217
3 206 217 207
3 207 217 218
3 207 218 208
3 208 218 219
3 208 219 209
3 209 219 210
3 209 210 200
3 210 220 221
3 210 221 211
3 211 221 222
3 211 222 212
3 212 222 223
3 212 223 213
3 213 223 224
3 213 224 214
3 214 224 225
3 214 225 215
3 215 225 226
3 215 226 216
3 216 226 227
3 216 227 217
3 217 227 228
3 217 228 218
3 218 228 229
3 218 229 219
3 219 229 220
3 219 220 210
3 220 230 231
3 220 231 221
3 221 231 232
3 221 232 222
3 222 232 233
3 222 233 223
3 223 233 234
3 223 234 224
3 224 234 235
3 224 235 225
3 225 235 236
3 225 236 226
3 226 236 237
3 226 237 227
3 227 237 238
3 227 238 228
3 228 238 239
3 228 239 229
3 229 239 230
3 229 230 220
3 230 240 241
3 230 241 231
3 231 241 242
3 231 242 232
3 232 242 243
3 232 243 233
3 233 243 244
3 233 244 234
3 234 244 245
3 234 245 235
3 235 245 246
3 235 246 236
3 236 246 247
3 236 247 237
3 237 247 248
3 237 248 238
3 238 248 249
3 238 249 239
3 239 249 240
3 239 240 230
3 240 250 251
3 240 251 241
3 241 251 252
3 241 252 242
3 242 252 253
3 242 253 243
3 243 253 254
3 243 254 244
3 244 254 255
3 244 255 245
3 245 255 256
3 245 256 246
3 246 256 257
3 246 257 247
3 247 257 258
3 247 258 248
3 248 258 259
3 248 259 249
3 249 259 250
3 249 250 240
3 250 260 261
3 250 261 251
3 251 261 262
3 251 262 252
3 252 262 263
3 252 263 253
3 253 263 264
3 253 264 254
3 254 264 265
3 254 265 255
3 255 265 266
3 255 266 256
3 256 266 267
3 256 267 257
3 257 267 268
3 257 268 258
3 258 268 269
3 258 269 259
3 259 269 260
3 259 260 250
3 260 270 271
3 260 271 261
3 261 271 272
3 261 272 262
3 262 272 273
3 262 273 263
3 263 273 274
3 263 274 264
3 264 274 275
3 264 275 265
3 265 275 276
3 265 276 266
3 266 276 277
3 266 277 267
3 267 277 278
3 267 278 268
3 268 278 279
3 268 279 269
3 269 279 270
3 269 270 260
3 270 280 281
3 270 281 271
3 271 281 282
3 271 282 272
3 272 282 283
3 272 283 273
3 273 283 284
3 273 284 274
3 274 284 285
3 274 285 275
3 275 285 286
3 275 286 276
3 276 286 287
3 276 287 277
3 277 287 288
3 277 288 278
3 278 288 289
3 278 289 279
3 279 289 280
3 279 280 270
3 280 290 291
3 280 291 281
3 281 291 292
3 281 292 282
3 282 292 293
3 282 293 283
3 283 293 294
3 283 294 284
3 284 294 295
3 284 295 285
3 285 295 296
3 285 296 286
3 286 296 297
3 286 297 287
3 287 297 298
3 287 298 288
3 288 298 299
3 288 299 289
3 289 299 290
3 289 290 280
3 290 300 301
3 290 301 291
3 291 301 302
3 291 302 292
3 292 302 303
3 292 303 293
3 293 303 304
3 293 304 294
3 294 304 305
3 294 305 295
3 295 305 306
3 295 306 296
3 296 306 307
3 296 307 297
3 297 307 308
3 297 308 298
3 298 308 309
3 298 309 299
3 299 309 300
3 299 300 290
3 300 310 311
3 300 311 301
3 301 311 312
3 301 312 302
3 302 312 313
3 302 313 303
3 303 313 314
3 303 314 304
3 304 314 315
3 304 315 305
3 305 315 316
3 305 316 306
3 306 316 317
3 306 317 307
3 307 317 318
3 307 318 308
3 308 318 319
3 308 319 309
3 309 319 310
3 309 310 300
3 310 320 321
3 310 321 311
3 311 321 322
3 311 322 312
3 312 322 323
3 312 323 313
3 313 323 324
3 313 324 314
3 314 324 325
3 314 325 315
3 315 325 326
3 315 326 316
3 316 326 327
3 316 327 317
3 317 327 328
3 317 328 318
3 318 328 329
3 318 329 319
3 319 329 320
3 319 320 310
3 320 330 331
3 320 331 321
3 321 331 332
3 321 332 322
3 322 332 333
3 322 333 323
3 323 333 334
3 323 334 324
3 324 334 335
3 324 335 325
3 325 335 336
3 325 336 326
3 326 336 337
3 326 337 327
3 327 337 338
3 327 338 328
3 328 338 339
3 328 339 329
3 329 339 330
3 329 330 320
3 330 340 341
3 330 341 331
3 331 341 342
3 331 342 332
3 332 342 343
3 332 343 333
3 333 343 344
3 333 344 334
3 334 344 345
3 334 345 335
3 335 345 346
3 335 346 336
3 336 346 347
3 336 347 337
3 337 347 348
3 337 348 338
3 338 348 349
3 338 349 339
3 339 349 340
3 339 340 330
3 340 350 351
3 340 351 341
3 341 351 352
3 341 352 342
3 342 352 353
3 342 353 343
3 343 353 354
3 343 354 344
3 344 354 355
3 344 355 345
3 345 355 356
3 345 356 346
3 346 356 357
3 346 357 347
3 347 357 358
3 347 358 348
3 348 358 359
3 348 359 349
3 349 359 350
3 349 350 340
3 350 360 361
3 350 361 351
3 351 361 362
3 351 362 352
3 352 362 363
3 352 363 353
3 353 363 364
3 353 364 354
3 354 364 365
3 354 365 355
3 355 365 366
3 355 366 356
3 356 366 367
3 356 367 357
3 357 367 368
3 357 368 358
3 358 368 369
3 358 369 359
3 359 369 360
3 359 360 350
3 360 370 371
3 360 371 361
3 361 371 372
3 361 372 362
3 362 372 373
3 362 373 363
3 363 373 374
3 363 374 364
3 364 374 375
3 364 375 365
3 365 375 376
3 365 376 366
3 366 376 377
3 366 377 367
3 367 377 378
3 367 378 368
3 368 378 379
3 368 379 369
3 369 379 370
3 369 370 360
3 370 380 381
3 370 381 371
3 371 381 382
3 371 382 372
3 372 382 383
3 372 383 373
3 373 383 384
3 373 384 374
3 374 384 385
3 374 385 375
3 375 385 386
3 375 386 376
3 376 386 387
3 376 387 377
3 377 387 388
3 377 388 378
3 378 388 389
3 378 389 379
3 379 389 380
3 379 380 370
3 380 390 391
3 380 391 381
3 381 391 392
3 381 392 382
3 382 392 393
3 382 393 383
3 383 393 394
3 383 394 384
3 384 394 395
3 384 395 385
3 385 395 396
3 385 396 386
3 386 396 397
3 386 397 387
3 387 397 398
3 387 398 388
3 388 398 399
3 388 399 389
3 389 399 390
3 389 390 380
3 390 400 401
3 390 401 391
3 391 401 402
3 391 402 392
3 392 402 403
3 392 403 393
3 393 403 404
3 393 404 394
3 394 404 405
3 394 405 395
3 395 405 406
3 395 406 396
3 396 406 407
3 396 407 397
3 397 407 408
3 397 408 398
3 398 408 409
3 398 409 399
3 399 409 400
3 399 400 390
3 400 410 411
3 400 411 401
3 401 411 412
3 401 412 402
3 402 412 413
3 402 413 403
3 403 413 414
3 403 414 404
3 404 414 415
3 404 415 405
3 405 415 416
3 405 416 406
3 406 416 417
3 406 417 407
3 407 417 418
3 407 418 408
3 408 418 419
3 408 419 409
3 409 419 410
3 409 410 400
3 410 420 421
3 410 421 411
3 411 421 422
3 411 422 412
3 412 422 423
3 412 423 413
3 413 423 424
3 413 424 414
3 414 424 425
3 414 425 415
3 415 425 426
3 415 426 416
3 416 426 427
3 416 427 417
3 417 427 428
3 417 428 418
3 418 428 429
3 418 429 419
3 419 429 420
3 419 420 410
3 420 430 431
3 420 431 421
3 421 431 432
3 421 432 422
3 422 432 433
3 422 433 423
3 423 433 434
3 423 434 424
3 424 434 435
3 424 435 425
3 425 435 436
3 425 436 426
3 426 436 437
3 426 437 427
3 427 437 438
3 427 438 428
3 428 438 439
3 428 439 429
3 429 439 430
3 429 430 420
3 430 440 441
3 430 441 431
3 431 441 442
3 431 442 432
3 432 442 443
3 432 443 433
3 433 443 444
3 433 444 434
3 434 444 445
3 434 445 435
3 435 445 446
3 435 446 436
3 436 446 447
3 436 447 437
3 437 447 448
3 437 448 438
3 438 448 449
3 438 449 439
3 439 449 440
3 439 440 430
3 440 450 451
3 440 451 441
3 441 451 452
3 441 452 442
3 442 452 453
3 442 453 443
3 443 453 454
3 443 454 444
3 444 454 455
3 444 455 445
3 445 455 456
3 445 456 446
3 446 456 457
3 446 457 447
3 447 457 458
3 447 458 448
3 448 458 459
3 448 459 449
3 449 459 450
3 449 450 440
3 450 460 461
3 450 461 451
3 451 461 462
3 451 462 452
3 452 462 463
3 452 463 453
3 453 463 464
3 453 464 454
3 454 464 465
3 454 465 455
3 455 465 466
3 455 466 456
3 456 466 467
3 456 467 457
3 457 467 468
3 457 468 458
3 458 468 469
3 458 469 459
3 459 469 460
3 459 460 450
3 460 470 471
3 460 471 461
3 461 471 472
3 461 472 462
3 462 472 473
3 462 473 463
3 463 473 474
3 463 474 464
3 464 474 475
3 464 475 465
3 465 475 476
3 465 476 466
3 466 476 477
3 466 477 467
3 467 477 478
3 467 478 468
3 468 478 479
3 468 479 469
3 469 479 470
3 469 470 460
3 470 480 481
3 470 481 471
3 471 481 482
3 471 482 472
3 472 482 483
3 472 483 473
3 473 483 484
3 473 484 474
3 474 484 485
3 474 485 475
3 475 485 486
3 475 486 476
3 476 486 487
3 476 487 477
3 477 487 488
3 477 488 478
3 478 488 489
3 478 489 479
3 479 489 480
3 479 480 470
3 480 490 491
3 480 491 481
3 481 491 492
3 481 492 482
3 482 492 493
3 482 493 483
3 483 493 494
3 483 494 484
3 484 494 495
3 484 495 485
3 485 495 496
3 485 496 486
3 486 496 497
3 486 497 487
3 487 497 498
3 487 498 488
3 488 498 499
3 488 499 489
3 489 499 490
3 489 490 480
3 490 500 501
3 490 501 491
3 491 501 502
3 491 502 492
3 492 502 503
3 492 503 493
3 493 503 504
3 493 504 494
3 494 504 505
3 494 505 495
3 495 505 506
3 495 506 496
3 496 506 507
3 496 507 497
3 497 507 508
3 497 508 498
3 498 508 509
3 498 509 499
3 499 509 500
3 499 500 490
3 500 510 511
3 500 511 501
3 501 511 512
3 501 512 502
3 502 512 513
3 502 513 503
3 503 513 514
3 503 514 504
3 504 514 515
3 504 515 505
3 505 515 516
3 505 516 506
3 506 516 517
3 506 517 507
3 507 517 518
3 507 518 508
3 508 518 519
3 508 519 509
3 509 519 510
3 509 510 500
3 510 520 521
3 510 521 511
3 511 521 522
3 511 522 512
3 512 522 523
3 512 523 513
3 513 523 524
3 513 524 514
3 514 524 525
3 514 525 515
3 515 525 526
3 515 526 516
3 516 526 527
3 516 527 517
3 517 527 528
3 517 528 518
3 518 528 529
3 518 529 519
3 519 529 520
3 519 520 510
3 520 530 531
3 520 531 521
3 521 531 532
3 521 532 522
3 522 532 533
3 522 533 523
3 523 533 534
3 523 534 524
3 524 534 535
3 524 535 525
3 525 535 536
3 525 536 526
3 526 536 537
3 526 537 527
3 527 537 538
3 527 538 528
3 528 538 539
3 528 539 529
3 529 539 530
3 529 530 520
3 530 540 541
3 530 541 531
3 531 541 542
3 531 542 532
3 532 542 543
3 532 543 533
3 533 543 544
3 533 544 534
3 534 544 545
3 534 545 535
3 535 545 546
3 535 546 536
3 536 546 547
3 536 547 537
3 537 547 548
3 537 548 538
3 538 548 549
3 538 549 539
3 539 549 540
3 539 540 530
3 540 550 551
3 540 551 541
3 541 551 552
3 541 552 542
3 542 552 553
3 542 553 543
3 543 553 554
3 543 554 544
3 544 554 555
3 544 555 545
3 545 555 556
3 545 556 546
3 546 556 557
3 546 557 547
3 547 557 558
3 547 558 548
3 548 558 559
3 548 559 549
3 549 559 550
3 549 550 540
3 550 560 561
3 550 561 551
3 551 561 562
3 551 562 552
3 552 562 563
3 552 563 553
3 553 563 564
3 553 564 554
3 554 564 565
3 554 565 555
3 555 565 566
3 555 566 556
3 556 566 567
3 556 567 557
3 557 567 568
3 557 568 558
3 558 568 569
3 558 569 559
3 559 569 560
3 559 560 550
3 560 570 571
3 560 571 561
3 561 571 572
3 561 572 562
3 562 572 573
3 562 573 563
3 563 573 574
3 563 574 564
3 564 574 575
3 564 575 565
3 565 575 576
3 565 576 566
3 566 576 577
3 566 577 567
3 567 577 578
3 567 578 568
3 568 578 579
3 568 579 569
3 569 579 570
3 569 570 560
3 570 580 581
3 570 581 571
3 571 581 582
3 571 582 572
3 572 582 583
3 572 583 573
3 573 583 584
3 573 584 574
3 574 584 585
3 574 585 575
3 575 585 586
3 575 586 576
3 576 586 587
3 576 587 577
3 577 587 588
3 577 588 578
3 578 588 589
3 578 589 579
3 579 589 580
3 579 580 570
3 580 590 591
3 580 591 581
3 581 591 592
3 581 592 582
3 582 592 593
3 582 593 583
3 583 593 594
3 583 594 584
3 584 594 595
3 584 595 585
3 585 595 596
3 585 596 586
3 586 596 597
3 586 597 587
3 587 597 598
3 587 598 588
3 588 598 599
3 588 599 589
3 589 599 590
3 589 590 580
3 590 600 601
3 590 601 591
3 591 601 602
3 591 602 592
3 592 602 603
3 592 603 593
3 593 603 604
3 593 604 594
3 594 604 605
3 594 605 595
3 595 605 606
3 595 606 596
3 596 606 607
3 596 607 597
3 597 607 608
3 597 608 598
3 598 608 609
3 598 609 599
3 599 609 600
3 599 600 590
3 600 610 611
3 600 611 601
3 601 611 612
3 601 612 602
3 602 612 613
3 602 613 603
3 603 613 614
3 603 614 604
3 604 614 615
3 604 615 605
3 605 615 616
3 605 616 606
3 606 616 617
3 606 617 607
3 607 617 618
3 607 618 608
3 608 618 619
3 608 619 609
3 609 619 610
3 609 610 600
3 610 620 621
3 610 621 611
3 611 621 622
3 611 622 612
3 612 622 623
3 612 623 613
3 613 623 624
3 613 624 614
3 614 624 625
3 614 625 615
3 615 625 626
3 615 626 616
3 616 626 627
3 616 627 617
3 617 627 628
3 617 628 618
3 618 628 629
3 618 629 619
3 619 629 620
3 619 620 610
3 620 630 631
3 620 631 621
3 621 631 632
3 621 632 622
3 622 632 633
3 622 633 623
3 623 633 634
3 623 634 624
3 624 634 635
3 624 635 625
3 625 635 636
3 625 636 626
3 626 636 637
3 626 637 627
3 627 637 638
3 627 638 628
3 628 638 639
3 628 639 629
3 629 639 630
3 629 630 620
3 630 640 641
3 630 641 631
3 631 641 642
3 631 642 632
3 632 642 643
3 632 643 633
3 633 643 644
3 633 644 634
3 634 644 645
3 634 645 635
3 635 645 646
3 635 646 636
3 636 646 647
3 636 647 637
3 637 647 648
3 637 648 638
3 638 648 649
3 638 649 639
3 639 649 640
3 639 640 630
3 640 650 651
3 640 651 641
3 641 651 652
3 641 652 642
3 642 652 653
3 642 653 643
3 643 653 654
3 643 654 644
3 644 654 655
3 644 655 645
3 645 655 656
3 645 656 646
3 646 656 657
3 646 657 647
3 647 657 658
3 647 658 648
3 648 658 659
3 648 659 649
3 649 659 650
3 649 650 640
3 650 660 661
3 650 661 651
3 651 661 662
3 651 662 652
3 652 662 663
3 652 663 653
3 653 663 664
3 653 664 654
3 654 664 665
3 654 665 655
3 655 665 666
3 655 666 656
3 656 666 667
3 656 667 657
3 657 667 668
3 657 668 658
3 658 668 669
3 658 669 659
3 659 669 660
3 659 660 650
3 660 670 671
3 660 671 661
3 661 671 672
3 661 672 662
3 662 672 673
3 662 673 663
3 663 673 674
3 663 674 664
3 664 674 675
3 664 675 665
3 665 675 676
3 665 676 666
3 666 676 677
3 666 677 667
3 667 677 678
3 667 678 668
3 668 678 679
3 668 679 669
3 669 679 670
3 669 670 660
3 670 680 681
3 670 681 671
3 671 681 682
3 671 682 672
3 672 682 683
3 672 683 673
3 673 683 684
3 673 684 674
3 674 684 685
3 674 685 675
3 675 685 686
3 675 686 676
3 676 686 687
3 676 687 677
3 677 687 688
3 677 688 678
3 678 688 689
3 678 689 679
3 679 689 680
3 679 680 670
3 680 690 691
3 680 691 681
3 681 691 692
3 681 692 682
3 682 692 693
3 682 693 683
3 683 693 694
3 683 694 684
3 684 694 695
3 684 695 685
3 685 695 696
3 685 696 686
3 686 696 697
3 686 697 687
3 687 697 698
3 687 698 688
3 688 698 699
3 688 699 689
3 689 699 690
3 689 690 680
3 690 700 701
3 690 701 691
3 691 701 702
3 691 702 692
3 692 702 703
3 692 703 693
3 693 703 704
3 693 704 694
3 694 704 705
3 694 705 695
3 695 705 706
3 695 706 696
3 696 706 707
3 696 707 697
3 697 707 708
3 697 708 698
3 698 708 709
3 698 709 699
3 699 709 700
3 699 700 690
3 700 710 711
3 700 711 701
3 701 711 712
3 701 712 702
3 702 712 713
3 702 713 703
3 703 713 714
3 703 714 704
3 704 714 715
3 704 715 705
3 705 715 716
3 705 716 706
3 706 716 717
3 706 717 707
3 707 717 718
3 707 718 708
3 708 718 719
3 708 719 709
3 709 719 710
3 709 710 700
3 710 720 721
3 710 721 711
3 711 721 722
3 711 722 712
3 712 722 723
3 712 723 713
3 713 723 724
3 713 724 714
3 714 724 725
3 714 725 715
3 715 725 726
3 715 726 716
3 716 726 727
3 716 727 717
3 717 727 728
3 717 728 718
3 718 728 729
3 718 729 719
3 719 729 720
3 719 720 710
3 720 730 731
3 720 731 721
3 721 731 732
3 721 732 722
3 722 732 733
3 722 733 723
3 723 733 734
3 723 734 724
3 724 734 735
3 724 735 725
3 725 735 736
3 725 736 726
3 726 736 737
3 726 737 727
3 727 737 738
3 727 738 728
3 728 738 739
3 728 739 729
3 729 739 730
3 729 730 720
3 730 740 741
3 730 741 731
3 731 741 742
3 731 742 732
3 732 742 743
3 732 743 733
3 733 743 744
3 733 744 734
3 734 744 745
3 734 745 735
3 735 745 746
3 735 746 736
3 736 746 747
3 736 747 737
3 737 747 748
3 737 748 738
3 738 748 749
3 738 749 739
3 739 749 740
3 739 740 730
3 740 750 751
3 740 751 741
3 741 751 752
3 741 752 742
3 742 752 753
3 742 753 743
3 743 753 754
3 743 754 744
3 744 754 755
3 744 755 745
3 745 755 756
3 745 756 746
3 746 756 757
3 746 757 747
3 747 757 758
3 747 758 748
3 748 758 759
3 748 759 749
3 749 759 750
3 749 750 740
3 750 760 761
3 750 761 751
3 751 761 762
3 751 762 752
3 752 762 763
3 752 763 753
3 753 763 764
3 753 764 754
3 754 764 765
3 754 765 755
3 755 765 766
3 755 766 756
3 756 766 767
3 756 767 757
3 757 767 768
3 757 768 758
3 758 768 769
3 758 769 759
3 759 769 760
3 759 760 750
3 760 770 771
3 760 771 761
3 761 771 772
3 761 772 762
3 762 772 773
3 762 773 763
3 763 773 774
3 763 774 764
3 764 774 775
3 764 775 765
3 765 775 776
3 765 776 766
3 766 776 777
3 766 777 767
3 767 777 778
3 767 778 768
3 768 778 779
3 768 779 769
3 769 779 770
3 769 770 760
3 770 780 781
3 770 781 771
3 771 781 782
3 771 782 772
3 772 782 783
3 772 783 773
3 773 783 784
3 773 784 774
3 774 784 785
3 774 785 775
3 775 785 786
3 775 786 776
3 776 786 787
3 776 787 777
3 777 787 788
3 777 788 778
3 778 788 789
3 778 789 779
3 779 789 780
3 779 780 770
3 780 790 791
3 780 791 781
3 781 791 792
3 781 792 782
3 782 792 793
3 782 793 783
3 783 793 794
3 783 794 784
3 784 794 795
3 784 795 785
3 785 795 796
3 785 796 786
3 786 796 797
3 786 797 787
3 787 797 798
3 787 798 788
3 788 798 799
3 788 799 789
3 789 799 790
3 789 790 780
3 790 800 801
3 790 801 791
3 791 801 802
3 791 802 792
3 792 802 803
3 792 803 793
3 793 803 804
3 793 804 794
3 794 804 805
3 794 805 795
3 795 805 806
3 795 806 796
3 796 806 807
3 796 807 797
3 797 807 808
3 797 808 798
3 798 808 809
3 798 809 799
3 799 809 800
3 799 800 790
3 800 810 811
3 800 811 801
3 801 811 812
3 801 812 802
3 802 812 813
3 802 813 803
3 803 813 814
3 803 814 804
3 804 814 815
3 804 815 805
3 805 815 816
3 805 816 806
3 806 816 817
3 806 817 807
3 807 817 818
3 807 818 808
3 808 818 819
3 808 819 809
3 809 819 810
3 809 810 800
3 810 820 821
3 810 821 811
3 811 821 822
3 811 822 812
3 812 822 823
3 812 823 813
3 813 823 824
3 813 824 814
3 814 824 825
3 814 825 815
3 815 825 826
3 815 826 816
3 816 826 827
3 816 827 817
3 817 827 828
3 817 828 818
3 818 828 829
3 818 829 819
3 819 829 820
3 819 820 810
3 820 830 831
3 820 831 821
3 821 831 832
3 821 832 822
3 822 832 833
3 822 833 823
3 823 833 834
3 823 834 824
3 824 834 835
3 824 835 825
3 825 835 836
3 825 836 826
3 826 836 837
3 826 837 827
3 827 837 838
3 827 838 828
3 828 838 839
3 828 839 829
3 829 839 830
3 829 830 820
3 830 840 841
3 830 841 831
3 831 841 842
3 831 842 832
3 832 842 843
3 832 843 833
3 833 843 844
3 833 844 834
3 834 844 845
3 834 845 835
3 835 845 846
3 835 846 836
3 836 846 847
3 836 847 837
3 837 847 848
3 837 848 838
3 838 848 849
3 838 849 839
3 839 849 840
3 839 840 830
3 840 850 851
3 840 851 841
3 841 851 852
3 841 852 842
3 842 852 853
3 842 853 843
3 843 853 854
3 843 854 844
3 844 854 855
3 844 855 845
3 845 855 856
3 845 856 846
3 846 856 857
3 846 857 847
3 847 857 858
3 847 858 848
3 848 858 859
3 848 859 849
3 849 859 850
3 849 850 840
3 850 860 861
3 850 861 851
3 851 861 862
3 851 862 852
3 852 862 863
3 852 863 853
3 853 863 864
3 853 864 854
3 854 864 865
3 854 865 855
3 855 865 866
3 855 866 856
3 856 866 867
3 856 867 857
3 857 867 868
3 857 868 858
3 858 868 869
3 858 869 859
3 859 869 860
3 859 860 850
3 860 870 871
3 860 871 861
3 861 871 872
3 861 872 862
3 862 872 873
3 862 873 863
3 863 873 874
3 863 874 864
3 864 874 875
3 864 875 865
3 865 875 876
3 865 876 866
3 866 876 877
3 866 877 867
3 867 877 878
3 867 878 868
3 868 878 879
3 868 879 869
3 869 879 870
3 869 870 860
3 870 880 881
3 870 881 871
3 871 881 882
3 871 882 872
3 872 882 883
3 872 883 873
3 873 883 884
3 873 884 874
3 874 884 885
3 874 885 875
3 875 885 886
3 875 886 876
3 876 886 887
3 876 887 877
3 877 887 888
3 877 888 878
3 878 888 889
3 878 889 879
3 879 889 880
3 879 880 870
3 880 890 891
3 880 891 881
3 881 891 892
3 881 892 882
3 882 892 893
3 882 893 883
3 883 893 894
3 883 894 884
3 884 894 895
3 884 895 885
3 885 895 896
3 885 896 886
3 886 896 897
3 886 897 887
3 887 897 898
3 887 898 888
3 888 898 899
3 888 899 889
3 889 899 890
3 889 890 880
3 890 900 901
3 890 901 891
3 891 901 902
3 891 902 892
3 892 902 903
3 892 903 893
3 893 903 904
3 893 904 894
3 894 904 905
3 894 905 895
3 895 905 906
3 895 906 896
3 896 906 907
3 896 907 897
3 897 907 908
3 897 908 898
3 898 908 909
3 898 909 899
3 899 909 900
3 899 900 890
3 900 910 911
3 900 911 901
3 901 911 912
3 901 912 902
3 902 912 913
3 902 913 903
3 903 913 914
3 903 914 904
3 904 914 915
3 904 915 905
3 905 915 916
3 905 916 906
3 906 916 917
3 906 917 907
3 907 917 918
3 907 918 908
3 908 918 919
3 908 919 909
3 909 919 910
3 909 910 900
3 910 920 921
3 910 921 911
3 911 921 922
3 911 922 912
3 912 922 923
3 912 923 913
3 913 923 924
3 913 924 914
3 914 924 925
3 914 925 915
3 915 925 926
3 915 926 916
3 916 926 927
3 916 927 917
3 917 927 928
3 917 928 918
3 918 928 929
3 918 929 919
3 919 929 920
3 919 920 910
3 920 930 931
3 920 931 921
3 921 931 932
3 921 932 922
3 922 932 933
3 922 933 923
3 923 933 934
3 923 934 924
3 924 934 935
3 924 935 925
3 925 935 936
3 925 936 926
3 926 936 937
3 926 937 927
3 927 937 938
3 927 938 928
3 928 938 939
3 928 939 929
3 929 939 930
3 929 930 920
3 930 940 941
3 930 941 931
3 931 941 942
3 931 942 932
3 932 942 943
3 932 943 933
3 933 943 944
3 933 944 934
3 934 944 945
3 934 945 935
3 935 945 946
3 935 946 936
3 936 946 947
3 936 947 937
3 937 947 948
3 937 948 938
3 938 948 949
3 938 949 939
3 939 949 940
3 939 940 930
3 940 950 951
3 940 951 941
3 941 951 952
3 941 952 942
3 942 952 953
3 942 953 943
3 943 953 954
3 943 954 944
3 944 954 955
3 944 955 945
3 945 955 956
3 945 956 946
3 946 956 957
3 946 957 947
3 947 957 958
3 947 958 948
3 948 958 959
3 948 959 949
3 949 959 950
3 949 950 940
3 950 960 961
3 950 961 951
3 951 961 962
3 951 962 952
3 952 962 963
3 952 963 953
3 953 963 964
3 953 964 954
3 954 964 965
3 954 965 955
3 955 965 966
3 955 966 956
3 956 966 967
3 956 967 957
3 957 967 968
3 957 968 958
3 958 968 969
3 958 969 959
3 959 969 960
3 959 960 950
3 960 970 971
3 960 971 961
3 961 971 972
3 961 972 962
3 962 972 973
3 962 973 963
3 963 973 974
3 963 974 964
3 964 974 975
3 964 975 965
3 965 975 976
3 965 976 966
3 966 976 977
3 966 977 967
3 967 977 978
3 967 978 968
3 968 978 979
3 968 979 969
3 969 979 970
3 969 970 960
3 970 980 981
3 970 981 971
3 971 981 982
3 971 982 972
3 972 982 983
3 972 983 973
3 973 983 984
3 973 984 974
3 974 984 985
3 974 985 975
3 975 985 986
3 975 986 976
3 976 986 987
3 976 987 977
3 977 987 988
3 977 988 978
3 978 988 989
3 978 989 979
3 979 989 980
3 979 980 970
3 980 990 991
3 980 991 981
3 981 991 992
3 981 992 982
3 982 992 993
3 982 993 983
3 983 993 994
3 983 994 984
3 984 994 995
3 984 995 985
3 985 995 996
3 985 996 986
3 986 996 997
3 986 997 987
3 987 997 998
3 987 998 988
3 988 998 999
3 988 999 989
3 989 999 990
3 989 990 980
3 990 1000 1001
3 990 1001 991
3 991 1001 1002
3 991 1002 992
3 992 1002 1003
3 992 1003 993
3 993 1003 1004
3 993 1004 994
3 994 1004 1005
3 994 1005 995
3 995 1005 1006
3 995 1006 996
3 996 1006 1007
3 996 1007 997
3 997 1007 1008
3 997 1008 998
3 998 1008 1009
3 998 1009 999
3 999 1009 1000
3 999 1000 990
3 1000 1010 1011
3 1000 1011 1001
3 1001 1011 1012
3 1001 1012 1002
3 1002 1012 1013
3 1002 1013 1003
3 1003 1013 1014
3 1003 1014 1004
3 1004 1014 1015
3 1004 1015 1005
3 1005 1015 1016
3 1005 1016 1006
3 1006 1016 1017
3 1006 1017 1007
3 1007 1017 1018
3 1007 1018 1008
3 1008 1018 1019
3 1008 1019 1009
3 1009 1019 1010
3 1009 1010 1000
3 1010 1020 1021
3 1010 1021 1011
3 1011 1021 1022
3 1011 1022 1012
3 1012 1022 1023
3 1012 1023 1013
3 1013 1023 1024
3 1013 1024 1014
3 1014 1024 1025
3 1014 1025 1015
3 1015 1025 1026
3 1015 1026 1016
3 1016 1026 1027
3 1016 1027 1017
3 1017 1027 1028
3 1017 1028 1018
3 1018 1028 1029
3 1018 1029 1019
3 1019 1029 1020
3 1019 1020 1010
3 1020 1030 1031
3 1020 1031 1021
3 1021 1031 1032
3 1021 1032 1022
3 1022 1032 1033
3 1022 1033 1023
3 1023 1033 1034
3 1023 1034 1024
3 1024 1034 1035
3 1024 1035 1025
3 1025 1035 1036
3 1025 1036 1026
3 1026 1036 1037
3 1026 1037 1027
3 1027 1037 1038
3 1027 1038 1028
3 1028 1038 1039
3 1028 1039 1029
3 1029 1039 1030
3 1029 1030 1020
3 1030 1040 1041
3 1030 1041 1031
3 1031 1041 1042
3 1031 1042 1032
3 1032 1042 1043
3 1032 1043 1033
3 1033 1043 1044
3 1033 1044 1034
3 1034 1044 1045
3 1034 1045 1035
3 1035 1045 1046
3 1035 1046 1036
3 1036 1046 1047
3 1036 1047 1037
3 1037 1047 1048
3 1037 1048 1038
3 1038 1048 1049
3 1038 1049 1039
3 1039 1049 1040
3 1039 1040 1030
3 1040 1050 1051
3 1040 1051 1041
3 1041 1051 1052
3 1041 1052 1042
3 1042 1052 1053
3 1042 1053 1043
3 1043 1053 1054
3 1043 1054 1044
3 1044 1054 1055
3 1044 1055 1045
3 1045 1055 1056
3 1045 1056 1046
3 1046 1056 1057
3 1046 1057 1047
3 1047 1057 1058
3 1047 1058 1048
3 1048 1058 1059
3 1048 1059 1049
3 1049 1059 1050
3 1049 1050 1040
3 1050 1060 1061
3 1050 1061 1051
3 1051 1061 1062
3 1051 1062 1052
3 1052 1062 1063
3 1052 1063 1053
3 1053 1063 1064
3 1053 1064 1054
3 1054 1064 1065
3 1054 1065 1055
3 1055 1065 1066
3 1055 1066 1056
3 1056 1066 1067
3 1056 1067 1057
3 1057 1067 1068
3 1057 1068 1058
3 1058 1068 1069
3 1058 1069 1059
3 1059 1069 1060
3 1059 1060 1050
3 1060 1070 1071
3 1060 1071 1061
3 1061 1071 1072
3 1061 1072 1062
3 1062 1072 1073
3 1062 1073 1063
3 1063 1073 1074
3 1063 1074 1064
3 1064 1074 1075
3 1064 1075 1065
3 1065 1075 1076
3 1065 1076 1066
3 1066 1076 1077
3 1066 1077 1067
3 1067 1077 1078
3 1067 1078 1068
3 1068 1078 1079
3 1068 1079 1069
3 1069 1079 1070
3 1069 1070 1060
3 1070 1080 1081
3 1070 1081 1071
3 1071 1081 1082
3 1071 1082 1072
3 1072 1082 1083
3 1072 1083 1073
3 1073 1083 1084
3 1073 1084 1074
3 1074 1084 1085
3 1074 1085 1075
3 1075 1085 1086
3 1075 1086 1076
3 1076 1086 1087
3 1076 1087 1077
3 1077 1087 1088
3 1077 1088 1078
3 1078 1088 1089
3 1078 1089 1079
3 1079 1089 1080
3 1079 1080 1070
3 1080 1090 1091
3 1080 1091 1081
3 1081 1091 1092
3 1081 1092 1082
3 1082 1092 1093
3 1082 1093 1083
3 1083 1093 1094
3 1083 1094 1084
3 1084 1094 1095
3 1084 1095 1085
3 1085 1095 1096
3 1085 1096 1086
3 1086 1096 1097
3 1086 1097 1087
3 1087 1097 1098
3 1087 1098 1088
3 1088 1098 1099
3 1088 1099 1089
3 1089 1099 1090
3 1089 1090 1080
3 1090 1100 1101
3 1090 1101 1091
3 1091 1101 1102
3 1091 1102 1092
3 1092 1102 1103
3 1092 1103 1093
3 1093 1103 1104
3 1093 1104 1094
3 1094 1104 1105
3 1094 1105 1095
3 1095 1105 1106
3 1095 1106 1096
3 1096 1106 1107
3 1096 1107 1097
3 1097 1107 1108
3 1097 1108 1098
3 1098 1108 1109
3 1098 1109 1099
3 1099 1109 1100
3 1099 1100 1090
3 1100 1110 1111
3 1100 1111 1101
3 1101 1111 1112
3 1101 1112 1102
3 1102 1112 1113
3 1102 1113 1103
3 1103 1113 1114
3 1103 1114 1104
3 1104 1114 1115
3 1104 1115 1105
3 1105 1115 1116
3 1105 1116 1106
3 1106 1116 1117
3 1106 1117 1107
3 1107 1117 1118
3 1107 1118 1108
3 1108 1118 1119
3 1108 1119 1109
3 1109 1119 1110
3 1109 1110 1100
3 1110 1120 1121
3 1110 1121 1111
3 1111 1121 1122
3 1111 1122 1112
3 1112 1122 1123
3 1112 1123 1113
3 1113 1123 1124
3 1113 1124 1114
3 1114 1124 1125
3 1114 1125 1115
3 1115 1125 1126
3 1115 1126 1116
3 1116 1126 1127
3 1116 1127 1117
3 1117 1127 1128
3 1117 1128 1118
3 1118 1128 1129
3 1118 1129 1119
3 1119 1129 1120
3 1119 1120 1110
3 1120 1130 1131
3 1120 1131 1121
3 1121 1131 1132
3 1121 1132 1122
3 1122 1132 1133
3 1122 1133 1123
3 1123 1133 1134
3 1123 1134 1124
3 1124 1134 1135
3 1124 1135 1125
3 1125 1135 1136
3 1125 1136 1126
3 1126 1136 1137
3 1126 1137 1127
3 1127 1137 1138
3 1127 1138 1128
3 1128 1138 1139
3 1128 1139 1129
3 1129 1139 1130
3 1129 1130 1120
3 1130 1140 1141
3 1130 1141 1131
3 1131 1141 1142
3 1131 1142 1132
3 1132 1142 1143
3 1132 1143 1133
3 1133 1143 1144
3 1133 1144 1134
3 1134 1144 1145
3 1134 1145 1135
3 1135 1145 1146
3 1135 1146 1136
3 1136 1146 1147
3 1136 1147 1137
3 1137 1147 1148
3 1137 1148 1138
3 1138 1148 1149
3 1138 1149 1139
3 1139 1149 1140
3 1139 1140 1130
3 1140 1150 1151
3 1140 1151 1141
3 1141 1151 1152
3 1141 1152 1142
3 1142 1152 1153
3 1142 1153 1143
3 1143 1153 1154
3 1143 1154 1144
3 1144 1154 1155
3 1144 1155 1145
3 1145 1155 1156
3 1145 1156 1146
3 1146 1156 1157
3 1146 1157 1147
3 1147 1157 1158
3 1147 1158 1148
3 1148 1158 1159
3 1148 1159 1149
3 1149 1159 1150
3 1149 1150 1140
3 1150 1160 1161
3 1150 1161 1151
3 1151 1161 1162
3 1151 1162 1152
3 1152 1162 1163
3 1152 1163 1153
3 1153 1163 1164
3 1153 1164 1154
3 1154 1164 1165
3 1154 1165 1155
3 1155 1165 1166
3 1155 1166 1156
3 1156 1166 1167
3 1156 1167 1157
3 1157 1167 1168
3 1157 1168 1158
3 1158 1168 1169
3 1158 1169 1159
3 1159 1169 1160
3 1159 1160 1150
3 1160 1170 1171
3 1160 1171 1161
3 1161 1171 1172
3 1161 1172 1162
3 1162 1172 1173
3 1162 1173 1163
3 1163 1173 1174
3 1163 1174 1164
3 1164 1174 1175
3 1164 1175 1165
3 1165 1175 1176
3 1165 1176 1166
3 1166 1176 1177
3 1166 1177 1167
3 1167 1177 1178
3 1167 1178 1168
3 1168 1178 1179
3 1168 1179 1169
3 1169 1179 1170
3 1169 1170 1160
3 1170 1180 1181
3 1170 1181 1171
3 1171 1181 1182
3 1171 1182 1172
3 1172 1182 1183
3 1172 1183 1173
3 1173 1183 1184
3 1173 1184 1174
3 1174 1184 1185
3 1174 1185 1175
3 1175 1185 1186
3 1175 1186 1176
3 1176 1186 1187
3 1176 1187 1177
3 1177 1187 1188
3 1177 1188 1178
3 1178 1188 1189
3 1178 1189 1179
3 1179 1189 1180
3 1179 1180 1170
3 1180 1190 1191
3 1180 1191 1181
3 1181 1191 1192
3 1181 1192 1182
3 1182 1192 1193
3 1182 1193 1183
3 1183 1193 1194
3 1183 1194 1184
3 1184 1194 1195
3 1184 1195 1185
3 1185 1195 1196
3 1185 1196 1186
3 1186 1196 1197
3 1186 1197 1187
3 1187 1197 1198
3 1187 1198 1188
3 1188 1198 1199
3 1188 1199 1189
3 1189 1199 1190
3 1189 1190 1180
3 1190 0 1
3 1190 1 1191
3 1191 1 2
3 1191 2 1192
3 1192 2 3
3 1192 3 1193
3 1193 3 4
3 1193 4 1194
3 1194 4 5
3 1194 5 1195
3 1195 5 6
3 1195 6 1196
3 1196 6 7
3 1196 7 1197
3 1197 7 8
3 1197 8 1198
3 1198 8 9
3 1198 9 1199
3 1199 9 0
3 1199 0 1190
