ply
format ascii 1.0
element vertex 1440
property float x
property float y
property float z
element face 2640
property list uchar int vertex_indices
end_header
0.90000 0.00000 -0.00000
1.00909 0.00000 -0.00000
1.11818 0.00000 -0.00000
1.22727 0.00000 -0.00000
1.33636 0.00000 -0.00000
1.44545 0.00000 -0.00000
1.55455 0.00000 0.00000
1.66364 0.00000 0.00000
1.77273 0.00000 0.00000
1.88182 0.00000 0.00000
1.99091 0.00000 0.00000
2.10000 0.00000 0.00000
0.89897 0.04711 -0.01571
1.00788 0.05282 -0.01285
1.11678 0.05853 -0.00999
1.22568 0.06424 -0.00714
1.33459 0.06994 -0.00428
1.44349 0.07565 -0.00143
1.55240 0.08136 0.00143
1.66130 0.08707 0.00428
1.77020 0.09277 0.00714
1.87911 0.09848 0.00999
1.98801 0.10419 0.01285
2.09692 0.10989 0.01571
0.89589 0.09416 -0.03140
1.00423 0.10555 -0.02569
1.11258 0.11694 -0.01998
1.22092 0.12832 -0.01427
1.32927 0.13971 -0.00856
1.43761 0.15110 -0.00285
1.54596 0.16249 0.00285
1.65430 0.17387 0.00856
1.76264 0.18526 0.01427
1.87099 0.19665 0.01998
1.97933 0.20804 0.02569
2.08768 0.21942 0.03140
0.89075 0.14108 -0.04708
0.99816 0.15809 -0.03852
1.10558 0.17511 -0.02996
1.21299 0.19212 -0.02140
1.32041 0.20913 -0.01284
1.42782 0.22615 -0.00428
1.53524 0.24316 0.00428
1.64266 0.26017 0.01284
1.75007 0.27718 0.02140
1.85749 0.29420 0.02996
1.96490 0.31121 0.03852
2.07232 0.32822 0.04708
0.88355 0.18780 -0.06272
0.98967 0.21036 -0.05131
1.09579 0.23292 -0.03991
1.20192 0.25547 -0.02851
1.30804 0.27803 -0.01710
1.41416 0.30059 -0.00570
1.52028 0.32315 0.00570
1.62641 0.34570 0.01710
1.73253 0.36826 0.02851
1.83865 0.39082 0.03991
1.94477 0.41337 0.05131
2.05089 0.43593 0.06272
0.87429 0.23427 -0.07832
0.97876 0.26226 -0.06408
1.08324 0.29025 -0.04984
1.18771 0.31825 -0.03560
1.29218 0.34624 -0.02136
1.39665 0.37423 -0.00712
1.50112 0.40223 0.00712
1.60560 0.43022 0.02136
1.71007 0.45821 0.03560
1.81454 0.48620 0.04984
1.91901 0.51420 0.06408
2.02349 0.54219 0.07832
0.86298 0.28040 -0.09386
0.96545 0.31369 -0.07680
1.06792 0.34699 -0.05973
1.17040 0.38029 -0.04266
1.27287 0.41358 -0.02560
1.37535 0.44688 -0.00853
1.47782 0.48017 0.00853
1.58030 0.51347 0.02560
1.68277 0.54677 0.04266
1.78524 0.58006 0.05973
1.88772 0.61336 0.07680
1.99019 0.64665 0.09386
0.84960 0.32613 -0.10934
0.94974 0.36457 -0.08946
1.04988 0.40301 -0.06958
1.15002 0.44145 -0.04970
1.25016 0.47989 -0.02982
1.35030 0.51833 -0.00994
1.45044 0.55677 0.00994
1.55058 0.59521 0.02982
1.65072 0.63365 0.04970
1.75086 0.67209 0.06958
1.85100 0.71053 0.08946
1.95114 0.74897 0.10934
0.83417 0.37140 -0.12475
0.93165 0.41480 -0.10207
1.02913 0.45820 -0.07938
1.12661 0.50160 -0.05670
1.22410 0.54500 -0.03402
1.32158 0.58840 -0.01134
1.41906 0.63181 0.01134
1.51654 0.67521 0.03402
1.61402 0.71861 0.05670
1.71150 0.76201 0.07938
1.80899 0.80541 0.10207
1.90647 0.84881 0.12475
0.81668 0.41612 -0.14007
0.91119 0.46428 -0.11460
1.00571 0.51243 -0.08913
1.10022 0.56059 -0.06367
1.19474 0.60875 -0.03820
1.28925 0.65691 -0.01273
1.38377 0.70506 0.01273
1.47828 0.75322 0.03820
1.57280 0.80138 0.06367
1.66731 0.84954 0.08913
1.76183 0.89770 0.11460
1.85634 0.94585 0.14007
0.79713 0.46022 -0.15529
0.88838 0.51291 -0.12706
0.97964 0.56560 -0.09882
1.07090 0.61828 -0.07059
1.16215 0.67097 -0.04235
1.25341 0.72366 -0.01412
1.34467 0.77634 0.01412
1.43592 0.82903 0.04235
1.52718 0.88172 0.07059
1.61844 0.93440 0.09882
1.70969 0.98709 0.12706
1.80095 1.03978 0.15529
0.77553 0.50363 -0.17041
0.86325 0.56060 -0.13943
0.95097 0.61757 -0.10844
1.03870 0.67454 -0.07746
1.12642 0.73151 -0.04648
1.21414 0.78847 -0.01549
1.30187 0.84544 0.01549
1.38959 0.90241 0.04648
1.47732 0.95938 0.07746
1.56504 1.01635 0.10844
1.65276 1.07332 0.13943
1.74049 1.13028 0.17041
0.75187 0.54627 -0.18541
0.83581 0.60725 -0.15170
0.91975 0.66824 -0.11799
1.00368 0.72922 -0.08428
1.08762 0.79020 -0.05057
1.17156 0.85119 -0.01686
1.25549 0.91217 0.01686
1.33943 0.97315 0.05057
1.42337 1.03414 0.08428
1.50730 1.09512 0.11799
1.59124 1.15610 0.15170
1.67518 1.21709 0.18541
0.72618 0.58805 -0.20028
0.80609 0.65276 -0.16387
0.88601 0.71748 -0.12745
0.96593 0.78219 -0.09104
1.04584 0.84691 -0.05462
1.12576 0.91162 -0.01821
1.20568 0.97634 0.01821
1.28559 1.04105 0.05462
1.36551 1.10577 0.09104
1.44543 1.17048 0.12745
1.52534 1.23520 0.16387
1.60526 1.29991 0.20028
0.69845 0.62888 -0.21502
0.77413 0.69703 -0.17593
0.84982 0.76518 -0.13683
0.92550 0.83333 -0.09774
1.00119 0.90147 -0.05864
1.07687 0.96962 -0.01955
1.15256 1.03777 0.01955
1.22825 1.10592 0.05864
1.30393 1.17407 0.09774
1.37962 1.24221 0.13683
1.45530 1.31036 0.17593
1.53099 1.37851 0.21502
0.66869 0.66869 -0.22961
0.73996 0.73996 -0.18786
0.81123 0.81123 -0.14612
0.88249 0.88249 -0.10437
0.95376 0.95376 -0.06262
1.02503 1.02503 -0.02087
1.09629 1.09629 0.02087
1.16756 1.16756 0.06262
1.23883 1.23883 0.10437
1.31009 1.31009 0.14612
1.38136 1.38136 0.18786
1.45263 1.45263 0.22961
0.63693 0.70738 -0.24404
0.70361 0.78144 -0.19967
0.77030 0.85550 -0.15530
0.83698 0.92956 -0.11093
0.90367 1.00363 -0.06656
0.97035 1.07769 -0.02219
1.03704 1.15175 0.02219
1.10372 1.22581 0.06656
1.17041 1.29987 0.11093
1.23709 1.37393 0.15530
1.30378 1.44799 0.19967
1.37046 1.52206 0.24404
0.60317 0.74485 -0.25831
0.66514 0.82138 -0.21134
0.72710 0.89790 -0.16438
0.78907 0.97442 -0.11741
0.85103 1.05094 -0.07045
0.91300 1.12746 -0.02348
0.97496 1.20398 0.02348
1.03693 1.28050 0.07045
1.09889 1.35702 0.11741
1.16086 1.43354 0.16438
1.22282 1.51006 0.21134
1.28479 1.58658 0.25831
0.56745 0.78102 -0.27239
0.62458 0.85966 -0.22287
0.68171 0.93830 -0.17334
0.73885 1.01693 -0.12382
0.79598 1.09557 -0.07429
0.85311 1.17421 -0.02476
0.91024 1.25284 0.02476
0.96738 1.33148 0.07429
1.02451 1.41012 0.12382
1.08164 1.48876 0.17334
1.13878 1.56739 0.22287
1.19591 1.64603 0.27239
0.52978 0.81578 -0.28630
0.58199 0.89619 -0.23424
0.63421 0.97659 -0.18219
0.68642 1.05700 -0.13013
0.73864 1.13740 -0.07808
0.79085 1.21780 -0.02603
0.84307 1.29821 0.02603
0.89528 1.37861 0.07808
0.94750 1.45902 0.13013
0.99971 1.53942 0.18219
1.05193 1.61982 0.23424
1.10414 1.70023 0.28630
0.49019 0.84904 -0.30000
0.53743 0.93086 -0.24545
0.58467 1.01267 -0.19091
0.63191 1.09449 -0.13636
0.67914 1.17631 -0.08182
0.72638 1.25813 -0.02727
0.77362 1.33995 0.02727
0.82086 1.42177 0.08182
0.86809 1.50358 0.13636
0.91533 1.58540 0.19091
0.96257 1.66722 0.24545
1.00981 1.74904 0.30000
0.44873 0.88069 -0.31350
0.49096 0.96356 -0.25650
0.53319 1.04644 -0.19950
0.57542 1.12932 -0.14250
0.61764 1.21219 -0.08550
0.65987 1.29507 -0.02850
0.70210 1.37795 0.02850
0.74433 1.46083 0.08550
0.78656 1.54370 0.14250
0.82878 1.62658 0.19950
0.87101 1.70946 0.25650
0.91324 1.79233 0.31350
0.40543 0.91062 -0.32678
0.44265 0.99420 -0.26737
0.47986 1.07778 -0.20795
0.51707 1.16136 -0.14854
0.55429 1.24495 -0.08912
0.59150 1.32853 -0.02971
0.62871 1.41211 0.02971
0.66592 1.49569 0.08912
0.70314 1.57927 0.14854
0.74035 1.66285 0.20795
0.77756 1.74643 0.26737
0.81478 1.83002 0.32678
0.36035 0.93874 -0.33984
0.39257 1.02267 -0.27805
0.42479 1.10660 -0.21626
0.45700 1.19054 -0.15447
0.48922 1.27447 -0.09268
0.52144 1.35840 -0.03089
0.55366 1.44234 0.03089
0.58588 1.52627 0.09268
0.61810 1.61020 0.15447
0.65032 1.69414 0.21626
0.68254 1.77807 0.27805
0.71476 1.86200 0.33984
0.31353 0.96493 -0.35267
0.34080 1.04887 -0.28855
0.36807 1.13281 -0.22443
0.39534 1.21674 -0.16031
0.42262 1.30068 -0.09618
0.44989 1.38462 -0.03206
0.47716 1.46855 0.03206
0.50443 1.55249 0.09618
0.53171 1.63643 0.16031
0.55898 1.72036 0.22443
0.58625 1.80430 0.28855
0.61353 1.88824 0.35267
0.26503 0.98910 -0.36526
0.28743 1.07270 -0.29885
0.30983 1.15629 -0.23244
0.33223 1.23989 -0.16603
0.35463 1.32349 -0.09962
0.37703 1.40709 -0.03321
0.39943 1.49069 0.03321
0.42183 1.57429 0.09962
0.44423 1.65789 0.16603
0.46663 1.74148 0.23244
0.48903 1.82508 0.29885
0.51143 1.90868 0.36526
0.21492 1.01112 -0.37759
0.23255 1.09405 -0.30894
0.25017 1.17698 -0.24029
0.26780 1.25990 -0.17163
0.28543 1.34283 -0.10298
0.30305 1.42576 -0.03433
0.32068 1.50868 0.03433
0.33831 1.59161 0.10298
0.35593 1.67454 0.17163
0.37356 1.75747 0.24029
0.39119 1.84039 0.30894
0.40881 1.92332 0.37759
0.16328 1.03091 -0.38967
0.17626 1.11284 -0.31882
0.18923 1.19477 -0.24797
0.20221 1.27670 -0.17712
0.21519 1.35863 -0.10627
0.22816 1.44057 -0.03542
0.24114 1.52250 0.03542
0.25412 1.60443 0.10627
0.26709 1.68636 0.17712
0.28007 1.76829 0.24797
0.29305 1.85023 0.31882
0.30602 1.93216 0.38967
0.11018 1.04834 -0.40148
0.11866 1.12896 -0.32848
0.12713 1.20959 -0.25549
0.13561 1.29022 -0.18249
0.14408 1.37084 -0.10949
0.15256 1.45147 -0.03650
0.16103 1.53210 0.03650
0.16950 1.61272 0.10949
0.17798 1.69335 0.18249
0.18645 1.77397 0.25549
0.19493 1.85460 0.32848
0.20340 1.93523 0.40148
0.05573 1.06332 -0.41301
0.05987 1.14234 -0.33792
0.06401 1.22136 -0.26283
0.06815 1.30039 -0.18773
0.07229 1.37941 -0.11264
0.07643 1.45843 -0.03755
0.08057 1.53746 0.03755
0.08472 1.61648 0.11264
0.08886 1.69550 0.18773
0.09300 1.77453 0.26283
0.09714 1.85355 0.33792
0.10128 1.93257 0.41301
0.00000 1.07574 -0.42426
0.00000 1.15287 -0.34713
0.00000 1.23001 -0.26999
0.00000 1.30715 -0.19285
0.00000 1.38429 -0.11571
0.00000 1.46143 -0.03857
0.00000 1.53857 0.03857
0.00000 1.61571 0.11571
0.00000 1.69285 0.19285
0.00000 1.76999 0.26999
0.00000 1.84713 0.34713
0.00000 1.92426 0.42426
-0.05689 1.08550 -0.43522
-0.06082 1.16049 -0.35609
-0.06475 1.23548 -0.27696
-0.06868 1.31047 -0.19783
-0.07261 1.38546 -0.11870
-0.07654 1.46045 -0.03957
-0.08047 1.53544 0.03957
-0.08440 1.61043 0.11870
-0.08833 1.68542 0.19783
-0.09226 1.76041 0.27696
-0.09619 1.83540 0.35609
-0.10012 1.91039 0.43522
-0.11483 1.09250 -0.44589
-0.12246 1.16510 -0.36482
-0.13009 1.23770 -0.28375
-0.13772 1.31029 -0.20268
-0.14535 1.38289 -0.12161
-0.15298 1.45548 -0.04054
-0.16061 1.52808 0.04054
-0.16824 1.60068 0.12161
-0.17587 1.67327 0.20268
-0.18350 1.74587 0.28375
-0.19113 1.81847 0.36482
-0.19876 1.89106 0.44589
-0.17369 1.09666 -0.45624
-0.18478 1.16664 -0.37329
-0.19586 1.23661 -0.29034
-0.20694 1.30659 -0.20738
-0.21803 1.37657 -0.12443
-0.22911 1.44654 -0.04148
-0.24019 1.51652 0.04148
-0.25128 1.58650 0.12443
-0.26236 1.65647 0.20738
-0.27344 1.72645 0.29034
-0.28453 1.79643 0.37329
-0.29561 1.86640 0.45624
-0.23336 1.09788 -0.46629
-0.24764 1.16503 -0.38151
-0.26191 1.23219 -0.29673
-0.27618 1.29934 -0.21195
-0.29046 1.36649 -0.12717
-0.30473 1.43364 -0.04239
-0.31900 1.50080 0.04239
-0.33328 1.56795 0.12717
-0.34755 1.63510 0.21195
-0.36183 1.70226 0.29673
-0.37610 1.76941 0.38151
-0.39037 1.83656 0.46629
-0.29369 1.09608 -0.47601
-0.31088 1.16023 -0.38946
-0.32807 1.22437 -0.30292
-0.34526 1.28852 -0.21637
-0.36245 1.35267 -0.12982
-0.37963 1.41682 -0.04327
-0.39682 1.48096 0.04327
-0.41401 1.54511 0.12982
-0.43120 1.60926 0.21637
-0.44839 1.67340 0.30292
-0.46558 1.73755 0.38946
-0.48276 1.80170 0.47601
-0.35454 1.09117 -0.48541
-0.37436 1.15216 -0.39715
-0.39417 1.21314 -0.30890
-0.41399 1.27413 -0.22064
-0.43380 1.33511 -0.13238
-0.45362 1.39609 -0.04413
-0.47343 1.45708 0.04413
-0.49325 1.51806 0.13238
-0.51306 1.57904 0.22064
-0.53288 1.64003 0.30890
-0.55269 1.70101 0.39715
-0.57251 1.76199 0.48541
-0.41576 1.08310 -0.49448
-0.43791 1.14078 -0.40457
-0.46005 1.19847 -0.31467
-0.48219 1.25616 -0.22476
-0.50434 1.31384 -0.13486
-0.52648 1.37153 -0.04495
-0.54862 1.42921 0.04495
-0.57077 1.48690 0.13486
-0.59291 1.54458 0.22476
-0.61505 1.60227 0.31467
-0.63720 1.65996 0.40457
-0.65934 1.71764 0.49448
-0.47719 1.07179 -0.50320
-0.50136 1.12607 -0.41171
-0.52552 1.18034 -0.32022
-0.54969 1.23462 -0.22873
-0.57386 1.28890 -0.13724
-0.59802 1.34318 -0.04575
-0.62219 1.39746 0.04575
-0.64635 1.45174 0.13724
-0.67052 1.50601 0.22873
-0.69469 1.56029 0.32022
-0.71885 1.61457 0.41171
-0.74302 1.66885 0.50320
-0.53866 1.05718 -0.51158
-0.56454 1.10797 -0.41857
-0.59041 1.15875 -0.32555
-0.61629 1.20954 -0.23254
-0.64217 1.26033 -0.13952
-0.66805 1.31112 -0.04651
-0.69392 1.36190 0.04651
-0.71980 1.41269 0.13952
-0.74568 1.46348 0.23254
-0.77156 1.51427 0.32555
-0.79743 1.56505 0.41857
-0.82331 1.61584 0.51158
-0.60000 1.03923 -0.51962
-0.62727 1.08647 -0.42514
-0.65455 1.13371 -0.33066
-0.68182 1.18094 -0.23619
-0.70909 1.22818 -0.14171
-0.73636 1.27542 -0.04724
-0.76364 1.32266 0.04724
-0.79091 1.36989 0.14171
-0.81818 1.41713 0.23619
-0.84545 1.46437 0.33066
-0.87273 1.51161 0.42514
-0.90000 1.55885 0.51962
-0.66103 1.01790 -0.52729
-0.68938 1.06155 -0.43142
-0.71773 1.10521 -0.33555
-0.74608 1.14887 -0.23968
-0.77443 1.19252 -0.14381
-0.80278 1.23618 -0.04794
-0.83113 1.27983 0.04794
-0.85948 1.32349 0.14381
-0.88783 1.36715 0.23968
-0.91619 1.41080 0.33555
-0.94454 1.45446 0.43142
-0.97289 1.49811 0.52729
-0.72157 0.99315 -0.53460
-0.75068 1.03322 -0.43740
-0.77979 1.07329 -0.34020
-0.80890 1.11336 -0.24300
-0.83801 1.15342 -0.14580
-0.86712 1.19349 -0.04860
-0.89623 1.23356 0.04860
-0.92534 1.27363 0.14580
-0.95445 1.31369 0.24300
-0.98357 1.35376 0.34020
-1.01268 1.39383 0.43740
-1.04179 1.43390 0.53460
-0.78142 0.96498 -0.54155
-0.81098 1.00148 -0.44309
-0.84053 1.03797 -0.34462
-0.87009 1.07447 -0.24616
-0.89965 1.11097 -0.14770
-0.92920 1.14747 -0.04923
-0.95876 1.18397 0.04923
-0.98831 1.22047 0.14770
-1.01787 1.25697 0.24616
-1.04743 1.29346 0.34462
-1.07698 1.32996 0.44309
-1.10654 1.36646 0.54155
-0.84040 0.93336 -0.54813
-0.87009 0.96633 -0.44847
-0.89978 0.99931 -0.34881
-0.92947 1.03228 -0.24915
-0.95916 1.06526 -0.14949
-0.98885 1.09823 -0.04983
-1.01854 1.13120 0.04983
-1.04823 1.16418 0.14949
-1.07792 1.19715 0.24915
-1.10761 1.23013 0.34881
-1.13730 1.26310 0.44847
-1.16699 1.29608 0.54813
-0.89830 0.89830 -0.55433
-0.92782 0.92782 -0.45354
-0.95734 0.95734 -0.35275
-0.98686 0.98686 -0.25197
-1.01638 1.01638 -0.15118
-1.04590 1.04590 -0.05039
-1.07542 1.07542 0.05039
-1.10494 1.10494 0.15118
-1.13446 1.13446 0.25197
-1.16398 1.16398 0.35275
-1.19350 1.19350 0.45354
-1.22302 1.22302 0.55433
-0.95493 0.85982 -0.56015
-0.98398 0.88598 -0.45830
-1.01303 0.91214 -0.35646
-1.04208 0.93830 -0.25461
-1.07114 0.96446 -0.15277
-1.10019 0.99062 -0.05092
-1.12924 1.01678 0.05092
-1.15830 1.04294 0.15277
-1.18735 1.06909 0.25461
-1.21640 1.09525 0.35646
-1.24546 1.12141 0.45830
-1.27451 1.14757 0.56015
-1.01007 0.81794 -0.56558
-1.03837 0.84085 -0.46275
-1.06667 0.86377 -0.35992
-1.09497 0.88669 -0.25708
-1.12327 0.90961 -0.15425
-1.15157 0.93252 -0.05142
-1.17987 0.95544 0.05142
-1.20817 0.97836 0.15425
-1.23647 1.00127 0.25708
-1.26477 1.02419 0.35992
-1.29307 1.04711 0.46275
-1.32137 1.07002 0.56558
-1.06353 0.77270 -0.57063
-1.09080 0.79251 -0.46688
-1.11807 0.81233 -0.36313
-1.14534 0.83214 -0.25938
-1.17262 0.85196 -0.15563
-1.19989 0.87177 -0.05188
-1.22716 0.89159 0.05188
-1.25443 0.91140 0.15563
-1.28171 0.93121 0.25938
-1.30898 0.95103 0.36313
-1.33625 0.97084 0.46688
-1.36353 0.99066 0.57063
-1.11509 0.72415 -0.57529
-1.14107 0.74102 -0.47069
-1.16706 0.75790 -0.36609
-1.19304 0.77477 -0.26150
-1.21903 0.79165 -0.15690
-1.24501 0.80852 -0.05230
-1.27100 0.82540 0.05230
-1.29698 0.84227 0.15690
-1.32297 0.85915 0.26150
-1.34895 0.87602 0.36609
-1.37494 0.89290 0.47069
-1.40092 0.90977 0.57529
-1.16455 0.67235 -0.57956
-1.18900 0.68647 -0.47418
-1.21346 0.70059 -0.36881
-1.23791 0.71471 -0.26343
-1.26236 0.72882 -0.15806
-1.28681 0.74294 -0.05269
-1.31126 0.75706 0.05269
-1.33572 0.77118 0.15806
-1.36017 0.78529 0.26343
-1.38462 0.79941 0.36881
-1.40907 0.81353 0.47418
-1.43352 0.82765 0.57956
-1.21171 0.61740 -0.58342
-1.23440 0.62896 -0.47735
-1.25709 0.64052 -0.37127
-1.27978 0.65208 -0.26519
-1.30247 0.66364 -0.15912
-1.32516 0.67520 -0.05304
-1.34786 0.68677 0.05304
-1.37055 0.69833 0.15912
-1.39324 0.70989 0.26519
-1.41593 0.72145 0.37127
-1.43862 0.73301 0.47735
-1.46131 0.74457 0.58342
-1.25636 0.55937 -0.58689
-1.27708 0.56859 -0.48018
-1.29780 0.57782 -0.37347
-1.31852 0.58704 -0.26677
-1.33924 0.59627 -0.16006
-1.35996 0.60549 -0.05335
-1.38068 0.61472 0.05335
-1.40140 0.62394 0.16006
-1.42212 0.63317 0.26677
-1.44284 0.64239 0.37347
-1.46356 0.65162 0.48018
-1.48428 0.66084 0.58689
-1.29829 0.49837 -0.58995
-1.31685 0.50549 -0.48269
-1.33541 0.51262 -0.37542
-1.35397 0.51974 -0.26816
-1.37253 0.52687 -0.16090
-1.39109 0.53399 -0.05363
-1.40965 0.54111 0.05363
-1.42821 0.54824 0.16090
-1.44677 0.55536 0.26816
-1.46533 0.56249 0.37542
-1.48389 0.56961 0.48269
-1.50245 0.57674 0.58995
-1.33732 0.43452 -0.59261
-1.35355 0.43979 -0.48487
-1.36978 0.44507 -0.37712
-1.38601 0.45034 -0.26937
-1.40224 0.45562 -0.16162
-1.41847 0.46089 -0.05387
-1.43470 0.46616 0.05387
-1.45093 0.47144 0.16162
-1.46716 0.47671 0.26937
-1.48339 0.48198 0.37712
-1.49962 0.48726 0.48487
-1.51585 0.49253 0.59261
-1.37324 0.36796 -0.59487
-1.38700 0.37164 -0.48671
-1.40075 0.37533 -0.37855
-1.41450 0.37902 -0.27039
-1.42826 0.38270 -0.16224
-1.44201 0.38639 -0.05408
-1.45577 0.39007 0.05408
-1.46952 0.39376 0.16224
-1.48327 0.39744 0.27039
-1.49703 0.40113 0.37855
-1.51078 0.40481 0.48671
-1.52454 0.40850 0.59487
-1.40587 0.29883 -0.59671
-1.41703 0.30120 -0.48822
-1.42818 0.30357 -0.37973
-1.43934 0.30594 -0.27123
-1.45049 0.30831 -0.16274
-1.46164 0.31068 -0.05425
-1.47280 0.31305 0.05425
-1.48395 0.31542 0.16274
-1.49511 0.31779 0.27123
-1.50626 0.32017 0.37973
-1.51741 0.32254 0.48822
-1.52857 0.32491 0.59671
-1.43504 0.22729 -0.59815
-1.44349 0.22863 -0.48940
-1.45194 0.22997 -0.38064
-1.46040 0.23130 -0.27189
-1.46885 0.23264 -0.16313
-1.47731 0.23398 -0.05438
-1.48576 0.23532 0.05438
-1.49421 0.23666 0.16313
-1.50267 0.23800 0.27189
-1.51112 0.23934 0.38064
-1.51957 0.24068 0.48940
-1.52803 0.24202 0.59815
-1.46055 0.15351 -0.59918
-1.46623 0.15411 -0.49024
-1.47191 0.15470 -0.38129
-1.47759 0.15530 -0.27235
-1.48327 0.15590 -0.16341
-1.48894 0.15649 -0.05447
-1.49462 0.15709 0.05447
-1.50030 0.15769 0.16341
-1.50598 0.15828 0.27235
-1.51166 0.15888 0.38129
-1.51733 0.15948 0.49024
-1.52301 0.16008 0.59918
-1.48226 0.07768 -0.59979
-1.48511 0.07783 -0.49074
-1.48796 0.07798 -0.38169
-1.49081 0.07813 -0.27263
-1.49367 0.07828 -0.16358
-1.49652 0.07843 -0.05453
-1.49937 0.07858 0.05453
-1.50222 0.07873 0.16358
-1.50507 0.07888 0.27263
-1.50793 0.07903 0.38169
-1.51078 0.07918 0.49074
-1.51363 0.07933 0.59979
-1.50000 0.00000 -0.60000
-1.50000 0.00000 -0.49091
-1.50000 0.00000 -0.38182
-1.50000 0.00000 -0.27273
-1.50000 0.00000 -0.16364
-1.50000 0.00000 -0.05455
-1.50000 0.00000 0.05455
-1.50000 0.00000 0.16364
-1.50000 0.00000 0.27273
-1.50000 0.00000 0.38182
-1.50000 0.00000 0.49091
-1.50000 0.00000 0.60000
-1.51363 -0.07933 -0.59979
-1.51078 -0.07918 -0.49074
-1.50793 -0.07903 -0.38169
-1.50507 -0.07888 -0.27263
-1.50222 -0.07873 -0.16358
-1.49937 -0.07858 -0.05453
-1.49652 -0.07843 0.05453
-1.49367 -0.07828 0.16358
-1.49081 -0.07813 0.27263
-1.48796 -0.07798 0.38169
-1.48511 -0.07783 0.49074
-1.48226 -0.07768 0.59979
-1.52301 -0.16008 -0.59918
-1.51733 -0.15948 -0.49024
-1.51166 -0.15888 -0.38129
-1.50598 -0.15828 -0.27235
-1.50030 -0.15769 -0.16341
-1.49462 -0.15709 -0.05447
-1.48894 -0.15649 0.05447
-1.48327 -0.15590 0.16341
-1.47759 -0.15530 0.27235
-1.47191 -0.15470 0.38129
-1.46623 -0.15411 0.49024
-1.46055 -0.15351 0.59918
-1.52803 -0.24202 -0.59815
-1.51957 -0.24068 -0.48940
-1.51112 -0.23934 -0.38064
-1.50267 -0.23800 -0.27189
-1.49421 -0.23666 -0.16313
-1.48576 -0.23532 -0.05438
-1.47731 -0.23398 0.05438
-1.46885 -0.23264 0.16313
-1.46040 -0.23130 0.27189
-1.45194 -0.22997 0.38064
-1.44349 -0.22863 0.48940
-1.43504 -0.22729 0.59815
-1.52857 -0.32491 -0.59671
-1.51741 -0.32254 -0.48822
-1.50626 -0.32017 -0.37973
-1.49511 -0.31779 -0.27123
-1.48395 -0.31542 -0.16274
-1.47280 -0.31305 -0.05425
-1.46164 -0.31068 0.05425
-1.45049 -0.30831 0.16274
-1.43934 -0.30594 0.27123
-1.42818 -0.30357 0.37973
-1.41703 -0.30120 0.48822
-1.40587 -0.29883 0.59671
-1.52454 -0.40850 -0.59487
-1.51078 -0.40481 -0.48671
-1.49703 -0.40113 -0.37855
-1.48327 -0.39744 -0.27039
-1.46952 -0.39376 -0.16224
-1.45577 -0.39007 -0.05408
-1.44201 -0.38639 0.05408
-1.42826 -0.38270 0.16224
-1.41450 -0.37902 0.27039
-1.40075 -0.37533 0.37855
-1.38700 -0.37164 0.48671
-1.37324 -0.36796 0.59487
-1.51585 -0.49253 -0.59261
-1.49962 -0.48726 -0.48487
-1.48339 -0.48198 -0.37712
-1.46716 -0.47671 -0.26937
-1.45093 -0.47144 -0.16162
-1.43470 -0.46616 -0.05387
-1.41847 -0.46089 0.05387
-1.40224 -0.45562 0.16162
-1.38601 -0.45034 0.26937
-1.36978 -0.44507 0.37712
-1.35355 -0.43979 0.48487
-1.33732 -0.43452 0.59261
-1.50245 -0.57674 -0.58995
-1.48389 -0.56961 -0.48269
-1.46533 -0.56249 -0.37542
-1.44677 -0.55536 -0.26816
-1.42821 -0.54824 -0.16090
-1.40965 -0.54111 -0.05363
-1.39109 -0.53399 0.05363
-1.37253 -0.52687 0.16090
-1.35397 -0.51974 0.26816
-1.33541 -0.51262 0.37542
-1.31685 -0.50549 0.48269
-1.29829 -0.49837 0.58995
-1.48428 -0.66084 -0.58689
-1.46356 -0.65162 -0.48018
-1.44284 -0.64239 -0.37347
-1.42212 -0.63317 -0.26677
-1.40140 -0.62394 -0.16006
-1.38068 -0.61472 -0.05335
-1.35996 -0.60549 0.05335
-1.33924 -0.59627 0.16006
-1.31852 -0.58704 0.26677
-1.29780 -0.57782 0.37347
-1.27708 -0.56859 0.48018
-1.25636 -0.55937 0.58689
-1.46131 -0.74457 -0.58342
-1.43862 -0.73301 -0.47735
-1.41593 -0.72145 -0.37127
-1.39324 -0.70989 -0.26519
-1.37055 -0.69833 -0.15912
-1.34786 -0.68677 -0.05304
-1.32516 -0.67520 0.05304
-1.30247 -0.66364 0.15912
-1.27978 -0.65208 0.26519
-1.25709 -0.64052 0.37127
-1.23440 -0.62896 0.47735
-1.21171 -0.61740 0.58342
-1.43352 -0.82765 -0.57956
-1.40907 -0.81353 -0.47418
-1.38462 -0.79941 -0.36881
-1.36017 -0.78529 -0.26343
-1.33572 -0.77118 -0.15806
-1.31126 -0.75706 -0.05269
-1.28681 -0.74294 0.05269
-1.26236 -0.72882 0.15806
-1.23791 -0.71471 0.26343
-1.21346 -0.70059 0.36881
-1.18900 -0.68647 0.47418
-1.16455 -0.67235 0.57956
-1.40092 -0.90977 -0.57529
-1.37494 -0.89290 -0.47069
-1.34895 -0.87602 -0.36609
-1.32297 -0.85915 -0.26150
-1.29698 -0.84227 -0.15690
-1.27100 -0.82540 -0.05230
-1.24501 -0.80852 0.05230
-1.21903 -0.79165 0.15690
-1.19304 -0.77477 0.26150
-1.16706 -0.75790 0.36609
-1.14107 -0.74102 0.47069
-1.11509 -0.72415 0.57529
-1.36353 -0.99066 -0.57063
-1.33625 -0.97084 -0.46688
-1.30898 -0.95103 -0.36313
-1.28171 -0.93121 -0.25938
-1.25443 -0.91140 -0.15563
-1.22716 -0.89159 -0.05188
-1.19989 -0.87177 0.05188
-1.17262 -0.85196 0.15563
-1.14534 -0.83214 0.25938
-1.11807 -0.81233 0.36313
-1.09080 -0.79251 0.46688
-1.06353 -0.77270 0.57063
-1.32137 -1.07002 -0.56558
-1.29307 -1.04711 -0.46275
-1.26477 -1.02419 -0.35992
-1.23647 -1.00127 -0.25708
-1.20817 -0.97836 -0.15425
-1.17987 -0.95544 -0.05142
-1.15157 -0.93252 0.05142
-1.12327 -0.90961 0.15425
-1.09497 -0.88669 0.25708
-1.06667 -0.86377 0.35992
-1.03837 -0.84085 0.46275
-1.01007 -0.81794 0.56558
-1.27451 -1.14757 -0.56015
-1.24546 -1.12141 -0.45830
-1.21640 -1.09525 -0.35646
-1.18735 -1.06909 -0.25461
-1.15830 -1.04294 -0.15277
-1.12924 -1.01678 -0.05092
-1.10019 -0.99062 0.05092
-1.07114 -0.96446 0.15277
-1.04208 -0.93830 0.25461
-1.01303 -0.91214 0.35646
-0.98398 -0.88598 0.45830
-0.95493 -0.85982 0.56015
-1.22302 -1.22302 -0.55433
-1.19350 -1.19350 -0.45354
-1.16398 -1.16398 -0.35275
-1.13446 -1.13446 -0.25197
-1.10494 -1.10494 -0.15118
-1.07542 -1.07542 -0.05039
-1.04590 -1.04590 0.05039
-1.01638 -1.01638 0.15118
-0.98686 -0.98686 0.25197
-0.95734 -0.95734 0.35275
-0.92782 -0.92782 0.45354
-0.89830 -0.89830 0.55433
-1.16699 -1.29608 -0.54813
-1.13730 -1.26310 -0.44847
-1.10761 -1.23013 -0.34881
-1.07792 -1.19715 -0.24915
-1.04823 -1.16418 -0.14949
-1.01854 -1.13120 -0.04983
-0.98885 -1.09823 0.04983
-0.95916 -1.06526 0.14949
-0.92947 -1.03228 0.24915
-0.89978 -0.99931 0.34881
-0.87009 -0.96633 0.44847
-0.84040 -0.93336 0.54813
-1.10654 -1.36646 -0.54155
-1.07698 -1.32996 -0.44309
-1.04743 -1.29346 -0.34462
-1.01787 -1.25697 -0.24616
-0.98831 -1.22047 -0.14770
-0.95876 -1.18397 -0.04923
-0.92920 -1.14747 0.04923
-0.89965 -1.11097 0.14770
-0.87009 -1.07447 0.24616
-0.84053 -1.03797 0.34462
-0.81098 -1.00148 0.44309
-0.78142 -0.96498 0.54155
-1.04179 -1.43390 -0.53460
-1.01268 -1.39383 -0.43740
-0.98357 -1.35376 -0.34020
-0.95445 -1.31369 -0.24300
-0.92534 -1.27363 -0.14580
-0.89623 -1.23356 -0.04860
-0.86712 -1.19349 0.04860
-0.83801 -1.15342 0.14580
-0.80890 -1.11336 0.24300
-0.77979 -1.07329 0.34020
-0.75068 -1.03322 0.43740
-0.72157 -0.99315 0.53460
-0.97289 -1.49811 -0.52729
-0.94454 -1.45446 -0.43142
-0.91619 -1.41080 -0.33555
-0.88783 -1.36715 -0.23968
-0.85948 -1.32349 -0.14381
-0.83113 -1.27983 -0.04794
-0.80278 -1.23618 0.04794
-0.77443 -1.19252 0.14381
-0.74608 -1.14887 0.23968
-0.71773 -1.10521 0.33555
-0.68938 -1.06155 0.43142
-0.66103 -1.01790 0.52729
-0.90000 -1.55885 -0.51962
-0.87273 -1.51161 -0.42514
-0.84545 -1.46437 -0.33066
-0.81818 -1.41713 -0.23619
-0.79091 -1.36989 -0.14171
-0.76364 -1.32266 -0.04724
-0.73636 -1.27542 0.04724
-0.70909 -1.22818 0.14171
-0.68182 -1.18094 0.23619
-0.65455 -1.13371 0.33066
-0.62727 -1.08647 0.42514
-0.60000 -1.03923 0.51962
-0.82331 -1.61584 -0.51158
-0.79743 -1.56505 -0.41857
-0.77156 -1.51427 -0.32555
-0.74568 -1.46348 -0.23254
-0.71980 -1.41269 -0.13952
-0.69392 -1.36190 -0.04651
-0.66805 -1.31112 0.04651
-0.64217 -1.26033 0.13952
-0.61629 -1.20954 0.23254
-0.59041 -1.15875 0.32555
-0.56454 -1.10797 0.41857
-0.53866 -1.05718 0.51158
-0.74302 -1.66885 -0.50320
-0.71885 -1.61457 -0.41171
-0.69469 -1.56029 -0.32022
-0.67052 -1.50601 -0.22873
-0.64635 -1.45174 -0.13724
-0.62219 -1.39746 -0.04575
-0.59802 -1.34318 0.04575
-0.57386 -1.28890 0.13724
-0.54969 -1.23462 0.22873
-0.52552 -1.18034 0.32022
-0.50136 -1.12607 0.41171
-0.47719 -1.07179 0.50320
-0.65934 -1.71764 -0.49448
-0.63720 -1.65996 -0.40457
-0.61505 -1.60227 -0.31467
-0.59291 -1.54458 -0.22476
-0.57077 -1.48690 -0.13486
-0.54862 -1.42921 -0.04495
-0.52648 -1.37153 0.04495
-0.50434 -1.31384 0.13486
-0.48219 -1.25616 0.22476
-0.46005 -1.19847 0.31467
-0.43791 -1.14078 0.40457
-0.41576 -1.08310 0.49448
-0.57251 -1.76199 -0.48541
-0.55269 -1.70101 -0.39715
-0.53288 -1.64003 -0.30890
-0.51306 -1.57904 -0.22064
-0.49325 -1.51806 -0.13238
-0.47343 -1.45708 -0.04413
-0.45362 -1.39609 0.04413
-0.43380 -1.33511 0.13238
-0.41399 -1.27413 0.22064
-0.39417 -1.21314 0.30890
-0.37436 -1.15216 0.39715
-0.35454 -1.09117 0.48541
-0.48276 -1.80170 -0.47601
-0.46558 -1.73755 -0.38946
-0.44839 -1.67340 -0.30292
-0.43120 -1.60926 -0.21637
-0.41401 -1.54511 -0.12982
-0.39682 -1.48096 -0.04327
-0.37963 -1.41682 0.04327
-0.36245 -1.35267 0.12982
-0.34526 -1.28852 0.21637
-0.32807 -1.22437 0.30292
-0.31088 -1.16023 0.38946
-0.29369 -1.09608 0.47601
-0.39037 -1.83656 -0.46629
-0.37610 -1.76941 -0.38151
-0.36183 -1.70226 -0.29673
-0.34755 -1.63510 -0.21195
-0.33328 -1.56795 -0.12717
-0.31900 -1.50080 -0.04239
-0.30473 -1.43364 0.04239
-0.29046 -1.36649 0.12717
-0.27618 -1.29934 0.21195
-0.26191 -1.23219 0.29673
-0.24764 -1.16503 0.38151
-0.23336 -1.09788 0.46629
-0.29561 -1.86640 -0.45624
-0.28453 -1.79643 -0.37329
-0.27344 -1.72645 -0.29034
-0.26236 -1.65647 -0.20738
-0.25128 -1.58650 -0.12443
-0.24019 -1.51652 -0.04148
-0.22911 -1.44654 0.04148
-0.21803 -1.37657 0.12443
-0.20694 -1.30659 0.20738
-0.19586 -1.23661 0.29034
-0.18478 -1.16664 0.37329
-0.17369 -1.09666 0.45624
-0.19876 -1.89106 -0.44589
-0.19113 -1.81847 -0.36482
-0.18350 -1.74587 -0.28375
-0.17587 -1.67327 -0.20268
-0.16824 -1.60068 -0.12161
-0.16061 -1.52808 -0.04054
-0.15298 -1.45548 0.04054
-0.14535 -1.38289 0.12161
-0.13772 -1.31029 0.20268
-0.13009 -1.23770 0.28375
-0.12246 -1.16510 0.36482
-0.11483 -1.09250 0.44589
-0.10012 -1.91039 -0.43522
-0.09619 -1.83540 -0.35609
-0.09226 -1.76041 -0.27696
-0.08833 -1.68542 -0.19783
-0.08440 -1.61043 -0.11870
-0.08047 -1.53544 -0.03957
-0.07654 -1.46045 0.03957
-0.07261 -1.38546 0.11870
-0.06868 -1.31047 0.19783
-0.06475 -1.23548 0.27696
-0.06082 -1.16049 0.35609
-0.05689 -1.08550 0.43522
-0.00000 -1.92426 -0.42426
-0.00000 -1.84713 -0.34713
-0.00000 -1.76999 -0.26999
-0.00000 -1.69285 -0.19285
-0.00000 -1.61571 -0.11571
-0.00000 -1.53857 -0.03857
-0.00000 -1.46143 0.03857
-0.00000 -1.38429 0.11571
-0.00000 -1.30715 0.19285
-0.00000 -1.23001 0.26999
-0.00000 -1.15287 0.34713
-0.00000 -1.07574 0.42426
0.10128 -1.93257 -0.41301
0.09714 -1.85355 -0.33792
0.09300 -1.77453 -0.26283
0.08886 -1.69550 -0.18773
0.08472 -1.61648 -0.11264
0.08057 -1.53746 -0.03755
0.07643 -1.45843 0.03755
0.07229 -1.37941 0.11264
0.06815 -1.30039 0.18773
0.06401 -1.22136 0.26283
0.05987 -1.14234 0.33792
0.05573 -1.06332 0.41301
0.20340 -1.93523 -0.40148
0.19493 -1.85460 -0.32848
0.18645 -1.77397 -0.25549
0.17798 -1.69335 -0.18249
0.16950 -1.61272 -0.10949
0.16103 -1.53210 -0.03650
0.15256 -1.45147 0.03650
0.14408 -1.37084 0.10949
0.13561 -1.29022 0.18249
0.12713 -1.20959 0.25549
0.11866 -1.12896 0.32848
0.11018 -1.04834 0.40148
0.30602 -1.93216 -0.38967
0.29305 -1.85023 -0.31882
0.28007 -1.76829 -0.24797
0.26709 -1.68636 -0.17712
0.25412 -1.60443 -0.10627
0.24114 -1.52250 -0.03542
0.22816 -1.44057 0.03542
0.21519 -1.35863 0.10627
0.20221 -1.27670 0.17712
0.18923 -1.19477 0.24797
0.17626 -1.11284 0.31882
0.16328 -1.03091 0.38967
0.40881 -1.92332 -0.37759
0.39119 -1.84039 -0.30894
0.37356 -1.75747 -0.24029
0.35593 -1.67454 -0.17163
0.33831 -1.59161 -0.10298
0.32068 -1.50868 -0.03433
0.30305 -1.42576 0.03433
0.28543 -1.34283 0.10298
0.26780 -1.25990 0.17163
0.25017 -1.17698 0.24029
0.23255 -1.09405 0.30894
0.21492 -1.01112 0.37759
0.51143 -1.90868 -0.36526
0.48903 -1.82508 -0.29885
0.46663 -1.74148 -0.23244
0.44423 -1.65789 -0.16603
0.42183 -1.57429 -0.09962
0.39943 -1.49069 -0.03321
0.37703 -1.40709 0.03321
0.35463 -1.32349 0.09962
0.33223 -1.23989 0.16603
0.30983 -1.15629 0.23244
0.28743 -1.07270 0.29885
0.26503 -0.98910 0.36526
0.61353 -1.88824 -0.35267
0.58625 -1.80430 -0.28855
0.55898 -1.72036 -0.22443
0.53171 -1.63643 -0.16031
0.50443 -1.55249 -0.09618
0.47716 -1.46855 -0.03206
0.44989 -1.38462 0.03206
0.42262 -1.30068 0.09618
0.39534 -1.21674 0.16031
0.36807 -1.13281 0.22443
0.34080 -1.04887 0.28855
0.31353 -0.96493 0.35267
0.71476 -1.86200 -0.33984
0.68254 -1.77807 -0.27805
0.65032 -1.69414 -0.21626
0.61810 -1.61020 -0.15447
0.58588 -1.52627 -0.09268
0.55366 -1.44234 -0.03089
0.52144 -1.35840 0.03089
0.48922 -1.27447 0.09268
0.45700 -1.19054 0.15447
0.42479 -1.10660 0.21626
0.39257 -1.02267 0.27805
0.36035 -0.93874 0.33984
0.81478 -1.83002 -0.32678
0.77756 -1.74643 -0.26737
0.74035 -1.66285 -0.20795
0.70314 -1.57927 -0.14854
0.66592 -1.49569 -0.08912
0.62871 -1.41211 -0.02971
0.59150 -1.32853 0.02971
0.55429 -1.24495 0.08912
0.51707 -1.16136 0.14854
0.47986 -1.07778 0.20795
0.44265 -0.99420 0.26737
0.40543 -0.91062 0.32678
0.91324 -1.79233 -0.31350
0.87101 -1.70946 -0.25650
0.82878 -1.62658 -0.19950
0.78656 -1.54370 -0.14250
0.74433 -1.46083 -0.08550
0.70210 -1.37795 -0.02850
0.65987 -1.29507 0.02850
0.61764 -1.21219 0.08550
0.57542 -1.12932 0.14250
0.53319 -1.04644 0.19950
0.49096 -0.96356 0.25650
0.44873 -0.88069 0.31350
1.00981 -1.74904 -0.30000
0.96257 -1.66722 -0.24545
0.91533 -1.58540 -0.19091
0.86809 -1.50358 -0.13636
0.82086 -1.42177 -0.08182
0.77362 -1.33995 -0.02727
0.72638 -1.25813 0.02727
0.67914 -1.17631 0.08182
0.63191 -1.09449 0.13636
0.58467 -1.01267 0.19091
0.53743 -0.93086 0.24545
0.49019 -0.84904 0.30000
1.10414 -1.70023 -0.28630
1.05193 -1.61982 -0.23424
0.99971 -1.53942 -0.18219
0.94750 -1.45902 -0.13013
0.89528 -1.37861 -0.07808
0.84307 -1.29821 -0.02603
0.79085 -1.21780 0.02603
0.73864 -1.13740 0.07808
0.68642 -1.05700 0.13013
0.63421 -0.97659 0.18219
0.58199 -0.89619 0.23424
0.52978 -0.81578 0.28630
1.19591 -1.64603 -0.27239
1.13878 -1.56739 -0.22287
1.08164 -1.48876 -0.17334
1.02451 -1.41012 -0.12382
0.96738 -1.33148 -0.07429
0.91024 -1.25284 -0.02476
0.85311 -1.17421 0.02476
0.79598 -1.09557 0.07429
0.73885 -1.01693 0.12382
0.68171 -0.93830 0.17334
0.62458 -0.85966 0.22287
0.56745 -0.78102 0.27239
1.28479 -1.58658 -0.25831
1.22282 -1.51006 -0.21134
1.16086 -1.43354 -0.16438
1.09889 -1.35702 -0.11741
1.03693 -1.28050 -0.07045
0.97496 -1.20398 -0.02348
0.91300 -1.12746 0.02348
0.85103 -1.05094 0.07045
0.78907 -0.97442 0.11741
0.72710 -0.89790 0.16438
0.66514 -0.82138 0.21134
0.60317 -0.74485 0.25831
1.37046 -1.52206 -0.24404
1.30378 -1.44799 -0.19967
1.23709 -1.37393 -0.15530
1.17041 -1.29987 -0.11093
1.10372 -1.22581 -0.06656
1.03704 -1.15175 -0.02219
0.97035 -1.07769 0.02219
0.90367 -1.00363 0.06656
0.83698 -0.92956 0.11093
0.77030 -0.85550 0.15530
0.70361 -0.78144 0.19967
0.63693 -0.70738 0.24404
1.45263 -1.45263 -0.22961
1.38136 -1.38136 -0.18786
1.31009 -1.31009 -0.14612
1.23883 -1.23883 -0.10437
1.16756 -1.16756 -0.06262
1.09629 -1.09629 -0.02087
1.02503 -1.02503 0.02087
0.95376 -0.95376 0.06262
0.88249 -0.88249 0.10437
0.81123 -0.81123 0.14612
0.73996 -0.73996 0.18786
0.66869 -0.66869 0.22961
1.53099 -1.37851 -0.21502
1.45530 -1.31036 -0.17593
1.37962 -1.24221 -0.13683
1.30393 -1.17407 -0.09774
1.22825 -1.10592 -0.05864
1.15256 -1.03777 -0.01955
1.07687 -0.96962 0.01955
1.00119 -0.90147 0.05864
0.92550 -0.83333 0.09774
0.84982 -0.76518 0.13683
0.77413 -0.69703 0.17593
0.69845 -0.62888 0.21502
1.60526 -1.29991 -0.20028
1.52534 -1.23520 -0.16387
1.44543 -1.17048 -0.12745
1.36551 -1.10577 -0.09104
1.28559 -1.04105 -0.05462
1.20568 -0.97634 -0.01821
1.12576 -0.91162 0.01821
1.04584 -0.84691 0.05462
0.96593 -0.78219 0.09104
0.88601 -0.71748 0.12745
0.80609 -0.65276 0.16387
0.72618 -0.58805 0.20028
1.67518 -1.21709 -0.18541
1.59124 -1.15610 -0.15170
1.50730 -1.09512 -0.11799
1.42337 -1.03414 -0.08428
1.33943 -0.97315 -0.05057
1.25549 -0.91217 -0.01686
1.17156 -0.85119 0.01686
1.08762 -0.79020 0.05057
1.00368 -0.72922 0.08428
0.91975 -0.66824 0.11799
0.83581 -0.60725 0.15170
0.75187 -0.54627 0.18541
1.74049 -1.13028 -0.17041
1.65276 -1.07332 -0.13943
1.56504 -1.01635 -0.10844
1.47732 -0.95938 -0.07746
1.38959 -0.90241 -0.04648
1.30187 -0.84544 -0.01549
1.21414 -0.78847 0.01549
1.12642 -0.73151 0.04648
1.03870 -0.67454 0.07746
0.95097 -0.61757 0.10844
0.86325 -0.56060 0.13943
0.77553 -0.50363 0.17041
1.80095 -1.03978 -0.15529
1.70969 -0.98709 -0.12706
1.61844 -0.93440 -0.09882
1.52718 -0.88172 -0.07059
1.43592 -0.82903 -0.04235
1.34467 -0.77634 -0.01412
1.25341 -0.72366 0.01412
1.16215 -0.67097 0.04235
1.07090 -0.61828 0.07059
0.97964 -0.56560 0.09882
0.88838 -0.51291 0.12706
0.79713 -0.46022 0.15529
1.85634 -0.94585 -0.14007
1.76183 -0.89770 -0.11460
1.66731 -0.84954 -0.08913
1.57280 -0.80138 -0.06367
1.47828 -0.75322 -0.03820
1.38377 -0.70506 -0.01273
1.28925 -0.65691 0.01273
1.19474 -0.60875 0.03820
1.10022 -0.56059 0.06367
1.00571 -0.51243 0.08913
0.91119 -0.46428 0.11460
0.81668 -0.41612 0.14007
1.90647 -0.84881 -0.12475
1.80899 -0.80541 -0.10207
1.71150 -0.76201 -0.07938
1.61402 -0.71861 -0.05670
1.51654 -0.67521 -0.03402
1.41906 -0.63181 -0.01134
1.32158 -0.58840 0.01134
1.22410 -0.54500 0.03402
1.12661 -0.50160 0.05670
1.02913 -0.45820 0.07938
0.93165 -0.41480 0.10207
0.83417 -0.37140 0.12475
1.95114 -0.74897 -0.10934
1.85100 -0.71053 -0.08946
1.75086 -0.67209 -0.06958
1.65072 -0.63365 -0.04970
1.55058 -0.59521 -0.02982
1.45044 -0.55677 -0.00994
1.35030 -0.51833 0.00994
1.25016 -0.47989 0.02982
1.15002 -0.44145 0.04970
1.04988 -0.40301 0.06958
0.94974 -0.36457 0.08946
0.84960 -0.32613 0.10934
1.99019 -0.64665 -0.09386
1.88772 -0.61336 -0.07680
1.78524 -0.58006 -0.05973
1.68277 -0.54677 -0.04266
1.58030 -0.51347 -0.02560
1.47782 -0.48017 -0.00853
1.37535 -0.44688 0.00853
1.27287 -0.41358 0.02560
1.17040 -0.38029 0.04266
1.06792 -0.34699 0.05973
0.96545 -0.31369 0.07680
0.86298 -0.28040 0.09386
2.02349 -0.54219 -0.07832
1.91901 -0.51420 -0.06408
1.81454 -0.48620 -0.04984
1.71007 -0.45821 -0.03560
1.60560 -0.43022 -0.02136
1.50112 -0.40223 -0.00712
1.39665 -0.37423 0.00712
1.29218 -0.34624 0.02136
1.18771 -0.31825 0.03560
1.08324 -0.29025 0.04984
0.97876 -0.26226 0.06408
0.87429 -0.23427 0.07832
2.05089 -0.43593 -0.06272
1.94477 -0.41337 -0.05131
1.83865 -0.39082 -0.03991
1.73253 -0.36826 -0.02851
1.62641 -0.34570 -0.01710
1.52028 -0.32315 -0.00570
1.41416 -0.30059 0.00570
1.30804 -0.27803 0.01710
1.20192 -0.25547 0.02851
1.09579 -0.23292 0.03991
0.98967 -0.21036 0.05131
0.88355 -0.18780 0.06272
2.07232 -0.32822 -0.04708
1.96490 -0.31121 -0.03852
1.85749 -0.29420 -0.02996
1.75007 -0.27718 -0.02140
1.64266 -0.26017 -0.01284
1.53524 -0.24316 -0.00428
1.42782 -0.22615 0.00428
1.32041 -0.20913 0.01284
1.21299 -0.19212 0.02140
1.10558 -0.17511 0.02996
0.99816 -0.15809 0.03852
0.89075 -0.14108 0.04708
2.08768 -0.21942 -0.03140
1.97933 -0.20804 -0.02569
1.87099 -0.19665 -0.01998
1.76264 -0.18526 -0.01427
1.65430 -0.17387 -0.00856
1.54596 -0.16249 -0.00285
1.43761 -0.15110 0.00285
1.32927 -0.13971 0.00856
1.22092 -0.12832 0.01427
1.11258 -0.11694 0.01998
1.00423 -0.10555 0.02569
0.89589 -0.09416 0.03140
2.09692 -0.10989 -0.01571
1.98801 -0.10419 -0.01285
1.87911 -0.09848 -0.00999
1.77020 -0.09277 -0.00714
1.66130 -0.08707 -0.00428
1.55240 -0.08136 -0.00143
1.44349 -0.07565 0.00143
1.33459 -0.06994 0.00428
1.22568 -0.06424 0.00714
1.11678 -0.05853 0.00999
1.00788 -0.05282 0.01285
0.89897 -0.04711 0.01571
3 0 12 13
3 0 13 1
3 1 13 14
3 1 14 2
3 2 14 15
3 2 15 3
3 3 15 16
3 3 16 4
3 4 16 17
3 4 17 5
3 5 17 18
3 5 18 6
3 6 18 19
3 6 19 7
3 7 19 20
3 7 20 8
3 8 20 21
3 8 21 9
3 9 21 22
3 9 22 10
3 10 22 23
3 10 23 11
3 12 24 25
3 12 25 13
3 13 25 26
3 13 26 14
3 14 26 27
3 14 27 15
3 15 27 28
3 15 28 16
3 16 28 29
3 16 29 17
3 17 29 30
3 17 30 18
3 18 30 31
3 18 31 19
3 19 31 32
3 19 32 20
3 20 32 33
3 20 33 21
3 21 33 34
3 21 34 22
3 22 34 35
3 22 35 23
3 24 36 37
3 24 37 25
3 25 37 38
3 25 38 26
3 26 38 39
3 26 39 27
3 27 39 40
3 27 40 28
3 28 40 41
3 28 41 29
3 29 41 42
3 29 42 30
3 30 42 43
3 30 43 31
3 31 43 44
3 31 44 32
3 32 44 45
3 32 45 33
3 33 45 46
3 33 46 34
3 34 46 47
3 34 47 35
3 36 48 49
3 36 49 37
3 37 49 50
3 37 50 38
3 38 50 51
3 38 51 39
3 39 51 52
3 39 52 40
3 40 52 53
3 40 53 41
3 41 53 54
3 41 54 42
3 42 54 55
3 42 55 43
3 43 55 56
3 43 56 44
3 44 56 57
3 44 57 45
3 45 57 58
3 45 58 46
3 46 58 59
3 46 59 47
3 48 60 61
3 48 61 49
3 49 61 62
3 49 62 50
3 50 62 63
3 50 63 51
3 51 63 64
3 51 64 52
3 52 64 65
3 52 65 53
3 53 65 66
3 53 66 54
3 54 66 67
3 54 67 55
3 55 67 68
3 55 68 56
3 56 68 69
3 56 69 57
3 57 69 70
3 57 70 58
3 58 70 71
3 58 71 59
3 60 72 73
3 60 73 61
3 61 73 74
3 61 74 62
3 62 74 75
3 62 75 63
3 63 75 76
3 63 76 64
3 64 76 77
3 64 77 65
3 65 77 78
3 65 78 66
3 66 78 79
3 66 79 67
3 67 79 80
3 67 80 68
3 68 80 81
3 68 81 69
3 69 81 82
3 69 82 70
3 70 82 83
3 70 83 71
3 72 84 85
3 72 85 73
3 73 85 86
3 73 86 74
3 74 86 87
3 74 87 75
3 75 87 88
3 75 88 76
3 76 88 89
3 76 89 77
3 77 89 90
3 77 90 78
3 78 90 91
3 78 91 79
3 79 91 92
3 79 92 80
3 80 92 93
3 80 93 81
3 81 93 94
3 81 94 82
3 82 94 95
3 82 95 83
3 84 96 97
3 84 97 85
3 85 97 98
3 85 98 86
3 86 98 99
3 86 99 87
3 87 99 100
3 87 100 88
3 88 100 101
3 88 101 89
3 89 101 102
3 89 102 90
3 90 102 103
3 90 103 91
3 91 103 104
3 91 104 92
3 92 104 105
3 92 105 93
3 93 105 106
3 93 106 94
3 94 106 107
3 94 107 95
3 96 108 109
3 96 109 97
3 97 109 110
3 97 110 98
3 98 110 111
3 98 111 99
3 99 111 112
3 99 112 100
3 100 112 113
3 100 113 101
3 101 113 114
3 101 114 102
3 102 114 115
3 102 115 103
3 103 115 116
3 103 116 104
3 104 116 117
3 104 117 105
3 105 117 118
3 105 118 106
3 106 118 119
3 106 119 107
3 108 120 121
3 108 121 109
3 109 121 122
3 109 122 110
3 110 122 123
3 110 123 111
3 111 123 124
3 111 124 112
3 112 124 125
3 112 125 113
3 113 125 126
3 113 126 114
3 114 126 127
3 114 127 115
3 115 127 128
3 115 128 116
3 116 128 129
3 116 129 117
3 117 129 130
3 117 130 118
3 118 130 131
3 118 131 119
3 120 132 133
3 120 133 121
3 121 133 134
3 121 134 122
3 122 134 135
3 122 135 123
3 123 135 136
3 123 136 124
3 124 136 137
3 124 137 125
3 125 137 138
3 125 138 126
3 126 138 139
3 126 139 127
3 127 139 140
3 127 140 128
3 128 140 141
3 128 141 129
3 129 141 142
3 129 142 130
3 130 142 143
3 130 143 131
3 132 144 145
3 132 145 133
3 133 145 146
3 133 146 134
3 134 146 147
3 134 147 135
3 135 147 148
3 135 148 136
3 136 148 149
3 136 149 137
3 137 149 150
3 137 150 138
3 138 150 151
3 138 151 139
3 139 151 152
3 139 152 140
3 140 152 153
3 140 153 141
3 141 153 154
3 141 154 142
3 142 154 155
3 142 155 143
3 144 156 157
3 144 157 145
3 145 157 158
3 145 158 146
3 146 158 159
3 146 159 147
3 147 159 160
3 147 160 148
3 148 160 161
3 148 161 149
3 149 161 162
3 149 162 150
3 150 162 163
3 150 163 151
3 151 163 164
3 151 164 152
3 152 164 165
3 152 165 153
3 153 165 166
3 153 166 154
3 154 166 167
3 154 167 155
3 156 168 169
3 156 169 157
3 157 169 170
3 157 170 158
3 158 170 171
3 158 171 159
3 159 171 172
3 159 172 160
3 160 172 173
3 160 173 161
3 161 173 174
3 161 174 162
3 162 174 175
3 162 175 163
3 163 175 176
3 163 176 164
3 164 176 177
3 164 177 165
3 165 177 178
3 165 178 166
3 166 178 179
3 166 179 167
3 168 180 181
3 168 181 169
3 169 181 182
3 169 182 170
3 170 182 183
3 170 183 171
3 171 183 184
3 171 184 172
3 172 184 185
3 172 185 173
3 173 185 186
3 173 186 174
3 174 186 187
3 174 187 175
3 175 187 188
3 175 188 176
3 176 188 189
3 176 189 177
3 177 189 190
3 177 190 178
3 178 190 191
3 178 191 179
3 180 192 193
3 180 193 181
3 181 193 194
3 181 194 182
3 182 194 195
3 182 195 183
3 183 195 196
3 183 196 184
3 184 196 197
3 184 197 185
3 185 197 198
3 185 198 186
3 186 198 199
3 186 199 187
3 187 199 200
3 187 200 188
3 188 200 201
3 188 201 189
3 189 201 202
3 189 202 190
3 190 202 203
3 190 203 191
3 192 204 205
3 192 205 193
3 193 205 206
3 193 206 194
3 194 206 207
3 194 207 195
3 195 207 208
3 195 208 196
3 196 208 209
3 196 209 197
3 197 209 210
3 197 210 198
3 198 210 211
3 198 211 199
3 199 211 212
3 199 212 200
3 200 212 213
3 200 213 201
3 201 213 214
3 201 214 202
3 202 214 215
3 202 215 203
3 204 216 217
3 204 217 205
3 205 217 218
3 205 218 206
3 206 218 219
3 206 219 207
3 207 219 220
3 207 220 208
3 208 220 221
3 208 221 209
3 209 221 222
3 209 222 210
3 210 222 223
3 210 223 211
3 211 223 224
3 211 224 212
3 212 224 225
3 212 225 213
3 213 225 226
3 213 226 214
3 214 226 227
3 214 227 215
3 216 228 229
3 216 229 217
3 217 229 230
3 217 230 218
3 218 230 231
3 218 231 219
3 219 231 232
3 219 232 220
3 220 232 233
3 220 233 221
3 221 233 234
3 221 234 222
3 222 234 235
3 222 235 223
3 223 235 236
3 223 236 224
3 224 236 237
3 224 237 225
3 225 237 238
3 225 238 226
3 226 238 239
3 226 239 227
3 228 240 241
3 228 241 229
3 229 241 242
3 229 242 230
3 230 242 243
3 230 243 231
3 231 243 244
3 231 244 232
3 232 244 245
3 232 245 233
3 233 245 246
3 233 246 234
3 234 246 247
3 234 247 235
3 235 247 248
3 235 248 236
3 236 248 249
3 236 249 237
3 237 249 250
3 237 250 238
3 238 250 251
3 238 251 239
3 240 252 253
3 240 253 241
3 241 253 254
3 241 254 242
3 242 254 255
3 242 255 243
3 243 255 256
3 243 256 244
3 244 256 257
3 244 257 245
3 245 257 258
3 245 258 246
3 246 258 259
3 246 259 247
3 247 259 260
3 247 260 248
3 248 260 261
3 248 261 249
3 249 261 262
3 249 262 250
3 250 262 263
3 250 263 251
3 252 264 265
3 252 265 253
3 253 265 266
3 253 266 254
3 254 266 267
3 254 267 255
3 255 267 268
3 255 268 256
3 256 268 269
3 256 269 257
3 257 269 270
3 257 270 258
3 258 270 271
3 258 271 259
3 259 271 272
3 259 272 260
3 260 272 273
3 260 273 261
3 261 273 274
3 261 274 262
3 262 274 275
3 262 275 263
3 264 276 277
3 264 277 265
3 265 277 278
3 265 278 266
3 266 278 279
3 266 279 267
3 267 279 280
3 267 280 268
3 268 280 281
3 268 281 269
3 269 281 282
3 269 282 270
3 270 282 283
3 270 283 271
3 271 283 284
3 271 284 272
3 272 284 285
3 272 285 273
3 273 285 286
3 273 286 274
3 274 286 287
3 274 287 275
3 276 288 289
3 276 289 277
3 277 289 290
3 277 290 278
3 278 290 291
3 278 291 279
3 279 291 292
3 279 292 280
3 280 292 293
3 280 293 281
3 281 293 294
3 281 294 282
3 282 294 295
3 282 295 283
3 283 295 296
3 283 296 284
3 284 296 297
3 284 297 285
3 285 297 298
3 285 298 286
3 286 298 299
3 286 299 287
3 288 300 301
3 288 301 289
3 289 301 302
3 289 302 290
3 290 302 303
3 290 303 291
3 291 303 304
3 291 304 292
3 292 304 305
3 292 305 293
3 293 305 306
3 293 306 294
3 294 306 307
3 294 307 295
3 295 307 308
3 295 308 296
3 296 308 309
3 296 309 297
3 297 309 310
3 297 310 298
3 298 310 311
3 298 311 299
3 300 312 313
3 300 313 301
3 301 313 314
3 301 314 302
3 302 314 315
3 302 315 303
3 303 315 316
3 303 316 304
3 304 316 317
3 304 317 305
3 305 317 318
3 305 318 306
3 306 318 319
3 306 319 307
3 307 319 320
3 307 320 308
3 308 320 321
3 308 321 309
3 309 321 322
3 309 322 310
3 310 322 323
3 310 323 311
3 312 324 325
3 312 325 313
3 313 325 326
3 313 326 314
3 314 326 327
3 314 327 315
3 315 327 328
3 315 328 316
3 316 328 329
3 316 329 317
3 317 329 330
3 317 330 318
3 318 330 331
3 318 331 319
3 319 331 332
3 319 332 320
3 320 332 333
3 320 333 321
3 321 333 334
3 321 334 322
3 322 334 335
3 322 335 323
3 324 336 337
3 324 337 325
3 325 337 338
3 325 338 326
3 326 338 339
3 326 339 327
3 327 339 340
3 327 340 328
3 328 340 341
3 328 341 329
3 329 341 342
3 329 342 330
3 330 342 343
3 330 343 331
3 331 343 344
3 331 344 332
3 332 344 345
3 332 345 333
3 333 345 346
3 333 346 334
3 334 346 347
3 334 347 335
3 336 348 349
3 336 349 337
3 337 349 350
3 337 350 338
3 338 350 351
3 338 351 339
3 339 351 352
3 339 352 340
3 340 352 353
3 340 353 341
3 341 353 354
3 341 354 342
3 342 354 355
3 342 355 343
3 343 355 356
3 343 356 344
3 344 356 357
3 344 357 345
3 345 357 358
3 345 358 346
3 346 358 359
3 346 359 347
3 348 360 361
3 348 361 349
3 349 361 362
3 349 362 350
3 350 362 363
3 350 363 351
3 351 363 364
3 351 364 352
3 352 364 365
3 352 365 353
3 353 365 366
3 353 366 354
3 354 366 367
3 354 367 355
3 355 367 368
3 355 368 356
3 356 368 369
3 356 369 357
3 357 369 370
3 357 370 358
3 358 370 371
3 358 371 359
3 360 372 373
3 360 373 361
3 361 373 374
3 361 374 362
3 362 374 375
3 362 375 363
3 363 375 376
3 363 376 364
3 364 376 377
3 364 377 365
3 365 377 378
3 365 378 366
3 366 378 379
3 366 379 367
3 367 379 380
3 367 380 368
3 368 380 381
3 368 381 369
3 369 381 382
3 369 382 370
3 370 382 383
3 370 383 371
3 372 384 385
3 372 385 373
3 373 385 386
3 373 386 374
3 374 386 387
3 374 387 375
3 375 387 388
3 375 388 376
3 376 388 389
3 376 389 377
3 377 389 390
3 377 390 378
3 378 390 391
3 378 391 379
3 379 391 392
3 379 392 380
3 380 392 393
3 380 393 381
3 381 393 394
3 381 394 382
3 382 394 395
3 382 395 383
3 384 396 397
3 384 397 385
3 385 397 398
3 385 398 386
3 386 398 399
3 386 399 387
3 387 399 400
3 387 400 388
3 388 400 401
3 388 401 389
3 389 401 402
3 389 402 390
3 390 402 403
3 390 403 391
3 391 403 404
3 391 404 392
3 392 404 405
3 392 405 393
3 393 405 406
3 393 406 394
3 394 406 407
3 394 407 395
3 396 408 409
3 396 409 397
3 397 409 410
3 397 410 398
3 398 410 411
3 398 411 399
3 399 411 412
3 399 412 400
3 400 412 413
3 400 413 401
3 401 413 414
3 401 414 402
3 402 414 415
3 402 415 403
3 403 415 416
3 403 416 404
3 404 416 417
3 404 417 405
3 405 417 418
3 405 418 406
3 406 418 419
3 406 419 407
3 408 420 421
3 408 421 409
3 409 421 422
3 409 422 410
3 410 422 423
3 410 423 411
3 411 423 424
3 411 424 412
3 412 424 425
3 412 425 413
3 413 425 426
3 413 426 414
3 414 426 427
3 414 427 415
3 415 427 428
3 415 428 416
3 416 428 429
3 416 429 417
3 417 429 430
3 417 430 418
3 418 430 431
3 418 431 419
3 420 432 433
3 420 433 421
3 421 433 434
3 421 434 422
3 422 434 435
3 422 435 423
3 423 435 436
3 423 436 424
3 424 436 437
3 424 437 425
3 425 437 438
3 425 438 426
3 426 438 439
3 426 439 427
3 427 439 440
3 427 440 428
3 428 440 441
3 428 441 429
3 429 441 442
3 429 442 430
3 430 442 443
3 430 443 431
3 432 444 445
3 432 445 433
3 433 445 446
3 433 446 434
3 434 446 447
3 434 447 435
3 435 447 448
3 435 448 436
3 436 448 449
3 436 449 437
3 437 449 450
3 437 450 438
3 438 450 451
3 438 451 439
3 439 451 452
3 439 452 440
3 440 452 453
3 440 453 441
3 441 453 454
3 441 454 442
3 442 454 455
3 442 455 443
3 444 456 457
3 444 457 445
3 445 457 458
3 445 458 446
3 446 458 459
3 446 459 447
3 447 459 460
3 447 460 448
3 448 460 461
3 448 461 449
3 449 461 462
3 449 462 450
3 450 462 463
3 450 463 451
3 451 463 464
3 451 464 452
3 452 464 465
3 452 465 453
3 453 465 466
3 453 466 454
3 454 466 467
3 454 467 455
3 456 468 469
3 456 469 457
3 457 469 470
3 457 470 458
3 458 470 471
3 458 471 459
3 459 471 472
3 459 472 460
3 460 472 473
3 460 473 461
3 461 473 474
3 461 474 462
3 462 474 475
3 462 475 463
3 463 475 476
3 463 476 464
3 464 476 477
3 464 477 465
3 465 477 478
3 465 478 466
3 466 478 479
3 466 479 467
3 468 480 481
3 468 481 469
3 469 481 482
3 469 482 470
3 470 482 483
3 470 483 471
3 471 483 484
3 471 484 472
3 472 484 485
3 472 485 473
3 473 485 486
3 473 486 474
3 474 486 487
3 474 487 475
3 475 487 488
3 475 488 476
3 476 488 489
3 476 489 477
3 477 489 490
3 477 490 478
3 478 490 491
3 478 491 479
3 480 492 493
3 480 493 481
3 481 493 494
3 481 494 482
3 482 494 495
3 482 495 483
3 483 495 496
3 483 496 484
3 484 496 497
3 484 497 485
3 485 497 498
3 485 498 486
3 486 498 499
3 486 499 487
3 487 499 500
3 487 500 488
3 488 500 501
3 488 501 489
3 489 501 502
3 489 502 490
3 490 502 503
3 490 503 491
3 492 504 505
3 492 505 493
3 493 505 506
3 493 506 494
3 494 506 507
3 494 507 495
3 495 507 508
3 495 508 496
3 496 508 509
3 496 509 497
3 497 509 510
3 497 510 498
3 498 510 511
3 498 511 499
3 499 511 512
3 499 512 500
3 500 512 513
3 500 513 501
3 501 513 514
3 501 514 502
3 502 514 515
3 502 515 503
3 504 516 517
3 504 517 505
3 505 517 518
3 505 518 506
3 506 518 519
3 506 519 507
3 507 519 520
3 507 520 508
3 508 520 521
3 508 521 509
3 509 521 522
3 509 522 510
3 510 522 523
3 510 523 511
3 511 523 524
3 511 524 512
3 512 524 525
3 512 525 513
3 513 525 526
3 513 526 514
3 514 526 527
3 514 527 515
3 516 528 529
3 516 529 517
3 517 529 530
3 517 530 518
3 518 530 531
3 518 531 519
3 519 531 532
3 519 532 520
3 520 532 533
3 520 533 521
3 521 533 534
3 521 534 522
3 522 534 535
3 522 535 523
3 523 535 536
3 523 536 524
3 524 536 537
3 524 537 525
3 525 537 538
3 525 538 526
3 526 538 539
3 526 539 527
3 528 540 541
3 528 541 529
3 529 541 542
3 529 542 530
3 530 542 543
3 530 543 531
3 531 543 544
3 531 544 532
3 532 544 545
3 532 545 533
3 533 545 546
3 533 546 534
3 534 546 547
3 534 547 535
3 535 547 548
3 535 548 536
3 536 548 549
3 536 549 537
3 537 549 550
3 537 550 538
3 538 550 551
3 538 551 539
3 540 552 553
3 540 553 541
3 541 553 554
3 541 554 542
3 542 554 555
3 542 555 543
3 543 555 556
3 543 556 544
3 544 556 557
3 544 557 545
3 545 557 558
3 545 558 546
3 546 558 559
3 546 559 547
3 547 559 560
3 547 560 548
3 548 560 561
3 548 561 549
3 549 561 562
3 549 562 550
3 550 562 563
3 550 563 551
3 552 564 565
3 552 565 553
3 553 565 566
3 553 566 554
3 554 566 567
3 554 567 555
3 555 567 568
3 555 568 556
3 556 568 569
3 556 569 557
3 557 569 570
3 557 570 558
3 558 570 571
3 558 571 559
3 559 571 572
3 559 572 560
3 560 572 573
3 560 573 561
3 561 573 574
3 561 574 562
3 562 574 575
3 562 575 563
3 564 576 577
3 564 577 565
3 565 577 578
3 565 578 566
3 566 578 579
3 566 579 567
3 567 579 580
3 567 580 568
3 568 580 581
3 568 581 569
3 569 581 582
3 569 582 570
3 570 582 583
3 570 583 571
3 571 583 584
3 571 584 572
3 572 584 585
3 572 585 573
3 573 585 586
3 573 586 574
3 574 586 587
3 574 587 575
3 576 588 589
3 576 589 577
3 577 589 590
3 577 590 578
3 578 590 591
3 578 591 579
3 579 591 592
3 579 592 580
3 580 592 593
3 580 593 581
3 581 593 594
3 581 594 582
3 582 594 595
3 582 595 583
3 583 595 596
3 583 596 584
3 584 596 597
3 584 597 585
3 585 597 598
3 585 598 586
3 586 598 599
3 586 599 587
3 588 600 601
3 588 601 589
3 589 601 602
3 589 602 590
3 590 602 603
3 590 603 591
3 591 603 604
3 591 604 592
3 592 604 605
3 592 605 593
3 593 605 606
3 593 606 594
3 594 606 607
3 594 607 595
3 595 607 608
3 595 608 596
3 596 608 609
3 596 609 597
3 597 609 610
3 597 610 598
3 598 610 611
3 598 611 599
3 600 612 613
3 600 613 601
3 601 613 614
3 601 614 602
3 602 614 615
3 602 615 603
3 603 615 616
3 603 616 604
3 604 616 617
3 604 617 605
3 605 617 618
3 605 618 606
3 606 618 619
3 606 619 607
3 607 619 620
3 607 620 608
3 608 620 621
3 608 621 609
3 609 621 622
3 609 622 610
3 610 622 623
3 610 623 611
3 612 624 625
3 612 625 613
3 613 625 626
3 613 626 614
3 614 626 627
3 614 627 615
3 615 627 628
3 615 628 616
3 616 628 629
3 616 629 617
3 617 629 630
3 617 630 618
3 618 630 631
3 618 631 619
3 619 631 632
3 619 632 620
3 620 632 633
3 620 633 621
3 621 633 634
3 621 634 622
3 622 634 635
3 622 635 623
3 624 636 637
3 624 637 625
3 625 637 638
3 625 638 626
3 626 638 639
3 626 639 627
3 627 639 640
3 627 640 628
3 628 640 641
3 628 641 629
3 629 641 642
3 629 642 630
3 630 642 643
3 630 643 631
3 631 643 644
3 631 644 632
3 632 644 645
3 632 645 633
3 633 645 646
3 633 646 634
3 634 646 647
3 634 647 635
3 636 648 649
3 636 649 637
3 637 649 650
3 637 650 638
3 638 650 651
3 638 651 639
3 639 651 652
3 639 652 640
3 640 652 653
3 640 653 641
3 641 653 654
3 641 654 642
3 642 654 655
3 642 655 643
3 643 655 656
3 643 656 644
3 644 656 657
3 644 657 645
3 645 657 658
3 645 658 646
3 646 658 659
3 646 659 647
3 648 660 661
3 648 661 649
3 649 661 662
3 649 662 650
3 650 662 663
3 650 663 651
3 651 663 664
3 651 664 652
3 652 664 665
3 652 665 653
3 653 665 666
3 653 666 654
3 654 666 667
3 654 667 655
3 655 667 668
3 655 668 656
3 656 668 669
3 656 669 657
3 657 669 670
3 657 670 658
3 658 670 671
3 658 671 659
3 660 672 673
3 660 673 661
3 661 673 674
3 661 674 662
3 662 674 675
3 662 675 663
3 663 675 676
3 663 676 664
3 664 676 677
3 664 677 665
3 665 677 678
3 665 678 666
3 666 678 679
3 666 679 667
3 667 679 680
3 667 680 668
3 668 680 681
3 668 681 669
3 669 681 682
3 669 682 670
3 670 682 683
3 670 683 671
3 672 684 685
3 672 685 673
3 673 685 686
3 673 686 674
3 674 686 687
3 674 687 675
3 675 687 688
3 675 688 676
3 676 688 689
3 676 689 677
3 677 689 690
3 677 690 678
3 678 690 691
3 678 691 679
3 679 691 692
3 679 692 680
3 680 692 693
3 680 693 681
3 681 693 694
3 681 694 682
3 682 694 695
3 682 695 683
3 684 696 697
3 684 697 685
3 685 697 698
3 685 698 686
3 686 698 699
3 686 699 687
3 687 699 700
3 687 700 688
3 688 700 701
3 688 701 689
3 689 701 702
3 689 702 690
3 690 702 703
3 690 703 691
3 691 703 704
3 691 704 692
3 692 704 705
3 692 705 693
3 693 705 706
3 693 706 694
3 694 706 707
3 694 707 695
3 696 708 709
3 696 709 697
3 697 709 710
3 697 710 698
3 698 710 711
3 698 711 699
3 699 711 712
3 699 712 700
3 700 712 713
3 700 713 701
3 701 713 714
3 701 714 702
3 702 714 715
3 702 715 703
3 703 715 716
3 703 716 704
3 704 716 717
3 704 717 705
3 705 717 718
3 705 718 706
3 706 718 719
3 706 719 707
3 708 720 721
3 708 721 709
3 709 721 722
3 709 722 710
3 710 722 723
3 710 723 711
3 711 723 724
3 711 724 712
3 712 724 725
3 712 725 713
3 713 725 726
3 713 726 714
3 714 726 727
3 714 727 715
3 715 727 728
3 715 728 716
3 716 728 729
3 716 729 717
3 717 729 730
3 717 730 718
3 718 730 731
3 718 731 719
3 720 732 733
3 720 733 721
3 721 733 734
3 721 734 722
3 722 734 735
3 722 735 723
3 723 735 736
3 723 736 724
3 724 736 737
3 724 737 725
3 725 737 738
3 725 738 726
3 726 738 739
3 726 739 727
3 727 739 740
3 727 740 728
3 728 740 741
3 728 741 729
3 729 741 742
3 729 742 730
3 730 742 743
3 730 743 731
3 732 744 745
3 732 745 733
3 733 745 746
3 733 746 734
3 734 746 747
3 734 747 735
3 735 747 748
3 735 748 736
3 736 748 749
3 736 749 737
3 737 749 750
3 737 750 738
3 738 750 751
3 738 751 739
3 739 751 752
3 739 752 740
3 740 752 753
3 740 753 741
3 741 753 754
3 741 754 742
3 742 754 755
3 742 755 743
3 744 756 757
3 744 757 745
3 745 757 758
3 745 758 746
3 746 758 759
3 746 759 747
3 747 759 760
3 747 760 748
3 748 760 761
3 748 761 749
3 749 761 762
3 749 762 750
3 750 762 763
3 750 763 751
3 751 763 764
3 751 764 752
3 752 764 765
3 752 765 753
3 753 765 766
3 753 766 754
3 754 766 767
3 754 767 755
3 756 768 769
3 756 769 757
3 757 769 770
3 757 770 758
3 758 770 771
3 758 771 759
3 759 771 772
3 759 772 760
3 760 772 773
3 760 773 761
3 761 773 774
3 761 774 762
3 762 774 775
3 762 775 763
3 763 775 776
3 763 776 764
3 764 776 777
3 764 777 765
3 765 777 778
3 765 778 766
3 766 778 779
3 766 779 767
3 768 780 781
3 768 781 769
3 769 781 782
3 769 782 770
3 770 782 783
3 770 783 771
3 771 783 784
3 771 784 772
3 772 784 785
3 772 785 773
3 773 785 786
3 773 786 774
3 774 786 787
3 774 787 775
3 775 787 788
3 775 788 776
3 776 788 789
3 776 789 777
3 777 789 790
3 777 790 778
3 778 790 791
3 778 791 779
3 780 792 793
3 780 793 781
3 781 793 794
3 781 794 782
3 782 794 795
3 782 795 783
3 783 795 796
3 783 796 784
3 784 796 797
3 784 797 785
3 785 797 798
3 785 798 786
3 786 798 799
3 786 799 787
3 787 799 800
3 787 800 788
3 788 800 801
3 788 801 789
3 789 801 802
3 789 802 790
3 790 802 803
3 790 803 791
3 792 804 805
3 792 805 793
3 793 805 806
3 793 806 794
3 794 806 807
3 794 807 795
3 795 807 808
3 795 808 796
3 796 808 809
3 796 809 797
3 797 809 810
3 797 810 798
3 798 810 811
3 798 811 799
3 799 811 812
3 799 812 800
3 800 812 813
3 800 813 801
3 801 813 814
3 801 814 802
3 802 814 815
3 802 815 803
3 804 816 817
3 804 817 805
3 805 817 818
3 805 818 806
3 806 818 819
3 806 819 807
3 807 819 820
3 807 820 808
3 808 820 821
3 808 821 809
3 809 821 822
3 809 822 810
3 810 822 823
3 810 823 811
3 811 823 824
3 811 824 812
3 812 824 825
3 812 825 813
3 813 825 826
3 813 826 814
3 814 826 827
3 814 827 815
3 816 828 829
3 816 829 817
3 817 829 830
3 817 830 818
3 818 830 831
3 818 831 819
3 819 831 832
3 819 832 820
3 820 832 833
3 820 833 821
3 821 833 834
3 821 834 822
3 822 834 835
3 822 835 823
3 823 835 836
3 823 836 824
3 824 836 837
3 824 837 825
3 825 837 838
3 825 838 826
3 826 838 839
3 826 839 827
3 828 840 841
3 828 841 829
3 829 841 842
3 829 842 830
3 830 842 843
3 830 843 831
3 831 843 844
3 831 844 832
3 832 844 845
3 832 845 833
3 833 845 846
3 833 846 834
3 834 846 847
3 834 847 835
3 835 847 848
3 835 848 836
3 836 848 849
3 836 849 837
3 837 849 850
3 837 850 838
3 838 850 851
3 838 851 839
3 840 852 853
3 840 853 841
3 841 853 854
3 841 854 842
3 842 854 855
3 842 855 843
3 843 855 856
3 843 856 844
3 844 856 857
3 844 857 845
3 845 857 858
3 845 858 846
3 846 858 859
3 846 859 847
3 847 859 860
3 847 860 848
3 848 860 861
3 848 861 849
3 849 861 862
3 849 862 850
3 850 862 863
3 850 863 851
3 852 864 865
3 852 865 853
3 853 865 866
3 853 866 854
3 854 866 867
3 854 867 855
3 855 867 868
3 855 868 856
3 856 868 869
3 856 869 857
3 857 869 870
3 857 870 858
3 858 870 871
3 858 871 859
3 859 871 872
3 859 872 860
3 860 872 873
3 860 873 861
3 861 873 874
3 861 874 862
3 862 874 875
3 862 875 863
3 864 876 877
3 864 877 865
3 865 877 878
3 865 878 866
3 866 878 879
3 866 879 867
3 867 879 880
3 867 880 868
3 868 880 881
3 868 881 869
3 869 881 882
3 869 882 870
3 870 882 883
3 870 883 871
3 871 883 884
3 871 884 872
3 872 884 885
3 872 885 873
3 873 885 886
3 873 886 874
3 874 886 887
3 874 887 875
3 876 888 889
3 876 889 877
3 877 889 890
3 877 890 878
3 878 890 891
3 878 891 879
3 879 891 892
3 879 892 880
3 880 892 893
3 880 893 881
3 881 893 894
3 881 894 882
3 882 894 895
3 882 895 883
3 883 895 896
3 883 896 884
3 884 896 897
3 884 897 885
3 885 897 898
3 885 898 886
3 886 898 899
3 886 899 887
3 888 900 901
3 888 901 889
3 889 901 902
3 889 902 890
3 890 902 903
3 890 903 891
3 891 903 904
3 891 904 892
3 892 904 905
3 892 905 893
3 893 905 906
3 893 906 894
3 894 906 907
3 894 907 895
3 895 907 908
3 895 908 896
3 896 908 909
3 896 909 897
3 897 909 910
3 897 910 898
3 898 910 911
3 898 911 899
3 900 912 913
3 900 913 901
3 901 913 914
3 901 914 902
3 902 914 915
3 902 915 903
3 903 915 916
3 903 916 904
3 904 916 917
3 904 917 905
3 905 917 918
3 905 918 906
3 906 918 919
3 906 919 907
3 907 919 920
3 907 920 908
3 908 920 921
3 908 921 909
3 909 921 922
3 909 922 910
3 910 922 923
3 910 923 911
3 912 924 925
3 912 925 913
3 913 925 926
3 913 926 914
3 914 926 927
3 914 927 915
3 915 927 928
3 915 928 916
3 916 928 929
3 916 929 917
3 917 929 930
3 917 930 918
3 918 930 931
3 918 931 919
3 919 931 932
3 919 932 920
3 920 932 933
3 920 933 921
3 921 933 934
3 921 934 922
3 922 934 935
3 922 935 923
3 924 936 937
3 924 937 925
3 925 937 938
3 925 938 926
3 926 938 939
3 926 939 927
3 927 939 940
3 927 940 928
3 928 940 941
3 928 941 929
3 929 941 942
3 929 942 930
3 930 942 943
3 930 943 931
3 931 943 944
3 931 944 932
3 932 944 945
3 932 945 933
3 933 945 946
3 933 946 934
3 934 946 947
3 934 947 935
3 936 948 949
3 936 949 937
3 937 949 950
3 937 950 938
3 938 950 951
3 938 951 939
3 939 951 952
3 939 952 940
3 940 952 953
3 940 953 941
3 941 953 954
3 941 954 942
3 942 954 955
3 942 955 943
3 943 955 956
3 943 956 944
3 944 956 957
3 944 957 945
3 945 957 958
3 945 958 946
3 946 958 959
3 946 959 947
3 948 960 961
3 948 961 949
3 949 961 962
3 949 962 950
3 950 962 963
3 950 963 951
3 951 963 964
3 951 964 952
3 952 964 965
3 952 965 953
3 953 965 966
3 953 966 954
3 954 966 967
3 954 967 955
3 955 967 968
3 955 968 956
3 956 968 969
3 956 969 957
3 957 969 970
3 957 970 958
3 958 970 971
3 958 971 959
3 960 972 973
3 960 973 961
3 961 973 974
3 961 974 962
3 962 974 975
3 962 975 963
3 963 975 976
3 963 976 964
3 964 976 977
3 964 977 965
3 965 977 978
3 965 978 966
3 966 978 979
3 966 979 967
3 967 979 980
3 967 980 968
3 968 980 981
3 968 981 969
3 969 981 982
3 969 982 970
3 970 982 983
3 970 983 971
3 972 984 985
3 972 985 973
3 973 985 986
3 973 986 974
3 974 986 987
3 974 987 975
3 975 987 988
3 975 988 976
3 976 988 989
3 976 989 977
3 977 989 990
3 977 990 978
3 978 990 991
3 978 991 979
3 979 991 992
3 979 992 980
3 980 992 993
3 980 993 981
3 981 993 994
3 981 994 982
3 982 994 995
3 982 995 983
3 984 996 997
3 984 997 985
3 985 997 998
3 985 998 986
3 986 998 999
3 986 999 987
3 987 999 1000
3 987 1000 988
3 988 1000 1001
3 988 1001 989
3 989 1001 1002
3 989 1002 990
3 990 1002 1003
3 990 1003 991
3 991 1003 1004
3 991 1004 992
3 992 1004 1005
3 992 1005 993
3 993 1005 1006
3 993 1006 994
3 994 1006 1007
3 994 1007 995
3 996 1008 1009
3 996 1009 997
3 997 1009 1010
3 997 1010 998
3 998 1010 1011
3 998 1011 999
3 999 1011 1012
3 999 1012 1000
3 1000 1012 1013
3 1000 1013 1001
3 1001 1013 1014
3 1001 1014 1002
3 1002 1014 1015
3 1002 1015 1003
3 1003 1015 1016
3 1003 1016 1004
3 1004 1016 1017
3 1004 1017 1005
3 1005 1017 1018
3 1005 1018 1006
3 1006 1018 1019
3 1006 1019 1007
3 1008 1020 1021
3 1008 1021 1009
3 1009 1021 1022
3 1009 1022 1010
3 1010 1022 1023
3 1010 1023 1011
3 1011 1023 1024
3 1011 1024 1012
3 1012 1024 1025
3 1012 1025 1013
3 1013 1025 1026
3 1013 1026 1014
3 1014 1026 1027
3 1014 1027 1015
3 1015 1027 1028
3 1015 1028 1016
3 1016 1028 1029
3 1016 1029 1017
3 1017 1029 1030
3 1017 1030 1018
3 1018 1030 1031
3 1018 1031 1019
3 1020 1032 1033
3 1020 1033 1021
3 1021 1033 1034
3 1021 1034 1022
3 1022 1034 1035
3 1022 1035 1023
3 1023 1035 1036
3 1023 1036 1024
3 1024 1036 1037
3 1024 1037 1025
3 1025 1037 1038
3 1025 1038 1026
3 1026 1038 1039
3 1026 1039 1027
3 1027 1039 1040
3 1027 1040 1028
3 1028 1040 1041
3 1028 1041 1029
3 1029 1041 1042
3 1029 1042 1030
3 1030 1042 1043
3 1030 1043 1031
3 1032 1044 1045
3 1032 1045 1033
3 1033 1045 1046
3 1033 1046 1034
3 1034 1046 1047
3 1034 1047 1035
3 1035 1047 1048
3 1035 1048 1036
3 1036 1048 1049
3 1036 1049 1037
3 1037 1049 1050
3 1037 1050 1038
3 1038 1050 1051
3 1038 1051 1039
3 1039 1051 1052
3 1039 1052 1040
3 1040 1052 1053
3 1040 1053 1041
3 1041 1053 1054
3 1041 1054 1042
3 1042 1054 1055
3 1042 1055 1043
3 1044 1056 1057
3 1044 1057 1045
3 1045 1057 1058
3 1045 1058 1046
3 1046 1058 1059
3 1046 1059 1047
3 1047 1059 1060
3 1047 1060 1048
3 1048 1060 1061
3 1048 1061 1049
3 1049 1061 1062
3 1049 1062 1050
3 1050 1062 1063
3 1050 1063 1051
3 1051 1063 1064
3 1051 1064 1052
3 1052 1064 1065
3 1052 1065 1053
3 1053 1065 1066
3 1053 1066 1054
3 1054 1066 1067
3 1054 1067 1055
3 1056 1068 1069
3 1056 1069 1057
3 1057 1069 1070
3 1057 1070 1058
3 1058 1070 1071
3 1058 1071 1059
3 1059 1071 1072
3 1059 1072 1060
3 1060 1072 1073
3 1060 1073 1061
3 1061 1073 1074
3 1061 1074 1062
3 1062 1074 1075
3 1062 1075 1063
3 1063 1075 1076
3 1063 1076 1064
3 1064 1076 1077
3 1064 1077 1065
3 1065 1077 1078
3 1065 1078 1066
3 1066 1078 1079
3 1066 1079 1067
3 1068 1080 1081
3 1068 1081 1069
3 1069 1081 1082
3 1069 1082 1070
3 1070 1082 1083
3 1070 1083 1071
3 1071 1083 1084
3 1071 1084 1072
3 1072 1084 1085
3 1072 1085 1073
3 1073 1085 1086
3 1073 1086 1074
3 1074 1086 1087
3 1074 1087 1075
3 1075 1087 1088
3 1075 1088 1076
3 1076 1088 1089
3 1076 1089 1077
3 1077 1089 1090
3 1077 1090 1078
3 1078 1090 1091
3 1078 1091 1079
3 1080 1092 1093
3 1080 1093 1081
3 1081 1093 1094
3 1081 1094 1082
3 1082 1094 1095
3 1082 1095 1083
3 1083 1095 1096
3 1083 1096 1084
3 1084 1096 1097
3 1084 1097 1085
3 1085 1097 1098
3 1085 1098 1086
3 1086 1098 1099
3 1086 1099 1087
3 1087 1099 1100
3 1087 1100 1088
3 1088 1100 1101
3 1088 1101 1089
3 1089 1101 1102
3 1089 1102 1090
3 1090 1102 1103
3 1090 1103 1091
3 1092 1104 1105
3 1092 1105 1093
3 1093 1105 1106
3 1093 1106 1094
3 1094 1106 1107
3 1094 1107 1095
3 1095 1107 1108
3 1095 1108 1096
3 1096 1108 1109
3 1096 1109 1097
3 1097 1109 1110
3 1097 1110 1098
3 1098 1110 1111
3 1098 1111 1099
3 1099 1111 1112
3 1099 1112 1100
3 1100 1112 1113
3 1100 1113 1101
3 1101 1113 1114
3 1101 1114 1102
3 1102 1114 1115
3 1102 1115 1103
3 1104 1116 1117
3 1104 1117 1105
3 1105 1117 1118
3 1105 1118 1106
3 1106 1118 1119
3 1106 1119 1107
3 1107 1119 1120
3 1107 1120 1108
3 1108 1120 1121
3 1108 1121 1109
3 1109 1121 1122
3 1109 1122 1110
3 1110 1122 1123
3 1110 1123 1111
3 1111 1123 1124
3 1111 1124 1112
3 1112 1124 1125
3 1112 1125 1113
3 1113 1125 1126
3 1113 1126 1114
3 1114 1126 1127
3 1114 1127 1115
3 1116 1128 1129
3 1116 1129 1117
3 1117 1129 1130
3 1117 1130 1118
3 1118 1130 1131
3 1118 1131 1119
3 1119 1131 1132
3 1119 1132 1120
3 1120 1132 1133
3 1120 1133 1121
3 1121 1133 1134
3 1121 1134 1122
3 1122 1134 1135
3 1122 1135 1123
3 1123 1135 1136
3 1123 1136 1124
3 1124 1136 1137
3 1124 1137 1125
3 1125 1137 1138
3 1125 1138 1126
3 1126 1138 1139
3 1126 1139 1127
3 1128 1140 1141
3 1128 1141 1129
3 1129 1141 1142
3 1129 1142 1130
3 1130 1142 1143
3 1130 1143 1131
3 1131 1143 1144
3 1131 1144 1132
3 1132 1144 1145
3 1132 1145 1133
3 1133 1145 1146
3 1133 1146 1134
3 1134 1146 1147
3 1134 1147 1135
3 1135 1147 1148
3 1135 1148 1136
3 1136 1148 1149
3 1136 1149 1137
3 1137 1149 1150
3 1137 1150 1138
3 1138 1150 1151
3 1138 1151 1139
3 1140 1152 1153
3 1140 1153 1141
3 1141 1153 1154
3 1141 1154 1142
3 1142 1154 1155
3 1142 1155 1143
3 1143 1155 1156
3 1143 1156 1144
3 1144 1156 1157
3 1144 1157 1145
3 1145 1157 1158
3 1145 1158 1146
3 1146 1158 1159
3 1146 1159 1147
3 1147 1159 1160
3 1147 1160 1148
3 1148 1160 1161
3 1148 1161 1149
3 1149 1161 1162
3 1149 1162 1150
3 1150 1162 1163
3 1150 1163 1151
3 1152 1164 1165
3 1152 1165 1153
3 1153 1165 1166
3 1153 1166 1154
3 1154 1166 1167
3 1154 1167 1155
3 1155 1167 1168
3 1155 1168 1156
3 1156 1168 1169
3 1156 1169 1157
3 1157 1169 1170
3 1157 1170 1158
3 1158 1170 1171
3 1158 1171 1159
3 1159 1171 1172
3 1159 1172 1160
3 1160 1172 1173
3 1160 1173 1161
3 1161 1173 1174
3 1161 1174 1162
3 1162 1174 1175
3 1162 1175 1163
3 1164 1176 1177
3 1164 1177 1165
3 1165 1177 1178
3 1165 1178 1166
3 1166 1178 1179
3 1166 1179 1167
3 1167 1179 1180
3 1167 1180 1168
3 1168 1180 1181
3 1168 1181 1169
3 1169 1181 1182
3 1169 1182 1170
3 1170 1182 1183
3 1170 1183 1171
3 1171 1183 1184
3 1171 1184 1172
3 1172 1184 1185
3 1172 1185 1173
3 1173 1185 1186
3 1173 1186 1174
3 1174 1186 1187
3 1174 1187 1175
3 1176 1188 1189
3 1176 1189 1177
3 1177 1189 1190
3 1177 1190 1178
3 1178 1190 1191
3 1178 1191 1179
3 1179 1191 1192
3 1179 1192 1180
3 1180 1192 1193
3 1180 1193 1181
3 1181 1193 1194
3 1181 1194 1182
3 1182 1194 1195
3 1182 1195 1183
3 1183 1195 1196
3 1183 1196 1184
3 1184 1196 1197
3 1184 1197 1185
3 1185 1197 1198
3 1185 1198 1186
3 1186 1198 1199
3 1186 1199 1187
3 1188 1200 1201
3 1188 1201 1189
3 1189 1201 1202
3 1189 1202 1190
3 1190 1202 1203
3 1190 1203 1191
3 1191 1203 1204
3 1191 1204 1192
3 1192 1204 1205
3 1192 1205 1193
3 1193 1205 1206
3 1193 1206 1194
3 1194 1206 1207
3 1194 1207 1195
3 1195 1207 1208
3 1195 1208 1196
3 1196 1208 1209
3 1196 1209 1197
3 1197 1209 1210
3 1197 1210 1198
3 1198 1210 1211
3 1198 1211 1199
3 1200 1212 1213
3 1200 1213 1201
3 1201 1213 1214
3 1201 1214 1202
3 1202 1214 1215
3 1202 1215 1203
3 1203 1215 1216
3 1203 1216 1204
3 1204 1216 1217
3 1204 1217 1205
3 1205 1217 1218
3 1205 1218 1206
3 1206 1218 1219
3 1206 1219 1207
3 1207 1219 1220
3 1207 1220 1208
3 1208 1220 1221
3 1208 1221 1209
3 1209 1221 1222
3 1209 1222 1210
3 1210 1222 1223
3 1210 1223 1211
3 1212 1224 1225
3 1212 1225 1213
3 1213 1225 1226
3 1213 1226 1214
3 1214 1226 1227
3 1214 1227 1215
3 1215 1227 1228
3 1215 1228 1216
3 1216 1228 1229
3 1216 1229 1217
3 1217 1229 1230
3 1217 1230 1218
3 1218 1230 1231
3 1218 1231 1219
3 1219 1231 1232
3 1219 1232 1220
3 1220 1232 1233
3 1220 1233 1221
3 1221 1233 1234
3 1221 1234 1222
3 1222 1234 1235
3 1222 1235 1223
3 1224 1236 1237
3 1224 1237 1225
3 1225 1237 1238
3 1225 1238 1226
3 1226 1238 1239
3 1226 1239 1227
3 1227 1239 1240
3 1227 1240 1228
3 1228 1240 1241
3 1228 1241 1229
3 1229 1241 1242
3 1229 1242 1230
3 1230 1242 1243
3 1230 1243 1231
3 1231 1243 1244
3 1231 1244 1232
3 1232 1244 1245
3 1232 1245 1233
3 1233 1245 1246
3 1233 1246 1234
3 1234 1246 1247
3 1234 1247 1235
3 1236 1248 1249
3 1236 1249 1237
3 1237 1249 1250
3 1237 1250 1238
3 1238 1250 1251
3 1238 1251 1239
3 1239 1251 1252
3 1239 1252 1240
3 1240 1252 1253
3 1240 1253 1241
3 1241 1253 1254
3 1241 1254 1242
3 1242 1254 1255
3 1242 1255 1243
3 1243 1255 1256
3 1243 1256 1244
3 1244 1256 1257
3 1244 1257 1245
3 1245 1257 1258
3 1245 1258 1246
3 1246 1258 1259
3 1246 1259 1247
3 1248 1260 1261
3 1248 1261 1249
3 1249 1261 1262
3 1249 1262 1250
3 1250 1262 1263
3 1250 1263 1251
3 1251 1263 1264
3 1251 1264 1252
3 1252 1264 1265
3 1252 1265 1253
3 1253 1265 1266
3 1253 1266 1254
3 1254 1266 1267
3 1254 1267 1255
3 1255 1267 1268
3 1255 1268 1256
3 1256 1268 1269
3 1256 1269 1257
3 1257 1269 1270
3 1257 1270 1258
3 1258 1270 1271
3 1258 1271 1259
3 1260 1272 1273
3 1260 1273 1261
3 1261 1273 1274
3 1261 1274 1262
3 1262 1274 1275
3 1262 1275 1263
3 1263 1275 1276
3 1263 1276 1264
3 1264 1276 1277
3 1264 1277 1265
3 1265 1277 1278
3 1265 1278 1266
3 1266 1278 1279
3 1266 1279 1267
3 1267 1279 1280
3 1267 1280 1268
3 1268 1280 1281
3 1268 1281 1269
3 1269 1281 1282
3 1269 1282 1270
3 1270 1282 1283
3 1270 1283 1271
3 1272 1284 1285
3 1272 1285 1273
3 1273 1285 1286
3 1273 1286 1274
3 1274 1286 1287
3 1274 1287 1275
3 1275 1287 1288
3 1275 1288 1276
3 1276 1288 1289
3 1276 1289 1277
3 1277 1289 1290
3 1277 1290 1278
3 1278 1290 1291
3 1278 1291 1279
3 1279 1291 1292
3 1279 1292 1280
3 1280 1292 1293
3 1280 1293 1281
3 1281 1293 1294
3 1281 1294 1282
3 1282 1294 1295
3 1282 1295 1283
3 1284 1296 1297
3 1284 1297 1285
3 1285 1297 1298
3 1285 1298 1286
3 1286 1298 1299
3 1286 1299 1287
3 1287 1299 1300
3 1287 1300 1288
3 1288 1300 1301
3 1288 1301 1289
3 1289 1301 1302
3 1289 1302 1290
3 1290 1302 1303
3 1290 1303 1291
3 1291 1303 1304
3 1291 1304 1292
3 1292 1304 1305
3 1292 1305 1293
3 1293 1305 1306
3 1293 1306 1294
3 1294 1306 1307
3 1294 1307 1295
3 1296 1308 1309
3 1296 1309 1297
3 1297 1309 1310
3 1297 1310 1298
3 1298 1310 1311
3 1298 1311 1299
3 1299 1311 1312
3 1299 1312 1300
3 1300 1312 1313
3 1300 1313 1301
3 1301 1313 1314
3 1301 1314 1302
3 1302 1314 1315
3 1302 1315 1303
3 1303 1315 1316
3 1303 1316 1304
3 1304 1316 1317
3 1304 1317 1305
3 1305 1317 1318
3 1305 1318 1306
3 1306 1318 1319
3 1306 1319 1307
3 1308 1320 1321
3 1308 1321 1309
3 1309 1321 1322
3 1309 1322 1310
3 1310 1322 1323
3 1310 1323 1311
3 1311 1323 1324
3 1311 1324 1312
3 1312 1324 1325
3 1312 1325 1313
3 1313 1325 1326
3 1313 1326 1314
3 1314 1326 1327
3 1314 1327 1315
3 1315 1327 1328
3 1315 1328 1316
3 1316 1328 1329
3 1316 1329 1317
3 1317 1329 1330
3 1317 1330 1318
3 1318 1330 1331
3 1318 1331 1319
3 1320 1332 1333
3 1320 1333 1321
3 1321 1333 1334
3 1321 1334 1322
3 1322 1334 1335
3 1322 1335 1323
3 1323 1335 1336
3 1323 1336 1324
3 1324 1336 1337
3 1324 1337 1325
3 1325 1337 1338
3 1325 1338 1326
3 1326 1338 1339
3 1326 1339 1327
3 1327 1339 1340
3 1327 1340 1328
3 1328 1340 1341
3 1328 1341 1329
3 1329 1341 1342
3 1329 1342 1330
3 1330 1342 1343
3 1330 1343 1331
3 1332 1344 1345
3 1332 1345 1333
3 1333 1345 1346
3 1333 1346 1334
3 1334 1346 1347
3 1334 1347 1335
3 1335 1347 1348
3 1335 1348 1336
3 1336 1348 1349
3 1336 1349 1337
3 1337 1349 1350
3 1337 1350 1338
3 1338 1350 1351
3 1338 1351 1339
3 1339 1351 1352
3 1339 1352 1340
3 1340 1352 1353
3 1340 1353 1341
3 1341 1353 1354
3 1341 1354 1342
3 1342 1354 1355
3 1342 1355 1343
3 1344 1356 1357
3 1344 1357 1345
3 1345 1357 1358
3 1345 1358 1346
3 1346 1358 1359
3 1346 1359 1347
3 1347 1359 1360
3 1347 1360 1348
3 1348 1360 1361
3 1348 1361 1349
3 1349 1361 1362
3 1349 1362 1350
3 1350 1362 1363
3 1350 1363 1351
3 1351 1363 1364
3 1351 1364 1352
3 1352 1364 1365
3 1352 1365 1353
3 1353 1365 1366
3 1353 1366 1354
3 1354 1366 1367
3 1354 1367 1355
3 1356 1368 1369
3 1356 1369 1357
3 1357 1369 1370
3 1357 1370 1358
3 1358 1370 1371
3 1358 1371 1359
3 1359 1371 1372
3 1359 1372 1360
3 1360 1372 1373
3 1360 1373 1361
3 1361 1373 1374
3 1361 1374 1362
3 1362 1374 1375
3 1362 1375 1363
3 1363 1375 1376
3 1363 1376 1364
3 1364 1376 1377
3 1364 1377 1365
3 1365 1377 1378
3 1365 1378 1366
3 1366 1378 1379
3 1366 1379 1367
3 1368 1380 1381
3 1368 1381 1369
3 1369 1381 1382
3 1369 1382 1370
3 1370 1382 1383
3 1370 1383 1371
3 1371 1383 1384
3 1371 1384 1372
3 1372 1384 1385
3 1372 1385 1373
3 1373 1385 1386
3 1373 1386 1374
3 1374 1386 1387
3 1374 1387 1375
3 1375 1387 1388
3 1375 1388 1376
3 1376 1388 1389
3 1376 1389 1377
3 1377 1389 1390
3 1377 1390 1378
3 1378 1390 1391
3 1378 1391 1379
3 1380 1392 1393
3 1380 1393 1381
3 1381 1393 1394
3 1381 1394 1382
3 1382 1394 1395
3 1382 1395 1383
3 1383 1395 1396
3 1383 1396 1384
3 1384 1396 1397
3 1384 1397 1385
3 1385 1397 1398
3 1385 1398 1386
3 1386 1398 1399
3 1386 1399 1387
3 1387 1399 1400
3 1387 1400 1388
3 1388 1400 1401
3 1388 1401 1389
3 1389 1401 1402
3 1389 1402 1390
3 1390 1402 1403
3 1390 1403 1391
3 1392 1404 1405
3 1392 1405 1393
3 1393 1405 1406
3 1393 1406 1394
3 1394 1406 1407
3 1394 1407 1395
3 1395 1407 1408
3 1395 1408 1396
3 1396 1408 1409
3 1396 1409 1397
3 1397 1409 1410
3 1397 1410 1398
3 1398 1410 1411
3 1398 1411 1399
3 1399 1411 1412
3 1399 1412 1400
3 1400 1412 1413
3 1400 1413 1401
3 1401 1413 1414
3 1401 1414 1402
3 1402 1414 1415
3 1402 1415 1403
3 1404 1416 1417
3 1404 1417 1405
3 1405 1417 1418
3 1405 1418 1406
3 1406 1418 1419
3 1406 1419 1407
3 1407 1419 1420
3 1407 1420 1408
3 1408 1420 1421
3 1408 1421 1409
3 1409 1421 1422
3 1409 1422 1410
3 1410 1422 1423
3 1410 1423 1411
3 1411 1423 1424
3 1411 1424 1412
3 1412 1424 1425
3 1412 1425 1413
3 1413 1425 1426
3 1413 1426 1414
3 1414 1426 1427
3 1414 1427 1415
3 1416 1428 1429
3 1416 1429 1417
3 1417 1429 1430
3 1417 1430 1418
3 1418 1430 1431
3 1418 1431 1419
3 1419 1431 1432
3 1419 1432 1420
3 1420 1432 1433
3 1420 1433 1421
3 1421 1433 1434
3 1421 1434 1422
3 1422 1434 1435
3 1422 1435 1423
3 1423 1435 1436
3 1423 1436 1424
3 1424 1436 1437
3 1424 1437 1425
3 1425 1437 1438
3 1425 1438 1426
3 1426 1438 1439
3 1426 1439 1427
3 1428 0 1
3 1428 1 1429
3 1429 1 2
3 1429 2 1430
3 1430 2 3
3 1430 3 1431
3 1431 3 4
3 1431 4 1432
3 1432 4 5
3 1432 5 1433
3 1433 5 6
3 1433 6 1434
3 1434 6 7
3 1434 7 1435
3 1435 7 8
3 1435 8 1436
3 1436 8 9
3 1436 9 1437
3 1437 9 10
3 1437 10 1438
3 1438 10 11
3 1438 11 1439
