ply
format ascii 1.0
element vertex 24
property float x
property float y
property float z
element face 36
property list uchar int vertex_indices
end_header
0.25981 1.00470 0.30000
0.25981 1.00470 -0.30000
-0.25981 1.30470 0.30000
-0.25981 1.30470 -0.30000
-0.74019 -0.72735 0.30000
-0.74019 -0.72735 -0.30000
-1.25981 -0.42735 0.30000
-1.25981 -0.42735 -0.30000
-1.00000 -0.27735 0.30000
-1.00000 -0.27735 -0.30000
-1.00000 -0.87735 0.30000
-1.00000 -0.87735 -0.30000
1.00000 -0.27735 0.30000
1.00000 -0.27735 -0.30000
1.00000 -0.87735 0.30000
1.00000 -0.87735 -0.30000
0.74019 -0.72735 0.30000
0.74019 -0.72735 -0.30000
1.25981 -0.42735 0.30000
1.25981 -0.42735 -0.30000
-0.25981 1.00470 0.30000
-0.25981 1.00470 -0.30000
0.25981 1.30470 0.30000
0.25981 1.30470 -0.30000
3 0 1 3
3 0 3 2
3 4 6 7
3 4 7 5
3 0 2 6
3 0 6 4
3 1 5 7
3 1 7 3
3 0 4 5
3 0 5 1
3 2 3 7
3 2 7 6
3 8 9 11
3 8 11 10
3 12 14 15
3 12 15 13
3 8 10 14
3 8 14 12
3 9 13 15
3 9 15 11
3 8 12 13
3 8 13 9
3 10 11 15
3 10 15 14
3 16 17 19
3 16 19 18
3 20 22 23
3 20 23 21
3 16 18 22
3 16 22 20
3 17 21 23
3 17 23 19
3 16 20 21
3 16 21 17
3 18 19 23
3 18 23 22
