ply
format ascii 1.0
element vertex 1600
property float x
property float y
property float z
element face 3200
property list uchar int vertex_indices
end_header
2.70000 0.00000 0.00000
2.66574 0.00000 0.21631
2.56631 0.00000 0.41145
2.41145 0.00000 0.56631
2.21631 0.00000 0.66574
2.00000 0.00000 0.70000
1.78369 0.00000 0.66574
1.58855 0.00000 0.56631
1.43369 0.00000 0.41145
1.33426 0.00000 0.21631
1.30000 0.00000 0.00000
1.33426 0.00000 -0.21631
1.43369 0.00000 -0.41145
1.58855 0.00000 -0.56631
1.78369 0.00000 -0.66574
2.00000 0.00000 -0.70000
2.21631 0.00000 -0.66574
2.41145 0.00000 -0.56631
2.56631 0.00000 -0.41145
2.66574 0.00000 -0.21631
2.69168 0.21184 0.00000
2.65752 0.20915 0.21631
2.55840 0.20135 0.41145
2.40402 0.18920 0.56631
2.20948 0.17389 0.66574
1.99383 0.15692 0.70000
1.77819 0.13995 0.66574
1.58365 0.12464 0.56631
1.42927 0.11249 0.41145
1.33015 0.10468 0.21631
1.29599 0.10200 0.00000
1.33015 0.10468 -0.21631
1.42927 0.11249 -0.41145
1.58365 0.12464 -0.56631
1.77819 0.13995 -0.66574
1.99383 0.15692 -0.70000
2.20948 0.17389 -0.66574
2.40402 0.18920 -0.56631
2.55840 0.20135 -0.41145
2.65752 0.20915 -0.21631
2.66676 0.42237 0.00000
2.63292 0.41701 0.21631
2.53472 0.40146 0.41145
2.38176 0.37723 0.56631
2.18903 0.34671 0.66574
1.97538 0.31287 0.70000
1.76173 0.27903 0.66574
1.56899 0.24850 0.56631
1.41604 0.22428 0.41145
1.31783 0.20872 0.21631
1.28399 0.20336 0.00000
1.31783 0.20872 -0.21631
1.41604 0.22428 -0.41145
1.56899 0.24850 -0.56631
1.76173 0.27903 -0.66574
1.97538 0.31287 -0.70000
2.18903 0.34671 -0.66574
2.38176 0.37723 -0.56631
2.53472 0.40146 -0.41145
2.63292 0.41701 -0.21631
2.62540 0.63030 0.00000
2.59208 0.62230 0.21631
2.49540 0.59909 0.41145
2.34482 0.56294 0.56631
2.15508 0.51739 0.66574
1.94474 0.46689 0.70000
1.73440 0.41639 0.66574
1.54466 0.37084 0.56631
1.39408 0.33469 0.41145
1.29739 0.31148 0.21631
1.26408 0.30348 0.00000
1.29739 0.31148 -0.21631
1.39408 0.33469 -0.41145
1.54466 0.37084 -0.56631
1.73440 0.41639 -0.66574
1.94474 0.46689 -0.70000
2.15508 0.51739 -0.66574
2.34482 0.56294 -0.56631
2.49540 0.59909 -0.41145
2.59208 0.62230 -0.21631
2.56785 0.83435 0.00000
2.53527 0.82376 0.21631
2.44071 0.79303 0.41145
2.29342 0.74518 0.56631
2.10784 0.68488 0.66574
1.90211 0.61803 0.70000
1.69639 0.55119 0.66574
1.51080 0.49089 0.56631
1.36352 0.44303 0.41145
1.26896 0.41231 0.21631
1.23637 0.40172 0.00000
1.26896 0.41231 -0.21631
1.36352 0.44303 -0.41145
1.51080 0.49089 -0.56631
1.69639 0.55119 -0.66574
1.90211 0.61803 -0.70000
2.10784 0.68488 -0.66574
2.29342 0.74518 -0.56631
2.44071 0.79303 -0.41145
2.53527 0.82376 -0.21631
2.49447 1.03325 0.00000
2.46282 1.02013 0.21631
2.37096 0.98209 0.41145
2.22789 0.92282 0.56631
2.04761 0.84815 0.66574
1.84776 0.76537 0.70000
1.64791 0.68259 0.66574
1.46763 0.60791 0.56631
1.32456 0.54865 0.41145
1.23270 0.51060 0.21631
1.20104 0.49749 0.00000
1.23270 0.51060 -0.21631
1.32456 0.54865 -0.41145
1.46763 0.60791 -0.56631
1.64791 0.68259 -0.66574
1.84776 0.76537 -0.70000
2.04761 0.84815 -0.66574
2.22789 0.92282 -0.56631
2.37096 0.98209 -0.41145
2.46282 1.02013 -0.21631
2.40572 1.22577 0.00000
2.37519 1.21022 0.21631
2.28660 1.16508 0.41145
2.14862 1.09478 0.56631
1.97475 1.00618 0.66574
1.78201 0.90798 0.70000
1.58928 0.80978 0.66574
1.41541 0.72119 0.56631
1.27743 0.65088 0.41145
1.18883 0.60574 0.21631
1.15831 0.59019 0.00000
1.18883 0.60574 -0.21631
1.27743 0.65088 -0.41145
1.41541 0.72119 -0.56631
1.58928 0.80978 -0.66574
1.78201 0.90798 -0.70000
1.97475 1.00618 -0.66574
2.14862 1.09478 -0.56631
2.28660 1.16508 -0.41145
2.37519 1.21022 -0.21631
2.30213 1.41075 0.00000
2.27292 1.39285 0.21631
2.18814 1.34089 0.41145
2.05610 1.25998 0.56631
1.88972 1.15802 0.66574
1.70528 1.04500 0.70000
1.52084 0.93197 0.66574
1.35446 0.83002 0.56631
1.22242 0.74910 0.41145
1.13764 0.69715 0.21631
1.10843 0.67925 0.00000
1.13764 0.69715 -0.21631
1.22242 0.74910 -0.41145
1.35446 0.83002 -0.56631
1.52084 0.93197 -0.66574
1.70528 1.04500 -0.70000
1.88972 1.15802 -0.66574
2.05610 1.25998 -0.56631
2.18814 1.34089 -0.41145
2.27292 1.39285 -0.21631
2.18435 1.58702 0.00000
2.15663 1.56688 0.21631
2.07619 1.50844 0.41145
1.95090 1.41741 0.56631
1.79303 1.30272 0.66574
1.61803 1.17557 0.70000
1.44303 1.04843 0.66574
1.28516 0.93373 0.56631
1.15988 0.84270 0.41145
1.07944 0.78426 0.21631
1.05172 0.76412 0.00000
1.07944 0.78426 -0.21631
1.15988 0.84270 -0.41145
1.28516 0.93373 -0.56631
1.44303 1.04843 -0.66574
1.61803 1.17557 -0.70000
1.79303 1.30272 -0.66574
1.95090 1.41741 -0.56631
2.07619 1.50844 -0.41145
2.15663 1.56688 -0.21631
2.05310 1.75351 0.00000
2.02704 1.73126 0.21631
1.95144 1.66669 0.41145
1.83368 1.56611 0.56631
1.68530 1.43938 0.66574
1.52081 1.29890 0.70000
1.35633 1.15841 0.66574
1.20794 1.03168 0.56631
1.09018 0.93111 0.41145
1.01458 0.86653 0.21631
0.98853 0.84428 0.00000
1.01458 0.86653 -0.21631
1.09018 0.93111 -0.41145
1.20794 1.03168 -0.56631
1.35633 1.15841 -0.66574
1.52081 1.29890 -0.70000
1.68530 1.43938 -0.66574
1.83368 1.56611 -0.56631
1.95144 1.66669 -0.41145
2.02704 1.73126 -0.21631
1.90919 1.90919 0.00000
1.88496 1.88496 0.21631
1.81466 1.81466 0.41145
1.70515 1.70515 0.56631
1.56717 1.56717 0.66574
1.41421 1.41421 0.70000
1.26126 1.26126 0.66574
1.12327 1.12327 0.56631
1.01377 1.01377 0.41145
0.94346 0.94346 0.21631
0.91924 0.91924 0.00000
0.94346 0.94346 -0.21631
1.01377 1.01377 -0.41145
1.12327 1.12327 -0.56631
1.26126 1.26126 -0.66574
1.41421 1.41421 -0.70000
1.56717 1.56717 -0.66574
1.70515 1.70515 -0.56631
1.81466 1.81466 -0.41145
1.88496 1.88496 -0.21631
1.75351 2.05310 0.00000
1.73126 2.02704 0.21631
1.66669 1.95144 0.41145
1.56611 1.83368 0.56631
1.43938 1.68530 0.66574
1.29890 1.52081 0.70000
1.15841 1.35633 0.66574
1.03168 1.20794 0.56631
0.93111 1.09018 0.41145
0.86653 1.01458 0.21631
0.84428 0.98853 0.00000
0.86653 1.01458 -0.21631
0.93111 1.09018 -0.41145
1.03168 1.20794 -0.56631
1.15841 1.35633 -0.66574
1.29890 1.52081 -0.70000
1.43938 1.68530 -0.66574
1.56611 1.83368 -0.56631
1.66669 1.95144 -0.41145
1.73126 2.02704 -0.21631
1.58702 2.18435 0.00000
1.56688 2.15663 0.21631
1.50844 2.07619 0.41145
1.41741 1.95090 0.56631
1.30272 1.79303 0.66574
1.17557 1.61803 0.70000
1.04843 1.44303 0.66574
0.93373 1.28516 0.56631
0.84270 1.15988 0.41145
0.78426 1.07944 0.21631
0.76412 1.05172 0.00000
0.78426 1.07944 -0.21631
0.84270 1.15988 -0.41145
0.93373 1.28516 -0.56631
1.04843 1.44303 -0.66574
1.17557 1.61803 -0.70000
1.30272 1.79303 -0.66574
1.41741 1.95090 -0.56631
1.50844 2.07619 -0.41145
1.56688 2.15663 -0.21631
1.41075 2.30213 0.00000
1.39285 2.27292 0.21631
1.34089 2.18814 0.41145
1.25998 2.05610 0.56631
1.15802 1.88972 0.66574
1.04500 1.70528 0.70000
0.93197 1.52084 0.66574
0.83002 1.35446 0.56631
0.74910 1.22242 0.41145
0.69715 1.13764 0.21631
0.67925 1.10843 0.00000
0.69715 1.13764 -0.21631
0.74910 1.22242 -0.41145
0.83002 1.35446 -0.56631
0.93197 1.52084 -0.66574
1.04500 1.70528 -0.70000
1.15802 1.88972 -0.66574
1.25998 2.05610 -0.56631
1.34089 2.18814 -0.41145
1.39285 2.27292 -0.21631
1.22577 2.40572 0.00000
1.21022 2.37519 0.21631
1.16508 2.28660 0.41145
1.09478 2.14862 0.56631
1.00618 1.97475 0.66574
0.90798 1.78201 0.70000
0.80978 1.58928 0.66574
0.72119 1.41541 0.56631
0.65088 1.27743 0.41145
0.60574 1.18883 0.21631
0.59019 1.15831 0.00000
0.60574 1.18883 -0.21631
0.65088 1.27743 -0.41145
0.72119 1.41541 -0.56631
0.80978 1.58928 -0.66574
0.90798 1.78201 -0.70000
1.00618 1.97475 -0.66574
1.09478 2.14862 -0.56631
1.16508 2.28660 -0.41145
1.21022 2.37519 -0.21631
1.03325 2.49447 0.00000
1.02013 2.46282 0.21631
0.98209 2.37096 0.41145
0.92282 2.22789 0.56631
0.84815 2.04761 0.66574
0.76537 1.84776 0.70000
0.68259 1.64791 0.66574
0.60791 1.46763 0.56631
0.54865 1.32456 0.41145
0.51060 1.23270 0.21631
0.49749 1.20104 0.00000
0.51060 1.23270 -0.21631
0.54865 1.32456 -0.41145
0.60791 1.46763 -0.56631
0.68259 1.64791 -0.66574
0.76537 1.84776 -0.70000
0.84815 2.04761 -0.66574
0.92282 2.22789 -0.56631
0.98209 2.37096 -0.41145
1.02013 2.46282 -0.21631
0.83435 2.56785 0.00000
0.82376 2.53527 0.21631
0.79303 2.44071 0.41145
0.74518 2.29342 0.56631
0.68488 2.10784 0.66574
0.61803 1.90211 0.70000
0.55119 1.69639 0.66574
0.49089 1.51080 0.56631
0.44303 1.36352 0.41145
0.41231 1.26896 0.21631
0.40172 1.23637 0.00000
0.41231 1.26896 -0.21631
0.44303 1.36352 -0.41145
0.49089 1.51080 -0.56631
0.55119 1.69639 -0.66574
0.61803 1.90211 -0.70000
0.68488 2.10784 -0.66574
0.74518 2.29342 -0.56631
0.79303 2.44071 -0.41145
0.82376 2.53527 -0.21631
0.63030 2.62540 0.00000
0.62230 2.59208 0.21631
0.59909 2.49540 0.41145
0.56294 2.34482 0.56631
0.51739 2.15508 0.66574
0.46689 1.94474 0.70000
0.41639 1.73440 0.66574
0.37084 1.54466 0.56631
0.33469 1.39408 0.41145
0.31148 1.29739 0.21631
0.30348 1.26408 0.00000
0.31148 1.29739 -0.21631
0.33469 1.39408 -0.41145
0.37084 1.54466 -0.56631
0.41639 1.73440 -0.66574
0.46689 1.94474 -0.70000
0.51739 2.15508 -0.66574
0.56294 2.34482 -0.56631
0.59909 2.49540 -0.41145
0.62230 2.59208 -0.21631
0.42237 2.66676 0.00000
0.41701 2.63292 0.21631
0.40146 2.53472 0.41145
0.37723 2.38176 0.56631
0.34671 2.18903 0.66574
0.31287 1.97538 0.70000
0.27903 1.76173 0.66574
0.24850 1.56899 0.56631
0.22428 1.41604 0.41145
0.20872 1.31783 0.21631
0.20336 1.28399 0.00000
0.20872 1.31783 -0.21631
0.22428 1.41604 -0.41145
0.24850 1.56899 -0.56631
0.27903 1.76173 -0.66574
0.31287 1.97538 -0.70000
0.34671 2.18903 -0.66574
0.37723 2.38176 -0.56631
0.40146 2.53472 -0.41145
0.41701 2.63292 -0.21631
0.21184 2.69168 0.00000
0.20915 2.65752 0.21631
0.20135 2.55840 0.41145
0.18920 2.40402 0.56631
0.17389 2.20948 0.66574
0.15692 1.99383 0.70000
0.13995 1.77819 0.66574
0.12464 1.58365 0.56631
0.11249 1.42927 0.41145
0.10468 1.33015 0.21631
0.10200 1.29599 0.00000
0.10468 1.33015 -0.21631
0.11249 1.42927 -0.41145
0.12464 1.58365 -0.56631
0.13995 1.77819 -0.66574
0.15692 1.99383 -0.70000
0.17389 2.20948 -0.66574
0.18920 2.40402 -0.56631
0.20135 2.55840 -0.41145
0.20915 2.65752 -0.21631
0.00000 2.70000 0.00000
0.00000 2.66574 0.21631
0.00000 2.56631 0.41145
0.00000 2.41145 0.56631
0.00000 2.21631 0.66574
0.00000 2.00000 0.70000
0.00000 1.78369 0.66574
0.00000 1.58855 0.56631
0.00000 1.43369 0.41145
0.00000 1.33426 0.21631
0.00000 1.30000 0.00000
0.00000 1.33426 -0.21631
0.00000 1.43369 -0.41145
0.00000 1.58855 -0.56631
0.00000 1.78369 -0.66574
0.00000 2.00000 -0.70000
0.00000 2.21631 -0.66574
0.00000 2.41145 -0.56631
0.00000 2.56631 -0.41145
0.00000 2.66574 -0.21631
-0.21184 2.69168 0.00000
-0.20915 2.65752 0.21631
-0.20135 2.55840 0.41145
-0.18920 2.40402 0.56631
-0.17389 2.20948 0.66574
-0.15692 1.99383 0.70000
-0.13995 1.77819 0.66574
-0.12464 1.58365 0.56631
-0.11249 1.42927 0.41145
-0.10468 1.33015 0.21631
-0.10200 1.29599 0.00000
-0.10468 1.33015 -0.21631
-0.11249 1.42927 -0.41145
-0.12464 1.58365 -0.56631
-0.13995 1.77819 -0.66574
-0.15692 1.99383 -0.70000
-0.17389 2.20948 -0.66574
-0.18920 2.40402 -0.56631
-0.20135 2.55840 -0.41145
-0.20915 2.65752 -0.21631
-0.42237 2.66676 0.00000
-0.41701 2.63292 0.21631
-0.40146 2.53472 0.41145
-0.37723 2.38176 0.56631
-0.34671 2.18903 0.66574
-0.31287 1.97538 0.70000
-0.27903 1.76173 0.66574
-0.24850 1.56899 0.56631
-0.22428 1.41604 0.41145
-0.20872 1.31783 0.21631
-0.20336 1.28399 0.00000
-0.20872 1.31783 -0.21631
-0.22428 1.41604 -0.41145
-0.24850 1.56899 -0.56631
-0.27903 1.76173 -0.66574
-0.31287 1.97538 -0.70000
-0.34671 2.18903 -0.66574
-0.37723 2.38176 -0.56631
-0.40146 2.53472 -0.41145
-0.41701 2.63292 -0.21631
-0.63030 2.62540 0.00000
-0.62230 2.59208 0.21631
-0.59909 2.49540 0.41145
-0.56294 2.34482 0.56631
-0.51739 2.15508 0.66574
-0.46689 1.94474 0.70000
-0.41639 1.73440 0.66574
-0.37084 1.54466 0.56631
-0.33469 1.39408 0.41145
-0.31148 1.29739 0.21631
-0.30348 1.26408 0.00000
-0.31148 1.29739 -0.21631
-0.33469 1.39408 -0.41145
-0.37084 1.54466 -0.56631
-0.41639 1.73440 -0.66574
-0.46689 1.94474 -0.70000
-0.51739 2.15508 -0.66574
-0.56294 2.34482 -0.56631
-0.59909 2.49540 -0.41145
-0.62230 2.59208 -0.21631
-0.83435 2.56785 0.00000
-0.82376 2.53527 0.21631
-0.79303 2.44071 0.41145
-0.74518 2.29342 0.56631
-0.68488 2.10784 0.66574
-0.61803 1.90211 0.70000
-0.55119 1.69639 0.66574
-0.49089 1.51080 0.56631
-0.44303 1.36352 0.41145
-0.41231 1.26896 0.21631
-0.40172 1.23637 0.00000
-0.41231 1.26896 -0.21631
-0.44303 1.36352 -0.41145
-0.49089 1.51080 -0.56631
-0.55119 1.69639 -0.66574
-0.61803 1.90211 -0.70000
-0.68488 2.10784 -0.66574
-0.74518 2.29342 -0.56631
-0.79303 2.44071 -0.41145
-0.82376 2.53527 -0.21631
-1.03325 2.49447 0.00000
-1.02013 2.46282 0.21631
-0.98209 2.37096 0.41145
-0.92282 2.22789 0.56631
-0.84815 2.04761 0.66574
-0.76537 1.84776 0.70000
-0.68259 1.64791 0.66574
-0.60791 1.46763 0.56631
-0.54865 1.32456 0.41145
-0.51060 1.23270 0.21631
-0.49749 1.20104 0.00000
-0.51060 1.23270 -0.21631
-0.54865 1.32456 -0.41145
-0.60791 1.46763 -0.56631
-0.68259 1.64791 -0.66574
-0.76537 1.84776 -0.70000
-0.84815 2.04761 -0.66574
-0.92282 2.22789 -0.56631
-0.98209 2.37096 -0.41145
-1.02013 2.46282 -0.21631
-1.22577 2.40572 0.00000
-1.21022 2.37519 0.21631
-1.16508 2.28660 0.41145
-1.09478 2.14862 0.56631
-1.00618 1.97475 0.66574
-0.90798 1.78201 0.70000
-0.80978 1.58928 0.66574
-0.72119 1.41541 0.56631
-0.65088 1.27743 0.41145
-0.60574 1.18883 0.21631
-0.59019 1.15831 0.00000
-0.60574 1.18883 -0.21631
-0.65088 1.27743 -0.41145
-0.72119 1.41541 -0.56631
-0.80978 1.58928 -0.66574
-0.90798 1.78201 -0.70000
-1.00618 1.97475 -0.66574
-1.09478 2.14862 -0.56631
-1.16508 2.28660 -0.41145
-1.21022 2.37519 -0.21631
-1.41075 2.30213 0.00000
-1.39285 2.27292 0.21631
-1.34089 2.18814 0.41145
-1.25998 2.05610 0.56631
-1.15802 1.88972 0.66574
-1.04500 1.70528 0.70000
-0.93197 1.52084 0.66574
-0.83002 1.35446 0.56631
-0.74910 1.22242 0.41145
-0.69715 1.13764 0.21631
-0.67925 1.10843 0.00000
-0.69715 1.13764 -0.21631
-0.74910 1.22242 -0.41145
-0.83002 1.35446 -0.56631
-0.93197 1.52084 -0.66574
-1.04500 1.70528 -0.70000
-1.15802 1.88972 -0.66574
-1.25998 2.05610 -0.56631
-1.34089 2.18814 -0.41145
-1.39285 2.27292 -0.21631
-1.58702 2.18435 0.00000
-1.56688 2.15663 0.21631
-1.50844 2.07619 0.41145
-1.41741 1.95090 0.56631
-1.30272 1.79303 0.66574
-1.17557 1.61803 0.70000
-1.04843 1.44303 0.66574
-0.93373 1.28516 0.56631
-0.84270 1.15988 0.41145
-0.78426 1.07944 0.21631
-0.76412 1.05172 0.00000
-0.78426 1.07944 -0.21631
-0.84270 1.15988 -0.41145
-0.93373 1.28516 -0.56631
-1.04843 1.44303 -0.66574
-1.17557 1.61803 -0.70000
-1.30272 1.79303 -0.66574
-1.41741 1.95090 -0.56631
-1.50844 2.07619 -0.41145
-1.56688 2.15663 -0.21631
-1.75351 2.05310 0.00000
-1.73126 2.02704 0.21631
-1.66669 1.95144 0.41145
-1.56611 1.83368 0.56631
-1.43938 1.68530 0.66574
-1.29890 1.52081 0.70000
-1.15841 1.35633 0.66574
-1.03168 1.20794 0.56631
-0.93111 1.09018 0.41145
-0.86653 1.01458 0.21631
-0.84428 0.98853 0.00000
-0.86653 1.01458 -0.21631
-0.93111 1.09018 -0.41145
-1.03168 1.20794 -0.56631
-1.15841 1.35633 -0.66574
-1.29890 1.52081 -0.70000
-1.43938 1.68530 -0.66574
-1.56611 1.83368 -0.56631
-1.66669 1.95144 -0.41145
-1.73126 2.02704 -0.21631
-1.90919 1.90919 0.00000
-1.88496 1.88496 0.21631
-1.81466 1.81466 0.41145
-1.70515 1.70515 0.56631
-1.56717 1.56717 0.66574
-1.41421 1.41421 0.70000
-1.26126 1.26126 0.66574
-1.12327 1.12327 0.56631
-1.01377 1.01377 0.41145
-0.94346 0.94346 0.21631
-0.91924 0.91924 0.00000
-0.94346 0.94346 -0.21631
-1.01377 1.01377 -0.41145
-1.12327 1.12327 -0.56631
-1.26126 1.26126 -0.66574
-1.41421 1.41421 -0.70000
-1.56717 1.56717 -0.66574
-1.70515 1.70515 -0.56631
-1.81466 1.81466 -0.41145
-1.88496 1.88496 -0.21631
-2.05310 1.75351 0.00000
-2.02704 1.73126 0.21631
-1.95144 1.66669 0.41145
-1.83368 1.56611 0.56631
-1.68530 1.43938 0.66574
-1.52081 1.29890 0.70000
-1.35633 1.15841 0.66574
-1.20794 1.03168 0.56631
-1.09018 0.93111 0.41145
-1.01458 0.86653 0.21631
-0.98853 0.84428 0.00000
-1.01458 0.86653 -0.21631
-1.09018 0.93111 -0.41145
-1.20794 1.03168 -0.56631
-1.35633 1.15841 -0.66574
-1.52081 1.29890 -0.70000
-1.68530 1.43938 -0.66574
-1.83368 1.56611 -0.56631
-1.95144 1.66669 -0.41145
-2.02704 1.73126 -0.21631
-2.18435 1.58702 0.00000
-2.15663 1.56688 0.21631
-2.07619 1.50844 0.41145
-1.95090 1.41741 0.56631
-1.79303 1.30272 0.66574
-1.61803 1.17557 0.70000
-1.44303 1.04843 0.66574
-1.28516 0.93373 0.56631
-1.15988 0.84270 0.41145
-1.07944 0.78426 0.21631
-1.05172 0.76412 0.00000
-1.07944 0.78426 -0.21631
-1.15988 0.84270 -0.41145
-1.28516 0.93373 -0.56631
-1.44303 1.04843 -0.66574
-1.61803 1.17557 -0.70000
-1.79303 1.30272 -0.66574
-1.95090 1.41741 -0.56631
-2.07619 1.50844 -0.41145
-2.15663 1.56688 -0.21631
-2.30213 1.41075 0.00000
-2.27292 1.39285 0.21631
-2.18814 1.34089 0.41145
-2.05610 1.25998 0.56631
-1.88972 1.15802 0.66574
-1.70528 1.04500 0.70000
-1.52084 0.93197 0.66574
-1.35446 0.83002 0.56631
-1.22242 0.74910 0.41145
-1.13764 0.69715 0.21631
-1.10843 0.67925 0.00000
-1.13764 0.69715 -0.21631
-1.22242 0.74910 -0.41145
-1.35446 0.83002 -0.56631
-1.52084 0.93197 -0.66574
-1.70528 1.04500 -0.70000
-1.88972 1.15802 -0.66574
-2.05610 1.25998 -0.56631
-2.18814 1.34089 -0.41145
-2.27292 1.39285 -0.21631
-2.40572 1.22577 0.00000
-2.37519 1.21022 0.21631
-2.28660 1.16508 0.41145
-2.14862 1.09478 0.56631
-1.97475 1.00618 0.66574
-1.78201 0.90798 0.70000
-1.58928 0.80978 0.66574
-1.41541 0.72119 0.56631
-1.27743 0.65088 0.41145
-1.18883 0.60574 0.21631
-1.15831 0.59019 0.00000
-1.18883 0.60574 -0.21631
-1.27743 0.65088 -0.41145
-1.41541 0.72119 -0.56631
-1.58928 0.80978 -0.66574
-1.78201 0.90798 -0.70000
-1.97475 1.00618 -0.66574
-2.14862 1.09478 -0.56631
-2.28660 1.16508 -0.41145
-2.37519 1.21022 -0.21631
-2.49447 1.03325 0.00000
-2.46282 1.02013 0.21631
-2.37096 0.98209 0.41145
-2.22789 0.92282 0.56631
-2.04761 0.84815 0.66574
-1.84776 0.76537 0.70000
-1.64791 0.68259 0.66574
-1.46763 0.60791 0.56631
-1.32456 0.54865 0.41145
-1.23270 0.51060 0.21631
-1.20104 0.49749 0.00000
-1.23270 0.51060 -0.21631
-1.32456 0.54865 -0.41145
-1.46763 0.60791 -0.56631
-1.64791 0.68259 -0.66574
-1.84776 0.76537 -0.70000
-2.04761 0.84815 -0.66574
-2.22789 0.92282 -0.56631
-2.37096 0.98209 -0.41145
-2.46282 1.02013 -0.21631
-2.56785 0.83435 0.00000
-2.53527 0.82376 0.21631
-2.44071 0.79303 0.41145
-2.29342 0.74518 0.56631
-2.10784 0.68488 0.66574
-1.90211 0.61803 0.70000
-1.69639 0.55119 0.66574
-1.51080 0.49089 0.56631
-1.36352 0.44303 0.41145
-1.26896 0.41231 0.21631
-1.23637 0.40172 0.00000
-1.26896 0.41231 -0.21631
-1.36352 0.44303 -0.41145
-1.51080 0.49089 -0.56631
-1.69639 0.55119 -0.66574
-1.90211 0.61803 -0.70000
-2.10784 0.68488 -0.66574
-2.29342 0.74518 -0.56631
-2.44071 0.79303 -0.41145
-2.53527 0.82376 -0.21631
-2.62540 0.63030 0.00000
-2.59208 0.62230 0.21631
-2.49540 0.59909 0.41145
-2.34482 0.56294 0.56631
-2.15508 0.51739 0.66574
-1.94474 0.46689 0.70000
-1.73440 0.41639 0.66574
-1.54466 0.37084 0.56631
-1.39408 0.33469 0.41145
-1.29739 0.31148 0.21631
-1.26408 0.30348 0.00000
-1.29739 0.31148 -0.21631
-1.39408 0.33469 -0.41145
-1.54466 0.37084 -0.56631
-1.73440 0.41639 -0.66574
-1.94474 0.46689 -0.70000
-2.15508 0.51739 -0.66574
-2.34482 0.56294 -0.56631
-2.49540 0.59909 -0.41145
-2.59208 0.62230 -0.21631
-2.66676 0.42237 0.00000
-2.63292 0.41701 0.21631
-2.53472 0.40146 0.41145
-2.38176 0.37723 0.56631
-2.18903 0.34671 0.66574
-1.97538 0.31287 0.70000
-1.76173 0.27903 0.66574
-1.56899 0.24850 0.56631
-1.41604 0.22428 0.41145
-1.31783 0.20872 0.21631
-1.28399 0.20336 0.00000
-1.31783 0.20872 -0.21631
-1.41604 0.22428 -0.41145
-1.56899 0.24850 -0.56631
-1.76173 0.27903 -0.66574
-1.97538 0.31287 -0.70000
-2.18903 0.34671 -0.66574
-2.38176 0.37723 -0.56631
-2.53472 0.40146 -0.41145
-2.63292 0.41701 -0.21631
-2.69168 0.21184 0.00000
-2.65752 0.20915 0.21631
-2.55840 0.20135 0.41145
-2.40402 0.18920 0.56631
-2.20948 0.17389 0.66574
-1.99383 0.15692 0.70000
-1.77819 0.13995 0.66574
-1.58365 0.12464 0.56631
-1.42927 0.11249 0.41145
-1.33015 0.10468 0.21631
-1.29599 0.10200 0.00000
-1.33015 0.10468 -0.21631
-1.42927 0.11249 -0.41145
-1.58365 0.12464 -0.56631
-1.77819 0.13995 -0.66574
-1.99383 0.15692 -0.70000
-2.20948 0.17389 -0.66574
-2.40402 0.18920 -0.56631
-2.55840 0.20135 -0.41145
-2.65752 0.20915 -0.21631
-2.70000 0.00000 0.00000
-2.66574 0.00000 0.21631
-2.56631 0.00000 0.41145
-2.41145 0.00000 0.56631
-2.21631 0.00000 0.66574
-2.00000 0.00000 0.70000
-1.78369 0.00000 0.66574
-1.58855 0.00000 0.56631
-1.43369 0.00000 0.41145
-1.33426 0.00000 0.21631
-1.30000 0.00000 0.00000
-1.33426 0.00000 -0.21631
-1.43369 0.00000 -0.41145
-1.58855 0.00000 -0.56631
-1.78369 0.00000 -0.66574
-2.00000 0.00000 -0.70000
-2.21631 0.00000 -0.66574
-2.41145 0.00000 -0.56631
-2.56631 0.00000 -0.41145
-2.66574 0.00000 -0.21631
-2.69168 -0.21184 0.00000
-2.65752 -0.20915 0.21631
-2.55840 -0.20135 0.41145
-2.40402 -0.18920 0.56631
-2.20948 -0.17389 0.66574
-1.99383 -0.15692 0.70000
-1.77819 -0.13995 0.66574
-1.58365 -0.12464 0.56631
-1.42927 -0.11249 0.41145
-1.33015 -0.10468 0.21631
-1.29599 -0.10200 0.00000
-1.33015 -0.10468 -0.21631
-1.42927 -0.11249 -0.41145
-1.58365 -0.12464 -0.56631
-1.77819 -0.13995 -0.66574
-1.99383 -0.15692 -0.70000
-2.20948 -0.17389 -0.66574
-2.40402 -0.18920 -0.56631
-2.55840 -0.20135 -0.41145
-2.65752 -0.20915 -0.21631
-2.66676 -0.42237 0.00000
-2.63292 -0.41701 0.21631
-2.53472 -0.40146 0.41145
-2.38176 -0.37723 0.56631
-2.18903 -0.34671 0.66574
-1.97538 -0.31287 0.70000
-1.76173 -0.27903 0.66574
-1.56899 -0.24850 0.56631
-1.41604 -0.22428 0.41145
-1.31783 -0.20872 0.21631
-1.28399 -0.20336 0.00000
-1.31783 -0.20872 -0.21631
-1.41604 -0.22428 -0.41145
-1.56899 -0.24850 -0.56631
-1.76173 -0.27903 -0.66574
-1.97538 -0.31287 -0.70000
-2.18903 -0.34671 -0.66574
-2.38176 -0.37723 -0.56631
-2.53472 -0.40146 -0.41145
-2.63292 -0.41701 -0.21631
-2.62540 -0.63030 0.00000
-2.59208 -0.62230 0.21631
-2.49540 -0.59909 0.41145
-2.34482 -0.56294 0.56631
-2.15508 -0.51739 0.66574
-1.94474 -0.46689 0.70000
-1.73440 -0.41639 0.66574
-1.54466 -0.37084 0.56631
-1.39408 -0.33469 0.41145
-1.29739 -0.31148 0.21631
-1.26408 -0.30348 0.00000
-1.29739 -0.31148 -0.21631
-1.39408 -0.33469 -0.41145
-1.54466 -0.37084 -0.56631
-1.73440 -0.41639 -0.66574
-1.94474 -0.46689 -0.70000
-2.15508 -0.51739 -0.66574
-2.34482 -0.56294 -0.56631
-2.49540 -0.59909 -0.41145
-2.59208 -0.62230 -0.21631
-2.56785 -0.83435 0.00000
-2.53527 -0.82376 0.21631
-2.44071 -0.79303 0.41145
-2.29342 -0.74518 0.56631
-2.10784 -0.68488 0.66574
-1.90211 -0.61803 0.70000
-1.69639 -0.55119 0.66574
-1.51080 -0.49089 0.56631
-1.36352 -0.44303 0.41145
-1.26896 -0.41231 0.21631
-1.23637 -0.40172 0.00000
-1.26896 -0.41231 -0.21631
-1.36352 -0.44303 -0.41145
-1.51080 -0.49089 -0.56631
-1.69639 -0.55119 -0.66574
-1.90211 -0.61803 -0.70000
-2.10784 -0.68488 -0.66574
-2.29342 -0.74518 -0.56631
-2.44071 -0.79303 -0.41145
-2.53527 -0.82376 -0.21631
-2.49447 -1.03325 0.00000
-2.46282 -1.02013 0.21631
-2.37096 -0.98209 0.41145
-2.22789 -0.92282 0.56631
-2.04761 -0.84815 0.66574
-1.84776 -0.76537 0.70000
-1.64791 -0.68259 0.66574
-1.46763 -0.60791 0.56631
-1.32456 -0.54865 0.41145
-1.23270 -0.51060 0.21631
-1.20104 -0.49749 0.00000
-1.23270 -0.51060 -0.21631
-1.32456 -0.54865 -0.41145
-1.46763 -0.60791 -0.56631
-1.64791 -0.68259 -0.66574
-1.84776 -0.76537 -0.70000
-2.04761 -0.84815 -0.66574
-2.22789 -0.92282 -0.56631
-2.37096 -0.98209 -0.41145
-2.46282 -1.02013 -0.21631
-2.40572 -1.22577 0.00000
-2.37519 -1.21022 0.21631
-2.28660 -1.16508 0.41145
-2.14862 -1.09478 0.56631
-1.97475 -1.00618 0.66574
-1.78201 -0.90798 0.70000
-1.58928 -0.80978 0.66574
-1.41541 -0.72119 0.56631
-1.27743 -0.65088 0.41145
-1.18883 -0.60574 0.21631
-1.15831 -0.59019 0.00000
-1.18883 -0.60574 -0.21631
-1.27743 -0.65088 -0.41145
-1.41541 -0.72119 -0.56631
-1.58928 -0.80978 -0.66574
-1.78201 -0.90798 -0.70000
-1.97475 -1.00618 -0.66574
-2.14862 -1.09478 -0.56631
-2.28660 -1.16508 -0.41145
-2.37519 -1.21022 -0.21631
-2.30213 -1.41075 0.00000
-2.27292 -1.39285 0.21631
-2.18814 -1.34089 0.41145
-2.05610 -1.25998 0.56631
-1.88972 -1.15802 0.66574
-1.70528 -1.04500 0.70000
-1.52084 -0.93197 0.66574
-1.35446 -0.83002 0.56631
-1.22242 -0.74910 0.41145
-1.13764 -0.69715 0.21631
-1.10843 -0.67925 0.00000
-1.13764 -0.69715 -0.21631
-1.22242 -0.74910 -0.41145
-1.35446 -0.83002 -0.56631
-1.52084 -0.93197 -0.66574
-1.70528 -1.04500 -0.70000
-1.88972 -1.15802 -0.66574
-2.05610 -1.25998 -0.56631
-2.18814 -1.34089 -0.41145
-2.27292 -1.39285 -0.21631
-2.18435 -1.58702 0.00000
-2.15663 -1.56688 0.21631
-2.07619 -1.50844 0.41145
-1.95090 -1.41741 0.56631
-1.79303 -1.30272 0.66574
-1.61803 -1.17557 0.70000
-1.44303 -1.04843 0.66574
-1.28516 -0.93373 0.56631
-1.15988 -0.84270 0.41145
-1.07944 -0.78426 0.21631
-1.05172 -0.76412 0.00000
-1.07944 -0.78426 -0.21631
-1.15988 -0.84270 -0.41145
-1.28516 -0.93373 -0.56631
-1.44303 -1.04843 -0.66574
-1.61803 -1.17557 -0.70000
-1.79303 -1.30272 -0.66574
-1.95090 -1.41741 -0.56631
-2.07619 -1.50844 -0.41145
-2.15663 -1.56688 -0.21631
-2.05310 -1.75351 0.00000
-2.02704 -1.73126 0.21631
-1.95144 -1.66669 0.41145
-1.83368 -1.56611 0.56631
-1.68530 -1.43938 0.66574
-1.52081 -1.29890 0.70000
-1.35633 -1.15841 0.66574
-1.20794 -1.03168 0.56631
-1.09018 -0.93111 0.41145
-1.01458 -0.86653 0.21631
-0.98853 -0.84428 0.00000
-1.01458 -0.86653 -0.21631
-1.09018 -0.93111 -0.41145
-1.20794 -1.03168 -0.56631
-1.35633 -1.15841 -0.66574
-1.52081 -1.29890 -0.70000
-1.68530 -1.43938 -0.66574
-1.83368 -1.56611 -0.56631
-1.95144 -1.66669 -0.41145
-2.02704 -1.73126 -0.21631
-1.90919 -1.90919 0.00000
-1.88496 -1.88496 0.21631
-1.81466 -1.81466 0.41145
-1.70515 -1.70515 0.56631
-1.56717 -1.56717 0.66574
-1.41421 -1.41421 0.70000
-1.26126 -1.26126 0.66574
-1.12327 -1.12327 0.56631
-1.01377 -1.01377 0.41145
-0.94346 -0.94346 0.21631
-0.91924 -0.91924 0.00000
-0.94346 -0.94346 -0.21631
-1.01377 -1.01377 -0.41145
-1.12327 -1.12327 -0.56631
-1.26126 -1.26126 -0.66574
-1.41421 -1.41421 -0.70000
-1.56717 -1.56717 -0.66574
-1.70515 -1.70515 -0.56631
-1.81466 -1.81466 -0.41145
-1.88496 -1.88496 -0.21631
-1.75351 -2.05310 0.00000
-1.73126 -2.02704 0.21631
-1.66669 -1.95144 0.41145
-1.56611 -1.83368 0.56631
-1.43938 -1.68530 0.66574
-1.29890 -1.52081 0.70000
-1.15841 -1.35633 0.66574
-1.03168 -1.20794 0.56631
-0.93111 -1.09018 0.41145
-0.86653 -1.01458 0.21631
-0.84428 -0.98853 0.00000
-0.86653 -1.01458 -0.21631
-0.93111 -1.09018 -0.41145
-1.03168 -1.20794 -0.56631
-1.15841 -1.35633 -0.66574
-1.29890 -1.52081 -0.70000
-1.43938 -1.68530 -0.66574
-1.56611 -1.83368 -0.56631
-1.66669 -1.95144 -0.41145
-1.73126 -2.02704 -0.21631
-1.58702 -2.18435 0.00000
-1.56688 -2.15663 0.21631
-1.50844 -2.07619 0.41145
-1.41741 -1.95090 0.56631
-1.30272 -1.79303 0.66574
-1.17557 -1.61803 0.70000
-1.04843 -1.44303 0.66574
-0.93373 -1.28516 0.56631
-0.84270 -1.15988 0.41145
-0.78426 -1.07944 0.21631
-0.76412 -1.05172 0.00000
-0.78426 -1.07944 -0.21631
-0.84270 -1.15988 -0.41145
-0.93373 -1.28516 -0.56631
-1.04843 -1.44303 -0.66574
-1.17557 -1.61803 -0.70000
-1.30272 -1.79303 -0.66574
-1.41741 -1.95090 -0.56631
-1.50844 -2.07619 -0.41145
-1.56688 -2.15663 -0.21631
-1.41075 -2.30213 0.00000
-1.39285 -2.27292 0.21631
-1.34089 -2.18814 0.41145
-1.25998 -2.05610 0.56631
-1.15802 -1.88972 0.66574
-1.04500 -1.70528 0.70000
-0.93197 -1.52084 0.66574
-0.83002 -1.35446 0.56631
-0.74910 -1.22242 0.41145
-0.69715 -1.13764 0.21631
-0.67925 -1.10843 0.00000
-0.69715 -1.13764 -0.21631
-0.74910 -1.22242 -0.41145
-0.83002 -1.35446 -0.56631
-0.93197 -1.52084 -0.66574
-1.04500 -1.70528 -0.70000
-1.15802 -1.88972 -0.66574
-1.25998 -2.05610 -0.56631
-1.34089 -2.18814 -0.41145
-1.39285 -2.27292 -0.21631
-1.22577 -2.40572 0.00000
-1.21022 -2.37519 0.21631
-1.16508 -2.28660 0.41145
-1.09478 -2.14862 0.56631
-1.00618 -1.97475 0.66574
-0.90798 -1.78201 0.70000
-0.80978 -1.58928 0.66574
-0.72119 -1.41541 0.56631
-0.65088 -1.27743 0.41145
-0.60574 -1.18883 0.21631
-0.59019 -1.15831 0.00000
-0.60574 -1.18883 -0.21631
-0.65088 -1.27743 -0.41145
-0.72119 -1.41541 -0.56631
-0.80978 -1.58928 -0.66574
-0.90798 -1.78201 -0.70000
-1.00618 -1.97475 -0.66574
-1.09478 -2.14862 -0.56631
-1.16508 -2.28660 -0.41145
-1.21022 -2.37519 -0.21631
-1.03325 -2.49447 0.00000
-1.02013 -2.46282 0.21631
-0.98209 -2.37096 0.41145
-0.92282 -2.22789 0.56631
-0.84815 -2.04761 0.66574
-0.76537 -1.84776 0.70000
-0.68259 -1.64791 0.66574
-0.60791 -1.46763 0.56631
-0.54865 -1.32456 0.41145
-0.51060 -1.23270 0.21631
-0.49749 -1.20104 0.00000
-0.51060 -1.23270 -0.21631
-0.54865 -1.32456 -0.41145
-0.60791 -1.46763 -0.56631
-0.68259 -1.64791 -0.66574
-0.76537 -1.84776 -0.70000
-0.84815 -2.04761 -0.66574
-0.92282 -2.22789 -0.56631
-0.98209 -2.37096 -0.41145
-1.02013 -2.46282 -0.21631
-0.83435 -2.56785 0.00000
-0.82376 -2.53527 0.21631
-0.79303 -2.44071 0.41145
-0.74518 -2.29342 0.56631
-0.68488 -2.10784 0.66574
-0.61803 -1.90211 0.70000
-0.55119 -1.69639 0.66574
-0.49089 -1.51080 0.56631
-0.44303 -1.36352 0.41145
-0.41231 -1.26896 0.21631
-0.40172 -1.23637 0.00000
-0.41231 -1.26896 -0.21631
-0.44303 -1.36352 -0.41145
-0.49089 -1.51080 -0.56631
-0.55119 -1.69639 -0.66574
-0.61803 -1.90211 -0.70000
-0.68488 -2.10784 -0.66574
-0.74518 -2.29342 -0.56631
-0.79303 -2.44071 -0.41145
-0.82376 -2.53527 -0.21631
-0.63030 -2.62540 0.00000
-0.62230 -2.59208 0.21631
-0.59909 -2.49540 0.41145
-0.56294 -2.34482 0.56631
-0.51739 -2.15508 0.66574
-0.46689 -1.94474 0.70000
-0.41639 -1.73440 0.66574
-0.37084 -1.54466 0.56631
-0.33469 -1.39408 0.41145
-0.31148 -1.29739 0.21631
-0.30348 -1.26408 0.00000
-0.31148 -1.29739 -0.21631
-0.33469 -1.39408 -0.41145
-0.37084 -1.54466 -0.56631
-0.41639 -1.73440 -0.66574
-0.46689 -1.94474 -0.70000
-0.51739 -2.15508 -0.66574
-0.56294 -2.34482 -0.56631
-0.59909 -2.49540 -0.41145
-0.62230 -2.59208 -0.21631
-0.42237 -2.66676 0.00000
-0.41701 -2.63292 0.21631
-0.40146 -2.53472 0.41145
-0.37723 -2.38176 0.56631
-0.34671 -2.18903 0.66574
-0.31287 -1.97538 0.70000
-0.27903 -1.76173 0.66574
-0.24850 -1.56899 0.56631
-0.22428 -1.41604 0.41145
-0.20872 -1.31783 0.21631
-0.20336 -1.28399 0.00000
-0.20872 -1.31783 -0.21631
-0.22428 -1.41604 -0.41145
-0.24850 -1.56899 -0.56631
-0.27903 -1.76173 -0.66574
-0.31287 -1.97538 -0.70000
-0.34671 -2.18903 -0.66574
-0.37723 -2.38176 -0.56631
-0.40146 -2.53472 -0.41145
-0.41701 -2.63292 -0.21631
-0.21184 -2.69168 0.00000
-0.20915 -2.65752 0.21631
-0.20135 -2.55840 0.41145
-0.18920 -2.40402 0.56631
-0.17389 -2.20948 0.66574
-0.15692 -1.99383 0.70000
-0.13995 -1.77819 0.66574
-0.12464 -1.58365 0.56631
-0.11249 -1.42927 0.41145
-0.10468 -1.33015 0.21631
-0.10200 -1.29599 0.00000
-0.10468 -1.33015 -0.21631
-0.11249 -1.42927 -0.41145
-0.12464 -1.58365 -0.56631
-0.13995 -1.77819 -0.66574
-0.15692 -1.99383 -0.70000
-0.17389 -2.20948 -0.66574
-0.18920 -2.40402 -0.56631
-0.20135 -2.55840 -0.41145
-0.20915 -2.65752 -0.21631
-0.00000 -2.70000 0.00000
-0.00000 -2.66574 0.21631
-0.00000 -2.56631 0.41145
-0.00000 -2.41145 0.56631
-0.00000 -2.21631 0.66574
-0.00000 -2.00000 0.70000
-0.00000 -1.78369 0.66574
-0.00000 -1.58855 0.56631
-0.00000 -1.43369 0.41145
-0.00000 -1.33426 0.21631
-0.00000 -1.30000 0.00000
-0.00000 -1.33426 -0.21631
-0.00000 -1.43369 -0.41145
-0.00000 -1.58855 -0.56631
-0.00000 -1.78369 -0.66574
-0.00000 -2.00000 -0.70000
-0.00000 -2.21631 -0.66574
-0.00000 -2.41145 -0.56631
-0.00000 -2.56631 -0.41145
-0.00000 -2.66574 -0.21631
0.21184 -2.69168 0.00000
0.20915 -2.65752 0.21631
0.20135 -2.55840 0.41145
0.18920 -2.40402 0.56631
0.17389 -2.20948 0.66574
0.15692 -1.99383 0.70000
0.13995 -1.77819 0.66574
0.12464 -1.58365 0.56631
0.11249 -1.42927 0.41145
0.10468 -1.33015 0.21631
0.10200 -1.29599 0.00000
0.10468 -1.33015 -0.21631
0.11249 -1.42927 -0.41145
0.12464 -1.58365 -0.56631
0.13995 -1.77819 -0.66574
0.15692 -1.99383 -0.70000
0.17389 -2.20948 -0.66574
0.18920 -2.40402 -0.56631
0.20135 -2.55840 -0.41145
0.20915 -2.65752 -0.21631
0.42237 -2.66676 0.00000
0.41701 -2.63292 0.21631
0.40146 -2.53472 0.41145
0.37723 -2.38176 0.56631
0.34671 -2.18903 0.66574
0.31287 -1.97538 0.70000
0.27903 -1.76173 0.66574
0.24850 -1.56899 0.56631
0.22428 -1.41604 0.41145
0.20872 -1.31783 0.21631
0.20336 -1.28399 0.00000
0.20872 -1.31783 -0.21631
0.22428 -1.41604 -0.41145
0.24850 -1.56899 -0.56631
0.27903 -1.76173 -0.66574
0.31287 -1.97538 -0.70000
0.34671 -2.18903 -0.66574
0.37723 -2.38176 -0.56631
0.40146 -2.53472 -0.41145
0.41701 -2.63292 -0.21631
0.63030 -2.62540 0.00000
0.62230 -2.59208 0.21631
0.59909 -2.49540 0.41145
0.56294 -2.34482 0.56631
0.51739 -2.15508 0.66574
0.46689 -1.94474 0.70000
0.41639 -1.73440 0.66574
0.37084 -1.54466 0.56631
0.33469 -1.39408 0.41145
0.31148 -1.29739 0.21631
0.30348 -1.26408 0.00000
0.31148 -1.29739 -0.21631
0.33469 -1.39408 -0.41145
0.37084 -1.54466 -0.56631
0.41639 -1.73440 -0.66574
0.46689 -1.94474 -0.70000
0.51739 -2.15508 -0.66574
0.56294 -2.34482 -0.56631
0.59909 -2.49540 -0.41145
0.62230 -2.59208 -0.21631
0.83435 -2.56785 0.00000
0.82376 -2.53527 0.21631
0.79303 -2.44071 0.41145
0.74518 -2.29342 0.56631
0.68488 -2.10784 0.66574
0.61803 -1.90211 0.70000
0.55119 -1.69639 0.66574
0.49089 -1.51080 0.56631
0.44303 -1.36352 0.41145
0.41231 -1.26896 0.21631
0.40172 -1.23637 0.00000
0.41231 -1.26896 -0.21631
0.44303 -1.36352 -0.41145
0.49089 -1.51080 -0.56631
0.55119 -1.69639 -0.66574
0.61803 -1.90211 -0.70000
0.68488 -2.10784 -0.66574
0.74518 -2.29342 -0.56631
0.79303 -2.44071 -0.41145
0.82376 -2.53527 -0.21631
1.03325 -2.49447 0.00000
1.02013 -2.46282 0.21631
0.98209 -2.37096 0.41145
0.92282 -2.22789 0.56631
0.84815 -2.04761 0.66574
0.76537 -1.84776 0.70000
0.68259 -1.64791 0.66574
0.60791 -1.46763 0.56631
0.54865 -1.32456 0.41145
0.51060 -1.23270 0.21631
0.49749 -1.20104 0.00000
0.51060 -1.23270 -0.21631
0.54865 -1.32456 -0.41145
0.60791 -1.46763 -0.56631
0.68259 -1.64791 -0.66574
0.76537 -1.84776 -0.70000
0.84815 -2.04761 -0.66574
0.92282 -2.22789 -0.56631
0.98209 -2.37096 -0.41145
1.02013 -2.46282 -0.21631
1.22577 -2.40572 0.00000
1.21022 -2.37519 0.21631
1.16508 -2.28660 0.41145
1.09478 -2.14862 0.56631
1.00618 -1.97475 0.66574
0.90798 -1.78201 0.70000
0.80978 -1.58928 0.66574
0.72119 -1.41541 0.56631
0.65088 -1.27743 0.41145
0.60574 -1.18883 0.21631
0.59019 -1.15831 0.00000
0.60574 -1.18883 -0.21631
0.65088 -1.27743 -0.41145
0.72119 -1.41541 -0.56631
0.80978 -1.58928 -0.66574
0.90798 -1.78201 -0.70000
1.00618 -1.97475 -0.66574
1.09478 -2.14862 -0.56631
1.16508 -2.28660 -0.41145
1.21022 -2.37519 -0.21631
1.41075 -2.30213 0.00000
1.39285 -2.27292 0.21631
1.34089 -2.18814 0.41145
1.25998 -2.05610 0.56631
1.15802 -1.88972 0.66574
1.04500 -1.70528 0.70000
0.93197 -1.52084 0.66574
0.83002 -1.35446 0.56631
0.74910 -1.22242 0.41145
0.69715 -1.13764 0.21631
0.67925 -1.10843 0.00000
0.69715 -1.13764 -0.21631
0.74910 -1.22242 -0.41145
0.83002 -1.35446 -0.56631
0.93197 -1.52084 -0.66574
1.04500 -1.70528 -0.70000
1.15802 -1.88972 -0.66574
1.25998 -2.05610 -0.56631
1.34089 -2.18814 -0.41145
1.39285 -2.27292 -0.21631
1.58702 -2.18435 0.00000
1.56688 -2.15663 0.21631
1.50844 -2.07619 0.41145
1.41741 -1.95090 0.56631
1.30272 -1.79303 0.66574
1.17557 -1.61803 0.70000
1.04843 -1.44303 0.66574
0.93373 -1.28516 0.56631
0.84270 -1.15988 0.41145
0.78426 -1.07944 0.21631
0.76412 -1.05172 0.00000
0.78426 -1.07944 -0.21631
0.84270 -1.15988 -0.41145
0.93373 -1.28516 -0.56631
1.04843 -1.44303 -0.66574
1.17557 -1.61803 -0.70000
1.30272 -1.79303 -0.66574
1.41741 -1.95090 -0.56631
1.50844 -2.07619 -0.41145
1.56688 -2.15663 -0.21631
1.75351 -2.05310 0.00000
1.73126 -2.02704 0.21631
1.66669 -1.95144 0.41145
1.56611 -1.83368 0.56631
1.43938 -1.68530 0.66574
1.29890 -1.52081 0.70000
1.15841 -1.35633 0.66574
1.03168 -1.20794 0.56631
0.93111 -1.09018 0.41145
0.86653 -1.01458 0.21631
0.84428 -0.98853 0.00000
0.86653 -1.01458 -0.21631
0.93111 -1.09018 -0.41145
1.03168 -1.20794 -0.56631
1.15841 -1.35633 -0.66574
1.29890 -1.52081 -0.70000
1.43938 -1.68530 -0.66574
1.56611 -1.83368 -0.56631
1.66669 -1.95144 -0.41145
1.73126 -2.02704 -0.21631
1.90919 -1.90919 0.00000
1.88496 -1.88496 0.21631
1.81466 -1.81466 0.41145
1.70515 -1.70515 0.56631
1.56717 -1.56717 0.66574
1.41421 -1.41421 0.70000
1.26126 -1.26126 0.66574
1.12327 -1.12327 0.56631
1.01377 -1.01377 0.41145
0.94346 -0.94346 0.21631
0.91924 -0.91924 0.00000
0.94346 -0.94346 -0.21631
1.01377 -1.01377 -0.41145
1.12327 -1.12327 -0.56631
1.26126 -1.26126 -0.66574
1.41421 -1.41421 -0.70000
1.56717 -1.56717 -0.66574
1.70515 -1.70515 -0.56631
1.81466 -1.81466 -0.41145
1.88496 -1.88496 -0.21631
2.05310 -1.75351 0.00000
2.02704 -1.73126 0.21631
1.95144 -1.66669 0.41145
1.83368 -1.56611 0.56631
1.68530 -1.43938 0.66574
1.52081 -1.29890 0.70000
1.35633 -1.15841 0.66574
1.20794 -1.03168 0.56631
1.09018 -0.93111 0.41145
1.01458 -0.86653 0.21631
0.98853 -0.84428 0.00000
1.01458 -0.86653 -0.21631
1.09018 -0.93111 -0.41145
1.20794 -1.03168 -0.56631
1.35633 -1.15841 -0.66574
1.52081 -1.29890 -0.70000
1.68530 -1.43938 -0.66574
1.83368 -1.56611 -0.56631
1.95144 -1.66669 -0.41145
2.02704 -1.73126 -0.21631
2.18435 -1.58702 0.00000
2.15663 -1.56688 0.21631
2.07619 -1.50844 0.41145
1.95090 -1.41741 0.56631
1.79303 -1.30272 0.66574
1.61803 -1.17557 0.70000
1.44303 -1.04843 0.66574
1.28516 -0.93373 0.56631
1.15988 -0.84270 0.41145
1.07944 -0.78426 0.21631
1.05172 -0.76412 0.00000
1.07944 -0.78426 -0.21631
1.15988 -0.84270 -0.41145
1.28516 -0.93373 -0.56631
1.44303 -1.04843 -0.66574
1.61803 -1.17557 -0.70000
1.79303 -1.30272 -0.66574
1.95090 -1.41741 -0.56631
2.07619 -1.50844 -0.41145
2.15663 -1.56688 -0.21631
2.30213 -1.41075 0.00000
2.27292 -1.39285 0.21631
2.18814 -1.34089 0.41145
2.05610 -1.25998 0.56631
1.88972 -1.15802 0.66574
1.70528 -1.04500 0.70000
1.52084 -0.93197 0.66574
1.35446 -0.83002 0.56631
1.22242 -0.74910 0.41145
1.13764 -0.69715 0.21631
1.10843 -0.67925 0.00000
1.13764 -0.69715 -0.21631
1.22242 -0.74910 -0.41145
1.35446 -0.83002 -0.56631
1.52084 -0.93197 -0.66574
1.70528 -1.04500 -0.70000
1.88972 -1.15802 -0.66574
2.05610 -1.25998 -0.56631
2.18814 -1.34089 -0.41145
2.27292 -1.39285 -0.21631
2.40572 -1.22577 0.00000
2.37519 -1.21022 0.21631
2.28660 -1.16508 0.41145
2.14862 -1.09478 0.56631
1.97475 -1.00618 0.66574
1.78201 -0.90798 0.70000
1.58928 -0.80978 0.66574
1.41541 -0.72119 0.56631
1.27743 -0.65088 0.41145
1.18883 -0.60574 0.21631
1.15831 -0.59019 0.00000
1.18883 -0.60574 -0.21631
1.27743 -0.65088 -0.41145
1.41541 -0.72119 -0.56631
1.58928 -0.80978 -0.66574
1.78201 -0.90798 -0.70000
1.97475 -1.00618 -0.66574
2.14862 -1.09478 -0.56631
2.28660 -1.16508 -0.41145
2.37519 -1.21022 -0.21631
2.49447 -1.03325 0.00000
2.46282 -1.02013 0.21631
2.37096 -0.98209 0.41145
2.22789 -0.92282 0.56631
2.04761 -0.84815 0.66574
1.84776 -0.76537 0.70000
1.64791 -0.68259 0.66574
1.46763 -0.60791 0.56631
1.32456 -0.54865 0.41145
1.23270 -0.51060 0.21631
1.20104 -0.49749 0.00000
1.23270 -0.51060 -0.21631
1.32456 -0.54865 -0.41145
1.46763 -0.60791 -0.56631
1.64791 -0.68259 -0.66574
1.84776 -0.76537 -0.70000
2.04761 -0.84815 -0.66574
2.22789 -0.92282 -0.56631
2.37096 -0.98209 -0.41145
2.46282 -1.02013 -0.21631
2.56785 -0.83435 0.00000
2.53527 -0.82376 0.21631
2.44071 -0.79303 0.41145
2.29342 -0.74518 0.56631
2.10784 -0.68488 0.66574
1.90211 -0.61803 0.70000
1.69639 -0.55119 0.66574
1.51080 -0.49089 0.56631
1.36352 -0.44303 0.41145
1.26896 -0.41231 0.21631
1.23637 -0.40172 0.00000
1.26896 -0.41231 -0.21631
1.36352 -0.44303 -0.41145
1.51080 -0.49089 -0.56631
1.69639 -0.55119 -0.66574
1.90211 -0.61803 -0.70000
2.10784 -0.68488 -0.66574
2.29342 -0.74518 -0.56631
2.44071 -0.79303 -0.41145
2.53527 -0.82376 -0.21631
2.62540 -0.63030 0.00000
2.59208 -0.62230 0.21631
2.49540 -0.59909 0.41145
2.34482 -0.56294 0.56631
2.15508 -0.51739 0.66574
1.94474 -0.46689 0.70000
1.73440 -0.41639 0.66574
1.54466 -0.37084 0.56631
1.39408 -0.33469 0.41145
1.29739 -0.31148 0.21631
1.26408 -0.30348 0.00000
1.29739 -0.31148 -0.21631
1.39408 -0.33469 -0.41145
1.54466 -0.37084 -0.56631
1.73440 -0.41639 -0.66574
1.94474 -0.46689 -0.70000
2.15508 -0.51739 -0.66574
2.34482 -0.56294 -0.56631
2.49540 -0.59909 -0.41145
2.59208 -0.62230 -0.21631
2.66676 -0.42237 0.00000
2.63292 -0.41701 0.21631
2.53472 -0.40146 0.41145
2.38176 -0.37723 0.56631
2.18903 -0.34671 0.66574
1.97538 -0.31287 0.70000
1.76173 -0.27903 0.66574
1.56899 -0.24850 0.56631
1.41604 -0.22428 0.41145
1.31783 -0.20872 0.21631
1.28399 -0.20336 0.00000
1.31783 -0.20872 -0.21631
1.41604 -0.22428 -0.41145
1.56899 -0.24850 -0.56631
1.76173 -0.27903 -0.66574
1.97538 -0.31287 -0.70000
2.18903 -0.34671 -0.66574
2.38176 -0.37723 -0.56631
2.53472 -0.40146 -0.41145
2.63292 -0.41701 -0.21631
2.69168 -0.21184 0.00000
2.65752 -0.20915 0.21631
2.55840 -0.20135 0.41145
2.40402 -0.18920 0.56631
2.20948 -0.17389 0.66574
1.99383 -0.15692 0.70000
1.77819 -0.13995 0.66574
1.58365 -0.12464 0.56631
1.42927 -0.11249 0.41145
1.33015 -0.10468 0.21631
1.29599 -0.10200 0.00000
1.33015 -0.10468 -0.21631
1.42927 -0.11249 -0.41145
1.58365 -0.12464 -0.56631
1.77819 -0.13995 -0.66574
1.99383 -0.15692 -0.70000
2.20948 -0.17389 -0.66574
2.40402 -0.18920 -0.56631
2.55840 -0.20135 -0.41145
2.65752 -0.20915 -0.21631
3 0 20 21
3 0 21 1
3 1 21 22
3 1 22 2
3 2 22 23
3 2 23 3
3 3 23 24
3 3 24 4
3 4 24 25
3 4 25 5
3 5 25 26
3 5 26 6
3 6 26 27
3 6 27 7
3 7 27 28
3 7 28 8
3 8 28 29
3 8 29 9
3 9 29 30
3 9 30 10
3 10 30 31
3 10 31 11
3 11 31 32
3 11 32 12
3 12 32 33
3 12 33 13
3 13 33 34
3 13 34 14
3 14 34 35
3 14 35 15
3 15 35 36
3 15 36 16
3 16 36 37
3 16 37 17
3 17 37 38
3 17 38 18
3 18 38 39
3 18 39 19
3 19 39 20
3 19 20 0
3 20 40 41
3 20 41 21
3 21 41 42
3 21 42 22
3 22 42 43
3 22 43 23
3 23 43 44
3 23 44 24
3 24 44 45
3 24 45 25
3 25 45 46
3 25 46 26
3 26 46 47
3 26 47 27
3 27 47 48
3 27 48 28
3 28 48 49
3 28 49 29
3 29 49 50
3 29 50 30
3 30 50 51
3 30 51 31
3 31 51 52
3 31 52 32
3 32 52 53
3 32 53 33
3 33 53 54
3 33 54 34
3 34 54 55
3 34 55 35
3 35 55 56
3 35 56 36
3 36 56 57
3 36 57 37
3 37 57 58
3 37 58 38
3 38 58 59
3 38 59 39
3 39 59 40
3 39 40 20
3 40 60 61
3 40 61 41
3 41 61 62
3 41 62 42
3 42 62 63
3 42 63 43
3 43 63 64
3 43 64 44
3 44 64 65
3 44 65 45
3 45 65 66
3 45 66 46
3 46 66 67
3 46 67 47
3 47 67 68
3 47 68 48
3 48 68 69
3 48 69 49
3 49 69 70
3 49 70 50
3 50 70 71
3 50 71 51
3 51 71 72
3 51 72 52
3 52 72 73
3 52 73 53
3 53 73 74
3 53 74 54
3 54 74 75
3 54 75 55
3 55 75 76
3 55 76 56
3 56 76 77
3 56 77 57
3 57 77 78
3 57 78 58
3 58 78 79
3 58 79 59
3 59 79 60
3 59 60 40
3 60 80 81
3 60 81 61
3 61 81 82
3 61 82 62
3 62 82 83
3 62 83 63
3 63 83 84
3 63 84 64
3 64 84 85
3 64 85 65
3 65 85 86
3 65 86 66
3 66 86 87
3 66 87 67
3 67 87 88
3 67 88 68
3 68 88 89
3 68 89 69
3 69 89 90
3 69 90 70
3 70 90 91
3 70 91 71
3 71 91 92
3 71 92 72
3 72 92 93
3 72 93 73
3 73 93 94
3 73 94 74
3 74 94 95
3 74 95 75
3 75 95 96
3 75 96 76
3 76 96 97
3 76 97 77
3 77 97 98
3 77 98 78
3 78 98 99
3 78 99 79
3 79 99 80
3 79 80 60
3 80 100 101
3 80 101 81
3 81 101 102
3 81 102 82
3 82 102 103
3 82 103 83
3 83 103 104
3 83 104 84
3 84 104 105
3 84 105 85
3 85 105 106
3 85 106 86
3 86 106 107
3 86 107 87
3 87 107 108
3 87 108 88
3 88 108 109
3 88 109 89
3 89 109 110
3 89 110 90
3 90 110 111
3 90 111 91
3 91 111 112
3 91 112 92
3 92 112 113
3 92 113 93
3 93 113 114
3 93 114 94
3 94 114 115
3 94 115 95
3 95 115 116
3 95 116 96
3 96 116 117
3 96 117 97
3 97 117 118
3 97 118 98
3 98 118 119
3 98 119 99
3 99 119 100
3 99 100 80
3 100 120 121
3 100 121 101
3 101 121 122
3 101 122 102
3 102 122 123
3 102 123 103
3 103 123 124
3 103 124 104
3 104 124 125
3 104 125 105
3 105 125 126
3 105 126 106
3 106 126 127
3 106 127 107
3 107 127 128
3 107 128 108
3 108 128 129
3 108 129 109
3 109 129 130
3 109 130 110
3 110 130 131
3 110 131 111
3 111 131 132
3 111 132 112
3 112 132 133
3 112 133 113
3 113 133 134
3 113 134 114
3 114 134 135
3 114 135 115
3 115 135 136
3 115 136 116
3 116 136 137
3 116 137 117
3 117 137 138
3 117 138 118
3 118 138 139
3 118 139 119
3 119 139 120
3 119 120 100
3 120 140 141
3 120 141 121
3 121 141 142
3 121 142 122
3 122 142 143
3 122 143 123
3 123 143 144
3 123 144 124
3 124 144 145
3 124 145 125
3 125 145 146
3 125 146 126
3 126 146 147
3 126 147 127
3 127 147 148
3 127 148 128
3 128 148 149
3 128 149 129
3 129 149 150
3 129 150 130
3 130 150 151
3 130 151 131
3 131 151 152
3 131 152 132
3 132 152 153
3 132 153 133
3 133 153 154
3 133 154 134
3 134 154 155
3 134 155 135
3 135 155 156
3 135 156 136
3 136 156 157
3 136 157 137
3 137 157 158
3 137 158 138
3 138 158 159
3 138 159 139
3 139 159 140
3 139 140 120
3 140 160 161
3 140 161 141
3 141 161 162
3 141 162 142
3 142 162 163
3 142 163 143
3 143 163 164
3 143 164 144
3 144 164 165
3 144 165 145
3 145 165 166
3 145 166 146
3 146 166 167
3 146 167 147
3 147 167 168
3 147 168 148
3 148 168 169
3 148 169 149
3 149 169 170
3 149 170 150
3 150 170 171
3 150 171 151
3 151 171 172
3 151 172 152
3 152 172 173
3 152 173 153
3 153 173 174
3 153 174 154
3 154 174 175
3 154 175 155
3 155 175 176
3 155 176 156
3 156 176 177
3 156 177 157
3 157 177 178
3 157 178 158
3 158 178 179
3 158 179 159
3 159 179 160
3 159 160 140
3 160 180 181
3 160 181 161
3 161 181 182
3 161 182 162
3 162 182 183
3 162 183 163
3 163 183 184
3 163 184 164
3 164 184 185
3 164 185 165
3 165 185 186
3 165 186 166
3 166 186 187
3 166 187 167
3 167 187 188
3 167 188 168
3 168 188 189
3 168 189 169
3 169 189 190
3 169 190 170
3 170 190 191
3 170 191 171
3 171 191 192
3 171 192 172
3 172 192 193
3 172 193 173
3 173 193 194
3 173 194 174
3 174 194 195
3 174 195 175
3 175 195 196
3 175 196 176
3 176 196 197
3 176 197 177
3 177 197 198
3 177 198 178
3 178 198 199
3 178 199 179
3 179 199 180
3 179 180 160
3 180 200 201
3 180 201 181
3 181 201 202
3 181 202 182
3 182 202 203
3 182 203 183
3 183 203 204
3 183 204 184
3 184 204 205
3 184 205 185
3 185 205 206
3 185 206 186
3 186 206 207
3 186 207 187
3 187 207 208
3 187 208 188
3 188 208 209
3 188 209 189
3 189 209 210
3 189 210 190
3 190 210 211
3 190 211 191
3 191 211 212
3 191 212 192
3 192 212 213
3 192 213 193
3 193 213 214
3 193 214 194
3 194 214 215
3 194 215 195
3 195 215 216
3 195 216 196
3 196 216 217
3 196 217 197
3 197 217 218
3 197 218 198
3 198 218 219
3 198 219 199
3 199 219 200
3 199 200 180
3 200 220 221
3 200 221 201
3 201 221 222
3 201 222 202
3 202 222 223
3 202 223 203
3 203 223 224
3 203 224 204
3 204 224 225
3 204 225 205
3 205 225 226
3 205 226 206
3 206 226 227
3 206 227 207
3 207 227 228
3 207 228 208
3 208 228 229
3 208 229 209
3 209 229 230
3 209 230 210
3 210 230 231
3 210 231 211
3 211 231 232
3 211 232 212
3 212 232 233
3 212 233 213
3 213 233 234
3 213 234 214
3 214 234 235
3 214 235 215
3 215 235 236
3 215 236 216
3 216 236 237
3 216 237 217
3 217 237 238
3 217 238 218
3 218 238 239
3 218 239 219
3 219 239 220
3 219 220 200
3 220 240 241
3 220 241 221
3 221 241 242
3 221 242 222
3 222 242 243
3 222 243 223
3 223 243 244
3 223 244 224
3 224 244 245
3 224 245 225
3 225 245 246
3 225 246 226
3 226 246 247
3 226 247 227
3 227 247 248
3 227 248 228
3 228 248 249
3 228 249 229
3 229 249 250
3 229 250 230
3 230 250 251
3 230 251 231
3 231 251 252
3 231 252 232
3 232 252 253
3 232 253 233
3 233 253 254
3 233 254 234
3 234 254 255
3 234 255 235
3 235 255 256
3 235 256 236
3 236 256 257
3 236 257 237
3 237 257 258
3 237 258 238
3 238 258 259
3 238 259 239
3 239 259 240
3 239 240 220
3 240 260 261
3 240 261 241
3 241 261 262
3 241 262 242
3 242 262 263
3 242 263 243
3 243 263 264
3 243 264 244
3 244 264 265
3 244 265 245
3 245 265 266
3 245 266 246
3 246 266 267
3 246 267 247
3 247 267 268
3 247 268 248
3 248 268 269
3 248 269 249
3 249 269 270
3 249 270 250
3 250 270 271
3 250 271 251
3 251 271 272
3 251 272 252
3 252 272 273
3 252 273 253
3 253 273 274
3 253 274 254
3 254 274 275
3 254 275 255
3 255 275 276
3 255 276 256
3 256 276 277
3 256 277 257
3 257 277 278
3 257 278 258
3 258 278 279
3 258 279 259
3 259 279 260
3 259 260 240
3 260 280 281
3 260 281 261
3 261 281 282
3 261 282 262
3 262 282 283
3 262 283 263
3 263 283 284
3 263 284 264
3 264 284 285
3 264 285 265
3 265 285 286
3 265 286 266
3 266 286 287
3 266 287 267
3 267 287 288
3 267 288 268
3 268 288 289
3 268 289 269
3 269 289 290
3 269 290 270
3 270 290 291
3 270 291 271
3 271 291 292
3 271 292 272
3 272 292 293
3 272 293 273
3 273 293 294
3 273 294 274
3 274 294 295
3 274 295 275
3 275 295 296
3 275 296 276
3 276 296 297
3 276 297 277
3 277 297 298
3 277 298 278
3 278 298 299
3 278 299 279
3 279 299 280
3 279 280 260
3 280 300 301
3 280 301 281
3 281 301 302
3 281 302 282
3 282 302 303
3 282 303 283
3 283 303 304
3 283 304 284
3 284 304 305
3 284 305 285
3 285 305 306
3 285 306 286
3 286 306 307
3 286 307 287
3 287 307 308
3 287 308 288
3 288 308 309
3 288 309 289
3 289 309 310
3 289 310 290
3 290 310 311
3 290 311 291
3 291 311 312
3 291 312 292
3 292 312 313
3 292 313 293
3 293 313 314
3 293 314 294
3 294 314 315
3 294 315 295
3 295 315 316
3 295 316 296
3 296 316 317
3 296 317 297
3 297 317 318
3 297 318 298
3 298 318 319
3 298 319 299
3 299 319 300
3 299 300 280
3 300 320 321
3 300 321 301
3 301 321 322
3 301 322 302
3 302 322 323
3 302 323 303
3 303 323 324
3 303 324 304
3 304 324 325
3 304 325 305
3 305 325 326
3 305 326 306
3 306 326 327
3 306 327 307
3 307 327 328
3 307 328 308
3 308 328 329
3 308 329 309
3 309 329 330
3 309 330 310
3 310 330 331
3 310 331 311
3 311 331 332
3 311 332 312
3 312 332 333
3 312 333 313
3 313 333 334
3 313 334 314
3 314 334 335
3 314 335 315
3 315 335 336
3 315 336 316
3 316 336 337
3 316 337 317
3 317 337 338
3 317 338 318
3 318 338 339
3 318 339 319
3 319 339 320
3 319 320 300
3 320 340 341
3 320 341 321
3 321 341 342
3 321 342 322
3 322 342 343
3 322 343 323
3 323 343 344
3 323 344 324
3 324 344 345
3 324 345 325
3 325 345 346
3 325 346 326
3 326 346 347
3 326 347 327
3 327 347 348
3 327 348 328
3 328 348 349
3 328 349 329
3 329 349 350
3 329 350 330
3 330 350 351
3 330 351 331
3 331 351 352
3 331 352 332
3 332 352 353
3 332 353 333
3 333 353 354
3 333 354 334
3 334 354 355
3 334 355 335
3 335 355 356
3 335 356 336
3 336 356 357
3 336 357 337
3 337 357 358
3 337 358 338
3 338 358 359
3 338 359 339
3 339 359 340
3 339 340 320
3 340 360 361
3 340 361 341
3 341 361 362
3 341 362 342
3 342 362 363
3 342 363 343
3 343 363 364
3 343 364 344
3 344 364 365
3 344 365 345
3 345 365 366
3 345 366 346
3 346 366 367
3 346 367 347
3 347 367 368
3 347 368 348
3 348 368 369
3 348 369 349
3 349 369 370
3 349 370 350
3 350 370 371
3 350 371 351
3 351 371 372
3 351 372 352
3 352 372 373
3 352 373 353
3 353 373 374
3 353 374 354
3 354 374 375
3 354 375 355
3 355 375 376
3 355 376 356
3 356 376 377
3 356 377 357
3 357 377 378
3 357 378 358
3 358 378 379
3 358 379 359
3 359 379 360
3 359 360 340
3 360 380 381
3 360 381 361
3 361 381 382
3 361 382 362
3 362 382 383
3 362 383 363
3 363 383 384
3 363 384 364
3 364 384 385
3 364 385 365
3 365 385 386
3 365 386 366
3 366 386 387
3 366 387 367
3 367 387 388
3 367 388 368
3 368 388 389
3 368 389 369
3 369 389 390
3 369 390 370
3 370 390 391
3 370 391 371
3 371 391 392
3 371 392 372
3 372 392 393
3 372 393 373
3 373 393 394
3 373 394 374
3 374 394 395
3 374 395 375
3 375 395 396
3 375 396 376
3 376 396 397
3 376 397 377
3 377 397 398
3 377 398 378
3 378 398 399
3 378 399 379
3 379 399 380
3 379 380 360
3 380 400 401
3 380 401 381
3 381 401 402
3 381 402 382
3 382 402 403
3 382 403 383
3 383 403 404
3 383 404 384
3 384 404 405
3 384 405 385
3 385 405 406
3 385 406 386
3 386 406 407
3 386 407 387
3 387 407 408
3 387 408 388
3 388 408 409
3 388 409 389
3 389 409 410
3 389 410 390
3 390 410 411
3 390 411 391
3 391 411 412
3 391 412 392
3 392 412 413
3 392 413 393
3 393 413 414
3 393 414 394
3 394 414 415
3 394 415 395
3 395 415 416
3 395 416 396
3 396 416 417
3 396 417 397
3 397 417 418
3 397 418 398
3 398 418 419
3 398 419 399
3 399 419 400
3 399 400 380
3 400 420 421
3 400 421 401
3 401 421 422
3 401 422 402
3 402 422 423
3 402 423 403
3 403 423 424
3 403 424 404
3 404 424 425
3 404 425 405
3 405 425 426
3 405 426 406
3 406 426 427
3 406 427 407
3 407 427 428
3 407 428 408
3 408 428 429
3 408 429 409
3 409 429 430
3 409 430 410
3 410 430 431
3 410 431 411
3 411 431 432
3 411 432 412
3 412 432 433
3 412 433 413
3 413 433 434
3 413 434 414
3 414 434 435
3 414 435 415
3 415 435 436
3 415 436 416
3 416 436 437
3 416 437 417
3 417 437 438
3 417 438 418
3 418 438 439
3 418 439 419
3 419 439 420
3 419 420 400
3 420 440 441
3 420 441 421
3 421 441 442
3 421 442 422
3 422 442 443
3 422 443 423
3 423 443 444
3 423 444 424
3 424 444 445
3 424 445 425
3 425 445 446
3 425 446 426
3 426 446 447
3 426 447 427
3 427 447 448
3 427 448 428
3 428 448 449
3 428 449 429
3 429 449 450
3 429 450 430
3 430 450 451
3 430 451 431
3 431 451 452
3 431 452 432
3 432 452 453
3 432 453 433
3 433 453 454
3 433 454 434
3 434 454 455
3 434 455 435
3 435 455 456
3 435 456 436
3 436 456 457
3 436 457 437
3 437 457 458
3 437 458 438
3 438 458 459
3 438 459 439
3 439 459 440
3 439 440 420
3 440 460 461
3 440 461 441
3 441 461 462
3 441 462 442
3 442 462 463
3 442 463 443
3 443 463 464
3 443 464 444
3 444 464 465
3 444 465 445
3 445 465 466
3 445 466 446
3 446 466 467
3 446 467 447
3 447 467 468
3 447 468 448
3 448 468 469
3 448 469 449
3 449 469 470
3 449 470 450
3 450 470 471
3 450 471 451
3 451 471 472
3 451 472 452
3 452 472 473
3 452 473 453
3 453 473 474
3 453 474 454
3 454 474 475
3 454 475 455
3 455 475 476
3 455 476 456
3 456 476 477
3 456 477 457
3 457 477 478
3 457 478 458
3 458 478 479
3 458 479 459
3 459 479 460
3 459 460 440
3 460 480 481
3 460 481 461
3 461 481 482
3 461 482 462
3 462 482 483
3 462 483 463
3 463 483 484
3 463 484 464
3 464 484 485
3 464 485 465
3 465 485 486
3 465 486 466
3 466 486 487
3 466 487 467
3 467 487 488
3 467 488 468
3 468 488 489
3 468 489 469
3 469 489 490
3 469 490 470
3 470 490 491
3 470 491 471
3 471 491 492
3 471 492 472
3 472 492 493
3 472 493 473
3 473 493 494
3 473 494 474
3 474 494 495
3 474 495 475
3 475 495 496
3 475 496 476
3 476 496 497
3 476 497 477
3 477 497 498
3 477 498 478
3 478 498 499
3 478 499 479
3 479 499 480
3 479 480 460
3 480 500 501
3 480 501 481
3 481 501 502
3 481 502 482
3 482 502 503
3 482 503 483
3 483 503 504
3 483 504 484
3 484 504 505
3 484 505 485
3 485 505 506
3 485 506 486
3 486 506 507
3 486 507 487
3 487 507 508
3 487 508 488
3 488 508 509
3 488 509 489
3 489 509 510
3 489 510 490
3 490 510 511
3 490 511 491
3 491 511 512
3 491 512 492
3 492 512 513
3 492 513 493
3 493 513 514
3 493 514 494
3 494 514 515
3 494 515 495
3 495 515 516
3 495 516 496
3 496 516 517
3 496 517 497
3 497 517 518
3 497 518 498
3 498 518 519
3 498 519 499
3 499 519 500
3 499 500 480
3 500 520 521
3 500 521 501
3 501 521 522
3 501 522 502
3 502 522 523
3 502 523 503
3 503 523 524
3 503 524 504
3 504 524 525
3 504 525 505
3 505 525 526
3 505 526 506
3 506 526 527
3 506 527 507
3 507 527 528
3 507 528 508
3 508 528 529
3 508 529 509
3 509 529 530
3 509 530 510
3 510 530 531
3 510 531 511
3 511 531 532
3 511 532 512
3 512 532 533
3 512 533 513
3 513 533 534
3 513 534 514
3 514 534 535
3 514 535 515
3 515 535 536
3 515 536 516
3 516 536 537
3 516 537 517
3 517 537 538
3 517 538 518
3 518 538 539
3 518 539 519
3 519 539 520
3 519 520 500
3 520 540 541
3 520 541 521
3 521 541 542
3 521 542 522
3 522 542 543
3 522 543 523
3 523 543 544
3 523 544 524
3 524 544 545
3 524 545 525
3 525 545 546
3 525 546 526
3 526 546 547
3 526 547 527
3 527 547 548
3 527 548 528
3 528 548 549
3 528 549 529
3 529 549 550
3 529 550 530
3 530 550 551
3 530 551 531
3 531 551 552
3 531 552 532
3 532 552 553
3 532 553 533
3 533 553 554
3 533 554 534
3 534 554 555
3 534 555 535
3 535 555 556
3 535 556 536
3 536 556 557
3 536 557 537
3 537 557 558
3 537 558 538
3 538 558 559
3 538 559 539
3 539 559 540
3 539 540 520
3 540 560 561
3 540 561 541
3 541 561 562
3 541 562 542
3 542 562 563
3 542 563 543
3 543 563 564
3 543 564 544
3 544 564 565
3 544 565 545
3 545 565 566
3 545 566 546
3 546 566 567
3 546 567 547
3 547 567 568
3 547 568 548
3 548 568 569
3 548 569 549
3 549 569 570
3 549 570 550
3 550 570 571
3 550 571 551
3 551 571 572
3 551 572 552
3 552 572 573
3 552 573 553
3 553 573 574
3 553 574 554
3 554 574 575
3 554 575 555
3 555 575 576
3 555 576 556
3 556 576 577
3 556 577 557
3 557 577 578
3 557 578 558
3 558 578 579
3 558 579 559
3 559 579 560
3 559 560 540
3 560 580 581
3 560 581 561
3 561 581 582
3 561 582 562
3 562 582 583
3 562 583 563
3 563 583 584
3 563 584 564
3 564 584 585
3 564 585 565
3 565 585 586
3 565 586 566
3 566 586 587
3 566 587 567
3 567 587 588
3 567 588 568
3 568 588 589
3 568 589 569
3 569 589 590
3 569 590 570
3 570 590 591
3 570 591 571
3 571 591 592
3 571 592 572
3 572 592 593
3 572 593 573
3 573 593 594
3 573 594 574
3 574 594 595
3 574 595 575
3 575 595 596
3 575 596 576
3 576 596 597
3 576 597 577
3 577 597 598
3 577 598 578
3 578 598 599
3 578 599 579
3 579 599 580
3 579 580 560
3 580 600 601
3 580 601 581
3 581 601 602
3 581 602 582
3 582 602 603
3 582 603 583
3 583 603 604
3 583 604 584
3 584 604 605
3 584 605 585
3 585 605 606
3 585 606 586
3 586 606 607
3 586 607 587
3 587 607 608
3 587 608 588
3 588 608 609
3 588 609 589
3 589 609 610
3 589 610 590
3 590 610 611
3 590 611 591
3 591 611 612
3 591 612 592
3 592 612 613
3 592 613 593
3 593 613 614
3 593 614 594
3 594 614 615
3 594 615 595
3 595 615 616
3 595 616 596
3 596 616 617
3 596 617 597
3 597 617 618
3 597 618 598
3 598 618 619
3 598 619 599
3 599 619 600
3 599 600 580
3 600 620 621
3 600 621 601
3 601 621 622
3 601 622 602
3 602 622 623
3 602 623 603
3 603 623 624
3 603 624 604
3 604 624 625
3 604 625 605
3 605 625 626
3 605 626 606
3 606 626 627
3 606 627 607
3 607 627 628
3 607 628 608
3 608 628 629
3 608 629 609
3 609 629 630
3 609 630 610
3 610 630 631
3 610 631 611
3 611 631 632
3 611 632 612
3 612 632 633
3 612 633 613
3 613 633 634
3 613 634 614
3 614 634 635
3 614 635 615
3 615 635 636
3 615 636 616
3 616 636 637
3 616 637 617
3 617 637 638
3 617 638 618
3 618 638 639
3 618 639 619
3 619 639 620
3 619 620 600
3 620 640 641
3 620 641 621
3 621 641 642
3 621 642 622
3 622 642 643
3 622 643 623
3 623 643 644
3 623 644 624
3 624 644 645
3 624 645 625
3 625 645 646
3 625 646 626
3 626 646 647
3 626 647 627
3 627 647 648
3 627 648 628
3 628 648 649
3 628 649 629
3 629 649 650
3 629 650 630
3 630 650 651
3 630 651 631
3 631 651 652
3 631 652 632
3 632 652 653
3 632 653 633
3 633 653 654
3 633 654 634
3 634 654 655
3 634 655 635
3 635 655 656
3 635 656 636
3 636 656 657
3 636 657 637
3 637 657 658
3 637 658 638
3 638 658 659
3 638 659 639
3 639 659 640
3 639 640 620
3 640 660 661
3 640 661 641
3 641 661 662
3 641 662 642
3 642 662 663
3 642 663 643
3 643 663 664
3 643 664 644
3 644 664 665
3 644 665 645
3 645 665 666
3 645 666 646
3 646 666 667
3 646 667 647
3 647 667 668
3 647 668 648
3 648 668 669
3 648 669 649
3 649 669 670
3 649 670 650
3 650 670 671
3 650 671 651
3 651 671 672
3 651 672 652
3 652 672 673
3 652 673 653
3 653 673 674
3 653 674 654
3 654 674 675
3 654 675 655
3 655 675 676
3 655 676 656
3 656 676 677
3 656 677 657
3 657 677 678
3 657 678 658
3 658 678 679
3 658 679 659
3 659 679 660
3 659 660 640
3 660 680 681
3 660 681 661
3 661 681 682
3 661 682 662
3 662 682 683
3 662 683 663
3 663 683 684
3 663 684 664
3 664 684 685
3 664 685 665
3 665 685 686
3 665 686 666
3 666 686 687
3 666 687 667
3 667 687 688
3 667 688 668
3 668 688 689
3 668 689 669
3 669 689 690
3 669 690 670
3 670 690 691
3 670 691 671
3 671 691 692
3 671 692 672
3 672 692 693
3 672 693 673
3 673 693 694
3 673 694 674
3 674 694 695
3 674 695 675
3 675 695 696
3 675 696 676
3 676 696 697
3 676 697 677
3 677 697 698
3 677 698 678
3 678 698 699
3 678 699 679
3 679 699 680
3 679 680 660
3 680 700 701
3 680 701 681
3 681 701 702
3 681 702 682
3 682 702 703
3 682 703 683
3 683 703 704
3 683 704 684
3 684 704 705
3 684 705 685
3 685 705 706
3 685 706 686
3 686 706 707
3 686 707 687
3 687 707 708
3 687 708 688
3 688 708 709
3 688 709 689
3 689 709 710
3 689 710 690
3 690 710 711
3 690 711 691
3 691 711 712
3 691 712 692
3 692 712 713
3 692 713 693
3 693 713 714
3 693 714 694
3 694 714 715
3 694 715 695
3 695 715 716
3 695 716 696
3 696 716 717
3 696 717 697
3 697 717 718
3 697 718 698
3 698 718 719
3 698 719 699
3 699 719 700
3 699 700 680
3 700 720 721
3 700 721 701
3 701 721 722
3 701 722 702
3 702 722 723
3 702 723 703
3 703 723 724
3 703 724 704
3 704 724 725
3 704 725 705
3 705 725 726
3 705 726 706
3 706 726 727
3 706 727 707
3 707 727 728
3 707 728 708
3 708 728 729
3 708 729 709
3 709 729 730
3 709 730 710
3 710 730 731
3 710 731 711
3 711 731 732
3 711 732 712
3 712 732 733
3 712 733 713
3 713 733 734
3 713 734 714
3 714 734 735
3 714 735 715
3 715 735 736
3 715 736 716
3 716 736 737
3 716 737 717
3 717 737 738
3 717 738 718
3 718 738 739
3 718 739 719
3 719 739 720
3 719 720 700
3 720 740 741
3 720 741 721
3 721 741 742
3 721 742 722
3 722 742 743
3 722 743 723
3 723 743 744
3 723 744 724
3 724 744 745
3 724 745 725
3 725 745 746
3 725 746 726
3 726 746 747
3 726 747 727
3 727 747 748
3 727 748 728
3 728 748 749
3 728 749 729
3 729 749 750
3 729 750 730
3 730 750 751
3 730 751 731
3 731 751 752
3 731 752 732
3 732 752 753
3 732 753 733
3 733 753 754
3 733 754 734
3 734 754 755
3 734 755 735
3 735 755 756
3 735 756 736
3 736 756 757
3 736 757 737
3 737 757 758
3 737 758 738
3 738 758 759
3 738 759 739
3 739 759 740
3 739 740 720
3 740 760 761
3 740 761 741
3 741 761 762
3 741 762 742
3 742 762 763
3 742 763 743
3 743 763 764
3 743 764 744
3 744 764 765
3 744 765 745
3 745 765 766
3 745 766 746
3 746 766 767
3 746 767 747
3 747 767 768
3 747 768 748
3 748 768 769
3 748 769 749
3 749 769 770
3 749 770 750
3 750 770 771
3 750 771 751
3 751 771 772
3 751 772 752
3 752 772 773
3 752 773 753
3 753 773 774
3 753 774 754
3 754 774 775
3 754 775 755
3 755 775 776
3 755 776 756
3 756 776 777
3 756 777 757
3 757 777 778
3 757 778 758
3 758 778 779
3 758 779 759
3 759 779 760
3 759 760 740
3 760 780 781
3 760 781 761
3 761 781 782
3 761 782 762
3 762 782 783
3 762 783 763
3 763 783 784
3 763 784 764
3 764 784 785
3 764 785 765
3 765 785 786
3 765 786 766
3 766 786 787
3 766 787 767
3 767 787 788
3 767 788 768
3 768 788 789
3 768 789 769
3 769 789 790
3 769 790 770
3 770 790 791
3 770 791 771
3 771 791 792
3 771 792 772
3 772 792 793
3 772 793 773
3 773 793 794
3 773 794 774
3 774 794 795
3 774 795 775
3 775 795 796
3 775 796 776
3 776 796 797
3 776 797 777
3 777 797 798
3 777 798 778
3 778 798 799
3 778 799 779
3 779 799 780
3 779 780 760
3 780 800 801
3 780 801 781
3 781 801 802
3 781 802 782
3 782 802 803
3 782 803 783
3 783 803 804
3 783 804 784
3 784 804 805
3 784 805 785
3 785 805 806
3 785 806 786
3 786 806 807
3 786 807 787
3 787 807 808
3 787 808 788
3 788 808 809
3 788 809 789
3 789 809 810
3 789 810 790
3 790 810 811
3 790 811 791
3 791 811 812
3 791 812 792
3 792 812 813
3 792 813 793
3 793 813 814
3 793 814 794
3 794 814 815
3 794 815 795
3 795 815 816
3 795 816 796
3 796 816 817
3 796 817 797
3 797 817 818
3 797 818 798
3 798 818 819
3 798 819 799
3 799 819 800
3 799 800 780
3 800 820 821
3 800 821 801
3 801 821 822
3 801 822 802
3 802 822 823
3 802 823 803
3 803 823 824
3 803 824 804
3 804 824 825
3 804 825 805
3 805 825 826
3 805 826 806
3 806 826 827
3 806 827 807
3 807 827 828
3 807 828 808
3 808 828 829
3 808 829 809
3 809 829 830
3 809 830 810
3 810 830 831
3 810 831 811
3 811 831 832
3 811 832 812
3 812 832 833
3 812 833 813
3 813 833 834
3 813 834 814
3 814 834 835
3 814 835 815
3 815 835 836
3 815 836 816
3 816 836 837
3 816 837 817
3 817 837 838
3 817 838 818
3 818 838 839
3 818 839 819
3 819 839 820
3 819 820 800
3 820 840 841
3 820 841 821
3 821 841 842
3 821 842 822
3 822 842 843
3 822 843 823
3 823 843 844
3 823 844 824
3 824 844 845
3 824 845 825
3 825 845 846
3 825 846 826
3 826 846 847
3 826 847 827
3 827 847 848
3 827 848 828
3 828 848 849
3 828 849 829
3 829 849 850
3 829 850 830
3 830 850 851
3 830 851 831
3 831 851 852
3 831 852 832
3 832 852 853
3 832 853 833
3 833 853 854
3 833 854 834
3 834 854 855
3 834 855 835
3 835 855 856
3 835 856 836
3 836 856 857
3 836 857 837
3 837 857 858
3 837 858 838
3 838 858 859
3 838 859 839
3 839 859 840
3 839 840 820
3 840 860 861
3 840 861 841
3 841 861 862
3 841 862 842
3 842 862 863
3 842 863 843
3 843 863 864
3 843 864 844
3 844 864 865
3 844 865 845
3 845 865 866
3 845 866 846
3 846 866 867
3 846 867 847
3 847 867 868
3 847 868 848
3 848 868 869
3 848 869 849
3 849 869 870
3 849 870 850
3 850 870 871
3 850 871 851
3 851 871 872
3 851 872 852
3 852 872 873
3 852 873 853
3 853 873 874
3 853 874 854
3 854 874 875
3 854 875 855
3 855 875 876
3 855 876 856
3 856 876 877
3 856 877 857
3 857 877 878
3 857 878 858
3 858 878 879
3 858 879 859
3 859 879 860
3 859 860 840
3 860 880 881
3 860 881 861
3 861 881 882
3 861 882 862
3 862 882 883
3 862 883 863
3 863 883 884
3 863 884 864
3 864 884 885
3 864 885 865
3 865 885 886
3 865 886 866
3 866 886 887
3 866 887 867
3 867 887 888
3 867 888 868
3 868 888 889
3 868 889 869
3 869 889 890
3 869 890 870
3 870 890 891
3 870 891 871
3 871 891 892
3 871 892 872
3 872 892 893
3 872 893 873
3 873 893 894
3 873 894 874
3 874 894 895
3 874 895 875
3 875 895 896
3 875 896 876
3 876 896 897
3 876 897 877
3 877 897 898
3 877 898 878
3 878 898 899
3 878 899 879
3 879 899 880
3 879 880 860
3 880 900 901
3 880 901 881
3 881 901 902
3 881 902 882
3 882 902 903
3 882 903 883
3 883 903 904
3 883 904 884
3 884 904 905
3 884 905 885
3 885 905 906
3 885 906 886
3 886 906 907
3 886 907 887
3 887 907 908
3 887 908 888
3 888 908 909
3 888 909 889
3 889 909 910
3 889 910 890
3 890 910 911
3 890 911 891
3 891 911 912
3 891 912 892
3 892 912 913
3 892 913 893
3 893 913 914
3 893 914 894
3 894 914 915
3 894 915 895
3 895 915 916
3 895 916 896
3 896 916 917
3 896 917 897
3 897 917 918
3 897 918 898
3 898 918 919
3 898 919 899
3 899 919 900
3 899 900 880
3 900 920 921
3 900 921 901
3 901 921 922
3 901 922 902
3 902 922 923
3 902 923 903
3 903 923 924
3 903 924 904
3 904 924 925
3 904 925 905
3 905 925 926
3 905 926 906
3 906 926 927
3 906 927 907
3 907 927 928
3 907 928 908
3 908 928 929
3 908 929 909
3 909 929 930
3 909 930 910
3 910 930 931
3 910 931 911
3 911 931 932
3 911 932 912
3 912 932 933
3 912 933 913
3 913 933 934
3 913 934 914
3 914 934 935
3 914 935 915
3 915 935 936
3 915 936 916
3 916 936 937
3 916 937 917
3 917 937 938
3 917 938 918
3 918 938 939
3 918 939 919
3 919 939 920
3 919 920 900
3 920 940 941
3 920 941 921
3 921 941 942
3 921 942 922
3 922 942 943
3 922 943 923
3 923 943 944
3 923 944 924
3 924 944 945
3 924 945 925
3 925 945 946
3 925 946 926
3 926 946 947
3 926 947 927
3 927 947 948
3 927 948 928
3 928 948 949
3 928 949 929
3 929 949 950
3 929 950 930
3 930 950 951
3 930 951 931
3 931 951 952
3 931 952 932
3 932 952 953
3 932 953 933
3 933 953 954
3 933 954 934
3 934 954 955
3 934 955 935
3 935 955 956
3 935 956 936
3 936 956 957
3 936 957 937
3 937 957 958
3 937 958 938
3 938 958 959
3 938 959 939
3 939 959 940
3 939 940 920
3 940 960 961
3 940 961 941
3 941 961 962
3 941 962 942
3 942 962 963
3 942 963 943
3 943 963 964
3 943 964 944
3 944 964 965
3 944 965 945
3 945 965 966
3 945 966 946
3 946 966 967
3 946 967 947
3 947 967 968
3 947 968 948
3 948 968 969
3 948 969 949
3 949 969 970
3 949 970 950
3 950 970 971
3 950 971 951
3 951 971 972
3 951 972 952
3 952 972 973
3 952 973 953
3 953 973 974
3 953 974 954
3 954 974 975
3 954 975 955
3 955 975 976
3 955 976 956
3 956 976 977
3 956 977 957
3 957 977 978
3 957 978 958
3 958 978 979
3 958 979 959
3 959 979 960
3 959 960 940
3 960 980 981
3 960 981 961
3 961 981 982
3 961 982 962
3 962 982 983
3 962 983 963
3 963 983 984
3 963 984 964
3 964 984 985
3 964 985 965
3 965 985 986
3 965 986 966
3 966 986 987
3 966 987 967
3 967 987 988
3 967 988 968
3 968 988 989
3 968 989 969
3 969 989 990
3 969 990 970
3 970 990 991
3 970 991 971
3 971 991 992
3 971 992 972
3 972 992 993
3 972 993 973
3 973 993 994
3 973 994 974
3 974 994 995
3 974 995 975
3 975 995 996
3 975 996 976
3 976 996 997
3 976 997 977
3 977 997 998
3 977 998 978
3 978 998 999
3 978 999 979
3 979 999 980
3 979 980 960
3 980 1000 1001
3 980 1001 981
3 981 1001 1002
3 981 1002 982
3 982 1002 1003
3 982 1003 983
3 983 1003 1004
3 983 1004 984
3 984 1004 1005
3 984 1005 985
3 985 1005 1006
3 985 1006 986
3 986 1006 1007
3 986 1007 987
3 987 1007 1008
3 987 1008 988
3 988 1008 1009
3 988 1009 989
3 989 1009 1010
3 989 1010 990
3 990 1010 1011
3 990 1011 991
3 991 1011 1012
3 991 1012 992
3 992 1012 1013
3 992 1013 993
3 993 1013 1014
3 993 1014 994
3 994 1014 1015
3 994 1015 995
3 995 1015 1016
3 995 1016 996
3 996 1016 1017
3 996 1017 997
3 997 1017 1018
3 997 1018 998
3 998 1018 1019
3 998 1019 999
3 999 1019 1000
3 999 1000 980
3 1000 1020 1021
3 1000 1021 1001
3 1001 1021 1022
3 1001 1022 1002
3 1002 1022 1023
3 1002 1023 1003
3 1003 1023 1024
3 1003 1024 1004
3 1004 1024 1025
3 1004 1025 1005
3 1005 1025 1026
3 1005 1026 1006
3 1006 1026 1027
3 1006 1027 1007
3 1007 1027 1028
3 1007 1028 1008
3 1008 1028 1029
3 1008 1029 1009
3 1009 1029 1030
3 1009 1030 1010
3 1010 1030 1031
3 1010 1031 1011
3 1011 1031 1032
3 1011 1032 1012
3 1012 1032 1033
3 1012 1033 1013
3 1013 1033 1034
3 1013 1034 1014
3 1014 1034 1035
3 1014 1035 1015
3 1015 1035 1036
3 1015 1036 1016
3 1016 1036 1037
3 1016 1037 1017
3 1017 1037 1038
3 1017 1038 1018
3 1018 1038 1039
3 1018 1039 1019
3 1019 1039 1020
3 1019 1020 1000
3 1020 1040 1041
3 1020 1041 1021
3 1021 1041 1042
3 1021 1042 1022
3 1022 1042 1043
3 1022 1043 1023
3 1023 1043 1044
3 1023 1044 1024
3 1024 1044 1045
3 1024 1045 1025
3 1025 1045 1046
3 1025 1046 1026
3 1026 1046 1047
3 1026 1047 1027
3 1027 1047 1048
3 1027 1048 1028
3 1028 1048 1049
3 1028 1049 1029
3 1029 1049 1050
3 1029 1050 1030
3 1030 1050 1051
3 1030 1051 1031
3 1031 1051 1052
3 1031 1052 1032
3 1032 1052 1053
3 1032 1053 1033
3 1033 1053 1054
3 1033 1054 1034
3 1034 1054 1055
3 1034 1055 1035
3 1035 1055 1056
3 1035 1056 1036
3 1036 1056 1057
3 1036 1057 1037
3 1037 1057 1058
3 1037 1058 1038
3 1038 1058 1059
3 1038 1059 1039
3 1039 1059 1040
3 1039 1040 1020
3 1040 1060 1061
3 1040 1061 1041
3 1041 1061 1062
3 1041 1062 1042
3 1042 1062 1063
3 1042 1063 1043
3 1043 1063 1064
3 1043 1064 1044
3 1044 1064 1065
3 1044 1065 1045
3 1045 1065 1066
3 1045 1066 1046
3 1046 1066 1067
3 1046 1067 1047
3 1047 1067 1068
3 1047 1068 1048
3 1048 1068 1069
3 1048 1069 1049
3 1049 1069 1070
3 1049 1070 1050
3 1050 1070 1071
3 1050 1071 1051
3 1051 1071 1072
3 1051 1072 1052
3 1052 1072 1073
3 1052 1073 1053
3 1053 1073 1074
3 1053 1074 1054
3 1054 1074 1075
3 1054 1075 1055
3 1055 1075 1076
3 1055 1076 1056
3 1056 1076 1077
3 1056 1077 1057
3 1057 1077 1078
3 1057 1078 1058
3 1058 1078 1079
3 1058 1079 1059
3 1059 1079 1060
3 1059 1060 1040
3 1060 1080 1081
3 1060 1081 1061
3 1061 1081 1082
3 1061 1082 1062
3 1062 1082 1083
3 1062 1083 1063
3 1063 1083 1084
3 1063 1084 1064
3 1064 1084 1085
3 1064 1085 1065
3 1065 1085 1086
3 1065 1086 1066
3 1066 1086 1087
3 1066 1087 1067
3 1067 1087 1088
3 1067 1088 1068
3 1068 1088 1089
3 1068 1089 1069
3 1069 1089 1090
3 1069 1090 1070
3 1070 1090 1091
3 1070 1091 1071
3 1071 1091 1092
3 1071 1092 1072
3 1072 1092 1093
3 1072 1093 1073
3 1073 1093 1094
3 1073 1094 1074
3 1074 1094 1095
3 1074 1095 1075
3 1075 1095 1096
3 1075 1096 1076
3 1076 1096 1097
3 1076 1097 1077
3 1077 1097 1098
3 1077 1098 1078
3 1078 1098 1099
3 1078 1099 1079
3 1079 1099 1080
3 1079 1080 1060
3 1080 1100 1101
3 1080 1101 1081
3 1081 1101 1102
3 1081 1102 1082
3 1082 1102 1103
3 1082 1103 1083
3 1083 1103 1104
3 1083 1104 1084
3 1084 1104 1105
3 1084 1105 1085
3 1085 1105 1106
3 1085 1106 1086
3 1086 1106 1107
3 1086 1107 1087
3 1087 1107 1108
3 1087 1108 1088
3 1088 1108 1109
3 1088 1109 1089
3 1089 1109 1110
3 1089 1110 1090
3 1090 1110 1111
3 1090 1111 1091
3 1091 1111 1112
3 1091 1112 1092
3 1092 1112 1113
3 1092 1113 1093
3 1093 1113 1114
3 1093 1114 1094
3 1094 1114 1115
3 1094 1115 1095
3 1095 1115 1116
3 1095 1116 1096
3 1096 1116 1117
3 1096 1117 1097
3 1097 1117 1118
3 1097 1118 1098
3 1098 1118 1119
3 1098 1119 1099
3 1099 1119 1100
3 1099 1100 1080
3 1100 1120 1121
3 1100 1121 1101
3 1101 1121 1122
3 1101 1122 1102
3 1102 1122 1123
3 1102 1123 1103
3 1103 1123 1124
3 1103 1124 1104
3 1104 1124 1125
3 1104 1125 1105
3 1105 1125 1126
3 1105 1126 1106
3 1106 1126 1127
3 1106 1127 1107
3 1107 1127 1128
3 1107 1128 1108
3 1108 1128 1129
3 1108 1129 1109
3 1109 1129 1130
3 1109 1130 1110
3 1110 1130 1131
3 1110 1131 1111
3 1111 1131 1132
3 1111 1132 1112
3 1112 1132 1133
3 1112 1133 1113
3 1113 1133 1134
3 1113 1134 1114
3 1114 1134 1135
3 1114 1135 1115
3 1115 1135 1136
3 1115 1136 1116
3 1116 1136 1137
3 1116 1137 1117
3 1117 1137 1138
3 1117 1138 1118
3 1118 1138 1139
3 1118 1139 1119
3 1119 1139 1120
3 1119 1120 1100
3 1120 1140 1141
3 1120 1141 1121
3 1121 1141 1142
3 1121 1142 1122
3 1122 1142 1143
3 1122 1143 1123
3 1123 1143 1144
3 1123 1144 1124
3 1124 1144 1145
3 1124 1145 1125
3 1125 1145 1146
3 1125 1146 1126
3 1126 1146 1147
3 1126 1147 1127
3 1127 1147 1148
3 1127 1148 1128
3 1128 1148 1149
3 1128 1149 1129
3 1129 1149 1150
3 1129 1150 1130
3 1130 1150 1151
3 1130 1151 1131
3 1131 1151 1152
3 1131 1152 1132
3 1132 1152 1153
3 1132 1153 1133
3 1133 1153 1154
3 1133 1154 1134
3 1134 1154 1155
3 1134 1155 1135
3 1135 1155 1156
3 1135 1156 1136
3 1136 1156 1157
3 1136 1157 1137
3 1137 1157 1158
3 1137 1158 1138
3 1138 1158 1159
3 1138 1159 1139
3 1139 1159 1140
3 1139 1140 1120
3 1140 1160 1161
3 1140 1161 1141
3 1141 1161 1162
3 1141 1162 1142
3 1142 1162 1163
3 1142 1163 1143
3 1143 1163 1164
3 1143 1164 1144
3 1144 1164 1165
3 1144 1165 1145
3 1145 1165 1166
3 1145 1166 1146
3 1146 1166 1167
3 1146 1167 1147
3 1147 1167 1168
3 1147 1168 1148
3 1148 1168 1169
3 1148 1169 1149
3 1149 1169 1170
3 1149 1170 1150
3 1150 1170 1171
3 1150 1171 1151
3 1151 1171 1172
3 1151 1172 1152
3 1152 1172 1173
3 1152 1173 1153
3 1153 1173 1174
3 1153 1174 1154
3 1154 1174 1175
3 1154 1175 1155
3 1155 1175 1176
3 1155 1176 1156
3 1156 1176 1177
3 1156 1177 1157
3 1157 1177 1178
3 1157 1178 1158
3 1158 1178 1179
3 1158 1179 1159
3 1159 1179 1160
3 1159 1160 1140
3 1160 1180 1181
3 1160 1181 1161
3 1161 1181 1182
3 1161 1182 1162
3 1162 1182 1183
3 1162 1183 1163
3 1163 1183 1184
3 1163 1184 1164
3 1164 1184 1185
3 1164 1185 1165
3 1165 1185 1186
3 1165 1186 1166
3 1166 1186 1187
3 1166 1187 1167
3 1167 1187 1188
3 1167 1188 1168
3 1168 1188 1189
3 1168 1189 1169
3 1169 1189 1190
3 1169 1190 1170
3 1170 1190 1191
3 1170 1191 1171
3 1171 1191 1192
3 1171 1192 1172
3 1172 1192 1193
3 1172 1193 1173
3 1173 1193 1194
3 1173 1194 1174
3 1174 1194 1195
3 1174 1195 1175
3 1175 1195 1196
3 1175 1196 1176
3 1176 1196 1197
3 1176 1197 1177
3 1177 1197 1198
3 1177 1198 1178
3 1178 1198 1199
3 1178 1199 1179
3 1179 1199 1180
3 1179 1180 1160
3 1180 1200 1201
3 1180 1201 1181
3 1181 1201 1202
3 1181 1202 1182
3 1182 1202 1203
3 1182 1203 1183
3 1183 1203 1204
3 1183 1204 1184
3 1184 1204 1205
3 1184 1205 1185
3 1185 1205 1206
3 1185 1206 1186
3 1186 1206 1207
3 1186 1207 1187
3 1187 1207 1208
3 1187 1208 1188
3 1188 1208 1209
3 1188 1209 1189
3 1189 1209 1210
3 1189 1210 1190
3 1190 1210 1211
3 1190 1211 1191
3 1191 1211 1212
3 1191 1212 1192
3 1192 1212 1213
3 1192 1213 1193
3 1193 1213 1214
3 1193 1214 1194
3 1194 1214 1215
3 1194 1215 1195
3 1195 1215 1216
3 1195 1216 1196
3 1196 1216 1217
3 1196 1217 1197
3 1197 1217 1218
3 1197 1218 1198
3 1198 1218 1219
3 1198 1219 1199
3 1199 1219 1200
3 1199 1200 1180
3 1200 1220 1221
3 1200 1221 1201
3 1201 1221 1222
3 1201 1222 1202
3 1202 1222 1223
3 1202 1223 1203
3 1203 1223 1224
3 1203 1224 1204
3 1204 1224 1225
3 1204 1225 1205
3 1205 1225 1226
3 1205 1226 1206
3 1206 1226 1227
3 1206 1227 1207
3 1207 1227 1228
3 1207 1228 1208
3 1208 1228 1229
3 1208 1229 1209
3 1209 1229 1230
3 1209 1230 1210
3 1210 1230 1231
3 1210 1231 1211
3 1211 1231 1232
3 1211 1232 1212
3 1212 1232 1233
3 1212 1233 1213
3 1213 1233 1234
3 1213 1234 1214
3 1214 1234 1235
3 1214 1235 1215
3 1215 1235 1236
3 1215 1236 1216
3 1216 1236 1237
3 1216 1237 1217
3 1217 1237 1238
3 1217 1238 1218
3 1218 1238 1239
3 1218 1239 1219
3 1219 1239 1220
3 1219 1220 1200
3 1220 1240 1241
3 1220 1241 1221
3 1221 1241 1242
3 1221 1242 1222
3 1222 1242 1243
3 1222 1243 1223
3 1223 1243 1244
3 1223 1244 1224
3 1224 1244 1245
3 1224 1245 1225
3 1225 1245 1246
3 1225 1246 1226
3 1226 1246 1247
3 1226 1247 1227
3 1227 1247 1248
3 1227 1248 1228
3 1228 1248 1249
3 1228 1249 1229
3 1229 1249 1250
3 1229 1250 1230
3 1230 1250 1251
3 1230 1251 1231
3 1231 1251 1252
3 1231 1252 1232
3 1232 1252 1253
3 1232 1253 1233
3 1233 1253 1254
3 1233 1254 1234
3 1234 1254 1255
3 1234 1255 1235
3 1235 1255 1256
3 1235 1256 1236
3 1236 1256 1257
3 1236 1257 1237
3 1237 1257 1258
3 1237 1258 1238
3 1238 1258 1259
3 1238 1259 1239
3 1239 1259 1240
3 1239 1240 1220
3 1240 1260 1261
3 1240 1261 1241
3 1241 1261 1262
3 1241 1262 1242
3 1242 1262 1263
3 1242 1263 1243
3 1243 1263 1264
3 1243 1264 1244
3 1244 1264 1265
3 1244 1265 1245
3 1245 1265 1266
3 1245 1266 1246
3 1246 1266 1267
3 1246 1267 1247
3 1247 1267 1268
3 1247 1268 1248
3 1248 1268 1269
3 1248 1269 1249
3 1249 1269 1270
3 1249 1270 1250
3 1250 1270 1271
3 1250 1271 1251
3 1251 1271 1272
3 1251 1272 1252
3 1252 1272 1273
3 1252 1273 1253
3 1253 1273 1274
3 1253 1274 1254
3 1254 1274 1275
3 1254 1275 1255
3 1255 1275 1276
3 1255 1276 1256
3 1256 1276 1277
3 1256 1277 1257
3 1257 1277 1278
3 1257 1278 1258
3 1258 1278 1279
3 1258 1279 1259
3 1259 1279 1260
3 1259 1260 1240
3 1260 1280 1281
3 1260 1281 1261
3 1261 1281 1282
3 1261 1282 1262
3 1262 1282 1283
3 1262 1283 1263
3 1263 1283 1284
3 1263 1284 1264
3 1264 1284 1285
3 1264 1285 1265
3 1265 1285 1286
3 1265 1286 1266
3 1266 1286 1287
3 1266 1287 1267
3 1267 1287 1288
3 1267 1288 1268
3 1268 1288 1289
3 1268 1289 1269
3 1269 1289 1290
3 1269 1290 1270
3 1270 1290 1291
3 1270 1291 1271
3 1271 1291 1292
3 1271 1292 1272
3 1272 1292 1293
3 1272 1293 1273
3 1273 1293 1294
3 1273 1294 1274
3 1274 1294 1295
3 1274 1295 1275
3 1275 1295 1296
3 1275 1296 1276
3 1276 1296 1297
3 1276 1297 1277
3 1277 1297 1298
3 1277 1298 1278
3 1278 1298 1299
3 1278 1299 1279
3 1279 1299 1280
3 1279 1280 1260
3 1280 1300 1301
3 1280 1301 1281
3 1281 1301 1302
3 1281 1302 1282
3 1282 1302 1303
3 1282 1303 1283
3 1283 1303 1304
3 1283 1304 1284
3 1284 1304 1305
3 1284 1305 1285
3 1285 1305 1306
3 1285 1306 1286
3 1286 1306 1307
3 1286 1307 1287
3 1287 1307 1308
3 1287 1308 1288
3 1288 1308 1309
3 1288 1309 1289
3 1289 1309 1310
3 1289 1310 1290
3 1290 1310 1311
3 1290 1311 1291
3 1291 1311 1312
3 1291 1312 1292
3 1292 1312 1313
3 1292 1313 1293
3 1293 1313 1314
3 1293 1314 1294
3 1294 1314 1315
3 1294 1315 1295
3 1295 1315 1316
3 1295 1316 1296
3 1296 1316 1317
3 1296 1317 1297
3 1297 1317 1318
3 1297 1318 1298
3 1298 1318 1319
3 1298 1319 1299
3 1299 1319 1300
3 1299 1300 1280
3 1300 1320 1321
3 1300 1321 1301
3 1301 1321 1322
3 1301 1322 1302
3 1302 1322 1323
3 1302 1323 1303
3 1303 1323 1324
3 1303 1324 1304
3 1304 1324 1325
3 1304 1325 1305
3 1305 1325 1326
3 1305 1326 1306
3 1306 1326 1327
3 1306 1327 1307
3 1307 1327 1328
3 1307 1328 1308
3 1308 1328 1329
3 1308 1329 1309
3 1309 1329 1330
3 1309 1330 1310
3 1310 1330 1331
3 1310 1331 1311
3 1311 1331 1332
3 1311 1332 1312
3 1312 1332 1333
3 1312 1333 1313
3 1313 1333 1334
3 1313 1334 1314
3 1314 1334 1335
3 1314 1335 1315
3 1315 1335 1336
3 1315 1336 1316
3 1316 1336 1337
3 1316 1337 1317
3 1317 1337 1338
3 1317 1338 1318
3 1318 1338 1339
3 1318 1339 1319
3 1319 1339 1320
3 1319 1320 1300
3 1320 1340 1341
3 1320 1341 1321
3 1321 1341 1342
3 1321 1342 1322
3 1322 1342 1343
3 1322 1343 1323
3 1323 1343 1344
3 1323 1344 1324
3 1324 1344 1345
3 1324 1345 1325
3 1325 1345 1346
3 1325 1346 1326
3 1326 1346 1347
3 1326 1347 1327
3 1327 1347 1348
3 1327 1348 1328
3 1328 1348 1349
3 1328 1349 1329
3 1329 1349 1350
3 1329 1350 1330
3 1330 1350 1351
3 1330 1351 1331
3 1331 1351 1352
3 1331 1352 1332
3 1332 1352 1353
3 1332 1353 1333
3 1333 1353 1354
3 1333 1354 1334
3 1334 1354 1355
3 1334 1355 1335
3 1335 1355 1356
3 1335 1356 1336
3 1336 1356 1357
3 1336 1357 1337
3 1337 1357 1358
3 1337 1358 1338
3 1338 1358 1359
3 1338 1359 1339
3 1339 1359 1340
3 1339 1340 1320
3 1340 1360 1361
3 1340 1361 1341
3 1341 1361 1362
3 1341 1362 1342
3 1342 1362 1363
3 1342 1363 1343
3 1343 1363 1364
3 1343 1364 1344
3 1344 1364 1365
3 1344 1365 1345
3 1345 1365 1366
3 1345 1366 1346
3 1346 1366 1367
3 1346 1367 1347
3 1347 1367 1368
3 1347 1368 1348
3 1348 1368 1369
3 1348 1369 1349
3 1349 1369 1370
3 1349 1370 1350
3 1350 1370 1371
3 1350 1371 1351
3 1351 1371 1372
3 1351 1372 1352
3 1352 1372 1373
3 1352 1373 1353
3 1353 1373 1374
3 1353 1374 1354
3 1354 1374 1375
3 1354 1375 1355
3 1355 1375 1376
3 1355 1376 1356
3 1356 1376 1377
3 1356 1377 1357
3 1357 1377 1378
3 1357 1378 1358
3 1358 1378 1379
3 1358 1379 1359
3 1359 1379 1360
3 1359 1360 1340
3 1360 1380 1381
3 1360 1381 1361
3 1361 1381 1382
3 1361 1382 1362
3 1362 1382 1383
3 1362 1383 1363
3 1363 1383 1384
3 1363 1384 1364
3 1364 1384 1385
3 1364 1385 1365
3 1365 1385 1386
3 1365 1386 1366
3 1366 1386 1387
3 1366 1387 1367
3 1367 1387 1388
3 1367 1388 1368
3 1368 1388 1389
3 1368 1389 1369
3 1369 1389 1390
3 1369 1390 1370
3 1370 1390 1391
3 1370 1391 1371
3 1371 1391 1392
3 1371 1392 1372
3 1372 1392 1393
3 1372 1393 1373
3 1373 1393 1394
3 1373 1394 1374
3 1374 1394 1395
3 1374 1395 1375
3 1375 1395 1396
3 1375 1396 1376
3 1376 1396 1397
3 1376 1397 1377
3 1377 1397 1398
3 1377 1398 1378
3 1378 1398 1399
3 1378 1399 1379
3 1379 1399 1380
3 1379 1380 1360
3 1380 1400 1401
3 1380 1401 1381
3 1381 1401 1402
3 1381 1402 1382
3 1382 1402 1403
3 1382 1403 1383
3 1383 1403 1404
3 1383 1404 1384
3 1384 1404 1405
3 1384 1405 1385
3 1385 1405 1406
3 1385 1406 1386
3 1386 1406 1407
3 1386 1407 1387
3 1387 1407 1408
3 1387 1408 1388
3 1388 1408 1409
3 1388 1409 1389
3 1389 1409 1410
3 1389 1410 1390
3 1390 1410 1411
3 1390 1411 1391
3 1391 1411 1412
3 1391 1412 1392
3 1392 1412 1413
3 1392 1413 1393
3 1393 1413 1414
3 1393 1414 1394
3 1394 1414 1415
3 1394 1415 1395
3 1395 1415 1416
3 1395 1416 1396
3 1396 1416 1417
3 1396 1417 1397
3 1397 1417 1418
3 1397 1418 1398
3 1398 1418 1419
3 1398 1419 1399
3 1399 1419 1400
3 1399 1400 1380
3 1400 1420 1421
3 1400 1421 1401
3 1401 1421 1422
3 1401 1422 1402
3 1402 1422 1423
3 1402 1423 1403
3 1403 1423 1424
3 1403 1424 1404
3 1404 1424 1425
3 1404 1425 1405
3 1405 1425 1426
3 1405 1426 1406
3 1406 1426 1427
3 1406 1427 1407
3 1407 1427 1428
3 1407 1428 1408
3 1408 1428 1429
3 1408 1429 1409
3 1409 1429 1430
3 1409 1430 1410
3 1410 1430 1431
3 1410 1431 1411
3 1411 1431 1432
3 1411 1432 1412
3 1412 1432 1433
3 1412 1433 1413
3 1413 1433 1434
3 1413 1434 1414
3 1414 1434 1435
3 1414 1435 1415
3 1415 1435 1436
3 1415 1436 1416
3 1416 1436 1437
3 1416 1437 1417
3 1417 1437 1438
3 1417 1438 1418
3 1418 1438 1439
3 1418 1439 1419
3 1419 1439 1420
3 1419 1420 1400
3 1420 1440 1441
3 1420 1441 1421
3 1421 1441 1442
3 1421 1442 1422
3 1422 1442 1443
3 1422 1443 1423
3 1423 1443 1444
3 1423 1444 1424
3 1424 1444 1445
3 1424 1445 1425
3 1425 1445 1446
3 1425 1446 1426
3 1426 1446 1447
3 1426 1447 1427
3 1427 1447 1448
3 1427 1448 1428
3 1428 1448 1449
3 1428 1449 1429
3 1429 1449 1450
3 1429 1450 1430
3 1430 1450 1451
3 1430 1451 1431
3 1431 1451 1452
3 1431 1452 1432
3 1432 1452 1453
3 1432 1453 1433
3 1433 1453 1454
3 1433 1454 1434
3 1434 1454 1455
3 1434 1455 1435
3 1435 1455 1456
3 1435 1456 1436
3 1436 1456 1457
3 1436 1457 1437
3 1437 1457 1458
3 1437 1458 1438
3 1438 1458 1459
3 1438 1459 1439
3 1439 1459 1440
3 1439 1440 1420
3 1440 1460 1461
3 1440 1461 1441
3 1441 1461 1462
3 1441 1462 1442
3 1442 1462 1463
3 1442 1463 1443
3 1443 1463 1464
3 1443 1464 1444
3 1444 1464 1465
3 1444 1465 1445
3 1445 1465 1466
3 1445 1466 1446
3 1446 1466 1467
3 1446 1467 1447
3 1447 1467 1468
3 1447 1468 1448
3 1448 1468 1469
3 1448 1469 1449
3 1449 1469 1470
3 1449 1470 1450
3 1450 1470 1471
3 1450 1471 1451
3 1451 1471 1472
3 1451 1472 1452
3 1452 1472 1473
3 1452 1473 1453
3 1453 1473 1474
3 1453 1474 1454
3 1454 1474 1475
3 1454 1475 1455
3 1455 1475 1476
3 1455 1476 1456
3 1456 1476 1477
3 1456 1477 1457
3 1457 1477 1478
3 1457 1478 1458
3 1458 1478 1479
3 1458 1479 1459
3 1459 1479 1460
3 1459 1460 1440
3 1460 1480 1481
3 1460 1481 1461
3 1461 1481 1482
3 1461 1482 1462
3 1462 1482 1483
3 1462 1483 1463
3 1463 1483 1484
3 1463 1484 1464
3 1464 1484 1485
3 1464 1485 1465
3 1465 1485 1486
3 1465 1486 1466
3 1466 1486 1487
3 1466 1487 1467
3 1467 1487 1488
3 1467 1488 1468
3 1468 1488 1489
3 1468 1489 1469
3 1469 1489 1490
3 1469 1490 1470
3 1470 1490 1491
3 1470 1491 1471
3 1471 1491 1492
3 1471 1492 1472
3 1472 1492 1493
3 1472 1493 1473
3 1473 1493 1494
3 1473 1494 1474
3 1474 1494 1495
3 1474 1495 1475
3 1475 1495 1496
3 1475 1496 1476
3 1476 1496 1497
3 1476 1497 1477
3 1477 1497 1498
3 1477 1498 1478
3 1478 1498 1499
3 1478 1499 1479
3 1479 1499 1480
3 1479 1480 1460
3 1480 1500 1501
3 1480 1501 1481
3 1481 1501 1502
3 1481 1502 1482
3 1482 1502 1503
3 1482 1503 1483
3 1483 1503 1504
3 1483 1504 1484
3 1484 1504 1505
3 1484 1505 1485
3 1485 1505 1506
3 1485 1506 1486
3 1486 1506 1507
3 1486 1507 1487
3 1487 1507 1508
3 1487 1508 1488
3 1488 1508 1509
3 1488 1509 1489
3 1489 1509 1510
3 1489 1510 1490
3 1490 1510 1511
3 1490 1511 1491
3 1491 1511 1512
3 1491 1512 1492
3 1492 1512 1513
3 1492 1513 1493
3 1493 1513 1514
3 1493 1514 1494
3 1494 1514 1515
3 1494 1515 1495
3 1495 1515 1516
3 1495 1516 1496
3 1496 1516 1517
3 1496 1517 1497
3 1497 1517 1518
3 1497 1518 1498
3 1498 1518 1519
3 1498 1519 1499
3 1499 1519 1500
3 1499 1500 1480
3 1500 1520 1521
3 1500 1521 1501
3 1501 1521 1522
3 1501 1522 1502
3 1502 1522 1523
3 1502 1523 1503
3 1503 1523 1524
3 1503 1524 1504
3 1504 1524 1525
3 1504 1525 1505
3 1505 1525 1526
3 1505 1526 1506
3 1506 1526 1527
3 1506 1527 1507
3 1507 1527 1528
3 1507 1528 1508
3 1508 1528 1529
3 1508 1529 1509
3 1509 1529 1530
3 1509 1530 1510
3 1510 1530 1531
3 1510 1531 1511
3 1511 1531 1532
3 1511 1532 1512
3 1512 1532 1533
3 1512 1533 1513
3 1513 1533 1534
3 1513 1534 1514
3 1514 1534 1535
3 1514 1535 1515
3 1515 1535 1536
3 1515 1536 1516
3 1516 1536 1537
3 1516 1537 1517
3 1517 1537 1538
3 1517 1538 1518
3 1518 1538 1539
3 1518 1539 1519
3 1519 1539 1520
3 1519 1520 1500
3 1520 1540 1541
3 1520 1541 1521
3 1521 1541 1542
3 1521 1542 1522
3 1522 1542 1543
3 1522 1543 1523
3 1523 1543 1544
3 1523 1544 1524
3 1524 1544 1545
3 1524 1545 1525
3 1525 1545 1546
3 1525 1546 1526
3 1526 1546 1547
3 1526 1547 1527
3 1527 1547 1548
3 1527 1548 1528
3 1528 1548 1549
3 1528 1549 1529
3 1529 1549 1550
3 1529 1550 1530
3 1530 1550 1551
3 1530 1551 1531
3 1531 1551 1552
3 1531 1552 1532
3 1532 1552 1553
3 1532 1553 1533
3 1533 1553 1554
3 1533 1554 1534
3 1534 1554 1555
3 1534 1555 1535
3 1535 1555 1556
3 1535 1556 1536
3 1536 1556 1557
3 1536 1557 1537
3 1537 1557 1558
3 1537 1558 1538
3 1538 1558 1559
3 1538 1559 1539
3 1539 1559 1540
3 1539 1540 1520
3 1540 1560 1561
3 1540 1561 1541
3 1541 1561 1562
3 1541 1562 1542
3 1542 1562 1563
3 1542 1563 1543
3 1543 1563 1564
3 1543 1564 1544
3 1544 1564 1565
3 1544 1565 1545
3 1545 1565 1566
3 1545 1566 1546
3 1546 1566 1567
3 1546 1567 1547
3 1547 1567 1568
3 1547 1568 1548
3 1548 1568 1569
3 1548 1569 1549
3 1549 1569 1570
3 1549 1570 1550
3 1550 1570 1571
3 1550 1571 1551
3 1551 1571 1572
3 1551 1572 1552
3 1552 1572 1573
3 1552 1573 1553
3 1553 1573 1574
3 1553 1574 1554
3 1554 1574 1575
3 1554 1575 1555
3 1555 1575 1576
3 1555 1576 1556
3 1556 1576 1577
3 1556 1577 1557
3 1557 1577 1578
3 1557 1578 1558
3 1558 1578 1579
3 1558 1579 1559
3 1559 1579 1560
3 1559 1560 1540
3 1560 1580 1581
3 1560 1581 1561
3 1561 1581 1582
3 1561 1582 1562
3 1562 1582 1583
3 1562 1583 1563
3 1563 1583 1584
3 1563 1584 1564
3 1564 1584 1585
3 1564 1585 1565
3 1565 1585 1586
3 1565 1586 1566
3 1566 1586 1587
3 1566 1587 1567
3 1567 1587 1588
3 1567 1588 1568
3 1568 1588 1589
3 1568 1589 1569
3 1569 1589 1590
3 1569 1590 1570
3 1570 1590 1591
3 1570 1591 1571
3 1571 1591 1592
3 1571 1592 1572
3 1572 1592 1593
3 1572 1593 1573
3 1573 1593 1594
3 1573 1594 1574
3 1574 1594 1595
3 1574 1595 1575
3 1575 1595 1596
3 1575 1596 1576
3 1576 1596 1597
3 1576 1597 1577
3 1577 1597 1598
3 1577 1598 1578
3 1578 1598 1599
3 1578 1599 1579
3 1579 1599 1580
3 1579 1580 1560
3 1580 0 1
3 1580 1 1581
3 1581 1 2
3 1581 2 1582
3 1582 2 3
3 1582 3 1583
3 1583 3 4
3 1583 4 1584
3 1584 4 5
3 1584 5 1585
3 1585 5 6
3 1585 6 1586
3 1586 6 7
3 1586 7 1587
3 1587 7 8
3 1587 8 1588
3 1588 8 9
3 1588 9 1589
3 1589 9 10
3 1589 10 1590
3 1590 10 11
3 1590 11 1591
3 1591 11 12
3 1591 12 1592
3 1592 12 13
3 1592 13 1593
3 1593 13 14
3 1593 14 1594
3 1594 14 15
3 1594 15 1595
3 1595 15 16
3 1595 16 1596
3 1596 16 17
3 1596 17 1597
3 1597 17 18
3 1597 18 1598
3 1598 18 19
3 1598 19 1599
3 1599 19 0
3 1599 0 1580
