ply
format ascii 1.0
element vertex 200
property float x
property float y
property float z
element face 1
property list uchar int vertex_indices
end_header
3.0 0.0 -0.0
2.9896509073369777 0.18809289203967802 -0.09410831331851433
2.9587710249906687 0.37377970455142556 -0.18738131458572463
2.907858745853101 0.5547037223819654 -0.2789911060392292
2.8377321701019746 0.728605783693794 -0.368124552684678
2.7495105934811495 0.893370146823053 -0.4539904997395468
2.6445892232870842 1.0470669452639674 -0.5358267949789965
2.524607735771186 1.187990224526058 -0.6129070536529765
2.3914134378395167 1.3146906627685802 -0.6845471059286887
2.247019926362617 1.4260022072359475 -0.7501110696304596
2.0935622468974717 1.5210620073974728 -0.8090169943749475
1.933249637508576 1.5993231896723024 -0.8607420270039435
1.7683170005994753 1.660560193662615 -0.9048270524660195
1.6009762748295941 1.7048665716196165 -0.9408807689542256
1.4333688795841524 1.7326453369565158 -0.9685831611286311
1.2675203760858564 1.7445921294733953 -0.9876883405951378
1.1052984327924513 1.7416716400994092 -0.9980267284282716
0.9483750996112181 1.7250879020823149 -0.9995065603657316
0.798194287733576 1.6962492046300146 -0.9921147013144778
0.6559452222090683 1.656728515370553 -0.9759167619387474
0.5225424859373686 1.6082204064440704 -0.9510565162951536
0.3986131102199862 1.5524955629106585 -0.9177546256839813
0.2844909924117673 1.491354009395559 -0.8763066800438637
0.18021873984965434 1.4265782200973562 -0.8270805742745617
0.08555685558185903 1.3598872777459625 -0.7705132427757895
7.916687710296066e-17 1.2928932188134525 -0.7071067811865476
-0.077200112240519 1.2270606459583635 -0.6374239897486895
-0.1470057843365561 1.1636706057195418 -0.5620833778521305
-0.21055913148457836 1.1037896219219059 -0.4817536741017152
-0.2691434800233366 1.0482446457718484 -0.39714789063478106
-0.32414136260365817 0.9976045354028334 -0.3090169943749475
-0.3769901839231752 0.952168514341653 -0.21814324139654231
-0.42913668845317327 0.9119618840334546 -0.1253332335643041
-0.48199139045847167 0.8767390844915712 -0.031410759078128236
-0.5368841267608992 0.8459940137946246 0.06279051952931379
-0.595021864121899 0.8189773360624372 0.15643446504023073
-0.6574498365273694 0.7947203331723321 0.24868988716485502
-0.7250170044458031 0.7720646921310589 0.3387379202452915
-0.798346720352907 0.749697471725778 0.42577929156507227
-0.8778133551313636 0.7261903625001512 0.5090414157503709
-0.9635254915624211 0.7000422464373696 0.587785252292473
-1.055316127686846 0.6697239796396374 0.6613118653236514
-1.1527401583577224 0.633724264826589 0.7289686274214113
-1.2550792221395835 0.5905954520305453 0.7901550123756904
-1.3613538172961663 0.5389981061512483 0.8443279255020147
-1.4703424094769177 0.4777432090455998 0.8910065241883678
-1.5806070793288736 0.40583092085994443 0.9297764858882515
-1.6905250949283464 0.32248490896409376 0.960293685676943
-1.7983256456768242 0.22718136106204992 0.9822872507286885
-1.902130844797363 0.11967192917333021 0.99556196460308
-1.9999999999999998 2.449293598294706e-16 1.0
-2.089976068915723 -0.1314901489439236 0.99556196460308
-2.170133159581087 -0.27415157319516764 0.9822872507286886
-2.238623907986408 -0.4270403493788057 0.9602936856769431
-2.2937255651856514 -0.5889286277994754 0.9297764858882512
-2.333883655703697 -0.758324768454191 0.8910065241883676
-2.3577521262568384 -0.9335001045874646 0.844327925502015
-2.3642289877244944 -1.1125217142297446 0.7901550123756906
-2.3524865618177313 -1.2932904315802713 0.7289686274214122
-2.3219955743212135 -1.4735832002763487 0.6613118653236523
-2.2725424859373686 -1.6510987627325229 0.5877852522924734
-2.204239615971793 -1.8235055964946074 0.5090414157503712
-2.117527789332739 -1.9884909519889769 0.4257792915650722
-2.0131714192689523 -2.1438098175545863 0.3387379202452914
-1.8922461224673888 -2.287332637930825 0.2486898871648545
-1.7561191450479938 -2.4170906414373525 0.15643446504023112
-1.6064230531550867 -2.5313176882134365 0.06279051952931326
-1.4450233059483897 -2.628487635683883 -0.03141075907812787
-1.2739804778071158 -2.707346325830624 -0.12533323356430506
-1.0955080268155386 -2.766937429211352 -0.2181432413965411
-0.9119266148961318 -2.806621529777781 -0.3090169943749472
-0.725616068636084 -2.8260879987426764 -0.3971478906347799
-0.5389661268583203 -2.8253593809928486 -0.48175367410171566
-0.354327149920662 -2.804788199538369 -0.5620833778521305
-0.17396196587673404 -2.7650462677547223 -0.6374239897486899
-4.9728744817953e-16 -2.707106781186548 -0.7071067811865474
0.1656052225353933 -2.6322196359671244 -0.7705132427757887
0.32111419440756267 -2.541880585160556 -0.8270805742745616
0.4650342659311307 -2.437794993519197 -0.8763066800438631
0.5961464384394336 -2.321837081603866 -0.9177546256839813
0.7135254915624208 -2.1960056587365444 -0.9510565162951535
0.8165529885296441 -2.0623774281824514 -0.9759167619387477
0.9049228785267134 -1.9230590052340657 -0.9921147013144777
0.978639596795642 -1.7801388180931401 -0.9995065603657316
1.0380087471235342 -1.6356400619086526 -0.9980267284282716
1.0836206330840363 -1.4914758480263957 -0.9876883405951379
1.1163270794106055 -1.3494076341466417 -0.9685831611286311
1.1372121488851603 -1.21100793806603 -0.9408807689542257
1.1475575090861714 -1.0776282300521405 -0.90482705246602
1.148803333594581 -0.9503727693224562 -0.8607420270039435
1.142505730602318 -0.8300790017724204 -0.8090169943749477
1.1302917756454427 -0.7173049726800381 -0.7501110696304589
1.1138132823359377 -0.6123240336382811 -0.6845471059286884
1.0947004740928914 -0.5151269417342317 -0.6129070536529753
1.0745167202659218 -0.42543126547474547 -0.5358267949789972
1.0547154716994642 -0.3426978306767367 -0.4539904997395463
1.0366004744125499 -0.26615376496562587 -0.3681245526846796
1.0212902570616538 -0.19482153596093313 -0.2789911060392298
1.0096877802672433 -0.12755322970579192 -0.18738131458572568
1.0024560063761085 -0.06306918607757535 -0.09410831331851414
1.0 -2.4492935982947064e-16 -3.6739403974420594e-16
1.0024560063761085 0.06306918607757486 0.09410831331851342
1.0096877802672433 0.12755322970579142 0.18738131458572496
1.0212902570616533 0.19482153596093255 0.27899110603922905
1.03660047441255 0.2661537649656254 0.3681245526846789
1.054715471699464 0.34269783067673604 0.45399049973954564
1.0745167202659218 0.4254312654747448 0.5358267949789965
1.0947004740928918 0.5151269417342325 0.612907053652976
1.113813282335938 0.6123240336382818 0.6845471059286892
1.1302917756454431 0.7173049726800391 0.7501110696304596
1.1425057306023183 0.8300790017724212 0.8090169943749482
1.1488033335945815 0.9503727693224571 0.8607420270039441
1.1475575090861705 1.0776282300521407 0.9048270524660197
1.1372121488851603 1.2110079380660266 0.9408807689542248
1.1163270794106068 1.3494076341466397 0.968583161128631
1.083620633084037 1.4914758480263923 0.9876883405951375
1.0380087471235353 1.635640061908649 0.9980267284282714
0.9786395967956442 1.780138818093138 0.9995065603657316
0.9049228785267148 1.9230590052340621 0.992114701314478
0.8165529885296449 2.0623774281824505 0.9759167619387478
0.7135254915624217 2.196005658736543 0.9510565162951538
0.5961464384394345 2.3218370816038645 0.9177546256839816
0.4650342659311318 2.437794993519196 0.8763066800438635
0.3211141944075639 2.5418805851605546 0.8270805742745619
0.1656052225353946 2.6322196359671244 0.7705132427757886
8.288124136325497e-16 2.7071067811865466 0.7071067811865485
-0.17396196587673265 2.7650462677547223 0.6374239897486897
-0.35432714992066067 2.804788199538369 0.5620833778521311
-0.5389661268583216 2.825359380992849 0.48175367410171477
-0.7256160686360824 2.826087998742676 0.39714789063478056
-0.9119266148961306 2.806621529777781 0.3090169943749479
-1.0955080268155348 2.7669374292113535 0.21814324139654354
-1.2739804778071193 2.7073463258306227 0.125333233564304
-1.4450233059483908 2.6284876356838827 0.03141075907812683
-1.6064230531550876 2.531317688213436 -0.06279051952931253
-1.7561191450479927 2.4170906414373534 -0.15643446504023126
-1.8922461224673917 2.2873326379308225 -0.24868988716485638
-2.0131714192689527 2.143809817554585 -0.3387379202452924
-2.117527789332737 1.9884909519889808 -0.42577929156506994
-2.2042396159717907 1.823505596494612 -0.5090414157503698
-2.272542485937368 1.6510987627325238 -0.5877852522924727
-2.321995574321213 1.4735832002763511 -0.661311865323651
-2.352486561817731 1.2932904315802756 -0.7289686274214104
-2.364228987724494 1.1125217142297497 -0.7901550123756891
-2.357752126256838 0.9335001045874634 -0.8443279255020155
-2.3338836557036973 0.7583247684541913 -0.8910065241883672
-2.293725565185651 0.5889286277994765 -0.9297764858882513
-2.2386239079864096 0.4270403493788082 -0.9602936856769424
-2.1701331595810855 0.27415157319516664 -0.9822872507286888
-2.089976068915723 0.13149014894392372 -0.99556196460308
-2.0000000000000004 7.347880794884121e-16 -1.0
-1.9021308447973646 -0.11967192917332853 -0.9955619646030801
-1.798325645676827 -0.22718136106204775 -0.9822872507286889
-1.6905250949283452 -0.3224849089640935 -0.9602936856769427
-1.5806070793288745 -0.40583092085994454 -0.9297764858882518
-1.4703424094769177 -0.4777432090455991 -0.8910065241883677
-1.3613538172961688 -0.5389981061512477 -0.8443279255020162
-1.2550792221395828 -0.5905954520305455 -0.7901550123756897
-1.1527401583577224 -0.6337242648265888 -0.7289686274214112
-1.0553161276868466 -0.669723979639637 -0.6613118653236519
-0.9635254915624217 -0.7000422464373693 -0.5877852522924736
-0.8778133551313628 -0.7261903625001519 -0.5090414157503708
-0.7983467203529061 -0.7496974717257778 -0.42577929156507094
-0.7250170044458047 -0.7720646921310587 -0.3387379202452934
-0.6574498365273712 -0.7947203331723315 -0.24868988716485743
-0.5950218641218997 -0.8189773360624373 -0.15643446504023234
-0.5368841267608996 -0.8459940137946242 -0.06279051952931362
-0.4819913904584725 -0.8767390844915708 0.031410759078125725
-0.42913668845317454 -0.911961884033454 0.12533323356430293
-0.37699018392317524 -0.952168514341653 0.21814324139654245
-0.3241413626036585 -0.9976045354028326 0.3090169943749451
-0.2691434800233375 -1.0482446457718477 0.39714789063477957
-0.2105591314845794 -1.1037896219219059 0.4817536741017154
-0.1470057843365557 -1.1636706057195427 0.5620833778521317
-0.07720011224051902 -1.227060645958363 0.637423989748689
-5.541681397207246e-16 -1.2928932188134525 0.7071067811865477
0.08555685558185765 -1.3598872777459605 0.7705132427757879
0.18021873984965264 -1.4265782200973558 0.8270805742745614
0.28449099241176756 -1.491354009395559 0.8763066800438638
0.39861311021998536 -1.5524955629106572 0.9177546256839804
0.5225424859373676 -1.6082204064440702 0.9510565162951534
0.6559452222090668 -1.656728515370554 0.9759167619387475
0.7981942877335778 -1.6962492046300155 0.9921147013144781
0.9483750996112187 -1.7250879020823142 0.9995065603657315
1.1052984327924515 -1.7416716400994094 0.9980267284282716
1.2675203760858549 -1.7445921294733946 0.987688340595138
1.4333688795841562 -1.7326453369565167 0.9685831611286303
1.6009762748295964 -1.7048665716196165 0.9408807689542251
1.7683170005994717 -1.6605601936626173 0.9048270524660201
1.9332496375085704 -1.5993231896723044 0.8607420270039455
2.0935622468974717 -1.521062007397474 0.8090169943749468
2.247019926362615 -1.4260022072359488 0.7501110696304604
2.3914134378395127 -1.3146906627685817 0.6845471059286913
2.524607735771183 -1.1879902245260612 0.6129070536529783
2.644589223287083 -1.0470669452639674 0.5358267949789975
2.7495105934811495 -0.8933701468230545 0.45399049973954664
2.8377321701019733 -0.7286057836937961 0.36812455268468
2.9078587458531007 -0.5547037223819689 0.2789911060392301
2.9587710249906687 -0.37377970455142484 0.1873813145857243
2.9896509073369777 -0.18809289203967844 0.09410831331851274
3 0 1 2
